  0
SECTION
  2
HEADER
  9
$ACADVER
  1
AC1006
  9
$EXTMIN
 10
0.000000
 20
0.000000
 30
0.000000
  9
$EXTMAX
 10
1094.000000
 20
1094.000000
 30
0.000000
  0
ENDSEC
  0
SECTION
  2
ENTITIES
  0
POLYLINE
  8
0
 66
1
 70
1
  0
VERTEX
  8
0
 10
156.000000
 20
578.834993
 42
0.000000
  0
VERTEX
  8
0
 10
156.000000
 20
188.669985
 42
0.000000
  0
VERTEX
  8
0
 10
255.750000
 20
189.334440
 42
-0.001031
  0
VERTEX
  8
0
 10
311.847600
 20
189.592493
 42
-0.000208
  0
VERTEX
  8
0
 10
411.459375
 20
189.803874
 42
-0.000220
  0
VERTEX
  8
0
 10
527.312811
 20
189.950458
 42
-0.000206
  0
VERTEX
  8
0
 10
645.750000
 20
189.999448
 42
0.000000
  0
VERTEX
  8
0
 10
936.000000
 20
190.000000
 42
0.000000
  0
VERTEX
  8
0
 10
936.000000
 20
579.500000
 42
0.000000
  0
VERTEX
  8
0
 10
936.000000
 20
969.000000
 42
0.000000
  0
VERTEX
  8
0
 10
546.000000
 20
969.000000
 42
0.000000
  0
VERTEX
  8
0
 10
156.000000
 20
969.000000
 42
0.000000
  0
SEQEND
  0
POLYLINE
  8
0
 66
1
 70
1
  0
VERTEX
  8
0
 10
191.415186
 20
129.578588
 42
0.170678
  0
VERTEX
  8
0
 10
184.718387
 20
123.355562
 42
0.121500
  0
VERTEX
  8
0
 10
182.241371
 20
113.326601
 42
0.120750
  0
VERTEX
  8
0
 10
184.707863
 20
103.248068
 42
0.167580
  0
VERTEX
  8
0
 10
191.404537
 20
96.903882
 42
0.070861
  0
VERTEX
  8
0
 10
196.845239
 20
95.310978
 42
0.081944
  0
VERTEX
  8
0
 10
202.239806
 20
95.419914
 42
0.087002
  0
VERTEX
  8
0
 10
207.055541
 20
97.217630
 42
0.093631
  0
VERTEX
  8
0
 10
210.832100
 20
100.513679
 42
0.055876
  0
VERTEX
  8
0
 10
213.097525
 20
104.168530
 42
0.426783
  0
VERTEX
  8
0
 10
212.452785
 20
105.863333
 42
0.265576
  0
VERTEX
  8
0
 10
210.052945
 20
105.577254
 42
0.044240
  0
VERTEX
  8
0
 10
206.443787
 20
102.371720
 42
-0.019899
  0
VERTEX
  8
0
 10
204.266218
 20
100.239534
 42
-0.095163
  0
VERTEX
  8
0
 10
202.786054
 20
99.341541
 42
-0.093969
  0
VERTEX
  8
0
 10
201.069583
 20
99.050114
 42
-0.019148
  0
VERTEX
  8
0
 10
197.978306
 20
99.228063
 42
-0.058123
  0
VERTEX
  8
0
 10
193.807015
 20
100.125467
 42
-0.096897
  0
VERTEX
  8
0
 10
190.701971
 20
101.908306
 42
-0.099036
  0
VERTEX
  8
0
 10
188.541546
 20
104.697951
 42
-0.062934
  0
VERTEX
  8
0
 10
187.183036
 20
108.589915
 42
-0.077136
  0
VERTEX
  8
0
 10
186.781184
 20
115.737390
 42
-0.113169
  0
VERTEX
  8
0
 10
188.772868
 20
121.684030
 42
-0.131492
  0
VERTEX
  8
0
 10
192.866364
 20
125.580535
 42
-0.125468
  0
VERTEX
  8
0
 10
198.433989
 20
127.000000
 42
-0.022401
  0
VERTEX
  8
0
 10
202.222170
 20
126.830194
 42
-0.083813
  0
VERTEX
  8
0
 10
204.518791
 20
126.227040
 42
-0.111355
  0
VERTEX
  8
0
 10
206.136708
 20
125.007629
 42
-0.056533
  0
VERTEX
  8
0
 10
207.562665
 20
122.878819
 42
0.045060
  0
VERTEX
  8
0
 10
208.298303
 20
121.724296
 42
0.055027
  0
VERTEX
  8
0
 10
209.186824
 20
120.803040
 42
0.062867
  0
VERTEX
  8
0
 10
210.129448
 20
120.201545
 42
0.111053
  0
VERTEX
  8
0
 10
211.025680
 20
120.000000
 42
0.104638
  0
VERTEX
  8
0
 10
212.345893
 20
120.279347
 42
0.268347
  0
VERTEX
  8
0
 10
212.900010
 20
121.040255
 42
0.125345
  0
VERTEX
  8
0
 10
212.697109
 20
122.436518
 42
0.020891
  0
VERTEX
  8
0
 10
211.544051
 20
124.914815
 42
0.138528
  0
VERTEX
  8
0
 10
208.361756
 20
128.313331
 42
0.078979
  0
VERTEX
  8
0
 10
203.108785
 20
130.443837
 42
0.073374
  0
VERTEX
  8
0
 10
197.023582
 20
130.938997
 42
0.086553
  0
SEQEND
  0
POLYLINE
  8
0
 66
1
 70
1
  0
VERTEX
  8
0
 10
259.701236
 20
130.367903
 42
0.186390
  0
VERTEX
  8
0
 10
259.417979
 20
129.728201
 42
0.002081
  0
VERTEX
  8
0
 10
259.205988
 20
124.927863
 42
0.006098
  0
VERTEX
  8
0
 10
259.050648
 20
119.336228
 42
0.003894
  0
VERTEX
  8
0
 10
259.000000
 20
112.833333
 42
0.000000
  0
VERTEX
  8
0
 10
259.000000
 20
96.000000
 42
0.000000
  0
VERTEX
  8
0
 10
261.500000
 20
96.000000
 42
0.093656
  0
VERTEX
  8
0
 10
262.948613
 20
96.273745
 42
0.227396
  0
VERTEX
  8
0
 10
263.671875
 20
97.050000
 42
0.071364
  0
VERTEX
  8
0
 10
263.953338
 20
98.789706
 42
0.004478
  0
VERTEX
  8
0
 10
264.000000
 20
104.000000
 42
0.000000
  0
VERTEX
  8
0
 10
264.000000
 20
112.000000
 42
0.000000
  0
VERTEX
  8
0
 10
273.000000
 20
112.000000
 42
0.000000
  0
VERTEX
  8
0
 10
282.000000
 20
112.000000
 42
0.000000
  0
VERTEX
  8
0
 10
282.000000
 20
104.000000
 42
0.005351
  0
VERTEX
  8
0
 10
282.051385
 20
99.198839
 42
0.055952
  0
VERTEX
  8
0
 10
282.312500
 20
97.250000
 42
0.176663
  0
VERTEX
  8
0
 10
282.921799
 20
96.349175
 42
0.157888
  0
VERTEX
  8
0
 10
284.000000
 20
96.000000
 42
0.267644
  0
VERTEX
  8
0
 10
285.131287
 20
96.652291
 42
0.103099
  0
VERTEX
  8
0
 10
285.721429
 20
98.437500
 42
0.026629
  0
VERTEX
  8
0
 10
285.959338
 20
102.362042
 42
0.001825
  0
VERTEX
  8
0
 10
286.000000
 20
113.500000
 42
0.001825
  0
VERTEX
  8
0
 10
285.959338
 20
124.637958
 42
0.026629
  0
VERTEX
  8
0
 10
285.721429
 20
128.562500
 42
0.103099
  0
VERTEX
  8
0
 10
285.131287
 20
130.347709
 42
0.267644
  0
VERTEX
  8
0
 10
284.000000
 20
131.000000
 42
0.157888
  0
VERTEX
  8
0
 10
282.921799
 20
130.650825
 42
0.176663
  0
VERTEX
  8
0
 10
282.312500
 20
129.750000
 42
0.055952
  0
VERTEX
  8
0
 10
282.051385
 20
127.801161
 42
0.005351
  0
VERTEX
  8
0
 10
282.000000
 20
123.000000
 42
0.000000
  0
VERTEX
  8
0
 10
282.000000
 20
115.000000
 42
0.000000
  0
VERTEX
  8
0
 10
273.042064
 20
115.000000
 42
0.000000
  0
VERTEX
  8
0
 10
264.084129
 20
115.000000
 42
0.000000
  0
VERTEX
  8
0
 10
263.792064
 20
122.739156
 42
0.008421
  0
VERTEX
  8
0
 10
263.577277
 20
126.671754
 42
0.038474
  0
VERTEX
  8
0
 10
263.239274
 20
128.933965
 42
0.076427
  0
VERTEX
  8
0
 10
262.726160
 20
130.226948
 42
0.216275
  0
VERTEX
  8
0
 10
261.951236
 20
130.773725
 42
0.047014
  0
VERTEX
  8
0
 10
261.306808
 20
130.834818
 42
0.044782
  0
VERTEX
  8
0
 10
260.651434
 20
130.776373
 42
0.048101
  0
VERTEX
  8
0
 10
260.081091
 20
130.615714
 42
0.104047
  0
SEQEND
  0
POLYLINE
  8
0
 66
1
 70
1
  0
VERTEX
  8
0
 10
343.519083
 20
129.820137
 42
-0.002000
  0
VERTEX
  8
0
 10
341.864858
 20
125.250923
 42
-0.000175
  0
VERTEX
  8
0
 10
337.623865
 20
113.694009
 42
-0.000119
  0
VERTEX
  8
0
 10
333.244485
 20
101.781702
 42
-0.003488
  0
VERTEX
  8
0
 10
332.105031
 20
98.750000
 42
0.016380
  0
VERTEX
  8
0
 10
331.538496
 20
97.115925
 42
0.181044
  0
VERTEX
  8
0
 10
331.577410
 20
96.436731
 42
0.260371
  0
VERTEX
  8
0
 10
332.040979
 20
96.087296
 42
0.034137
  0
VERTEX
  8
0
 10
333.318096
 20
96.000000
 42
0.097036
  0
VERTEX
  8
0
 10
334.501711
 20
96.231891
 42
0.113467
  0
VERTEX
  8
0
 10
335.436273
 20
96.889117
 42
0.073986
  0
VERTEX
  8
0
 10
336.257937
 20
98.131755
 42
0.021727
  0
VERTEX
  8
0
 10
337.136283
 20
100.250000
 42
0.000000
  0
VERTEX
  8
0
 10
338.685874
 20
104.500000
 42
0.000000
  0
VERTEX
  8
0
 10
346.092937
 20
104.500000
 42
0.000000
  0
VERTEX
  8
0
 10
353.500000
 20
104.500000
 42
0.000000
  0
VERTEX
  8
0
 10
354.969166
 20
100.250000
 42
0.021586
  0
VERTEX
  8
0
 10
355.808031
 20
98.125065
 42
0.075108
  0
VERTEX
  8
0
 10
356.601180
 20
96.885163
 42
0.116196
  0
VERTEX
  8
0
 10
357.516594
 20
96.231067
 42
0.097573
  0
VERTEX
  8
0
 10
358.689393
 20
96.000000
 42
0.179318
  0
VERTEX
  8
0
 10
359.800747
 20
96.411813
 42
0.258164
  0
VERTEX
  8
0
 10
360.158184
 20
97.373735
 42
0.046742
  0
VERTEX
  8
0
 10
359.605090
 20
99.605450
 42
0.002310
  0
VERTEX
  8
0
 10
357.069950
 20
106.750000
 42
0.001407
  0
VERTEX
  8
0
 10
351.623043
 20
121.745770
 42
0.018671
  0
VERTEX
  8
0
 10
349.394879
 20
127.188591
 42
0.055795
  0
VERTEX
  8
0
 10
347.820170
 20
129.831304
 42
0.196144
  0
VERTEX
  8
0
 10
346.150073
 20
130.820137
 42
0.059734
  0
VERTEX
  8
0
 10
345.289357
 20
130.844141
 42
0.068049
  0
VERTEX
  8
0
 10
344.486626
 20
130.658443
 42
0.078419
  0
VERTEX
  8
0
 10
343.861374
 20
130.300664
 42
0.138674
  0
SEQEND
  0
POLYLINE
  8
0
 66
1
 70
1
  0
VERTEX
  8
0
 10
349.064794
 20
117.250000
 42
0.000592
  0
VERTEX
  8
0
 10
349.951645
 20
114.573646
 42
0.000761
  0
VERTEX
  8
0
 10
350.773537
 20
112.115625
 42
0.000580
  0
VERTEX
  8
0
 10
351.468080
 20
110.056838
 42
0.006641
  0
VERTEX
  8
0
 10
351.753313
 20
109.250000
 42
-0.333463
  0
VERTEX
  8
0
 10
351.581311
 20
108.674968
 42
-0.105797
  0
VERTEX
  8
0
 10
350.714165
 20
108.281878
 42
-0.043681
  0
VERTEX
  8
0
 10
348.978406
 20
108.059377
 42
-0.010047
  0
VERTEX
  8
0
 10
346.023655
 20
108.000000
 42
-0.009838
  0
VERTEX
  8
0
 10
343.053406
 20
108.058451
 42
-0.044358
  0
VERTEX
  8
0
 10
341.333604
 20
108.279815
 42
-0.112607
  0
VERTEX
  8
0
 10
340.497244
 20
108.674517
 42
-0.335324
  0
VERTEX
  8
0
 10
340.345074
 20
109.250000
 42
0.012424
  0
VERTEX
  8
0
 10
340.652920
 20
110.058699
 42
0.001105
  0
VERTEX
  8
0
 10
341.372841
 20
112.115625
 42
0.001442
  0
VERTEX
  8
0
 10
342.219124
 20
114.573658
 42
0.001123
  0
VERTEX
  8
0
 10
343.125241
 20
117.250000
 42
-0.008993
  0
VERTEX
  8
0
 10
344.046857
 20
119.837327
 42
-0.014205
  0
VERTEX
  8
0
 10
344.939297
 20
122.017188
 42
-0.008134
  0
VERTEX
  8
0
 10
345.750569
 20
123.771008
 42
-0.287898
  0
VERTEX
  8
0
 10
346.115303
 20
124.000000
 42
-0.289203
  0
VERTEX
  8
0
 10
346.478786
 20
123.770570
 42
-0.008188
  0
VERTEX
  8
0
 10
347.279391
 20
122.017188
 42
-0.014266
  0
VERTEX
  8
0
 10
348.158728
 20
119.837335
 42
-0.009026
  0
SEQEND
  0
POLYLINE
  8
0
 66
1
 70
1
  0
VERTEX
  8
0
 10
414.500000
 20
129.652443
 42
0.157240
  0
VERTEX
  8
0
 10
407.701340
 20
123.409131
 42
0.125487
  0
VERTEX
  8
0
 10
405.067759
 20
113.756728
 42
0.124275
  0
VERTEX
  8
0
 10
407.370284
 20
103.949097
 42
0.152795
  0
VERTEX
  8
0
 10
413.960023
 20
97.302739
 42
0.051638
  0
VERTEX
  8
0
 10
418.010751
 20
95.669556
 42
0.069303
  0
VERTEX
  8
0
 10
421.924715
 20
95.111296
 42
0.068866
  0
VERTEX
  8
0
 10
425.861246
 20
95.642867
 42
0.050205
  0
VERTEX
  8
0
 10
429.979568
 20
97.250000
 42
0.046839
  0
VERTEX
  8
0
 10
434.318392
 20
100.006619
 42
0.104199
  0
VERTEX
  8
0
 10
436.838422
 20
102.977101
 42
0.092536
  0
VERTEX
  8
0
 10
438.115664
 20
106.946011
 42
0.031710
  0
VERTEX
  8
0
 10
438.500000
 20
113.000000
 42
0.026992
  0
VERTEX
  8
0
 10
438.199301
 20
118.566029
 42
0.077258
  0
VERTEX
  8
0
 10
437.198011
 20
122.297630
 42
0.087300
  0
VERTEX
  8
0
 10
435.193984
 20
125.287340
 42
0.041221
  0
VERTEX
  8
0
 10
431.701649
 20
128.373429
 42
0.101901
  0
VERTEX
  8
0
 10
428.403567
 20
129.918956
 42
0.040248
  0
VERTEX
  8
0
 10
423.429092
 20
130.694554
 42
0.040333
  0
VERTEX
  8
0
 10
418.309932
 20
130.661769
 42
0.086185
  0
SEQEND
  0
POLYLINE
  8
0
 66
1
 70
1
  0
VERTEX
  8
0
 10
428.914815
 20
125.544051
 42
-0.100104
  0
VERTEX
  8
0
 10
431.640493
 20
123.354323
 42
-0.076948
  0
VERTEX
  8
0
 10
433.610676
 20
120.074017
 42
-0.067341
  0
VERTEX
  8
0
 10
434.682335
 20
115.925459
 42
-0.050306
  0
VERTEX
  8
0
 10
434.766453
 20
111.197272
 42
-0.021048
  0
VERTEX
  8
0
 10
434.370036
 20
108.038087
 42
-0.068303
  0
VERTEX
  8
0
 10
433.740621
 20
106.026980
 42
-0.072120
  0
VERTEX
  8
0
 10
432.612460
 20
104.318851
 42
-0.025327
  0
VERTEX
  8
0
 10
430.543621
 20
102.220571
 42
-0.020696
  0
VERTEX
  8
0
 10
428.178521
 20
100.226720
 42
-0.085803
  0
VERTEX
  8
0
 10
426.534583
 20
99.354375
 42
-0.082055
  0
VERTEX
  8
0
 10
424.656817
 20
99.064944
 42
-0.017984
  0
VERTEX
  8
0
 10
421.381867
 20
99.218239
 42
-0.054762
  0
VERTEX
  8
0
 10
417.066270
 20
100.057855
 42
-0.092348
  0
VERTEX
  8
0
 10
413.815558
 20
101.774011
 42
-0.096166
  0
VERTEX
  8
0
 10
411.486645
 20
104.488271
 42
-0.063676
  0
VERTEX
  8
0
 10
409.919893
 20
108.297493
 42
-0.057682
  0
VERTEX
  8
0
 10
409.277590
 20
112.611682
 42
-0.065637
  0
VERTEX
  8
0
 10
409.688323
 20
116.766924
 42
-0.068262
  0
VERTEX
  8
0
 10
411.133224
 20
120.537707
 42
-0.070908
  0
VERTEX
  8
0
 10
413.526097
 20
123.726097
 42
-0.027416
  0
VERTEX
  8
0
 10
415.452291
 20
125.451892
 42
-0.071104
  0
VERTEX
  8
0
 10
417.052996
 20
126.397942
 42
-0.070917
  0
VERTEX
  8
0
 10
418.857162
 20
126.859053
 42
-0.027164
  0
VERTEX
  8
0
 10
421.449660
 20
127.000000
 42
-0.026836
  0
VERTEX
  8
0
 10
423.436229
 20
126.893300
 42
-0.021327
  0
VERTEX
  8
0
 10
425.560534
 20
126.572315
 42
-0.021804
  0
VERTEX
  8
0
 10
427.508117
 20
126.103513
 42
-0.049398
  0
SEQEND
  0
POLYLINE
  8
0
 66
1
 70
1
  0
VERTEX
  8
0
 10
487.923077
 20
128.076923
 42
0.122820
  0
VERTEX
  8
0
 10
485.342678
 20
123.781741
 42
0.168158
  0
VERTEX
  8
0
 10
485.506601
 20
119.308856
 42
0.141523
  0
VERTEX
  8
0
 10
488.533850
 20
115.335026
 42
0.079650
  0
VERTEX
  8
0
 10
493.956095
 20
112.514583
 42
-0.031085
  0
VERTEX
  8
0
 10
498.177072
 20
110.814797
 42
-0.055928
  0
VERTEX
  8
0
 10
501.341878
 20
108.845054
 42
-0.074254
  0
VERTEX
  8
0
 10
503.328887
 20
106.729607
 42
-0.152635
  0
VERTEX
  8
0
 10
504.000000
 20
104.582407
 42
-0.119987
  0
VERTEX
  8
0
 10
503.415042
 20
102.179922
 42
-0.127561
  0
VERTEX
  8
0
 10
501.798598
 20
100.378815
 42
-0.104203
  0
VERTEX
  8
0
 10
499.213474
 20
99.352361
 42
-0.060628
  0
VERTEX
  8
0
 10
495.865872
 20
99.187508
 42
-0.027239
  0
VERTEX
  8
0
 10
493.493082
 20
99.488957
 42
-0.081596
  0
VERTEX
  8
0
 10
491.958801
 20
100.038018
 42
-0.089338
  0
VERTEX
  8
0
 10
490.759084
 20
101.017538
 42
-0.036978
  0
VERTEX
  8
0
 10
489.513666
 20
102.711480
 42
0.061947
  0
VERTEX
  8
0
 10
487.779923
 20
104.838919
 42
0.128357
  0
VERTEX
  8
0
 10
485.920872
 20
105.873813
 42
0.259966
  0
VERTEX
  8
0
 10
484.593285
 20
105.526280
 42
0.204296
  0
VERTEX
  8
0
 10
484.000000
 20
104.134859
 42
0.127823
  0
VERTEX
  8
0
 10
484.607675
 20
101.796683
 42
0.064939
  0
VERTEX
  8
0
 10
486.430568
 20
99.339289
 42
0.060176
  0
VERTEX
  8
0
 10
489.030054
 20
97.225719
 42
0.067944
  0
VERTEX
  8
0
 10
491.957187
 20
95.894681
 42
0.086906
  0
VERTEX
  8
0
 10
497.896718
 20
95.192234
 42
0.113472
  0
VERTEX
  8
0
 10
503.136088
 20
96.708120
 42
0.130472
  0
VERTEX
  8
0
 10
506.694141
 20
100.138241
 42
0.136902
  0
VERTEX
  8
0
 10
508.000000
 20
104.818182
 42
0.091903
  0
VERTEX
  8
0
 10
507.356169
 20
108.291373
 42
0.103236
  0
VERTEX
  8
0
 10
505.518175
 20
111.144282
 42
0.080520
  0
VERTEX
  8
0
 10
502.278075
 20
113.516809
 42
0.036107
  0
VERTEX
  8
0
 10
497.400593
 20
115.574159
 42
-0.036998
  0
VERTEX
  8
0
 10
493.212563
 20
117.349481
 42
-0.091917
  0
VERTEX
  8
0
 10
490.588964
 20
119.378204
 42
-0.146088
  0
VERTEX
  8
0
 10
489.550554
 20
121.588906
 42
-0.161483
  0
VERTEX
  8
0
 10
489.951846
 20
123.910024
 42
-0.126448
  0
VERTEX
  8
0
 10
492.351219
 20
126.522214
 42
-0.134920
  0
VERTEX
  8
0
 10
495.654599
 20
127.573304
 42
-0.134298
  0
VERTEX
  8
0
 10
499.042849
 20
126.790105
 42
-0.124791
  0
VERTEX
  8
0
 10
501.672432
 20
124.377180
 42
0.091530
  0
VERTEX
  8
0
 10
503.168063
 20
122.811725
 42
0.119706
  0
VERTEX
  8
0
 10
504.994514
 20
122.066554
 42
0.194625
  0
VERTEX
  8
0
 10
506.395249
 20
122.402438
 42
0.242334
  0
VERTEX
  8
0
 10
507.000000
 20
123.576923
 42
0.115959
  0
VERTEX
  8
0
 10
506.812648
 20
124.373898
 42
0.028583
  0
VERTEX
  8
0
 10
506.141346
 20
125.549279
 42
0.027718
  0
VERTEX
  8
0
 10
505.195777
 20
126.842082
 42
0.024625
  0
VERTEX
  8
0
 10
504.076923
 20
128.076923
 42
0.034195
  0
VERTEX
  8
0
 10
502.312711
 20
129.615022
 42
0.075500
  0
VERTEX
  8
0
 10
500.746639
 20
130.466418
 42
0.065802
  0
VERTEX
  8
0
 10
498.864647
 20
130.879026
 42
0.021106
  0
VERTEX
  8
0
 10
496.000000
 20
131.000000
 42
0.021106
  0
VERTEX
  8
0
 10
493.135353
 20
130.879026
 42
0.065802
  0
VERTEX
  8
0
 10
491.253361
 20
130.466418
 42
0.075500
  0
VERTEX
  8
0
 10
489.687289
 20
129.615022
 42
0.034195
  0
SEQEND
  0
POLYLINE
  8
0
 66
1
 70
1
  0
VERTEX
  8
0
 10
618.000000
 20
128.819139
 42
0.065370
  0
VERTEX
  8
0
 10
614.839171
 20
126.026577
 42
0.074271
  0
VERTEX
  8
0
 10
612.665153
 20
122.622475
 42
0.066033
  0
VERTEX
  8
0
 10
611.413320
 20
118.399904
 42
0.039042
  0
VERTEX
  8
0
 10
611.001554
 20
113.151129
 42
0.079496
  0
VERTEX
  8
0
 10
612.383818
 20
104.498607
 42
0.130333
  0
VERTEX
  8
0
 10
616.402600
 20
98.314536
 42
0.146693
  0
VERTEX
  8
0
 10
622.565894
 20
95.382757
 42
0.111406
  0
VERTEX
  8
0
 10
630.070182
 20
95.902881
 42
0.084645
  0
VERTEX
  8
0
 10
634.074086
 20
97.886532
 42
0.092603
  0
VERTEX
  8
0
 10
637.050518
 20
101.035453
 42
0.080784
  0
VERTEX
  8
0
 10
638.963354
 20
105.420308
 42
0.048460
  0
VERTEX
  8
0
 10
639.832889
 20
111.048336
 42
0.052849
  0
VERTEX
  8
0
 10
639.428070
 20
119.277275
 42
0.108052
  0
VERTEX
  8
0
 10
637.102270
 20
125.273294
 42
0.130422
  0
VERTEX
  8
0
 10
632.847819
 20
129.051079
 42
0.096964
  0
VERTEX
  8
0
 10
626.772127
 20
130.754965
 42
0.020426
  0
VERTEX
  8
0
 10
623.890322
 20
130.868131
 42
0.053952
  0
VERTEX
  8
0
 10
621.840848
 20
130.643024
 42
0.061195
  0
VERTEX
  8
0
 10
620.039681
 20
130.007026
 42
0.032859
  0
SEQEND
  0
POLYLINE
  8
0
 66
1
 70
1
  0
VERTEX
  8
0
 10
631.700723
 20
124.750000
 42
-0.036083
  0
VERTEX
  8
0
 10
633.801225
 20
122.080253
 42
-0.060896
  0
VERTEX
  8
0
 10
635.096669
 20
119.547896
 42
-0.058075
  0
VERTEX
  8
0
 10
635.780613
 20
116.693646
 42
-0.029801
  0
VERTEX
  8
0
 10
636.000000
 20
113.016082
 42
-0.063734
  0
VERTEX
  8
0
 10
635.271134
 20
107.321234
 42
-0.097396
  0
VERTEX
  8
0
 10
633.117181
 20
102.848174
 42
-0.115059
  0
VERTEX
  8
0
 10
629.745673
 20
100.015672
 42
-0.117949
  0
VERTEX
  8
0
 10
625.500000
 20
99.000000
 42
-0.122435
  0
VERTEX
  8
0
 10
621.345926
 20
100.032688
 42
-0.109594
  0
VERTEX
  8
0
 10
617.959128
 20
102.918105
 42
-0.094217
  0
VERTEX
  8
0
 10
615.752825
 20
107.382797
 42
-0.067877
  0
VERTEX
  8
0
 10
615.000000
 20
112.902782
 42
-0.061769
  0
VERTEX
  8
0
 10
615.717697
 20
118.690162
 42
-0.098674
  0
VERTEX
  8
0
 10
617.848453
 20
123.175689
 42
-0.117530
  0
VERTEX
  8
0
 10
621.212996
 20
125.990256
 42
-0.116178
  0
VERTEX
  8
0
 10
625.500000
 20
127.000000
 42
-0.030029
  0
VERTEX
  8
0
 10
627.561372
 20
126.876087
 42
-0.057063
  0
VERTEX
  8
0
 10
629.175931
 20
126.491089
 42
-0.065677
  0
VERTEX
  8
0
 10
630.507509
 20
125.799120
 42
-0.055461
  0
SEQEND
  0
POLYLINE
  8
0
 66
1
 70
1
  0
VERTEX
  8
0
 10
692.641297
 20
129.102114
 42
0.090052
  0
VERTEX
  8
0
 10
688.666336
 20
125.305177
 42
0.082267
  0
VERTEX
  8
0
 10
686.126435
 20
120.236377
 42
0.074370
  0
VERTEX
  8
0
 10
685.196268
 20
114.159341
 42
0.055953
  0
VERTEX
  8
0
 10
685.928567
 20
107.428589
 42
0.120079
  0
VERTEX
  8
0
 10
689.513179
 20
100.178494
 42
0.136684
  0
VERTEX
  8
0
 10
695.886275
 20
95.809776
 42
0.145566
  0
VERTEX
  8
0
 10
703.285570
 20
95.512613
 42
0.141905
  0
VERTEX
  8
0
 10
709.729999
 20
99.296206
 42
0.057094
  0
VERTEX
  8
0
 10
712.270319
 20
102.680369
 42
0.058136
  0
VERTEX
  8
0
 10
713.961092
 20
106.531350
 42
0.055506
  0
VERTEX
  8
0
 10
714.772589
 20
110.827975
 42
0.044684
  0
VERTEX
  8
0
 10
714.708915
 20
115.531399
 42
0.036625
  0
VERTEX
  8
0
 10
713.892687
 20
120.119441
 42
0.057372
  0
VERTEX
  8
0
 10
712.467671
 20
123.861047
 42
0.065575
  0
VERTEX
  8
0
 10
710.407742
 20
126.811646
 42
0.070821
  0
VERTEX
  8
0
 10
707.701451
 20
129.040484
 42
0.079391
  0
VERTEX
  8
0
 10
704.222464
 20
130.466869
 42
0.056699
  0
VERTEX
  8
0
 10
700.035668
 20
130.960540
 42
0.057452
  0
VERTEX
  8
0
 10
695.915742
 20
130.502651
 42
0.089592
  0
SEQEND
  0
POLYLINE
  8
0
 66
1
 70
1
  0
VERTEX
  8
0
 10
705.150756
 20
125.919318
 42
-0.123693
  0
VERTEX
  8
0
 10
706.974143
 20
124.262635
 42
-0.033208
  0
VERTEX
  8
0
 10
708.936448
 20
120.841249
 42
-0.034413
  0
VERTEX
  8
0
 10
710.475037
 20
117.050301
 42
-0.077704
  0
VERTEX
  8
0
 10
710.972461
 20
114.000000
 42
-0.067316
  0
VERTEX
  8
0
 10
710.220127
 20
108.148771
 42
-0.089563
  0
VERTEX
  8
0
 10
707.936005
 20
103.308991
 42
-0.106056
  0
VERTEX
  8
0
 10
704.466378
 20
100.141738
 42
-0.135044
  0
VERTEX
  8
0
 10
700.295455
 20
99.031803
 42
-0.046001
  0
VERTEX
  8
0
 10
697.457299
 20
99.317477
 42
-0.087781
  0
VERTEX
  8
0
 10
695.324549
 20
100.138241
 42
-0.079979
  0
VERTEX
  8
0
 10
693.477743
 20
101.700426
 42
-0.033015
  0
VERTEX
  8
0
 10
691.508194
 20
104.328838
 42
-0.120278
  0
VERTEX
  8
0
 10
689.729537
 20
109.394690
 42
-0.061901
  0
VERTEX
  8
0
 10
689.901234
 20
116.156064
 42
-0.063150
  0
VERTEX
  8
0
 10
691.671549
 20
122.426512
 42
-0.161914
  0
VERTEX
  8
0
 10
694.749978
 20
125.919889
 42
-0.091330
  0
VERTEX
  8
0
 10
696.885567
 20
126.687984
 42
-0.040812
  0
VERTEX
  8
0
 10
699.873430
 20
126.932110
 42
-0.040779
  0
VERTEX
  8
0
 10
702.894687
 20
126.685124
 42
-0.082264
  0
SEQEND
  0
POLYLINE
  8
0
 66
1
 70
1
  0
VERTEX
  8
0
 10
762.750000
 20
129.338595
 42
0.054161
  0
VERTEX
  8
0
 10
760.153336
 20
127.917554
 42
0.164908
  0
VERTEX
  8
0
 10
758.976585
 20
126.320351
 42
0.442363
  0
VERTEX
  8
0
 10
759.522218
 20
125.378058
 42
0.115221
  0
VERTEX
  8
0
 10
761.500000
 20
125.410644
 42
0.000000
  0
VERTEX
  8
0
 10
764.000000
 20
126.038104
 42
0.000000
  0
VERTEX
  8
0
 10
764.000000
 20
111.019052
 42
0.000000
  0
VERTEX
  8
0
 10
764.000000
 20
96.000000
 42
0.000000
  0
VERTEX
  8
0
 10
766.523614
 20
96.000000
 42
0.000000
  0
VERTEX
  8
0
 10
769.047228
 20
96.000000
 42
0.000000
  0
VERTEX
  8
0
 10
768.773614
 20
113.167620
 42
0.004622
  0
VERTEX
  8
0
 10
768.596028
 20
120.218881
 42
0.009614
  0
VERTEX
  8
0
 10
768.301111
 20
125.710727
 42
0.004398
  0
VERTEX
  8
0
 10
767.943340
 20
130.081541
 42
0.311869
  0
VERTEX
  8
0
 10
767.500000
 20
130.613169
 42
0.117327
  0
VERTEX
  8
0
 10
766.902179
 20
130.635598
 42
0.016519
  0
VERTEX
  8
0
 10
765.692188
 20
130.353408
 42
0.018095
  0
VERTEX
  8
0
 10
764.259099
 20
129.912703
 42
0.014498
  0
SEQEND
  0
POLYLINE
  8
0
 66
1
 70
1
  0
VERTEX
  8
0
 10
821.110071
 20
129.604493
 42
0.070064
  0
VERTEX
  8
0
 10
819.463738
 20
128.363288
 42
0.036917
  0
VERTEX
  8
0
 10
817.789160
 20
126.419325
 42
0.036446
  0
VERTEX
  8
0
 10
816.475804
 20
124.344953
 42
0.111548
  0
VERTEX
  8
0
 10
816.035435
 20
122.750000
 42
0.370076
  0
VERTEX
  8
0
 10
816.605481
 20
122.018049
 42
0.114159
  0
VERTEX
  8
0
 10
818.117895
 20
122.059065
 42
0.078668
  0
VERTEX
  8
0
 10
819.907372
 20
122.839934
 42
0.128431
  0
VERTEX
  8
0
 10
821.025618
 20
124.047868
 42
-0.180582
  0
VERTEX
  8
0
 10
824.374764
 20
126.997678
 42
-0.174446
  0
VERTEX
  8
0
 10
828.894608
 20
127.085174
 42
-0.190502
  0
VERTEX
  8
0
 10
832.162909
 20
124.318020
 42
-0.202470
  0
VERTEX
  8
0
 10
832.548166
 20
120.151757
 42
-0.134596
  0
VERTEX
  8
0
 10
831.595274
 20
118.681073
 42
-0.057074
  0
VERTEX
  8
0
 10
829.659011
 20
117.315426
 42
-0.054232
  0
VERTEX
  8
0
 10
827.279536
 20
116.332062
 42
-0.071003
  0
VERTEX
  8
0
 10
824.952947
 20
116.000000
 42
0.133541
  0
VERTEX
  8
0
 10
823.351693
 20
115.564569
 42
0.395162
  0
VERTEX
  8
0
 10
823.057373
 20
114.567809
 42
0.171746
  0
VERTEX
  8
0
 10
824.300365
 20
113.374321
 42
0.066104
  0
VERTEX
  8
0
 10
826.624028
 20
112.673586
 42
-0.056654
  0
VERTEX
  8
0
 10
829.815733
 20
111.776279
 42
-0.096356
  0
VERTEX
  8
0
 10
832.127903
 20
110.263500
 42
-0.109658
  0
VERTEX
  8
0
 10
833.514173
 20
108.151590
 42
-0.090854
  0
VERTEX
  8
0
 10
834.000000
 20
105.500000
 42
-0.089629
  0
VERTEX
  8
0
 10
833.480310
 20
102.624176
 42
-0.131328
  0
VERTEX
  8
0
 10
831.996854
 20
100.540617
 42
-0.122256
  0
VERTEX
  8
0
 10
829.580390
 20
99.380448
 42
-0.071767
  0
VERTEX
  8
0
 10
826.361325
 20
99.183787
 42
-0.035767
  0
VERTEX
  8
0
 10
824.335492
 20
99.497789
 42
-0.079543
  0
VERTEX
  8
0
 10
822.892059
 20
100.081074
 42
-0.080263
  0
VERTEX
  8
0
 10
821.710776
 20
101.082060
 42
-0.036940
  0
VERTEX
  8
0
 10
820.513230
 20
102.711480
 42
0.061084
  0
VERTEX
  8
0
 10
818.756966
 20
104.874565
 42
0.134427
  0
VERTEX
  8
0
 10
816.902465
 20
105.886617
 42
0.268748
  0
VERTEX
  8
0
 10
815.582244
 20
105.488639
 42
0.190485
  0
VERTEX
  8
0
 10
815.000000
 20
104.015777
 42
0.094982
  0
VERTEX
  8
0
 10
815.186625
 20
103.042216
 42
0.030206
  0
VERTEX
  8
0
 10
815.817342
 20
101.699654
 42
0.028920
  0
VERTEX
  8
0
 10
816.717559
 20
100.255466
 42
0.028504
  0
VERTEX
  8
0
 10
817.782441
 20
98.917461
 42
0.128626
  0
VERTEX
  8
0
 10
822.243653
 20
95.957904
 42
0.098503
  0
VERTEX
  8
0
 10
828.067399
 20
95.175694
 42
0.102628
  0
VERTEX
  8
0
 10
833.548248
 20
96.677226
 42
0.153043
  0
VERTEX
  8
0
 10
837.070356
 20
100.131461
 42
0.099476
  0
VERTEX
  8
0
 10
838.210180
 20
103.908348
 42
0.081196
  0
VERTEX
  8
0
 10
837.925993
 20
108.128539
 42
0.089568
  0
VERTEX
  8
0
 10
836.394457
 20
111.672308
 42
0.170852
  0
VERTEX
  8
0
 10
833.946453
 20
113.516995
 42
-0.029278
  0
VERTEX
  8
0
 10
832.736102
 20
113.980705
 42
-0.339767
  0
VERTEX
  8
0
 10
832.511542
 20
114.400370
 42
-0.158988
  0
VERTEX
  8
0
 10
832.811786
 20
114.978395
 42
-0.007245
  0
VERTEX
  8
0
 10
834.445391
 20
116.536971
 42
0.083767
  0
VERTEX
  8
0
 10
835.991541
 20
118.544687
 42
0.074281
  0
VERTEX
  8
0
 10
836.873946
 20
121.032786
 42
0.071521
  0
VERTEX
  8
0
 10
837.009573
 20
123.758177
 42
0.068439
  0
VERTEX
  8
0
 10
836.378819
 20
126.455198
 42
0.176947
  0
VERTEX
  8
0
 10
834.201321
 20
128.954612
 42
0.075253
  0
VERTEX
  8
0
 10
829.974414
 20
130.514960
 42
0.070714
  0
VERTEX
  8
0
 10
825.134139
 20
130.816477
 42
0.107189
  0
SEQEND
  0
POLYLINE
  8
0
 66
1
 70
1
  0
VERTEX
  8
0
 10
889.076725
 20
128.411106
 42
0.098080
  0
VERTEX
  8
0
 10
886.791809
 20
125.560898
 42
0.105602
  0
VERTEX
  8
0
 10
885.842675
 20
122.128726
 42
0.114572
  0
VERTEX
  8
0
 10
886.405321
 20
118.826743
 42
0.132676
  0
VERTEX
  8
0
 10
888.357692
 20
116.314959
 42
0.000000
  0
VERTEX
  8
0
 10
890.715384
 20
114.536549
 42
0.000000
  0
VERTEX
  8
0
 10
887.857692
 20
111.867065
 42
0.095687
  0
VERTEX
  8
0
 10
885.602011
 20
108.764502
 42
0.113821
  0
VERTEX
  8
0
 10
884.844838
 20
105.232568
 42
0.110989
  0
VERTEX
  8
0
 10
885.706701
 20
101.657418
 42
0.087519
  0
VERTEX
  8
0
 10
888.065663
 20
98.437091
 42
0.033214
  0
VERTEX
  8
0
 10
889.919755
 20
96.883071
 42
0.074084
  0
VERTEX
  8
0
 10
891.545464
 20
96.029927
 42
0.064023
  0
VERTEX
  8
0
 10
893.495329
 20
95.619402
 42
0.019912
  0
VERTEX
  8
0
 10
896.492332
 20
95.500000
 42
0.111123
  0
VERTEX
  8
0
 10
903.474073
 20
97.071058
 42
0.160088
  0
VERTEX
  8
0
 10
908.028066
 20
101.400757
 42
0.186557
  0
VERTEX
  8
0
 10
908.735170
 20
107.060777
 42
0.150762
  0
VERTEX
  8
0
 10
905.542969
 20
112.339871
 42
0.000000
  0
VERTEX
  8
0
 10
903.183932
 20
114.441121
 42
0.000000
  0
VERTEX
  8
0
 10
905.591966
 20
116.672812
 42
0.099540
  0
VERTEX
  8
0
 10
907.443628
 20
119.239487
 42
0.118466
  0
VERTEX
  8
0
 10
908.008330
 20
122.164697
 42
0.109599
  0
VERTEX
  8
0
 10
907.189167
 20
125.201680
 42
0.076049
  0
VERTEX
  8
0
 10
905.076923
 20
128.076923
 42
0.034035
  0
VERTEX
  8
0
 10
903.327141
 20
129.603432
 42
0.074105
  0
VERTEX
  8
0
 10
901.768494
 20
130.457704
 42
0.065949
  0
VERTEX
  8
0
 10
899.914490
 20
130.875654
 42
0.022508
  0
VERTEX
  8
0
 10
897.153648
 20
131.000000
 42
0.024142
  0
VERTEX
  8
0
 10
894.518170
 20
130.872673
 42
0.053459
  0
VERTEX
  8
0
 10
892.549654
 20
130.466730
 42
0.059736
  0
VERTEX
  8
0
 10
890.849856
 20
129.688169
 42
0.037684
  0
SEQEND
  0
POLYLINE
  8
0
 66
1
 70
1
  0
VERTEX
  8
0
 10
900.315741
 20
126.850296
 42
-0.079448
  0
VERTEX
  8
0
 10
902.786582
 20
124.998813
 42
-0.146306
  0
VERTEX
  8
0
 10
903.933596
 20
122.788098
 42
-0.153923
  0
VERTEX
  8
0
 10
903.651024
 20
120.392089
 42
-0.090888
  0
VERTEX
  8
0
 10
902.000000
 20
118.000000
 42
-0.147587
  0
VERTEX
  8
0
 10
898.630442
 20
116.192581
 42
-0.120655
  0
VERTEX
  8
0
 10
894.526842
 20
116.360380
 42
-0.132962
  0
VERTEX
  8
0
 10
891.244847
 20
118.351830
 42
-0.192588
  0
VERTEX
  8
0
 10
890.000000
 20
121.463858
 42
-0.136571
  0
VERTEX
  8
0
 10
890.902515
 20
124.706417
 42
-0.137521
  0
VERTEX
  8
0
 10
893.348770
 20
127.006184
 42
-0.129036
  0
VERTEX
  8
0
 10
896.768889
 20
127.787389
 42
-0.113590
  0
SEQEND
  0
POLYLINE
  8
0
 66
1
 70
1
  0
VERTEX
  8
0
 10
902.363063
 20
110.494080
 42
-0.107180
  0
VERTEX
  8
0
 10
904.037184
 20
107.892837
 42
-0.107735
  0
VERTEX
  8
0
 10
904.479282
 20
104.836768
 42
-0.110577
  0
VERTEX
  8
0
 10
903.609882
 20
101.936429
 42
-0.118189
  0
VERTEX
  8
0
 10
901.600296
 20
99.765313
 42
-0.127012
  0
VERTEX
  8
0
 10
899.416592
 20
99.002525
 42
-0.049877
  0
VERTEX
  8
0
 10
896.204167
 20
99.054837
 42
-0.049856
  0
VERTEX
  8
0
 10
893.041665
 20
99.747385
 42
-0.118090
  0
VERTEX
  8
0
 10
891.000000
 20
101.000000
 42
-0.147492
  0
VERTEX
  8
0
 10
889.121174
 20
104.501112
 42
-0.175258
  0
VERTEX
  8
0
 10
889.668917
 20
108.191782
 42
-0.155901
  0
VERTEX
  8
0
 10
892.563873
 20
110.982998
 42
-0.114963
  0
VERTEX
  8
0
 10
896.928571
 20
112.000000
 42
-0.034265
  0
VERTEX
  8
0
 10
898.545146
 20
111.889085
 42
-0.033341
  0
VERTEX
  8
0
 10
900.146617
 20
111.558337
 42
-0.035237
  0
VERTEX
  8
0
 10
901.512108
 20
111.074135
 42
-0.093820
  0
SEQEND
  0
POLYLINE
  8
0
 66
1
 70
1
  0
VERTEX
  8
0
 10
555.244834
 20
116.750000
 42
0.062376
  0
VERTEX
  8
0
 10
553.883153
 20
114.529928
 42
0.111335
  0
VERTEX
  8
0
 10
553.451633
 20
112.442280
 42
0.117644
  0
VERTEX
  8
0
 10
553.964640
 20
110.450948
 42
0.074902
  0
VERTEX
  8
0
 10
555.392442
 20
108.516649
 42
0.038424
  0
VERTEX
  8
0
 10
557.413813
 20
106.784181
 42
0.126294
  0
VERTEX
  8
0
 10
559.032704
 20
106.136602
 42
0.137214
  0
VERTEX
  8
0
 10
560.682507
 20
106.374928
 42
0.048744
  0
VERTEX
  8
0
 10
562.777494
 20
107.556704
 42
0.126626
  0
VERTEX
  8
0
 10
564.295129
 20
109.329979
 42
0.095970
  0
VERTEX
  8
0
 10
564.967449
 20
111.811203
 42
0.094951
  0
VERTEX
  8
0
 10
564.667033
 20
114.387604
 42
0.120576
  0
VERTEX
  8
0
 10
563.428571
 20
116.428571
 42
0.119528
  0
VERTEX
  8
0
 10
561.652471
 20
117.511337
 42
0.067675
  0
VERTEX
  8
0
 10
559.157067
 20
117.951002
 42
0.069915
  0
VERTEX
  8
0
 10
556.746556
 20
117.708301
 42
0.165507
  0
SEQEND
  0
ENDSEC
  0
EOF
