  0
SECTION
  2
HEADER
  9
$ACADVER
  1
AC1006
  9
$EXTMIN
 10
0.000000
 20
0.000000
 30
0.000000
  9
$EXTMAX
 10
1094.000000
 20
1094.000000
 30
0.000000
  0
ENDSEC
  0
SECTION
  2
ENTITIES
  0
POLYLINE
  8
0
 66
1
 70
1
  0
VERTEX
  8
0
 10
156.000000
 20
578.834993
 42
0.000000
  0
VERTEX
  8
0
 10
156.000000
 20
188.669985
 42
0.000000
  0
VERTEX
  8
0
 10
255.750000
 20
189.334440
 42
-0.001031
  0
VERTEX
  8
0
 10
311.847600
 20
189.592493
 42
-0.000208
  0
VERTEX
  8
0
 10
411.459375
 20
189.803874
 42
-0.000220
  0
VERTEX
  8
0
 10
527.312811
 20
189.950458
 42
-0.000206
  0
VERTEX
  8
0
 10
645.750000
 20
189.999448
 42
0.000000
  0
VERTEX
  8
0
 10
936.000000
 20
190.000000
 42
0.000000
  0
VERTEX
  8
0
 10
936.000000
 20
579.500000
 42
0.000000
  0
VERTEX
  8
0
 10
936.000000
 20
969.000000
 42
0.000000
  0
VERTEX
  8
0
 10
546.000000
 20
969.000000
 42
0.000000
  0
VERTEX
  8
0
 10
156.000000
 20
969.000000
 42
0.000000
  0
SEQEND
  0
POLYLINE
  8
0
 66
1
 70
1
  0
VERTEX
  8
0
 10
189.741781
 20
128.775776
 42
0.079467
  0
VERTEX
  8
0
 10
186.181579
 20
125.873808
 42
0.079344
  0
VERTEX
  8
0
 10
183.701888
 20
122.004726
 42
0.071026
  0
VERTEX
  8
0
 10
182.367513
 20
117.179163
 42
0.047926
  0
VERTEX
  8
0
 10
182.183384
 20
111.460952
 42
0.067382
  0
VERTEX
  8
0
 10
183.584758
 20
104.481454
 42
0.115375
  0
VERTEX
  8
0
 10
186.736274
 20
99.481901
 42
0.120053
  0
VERTEX
  8
0
 10
191.675890
 20
96.523268
 42
0.076742
  0
VERTEX
  8
0
 10
198.326748
 20
95.535032
 42
0.039764
  0
VERTEX
  8
0
 10
203.028154
 20
95.936378
 42
0.074153
  0
VERTEX
  8
0
 10
206.657288
 20
97.109630
 42
0.085971
  0
VERTEX
  8
0
 10
209.429445
 20
99.140369
 42
0.072574
  0
VERTEX
  8
0
 10
211.551112
 20
102.098840
 42
0.010175
  0
VERTEX
  8
0
 10
212.762491
 20
104.563029
 42
0.176740
  0
VERTEX
  8
0
 10
212.838719
 20
105.440228
 42
0.307383
  0
VERTEX
  8
0
 10
212.309652
 20
105.896061
 42
0.028694
  0
VERTEX
  8
0
 10
210.500000
 20
106.000000
 42
0.039918
  0
VERTEX
  8
0
 10
209.542746
 20
105.923454
 42
0.059192
  0
VERTEX
  8
0
 10
208.734375
 20
105.692898
 42
0.077850
  0
VERTEX
  8
0
 10
208.184436
 20
105.354616
 42
0.219408
  0
VERTEX
  8
0
 10
208.000000
 20
104.954545
 42
-0.130216
  0
VERTEX
  8
0
 10
207.853657
 20
104.402150
 42
-0.023416
  0
VERTEX
  8
0
 10
207.278977
 20
103.495170
 42
-0.023867
  0
VERTEX
  8
0
 10
206.485184
 20
102.470946
 42
-0.019590
  0
VERTEX
  8
0
 10
205.545455
 20
101.454545
 42
-0.107258
  0
VERTEX
  8
0
 10
202.928027
 20
99.770575
 42
-0.071106
  0
VERTEX
  8
0
 10
199.425898
 20
99.002028
 42
-0.066752
  0
VERTEX
  8
0
 10
195.613015
 20
99.228217
 42
-0.071293
  0
VERTEX
  8
0
 10
192.085185
 20
100.455949
 42
-0.172392
  0
VERTEX
  8
0
 10
187.785374
 20
105.051917
 42
-0.095469
  0
VERTEX
  8
0
 10
186.086053
 20
112.639321
 42
-0.094247
  0
VERTEX
  8
0
 10
187.322617
 20
120.402004
 42
-0.162624
  0
VERTEX
  8
0
 10
191.334890
 20
125.483773
 42
-0.118256
  0
VERTEX
  8
0
 10
195.718180
 20
127.057128
 42
-0.081284
  0
VERTEX
  8
0
 10
201.013372
 20
126.776162
 42
-0.088259
  0
VERTEX
  8
0
 10
205.545217
 20
124.906518
 42
-0.189126
  0
VERTEX
  8
0
 10
207.736884
 20
121.898154
 42
0.090595
  0
VERTEX
  8
0
 10
208.107165
 20
121.104378
 42
0.092980
  0
VERTEX
  8
0
 10
208.731486
 20
120.501171
 42
0.084759
  0
VERTEX
  8
0
 10
209.584100
 20
120.126883
 42
0.061213
  0
VERTEX
  8
0
 10
210.616631
 20
120.000000
 42
0.032750
  0
VERTEX
  8
0
 10
212.341076
 20
120.113072
 42
0.319965
  0
VERTEX
  8
0
 10
212.845872
 20
120.583615
 42
0.161951
  0
VERTEX
  8
0
 10
212.735916
 20
121.495864
 42
0.009046
  0
VERTEX
  8
0
 10
211.451451
 20
124.093882
 42
0.125826
  0
VERTEX
  8
0
 10
207.756634
 20
128.242656
 42
0.095404
  0
VERTEX
  8
0
 10
202.128225
 20
130.639840
 42
0.089832
  0
VERTEX
  8
0
 10
195.698308
 20
130.853539
 42
0.095117
  0
SEQEND
  0
POLYLINE
  8
0
 66
1
 70
1
  0
VERTEX
  8
0
 10
259.000000
 20
113.500000
 42
0.001825
  0
VERTEX
  8
0
 10
259.040662
 20
102.362042
 42
0.026629
  0
VERTEX
  8
0
 10
259.278571
 20
98.437500
 42
0.103099
  0
VERTEX
  8
0
 10
259.868713
 20
96.652291
 42
0.267644
  0
VERTEX
  8
0
 10
261.000000
 20
96.000000
 42
0.157888
  0
VERTEX
  8
0
 10
262.078201
 20
96.349175
 42
0.176663
  0
VERTEX
  8
0
 10
262.687500
 20
97.250000
 42
0.055952
  0
VERTEX
  8
0
 10
262.948615
 20
99.198839
 42
0.005351
  0
VERTEX
  8
0
 10
263.000000
 20
104.000000
 42
0.000000
  0
VERTEX
  8
0
 10
263.000000
 20
112.000000
 42
0.000000
  0
VERTEX
  8
0
 10
272.000000
 20
112.000000
 42
0.000000
  0
VERTEX
  8
0
 10
281.000000
 20
112.000000
 42
0.000000
  0
VERTEX
  8
0
 10
281.000000
 20
104.000000
 42
0.005351
  0
VERTEX
  8
0
 10
281.051385
 20
99.198839
 42
0.055952
  0
VERTEX
  8
0
 10
281.312500
 20
97.250000
 42
0.176663
  0
VERTEX
  8
0
 10
281.921799
 20
96.349175
 42
0.157888
  0
VERTEX
  8
0
 10
283.000000
 20
96.000000
 42
0.268241
  0
VERTEX
  8
0
 10
284.131687
 20
96.654202
 42
0.102656
  0
VERTEX
  8
0
 10
284.721548
 20
98.446666
 42
0.026521
  0
VERTEX
  8
0
 10
284.959373
 20
102.386416
 42
0.001816
  0
VERTEX
  8
0
 10
285.000000
 20
113.573324
 42
0.002006
  0
VERTEX
  8
0
 10
284.957279
 20
124.220914
 42
0.023290
  0
VERTEX
  8
0
 10
284.729858
 20
128.382327
 42
0.079264
  0
VERTEX
  8
0
 10
284.219745
 20
130.304811
 42
0.348658
  0
VERTEX
  8
0
 10
283.250000
 20
130.812480
 42
0.182728
  0
VERTEX
  8
0
 10
282.345375
 20
130.257662
 42
0.103223
  0
VERTEX
  8
0
 10
281.774202
 20
129.085616
 42
0.044930
  0
VERTEX
  8
0
 10
281.429523
 20
126.921499
 42
0.007606
  0
VERTEX
  8
0
 10
281.207936
 20
122.739156
 42
0.000000
  0
VERTEX
  8
0
 10
280.915871
 20
115.000000
 42
0.000000
  0
VERTEX
  8
0
 10
271.957936
 20
115.000000
 42
0.000000
  0
VERTEX
  8
0
 10
263.000000
 20
115.000000
 42
0.000000
  0
VERTEX
  8
0
 10
263.000000
 20
123.000000
 42
0.005351
  0
VERTEX
  8
0
 10
262.948615
 20
127.801161
 42
0.055952
  0
VERTEX
  8
0
 10
262.687500
 20
129.750000
 42
0.176663
  0
VERTEX
  8
0
 10
262.078201
 20
130.650825
 42
0.157888
  0
VERTEX
  8
0
 10
261.000000
 20
131.000000
 42
0.267644
  0
VERTEX
  8
0
 10
259.868713
 20
130.347709
 42
0.103099
  0
VERTEX
  8
0
 10
259.278571
 20
128.562500
 42
0.026629
  0
VERTEX
  8
0
 10
259.040662
 20
124.637958
 42
0.001825
  0
SEQEND
  0
POLYLINE
  8
0
 66
1
 70
1
  0
VERTEX
  8
0
 10
342.328598
 20
127.250000
 42
0.010048
  0
VERTEX
  8
0
 10
340.255439
 20
122.002442
 42
0.001201
  0
VERTEX
  8
0
 10
335.932827
 20
110.297125
 42
0.000204
  0
VERTEX
  8
0
 10
331.164033
 20
97.271019
 42
0.087858
  0
VERTEX
  8
0
 10
331.000000
 20
96.344715
 42
0.346367
  0
VERTEX
  8
0
 10
331.132381
 20
96.176543
 42
0.040412
  0
VERTEX
  8
0
 10
331.637929
 20
96.096888
 42
0.034825
  0
VERTEX
  8
0
 10
332.339064
 20
96.092768
 42
0.020590
  0
VERTEX
  8
0
 10
333.171672
 20
96.180449
 42
0.105441
  0
VERTEX
  8
0
 10
334.249346
 20
96.581423
 42
0.085072
  0
VERTEX
  8
0
 10
335.166882
 20
97.412584
 42
0.060960
  0
VERTEX
  8
0
 10
335.980951
 20
98.760708
 42
0.025202
  0
VERTEX
  8
0
 10
336.755005
 20
100.750000
 42
0.000000
  0
VERTEX
  8
0
 10
338.166667
 20
105.000000
 42
0.000000
  0
VERTEX
  8
0
 10
345.500626
 20
105.000000
 42
0.000000
  0
VERTEX
  8
0
 10
352.834584
 20
105.000000
 42
0.000000
  0
VERTEX
  8
0
 10
354.553150
 20
100.500000
 42
0.022219
  0
VERTEX
  8
0
 10
355.437276
 20
98.461561
 42
0.054736
  0
VERTEX
  8
0
 10
356.306783
 20
97.083972
 42
0.081146
  0
VERTEX
  8
0
 10
357.196187
 20
96.277612
 42
0.144628
  0
VERTEX
  8
0
 10
358.135858
 20
96.000000
 42
0.038336
  0
VERTEX
  8
0
 10
358.850408
 20
96.054867
 42
0.056916
  0
VERTEX
  8
0
 10
359.455304
 20
96.220313
 42
0.074338
  0
VERTEX
  8
0
 10
359.869964
 20
96.462764
 42
0.223661
  0
VERTEX
  8
0
 10
360.009858
 20
96.750000
 42
0.087348
  0
VERTEX
  8
0
 10
359.917874
 20
97.315993
 42
0.000546
  0
VERTEX
  8
0
 10
358.209670
 20
102.200000
 42
0.002207
  0
VERTEX
  8
0
 10
356.225152
 20
107.775341
 42
0.001403
  0
VERTEX
  8
0
 10
353.867714
 20
114.250000
 42
0.003602
  0
VERTEX
  8
0
 10
350.535108
 20
123.125564
 42
0.020537
  0
VERTEX
  8
0
 10
348.538851
 20
127.750600
 42
0.036161
  0
VERTEX
  8
0
 10
347.055957
 20
130.335588
 42
0.249407
  0
VERTEX
  8
0
 10
345.806829
 20
131.000000
 42
0.128327
  0
VERTEX
  8
0
 10
344.878866
 20
130.757847
 42
0.078275
  0
VERTEX
  8
0
 10
343.983659
 20
130.053342
 42
0.058318
  0
VERTEX
  8
0
 10
343.130120
 20
128.885916
 42
0.029624
  0
SEQEND
  0
POLYLINE
  8
0
 66
1
 70
1
  0
VERTEX
  8
0
 10
348.917347
 20
116.224166
 42
0.000000
  0
VERTEX
  8
0
 10
351.949694
 20
108.000000
 42
0.000000
  0
VERTEX
  8
0
 10
345.974847
 20
108.000000
 42
-0.011784
  0
VERTEX
  8
0
 10
343.683453
 20
108.054009
 42
-0.019387
  0
VERTEX
  8
0
 10
341.752237
 20
108.220313
 42
-0.014098
  0
VERTEX
  8
0
 10
340.240953
 20
108.453152
 42
-0.358438
  0
VERTEX
  8
0
 10
339.990214
 20
108.750000
 42
-0.087453
  0
VERTEX
  8
0
 10
340.211306
 20
110.107784
 42
-0.001510
  0
VERTEX
  8
0
 10
342.713480
 20
117.206184
 42
-0.000605
  0
VERTEX
  8
0
 10
345.357886
 20
124.608060
 42
-0.550157
  0
VERTEX
  8
0
 10
345.657996
 20
124.675338
 42
-0.104205
  0
VERTEX
  8
0
 10
345.792224
 20
124.469446
 42
-0.000496
  0
VERTEX
  8
0
 10
346.709070
 20
122.099166
 42
-0.002277
  0
VERTEX
  8
0
 10
347.738569
 20
119.393143
 42
-0.001435
  0
SEQEND
  0
POLYLINE
  8
0
 66
1
 70
1
  0
VERTEX
  8
0
 10
413.091948
 20
128.837604
 42
0.066354
  0
VERTEX
  8
0
 10
408.760094
 20
124.931848
 42
0.080173
  0
VERTEX
  8
0
 10
405.926659
 20
120.253474
 42
0.079097
  0
VERTEX
  8
0
 10
404.684616
 20
114.868664
 42
0.062504
  0
VERTEX
  8
0
 10
405.019779
 20
108.891836
 42
0.115147
  0
VERTEX
  8
0
 10
408.128147
 20
101.743025
 42
0.119381
  0
VERTEX
  8
0
 10
414.046651
 20
96.821099
 42
0.117764
  0
VERTEX
  8
0
 10
421.630220
 20
95.112216
 42
0.109947
  0
VERTEX
  8
0
 10
429.379167
 20
96.941506
 42
0.062428
  0
VERTEX
  8
0
 10
433.559953
 20
99.654013
 42
0.089140
  0
VERTEX
  8
0
 10
436.378498
 20
103.049901
 42
0.082972
  0
VERTEX
  8
0
 10
437.965242
 20
107.405102
 42
0.047286
  0
VERTEX
  8
0
 10
438.466305
 20
113.000000
 42
0.064685
  0
VERTEX
  8
0
 10
437.450982
 20
120.510411
 42
0.117071
  0
VERTEX
  8
0
 10
434.511039
 20
125.935127
 42
0.121926
  0
VERTEX
  8
0
 10
429.544917
 20
129.321111
 42
0.073711
  0
VERTEX
  8
0
 10
422.542543
 20
130.803421
 42
0.015861
  0
VERTEX
  8
0
 10
419.201648
 20
130.902781
 42
0.050818
  0
VERTEX
  8
0
 10
416.988503
 20
130.672817
 42
0.063315
  0
VERTEX
  8
0
 10
415.139816
 20
130.036400
 42
0.035815
  0
SEQEND
  0
POLYLINE
  8
0
 66
1
 70
1
  0
VERTEX
  8
0
 10
430.728718
 20
123.725827
 42
-0.132174
  0
VERTEX
  8
0
 10
433.860711
 20
118.288182
 42
-0.094124
  0
VERTEX
  8
0
 10
434.369336
 20
111.241274
 42
-0.096622
  0
VERTEX
  8
0
 10
432.272872
 20
104.657799
 42
-0.149246
  0
VERTEX
  8
0
 10
428.032733
 20
100.516927
 42
-0.068035
  0
VERTEX
  8
0
 10
424.908869
 20
99.407018
 42
-0.055043
  0
VERTEX
  8
0
 10
421.363685
 20
99.067234
 42
-0.055677
  0
VERTEX
  8
0
 10
417.875221
 20
99.507924
 42
-0.074302
  0
VERTEX
  8
0
 10
414.920450
 20
100.706063
 42
-0.155176
  0
VERTEX
  8
0
 10
410.632540
 20
105.503873
 42
-0.099083
  0
VERTEX
  8
0
 10
408.957674
 20
112.858279
 42
-0.099293
  0
VERTEX
  8
0
 10
410.242993
 20
120.277401
 42
-0.156581
  0
VERTEX
  8
0
 10
414.272224
 20
125.258798
 42
-0.091680
  0
VERTEX
  8
0
 10
418.249826
 20
126.927342
 42
-0.076958
  0
VERTEX
  8
0
 10
422.820692
 20
127.205262
 42
-0.077583
  0
VERTEX
  8
0
 10
427.227006
 20
126.090745
 42
-0.095994
  0
SEQEND
  0
POLYLINE
  8
0
 66
1
 70
1
  0
VERTEX
  8
0
 10
489.500000
 20
129.792183
 42
0.053356
  0
VERTEX
  8
0
 10
487.438706
 20
128.297718
 42
0.082622
  0
VERTEX
  8
0
 10
486.073094
 20
126.581074
 42
0.079333
  0
VERTEX
  8
0
 10
485.302457
 20
124.461976
 42
0.045526
  0
VERTEX
  8
0
 10
485.031803
 20
121.750000
 42
0.080653
  0
VERTEX
  8
0
 10
485.519507
 20
118.576291
 42
0.116980
  0
VERTEX
  8
0
 10
486.986389
 20
116.163959
 42
0.083066
  0
VERTEX
  8
0
 10
489.799762
 20
114.130696
 42
0.025514
  0
VERTEX
  8
0
 10
494.623054
 20
112.039844
 42
-0.012571
  0
VERTEX
  8
0
 10
499.451956
 20
110.093384
 42
-0.082757
  0
VERTEX
  8
0
 10
501.634090
 20
108.684088
 42
-0.143750
  0
VERTEX
  8
0
 10
502.660633
 20
106.997185
 42
-0.065375
  0
VERTEX
  8
0
 10
503.000000
 20
104.412739
 42
-0.087676
  0
VERTEX
  8
0
 10
502.559327
 20
101.918984
 42
-0.149004
  0
VERTEX
  8
0
 10
501.295326
 20
100.241140
 42
-0.115862
  0
VERTEX
  8
0
 10
499.043461
 20
99.292703
 42
-0.042008
  0
VERTEX
  8
0
 10
495.565741
 20
99.000000
 42
-0.081272
  0
VERTEX
  8
0
 10
492.862685
 20
99.442286
 42
-0.076202
  0
VERTEX
  8
0
 10
490.374815
 20
100.726398
 42
-0.084952
  0
VERTEX
  8
0
 10
488.611193
 20
102.535360
 42
-0.151957
  0
VERTEX
  8
0
 10
488.000000
 20
104.500000
 42
0.140575
  0
VERTEX
  8
0
 10
487.822179
 20
105.119980
 42
0.118484
  0
VERTEX
  8
0
 10
487.333333
 20
105.600000
 42
0.088208
  0
VERTEX
  8
0
 10
486.543379
 20
105.901370
 42
0.047160
  0
VERTEX
  8
0
 10
485.500000
 20
106.000000
 42
0.034909
  0
VERTEX
  8
0
 10
483.703785
 20
105.874439
 42
0.317548
  0
VERTEX
  8
0
 10
483.162841
 20
105.365896
 42
0.153733
  0
VERTEX
  8
0
 10
483.266948
 20
104.366256
 42
0.008555
  0
VERTEX
  8
0
 10
484.577273
 20
101.478402
 42
0.172838
  0
VERTEX
  8
0
 10
489.611176
 20
96.444111
 42
0.139508
  0
VERTEX
  8
0
 10
497.200209
 20
95.173280
 42
0.143539
  0
VERTEX
  8
0
 10
504.165949
 20
98.089157
 42
0.184127
  0
VERTEX
  8
0
 10
507.621348
 20
104.054064
 42
0.108439
  0
VERTEX
  8
0
 10
507.430006
 20
107.519523
 42
0.119849
  0
VERTEX
  8
0
 10
505.794450
 20
110.445220
 42
0.083649
  0
VERTEX
  8
0
 10
502.438857
 20
113.025811
 42
0.030927
  0
VERTEX
  8
0
 10
496.991353
 20
115.503304
 42
-0.012140
  0
VERTEX
  8
0
 10
493.454568
 20
116.954132
 42
-0.043977
  0
VERTEX
  8
0
 10
491.323844
 20
118.122180
 42
-0.072901
  0
VERTEX
  8
0
 10
490.055177
 20
119.268768
 42
-0.111572
  0
VERTEX
  8
0
 10
489.388956
 20
120.586410
 42
-0.060334
  0
VERTEX
  8
0
 10
489.103950
 20
122.847588
 42
-0.115757
  0
VERTEX
  8
0
 10
489.510689
 20
124.619589
 42
-0.120280
  0
VERTEX
  8
0
 10
490.647716
 20
125.981832
 42
-0.068240
  0
VERTEX
  8
0
 10
492.543772
 20
127.016642
 42
-0.077193
  0
VERTEX
  8
0
 10
495.183395
 20
127.577165
 42
-0.087831
  0
VERTEX
  8
0
 10
497.746987
 20
127.267920
 42
-0.096323
  0
VERTEX
  8
0
 10
499.865321
 20
126.145323
 42
-0.116498
  0
VERTEX
  8
0
 10
501.240494
 20
124.371519
 42
0.127751
  0
VERTEX
  8
0
 10
502.587833
 20
122.711004
 42
0.129164
  0
VERTEX
  8
0
 10
504.567468
 20
121.924642
 42
0.228910
  0
VERTEX
  8
0
 10
505.978637
 20
122.406202
 42
0.269796
  0
VERTEX
  8
0
 10
506.343077
 20
123.750000
 42
0.055887
  0
VERTEX
  8
0
 10
505.630588
 20
125.566079
 42
0.051255
  0
VERTEX
  8
0
 10
504.516562
 20
127.237309
 42
0.049982
  0
VERTEX
  8
0
 10
503.055412
 20
128.684342
 42
0.047855
  0
VERTEX
  8
0
 10
501.315741
 20
129.836657
 42
0.084542
  0
VERTEX
  8
0
 10
498.799522
 20
130.672479
 42
0.038967
  0
VERTEX
  8
0
 10
495.347011
 20
130.928884
 42
0.038945
  0
VERTEX
  8
0
 10
491.920416
 20
130.648604
 42
0.090557
  0
SEQEND
  0
POLYLINE
  8
0
 66
1
 70
1
  0
VERTEX
  8
0
 10
617.605025
 20
129.078320
 42
0.099308
  0
VERTEX
  8
0
 10
613.611288
 20
125.121026
 42
0.076950
  0
VERTEX
  8
0
 10
611.006453
 20
119.565199
 42
0.071792
  0
VERTEX
  8
0
 10
610.085752
 20
113.101044
 42
0.067888
  0
VERTEX
  8
0
 10
610.997347
 20
106.509475
 42
0.093021
  0
VERTEX
  8
0
 10
613.557692
 20
101.322207
 42
0.092801
  0
VERTEX
  8
0
 10
617.826294
 20
97.411141
 42
0.094244
  0
VERTEX
  8
0
 10
623.160258
 20
95.350200
 42
0.099573
  0
VERTEX
  8
0
 10
628.770444
 20
95.449581
 42
0.100321
  0
VERTEX
  8
0
 10
631.687622
 20
96.738955
 42
0.050714
  0
VERTEX
  8
0
 10
634.728385
 20
99.392430
 42
0.048707
  0
VERTEX
  8
0
 10
637.344687
 20
102.801140
 42
0.062116
  0
VERTEX
  8
0
 10
639.006430
 20
106.393918
 42
0.083621
  0
VERTEX
  8
0
 10
639.940876
 20
112.916536
 42
0.067960
  0
VERTEX
  8
0
 10
638.812449
 20
119.896946
 42
0.072063
  0
VERTEX
  8
0
 10
635.988811
 20
125.896936
 42
0.128147
  0
VERTEX
  8
0
 10
631.953117
 20
129.524244
 42
0.075963
  0
VERTEX
  8
0
 10
628.609722
 20
130.653080
 42
0.051307
  0
VERTEX
  8
0
 10
624.587999
 20
130.940942
 42
0.051892
  0
VERTEX
  8
0
 10
620.659680
 20
130.408331
 42
0.086312
  0
SEQEND
  0
POLYLINE
  8
0
 66
1
 70
1
  0
VERTEX
  8
0
 10
630.150756
 20
125.919318
 42
-0.123693
  0
VERTEX
  8
0
 10
631.974143
 20
124.262635
 42
-0.033208
  0
VERTEX
  8
0
 10
633.936448
 20
120.841249
 42
-0.034413
  0
VERTEX
  8
0
 10
635.475037
 20
117.050301
 42
-0.077704
  0
VERTEX
  8
0
 10
635.972461
 20
114.000000
 42
-0.067316
  0
VERTEX
  8
0
 10
635.220127
 20
108.148771
 42
-0.089563
  0
VERTEX
  8
0
 10
632.936005
 20
103.308991
 42
-0.106056
  0
VERTEX
  8
0
 10
629.466378
 20
100.141738
 42
-0.135044
  0
VERTEX
  8
0
 10
625.295455
 20
99.031803
 42
-0.046001
  0
VERTEX
  8
0
 10
622.457299
 20
99.317477
 42
-0.087781
  0
VERTEX
  8
0
 10
620.324549
 20
100.138241
 42
-0.079979
  0
VERTEX
  8
0
 10
618.477743
 20
101.700426
 42
-0.033015
  0
VERTEX
  8
0
 10
616.508194
 20
104.328838
 42
-0.120278
  0
VERTEX
  8
0
 10
614.729537
 20
109.394690
 42
-0.061901
  0
VERTEX
  8
0
 10
614.901234
 20
116.156064
 42
-0.063150
  0
VERTEX
  8
0
 10
616.671549
 20
122.426512
 42
-0.161914
  0
VERTEX
  8
0
 10
619.749978
 20
125.919889
 42
-0.091330
  0
VERTEX
  8
0
 10
621.885567
 20
126.687984
 42
-0.040812
  0
VERTEX
  8
0
 10
624.873430
 20
126.932110
 42
-0.040779
  0
VERTEX
  8
0
 10
627.894687
 20
126.685124
 42
-0.082264
  0
SEQEND
  0
POLYLINE
  8
0
 66
1
 70
1
  0
VERTEX
  8
0
 10
692.000000
 20
128.819139
 42
0.062980
  0
VERTEX
  8
0
 10
688.580555
 20
125.826957
 42
0.086087
  0
VERTEX
  8
0
 10
686.430217
 20
122.354009
 42
0.072765
  0
VERTEX
  8
0
 10
685.356379
 20
117.915408
 42
0.032953
  0
VERTEX
  8
0
 10
685.199236
 20
111.922108
 42
0.012096
  0
VERTEX
  8
0
 10
685.470377
 20
107.681986
 42
0.044947
  0
VERTEX
  8
0
 10
685.943587
 20
105.049876
 42
0.060302
  0
VERTEX
  8
0
 10
686.798383
 20
102.959524
 42
0.035759
  0
VERTEX
  8
0
 10
688.276279
 20
100.704376
 42
0.139635
  0
VERTEX
  8
0
 10
694.258273
 20
96.234600
 42
0.129999
  0
VERTEX
  8
0
 10
701.874798
 20
95.426638
 42
0.131680
  0
VERTEX
  8
0
 10
708.822299
 20
98.485280
 42
0.144864
  0
VERTEX
  8
0
 10
713.004677
 20
104.514171
 42
0.053718
  0
VERTEX
  8
0
 10
713.873457
 20
108.561582
 42
0.030361
  0
VERTEX
  8
0
 10
714.091445
 20
113.580312
 42
0.030415
  0
VERTEX
  8
0
 10
713.707985
 20
118.479781
 42
0.065977
  0
VERTEX
  8
0
 10
712.700307
 20
122.111166
 42
0.054740
  0
VERTEX
  8
0
 10
710.657174
 20
125.748292
 42
0.080936
  0
VERTEX
  8
0
 10
708.081855
 20
128.337522
 42
0.081249
  0
VERTEX
  8
0
 10
704.825703
 20
129.968786
 42
0.055607
  0
VERTEX
  8
0
 10
700.757690
 20
130.756162
 42
0.020544
  0
VERTEX
  8
0
 10
697.885438
 20
130.868253
 42
0.053952
  0
VERTEX
  8
0
 10
695.838584
 20
130.642443
 42
0.061087
  0
VERTEX
  8
0
 10
694.038070
 20
130.006148
 42
0.032848
  0
SEQEND
  0
POLYLINE
  8
0
 66
1
 70
1
  0
VERTEX
  8
0
 10
706.499025
 20
124.001017
 42
-0.039187
  0
VERTEX
  8
0
 10
707.984321
 20
122.185354
 42
-0.063892
  0
VERTEX
  8
0
 10
708.901550
 20
120.422240
 42
-0.052046
  0
VERTEX
  8
0
 10
709.454710
 20
118.238524
 42
-0.017974
  0
VERTEX
  8
0
 10
709.806475
 20
114.998696
 42
-0.060042
  0
VERTEX
  8
0
 10
709.495223
 20
108.482894
 42
-0.100521
  0
VERTEX
  8
0
 10
707.529120
 20
103.384242
 42
-0.124752
  0
VERTEX
  8
0
 10
704.105255
 20
100.167845
 42
-0.127165
  0
VERTEX
  8
0
 10
699.587648
 20
99.000000
 42
-0.202100
  0
VERTEX
  8
0
 10
693.304740
 20
101.647694
 42
-0.133658
  0
VERTEX
  8
0
 10
689.446200
 20
108.588146
 42
-0.115671
  0
VERTEX
  8
0
 10
689.346544
 20
117.375534
 42
-0.134242
  0
VERTEX
  8
0
 10
693.240926
 20
124.750000
 42
-0.119955
  0
VERTEX
  8
0
 10
696.096625
 20
126.617994
 42
-0.099561
  0
VERTEX
  8
0
 10
699.700672
 20
127.133366
 42
-0.094124
  0
VERTEX
  8
0
 10
703.396501
 20
126.212748
 42
-0.094023
  0
SEQEND
  0
POLYLINE
  8
0
 66
1
 70
1
  0
VERTEX
  8
0
 10
761.750000
 20
129.267125
 42
0.048904
  0
VERTEX
  8
0
 10
758.980950
 20
127.800591
 42
0.201885
  0
VERTEX
  8
0
 10
757.952498
 20
126.256542
 42
0.427011
  0
VERTEX
  8
0
 10
758.640291
 20
125.288972
 42
0.085980
  0
VERTEX
  8
0
 10
761.000000
 20
125.350000
 42
0.000000
  0
VERTEX
  8
0
 10
764.000000
 20
125.950000
 42
0.000000
  0
VERTEX
  8
0
 10
764.000000
 20
110.975000
 42
0.002226
  0
VERTEX
  8
0
 10
764.042092
 20
101.522498
 42
0.030976
  0
VERTEX
  8
0
 10
764.283389
 20
98.121875
 42
0.119775
  0
VERTEX
  8
0
 10
764.882503
 20
96.582632
 42
0.245034
  0
VERTEX
  8
0
 10
766.000000
 20
96.000000
 42
0.267644
  0
VERTEX
  8
0
 10
767.131287
 20
96.652291
 42
0.103099
  0
VERTEX
  8
0
 10
767.721429
 20
98.437500
 42
0.026629
  0
VERTEX
  8
0
 10
767.959338
 20
102.362042
 42
0.001825
  0
VERTEX
  8
0
 10
768.000000
 20
113.500000
 42
0.002775
  0
VERTEX
  8
0
 10
767.927747
 20
126.518326
 42
0.091830
  0
VERTEX
  8
0
 10
767.325901
 20
129.577615
 42
0.361326
  0
VERTEX
  8
0
 10
765.716261
 20
130.456849
 42
0.048993
  0
SEQEND
  0
POLYLINE
  8
0
 66
1
 70
1
  0
VERTEX
  8
0
 10
818.923077
 20
128.076923
 42
0.024625
  0
VERTEX
  8
0
 10
817.804223
 20
126.842082
 42
0.027718
  0
VERTEX
  8
0
 10
816.858654
 20
125.549279
 42
0.028583
  0
VERTEX
  8
0
 10
816.187352
 20
124.373898
 42
0.115959
  0
VERTEX
  8
0
 10
816.000000
 20
123.576923
 42
0.239032
  0
VERTEX
  8
0
 10
816.579130
 20
122.434733
 42
0.177534
  0
VERTEX
  8
0
 10
817.960346
 20
122.036257
 42
0.139341
  0
VERTEX
  8
0
 10
819.534105
 20
122.606154
 42
0.161157
  0
VERTEX
  8
0
 10
820.465866
 20
123.892454
 42
-0.094685
  0
VERTEX
  8
0
 10
820.906111
 20
124.705765
 42
-0.041677
  0
VERTEX
  8
0
 10
821.759818
 20
125.589261
 42
-0.039278
  0
VERTEX
  8
0
 10
822.850067
 20
126.402227
 42
-0.042403
  0
VERTEX
  8
0
 10
824.027353
 20
127.011330
 42
-0.107461
  0
VERTEX
  8
0
 10
826.905337
 20
127.530869
 42
-0.129891
  0
VERTEX
  8
0
 10
829.524806
 20
126.738226
 42
-0.135163
  0
VERTEX
  8
0
 10
831.339925
 20
124.789539
 42
-0.120891
  0
VERTEX
  8
0
 10
832.000000
 20
122.099392
 42
-0.074849
  0
VERTEX
  8
0
 10
831.668210
 20
119.895399
 42
-0.125028
  0
VERTEX
  8
0
 10
830.697345
 20
118.303323
 42
-0.103648
  0
VERTEX
  8
0
 10
828.933502
 20
117.178050
 42
-0.041002
  0
VERTEX
  8
0
 10
826.154692
 20
116.380938
 42
0.074698
  0
VERTEX
  8
0
 10
824.079816
 20
115.631734
 42
0.192129
  0
VERTEX
  8
0
 10
823.076205
 20
114.429337
 42
0.355888
  0
VERTEX
  8
0
 10
823.464993
 20
113.420749
 42
0.130496
  0
VERTEX
  8
0
 10
825.049660
 20
113.000000
 42
-0.083145
  0
VERTEX
  8
0
 10
827.471804
 20
112.594419
 42
-0.048935
  0
VERTEX
  8
0
 10
830.147546
 20
111.368537
 42
-0.049608
  0
VERTEX
  8
0
 10
832.404667
 20
109.734783
 42
-0.135265
  0
VERTEX
  8
0
 10
833.469528
 20
108.096010
 42
-0.088351
  0
VERTEX
  8
0
 10
833.762535
 20
105.873628
 42
-0.063974
  0
VERTEX
  8
0
 10
833.331922
 20
103.408400
 42
-0.066749
  0
VERTEX
  8
0
 10
832.334341
 20
101.256014
 42
-0.128728
  0
VERTEX
  8
0
 10
830.950713
 20
99.973622
 42
-0.116017
  0
VERTEX
  8
0
 10
827.328193
 20
99.008420
 42
-0.089896
  0
VERTEX
  8
0
 10
823.279119
 20
99.620029
 42
-0.103171
  0
VERTEX
  8
0
 10
820.134442
 20
101.483058
 42
-0.210619
  0
VERTEX
  8
0
 10
819.000000
 20
104.056704
 42
0.081561
  0
VERTEX
  8
0
 10
818.851439
 20
104.961379
 42
0.150460
  0
VERTEX
  8
0
 10
818.419712
 20
105.560771
 42
0.120017
  0
VERTEX
  8
0
 10
817.644901
 20
105.896627
 42
0.042558
  0
VERTEX
  8
0
 10
816.432612
 20
106.000000
 42
0.029060
  0
VERTEX
  8
0
 10
815.047212
 20
105.919414
 42
0.190869
  0
VERTEX
  8
0
 10
814.446363
 20
105.596294
 42
0.213698
  0
VERTEX
  8
0
 10
814.268107
 20
104.974341
 42
0.037041
  0
VERTEX
  8
0
 10
814.536738
 20
103.750000
 42
0.045475
  0
VERTEX
  8
0
 10
815.700931
 20
100.843016
 42
0.070701
  0
VERTEX
  8
0
 10
817.251863
 20
98.637973
 42
0.074545
  0
VERTEX
  8
0
 10
819.288766
 20
97.031375
 42
0.057044
  0
VERTEX
  8
0
 10
821.899496
 20
95.911965
 42
0.133700
  0
VERTEX
  8
0
 10
829.749853
 20
95.713520
 42
0.161741
  0
VERTEX
  8
0
 10
835.958190
 20
99.616702
 42
0.192633
  0
VERTEX
  8
0
 10
837.951364
 20
105.877090
 42
0.180169
  0
VERTEX
  8
0
 10
835.149573
 20
112.004274
 42
0.000000
  0
VERTEX
  8
0
 10
832.299145
 20
114.854701
 42
0.000000
  0
VERTEX
  8
0
 10
834.349573
 20
116.905128
 42
0.059879
  0
VERTEX
  8
0
 10
835.222860
 20
118.017012
 42
0.050288
  0
VERTEX
  8
0
 10
835.869259
 20
119.370065
 42
0.046955
  0
VERTEX
  8
0
 10
836.266663
 20
120.917737
 42
0.039396
  0
VERTEX
  8
0
 10
836.400000
 20
122.607370
 42
0.174394
  0
VERTEX
  8
0
 10
834.623478
 20
127.545886
 42
0.145224
  0
VERTEX
  8
0
 10
829.967263
 20
130.675193
 42
0.133219
  0
VERTEX
  8
0
 10
824.025203
 20
130.903620
 42
0.140652
  0
SEQEND
  0
POLYLINE
  8
0
 66
1
 70
1
  0
VERTEX
  8
0
 10
889.881475
 20
129.496912
 42
0.098768
  0
VERTEX
  8
0
 10
887.467912
 20
127.485806
 42
0.062457
  0
VERTEX
  8
0
 10
885.532277
 20
124.360067
 42
0.061968
  0
VERTEX
  8
0
 10
884.414060
 20
120.819668
 42
0.092159
  0
VERTEX
  8
0
 10
884.419401
 20
117.577939
 42
0.058116
  0
VERTEX
  8
0
 10
884.869448
 20
116.130994
 42
0.029715
  0
VERTEX
  8
0
 10
885.743919
 20
114.439168
 42
0.029065
  0
VERTEX
  8
0
 10
886.864747
 20
112.781670
 42
0.038548
  0
VERTEX
  8
0
 10
888.078115
 20
111.425161
 42
0.092126
  0
VERTEX
  8
0
 10
891.362320
 20
109.272287
 42
0.088494
  0
VERTEX
  8
0
 10
895.247805
 20
108.403476
 42
0.086686
  0
VERTEX
  8
0
 10
899.262769
 20
108.926268
 42
0.083749
  0
VERTEX
  8
0
 10
902.916220
 20
110.779937
 42
-0.013727
  0
VERTEX
  8
0
 10
905.174138
 20
112.355308
 42
-0.425416
  0
VERTEX
  8
0
 10
905.775720
 20
112.219069
 42
-0.199812
  0
VERTEX
  8
0
 10
905.905826
 20
111.353586
 42
-0.005222
  0
VERTEX
  8
0
 10
904.898572
 20
107.500000
 42
-0.048895
  0
VERTEX
  8
0
 10
903.501943
 20
103.832060
 42
-0.082219
  0
VERTEX
  8
0
 10
901.577177
 20
101.167634
 42
-0.097617
  0
VERTEX
  8
0
 10
899.162596
 20
99.563109
 42
-0.098288
  0
VERTEX
  8
0
 10
896.325686
 20
99.000000
 42
-0.087027
  0
VERTEX
  8
0
 10
893.902039
 20
99.425067
 42
-0.063001
  0
VERTEX
  8
0
 10
891.456618
 20
100.676715
 42
-0.067568
  0
VERTEX
  8
0
 10
889.605661
 20
102.345998
 42
-0.177332
  0
VERTEX
  8
0
 10
889.000000
 20
104.000000
 42
0.148195
  0
VERTEX
  8
0
 10
888.884432
 20
104.381354
 42
0.098894
  0
VERTEX
  8
0
 10
888.559375
 20
104.706250
 42
0.082425
  0
VERTEX
  8
0
 10
888.073457
 20
104.925306
 42
0.064853
  0
VERTEX
  8
0
 10
887.500000
 20
105.000000
 42
0.272158
  0
VERTEX
  8
0
 10
886.370099
 20
104.335778
 42
0.163301
  0
VERTEX
  8
0
 10
886.076373
 20
102.758932
 42
0.095458
  0
VERTEX
  8
0
 10
886.824802
 20
100.573315
 42
0.066382
  0
VERTEX
  8
0
 10
888.413878
 20
98.495213
 42
0.117734
  0
VERTEX
  8
0
 10
893.001514
 20
95.676134
 42
0.126456
  0
VERTEX
  8
0
 10
898.241719
 20
95.334808
 42
0.120044
  0
VERTEX
  8
0
 10
903.203178
 20
97.583130
 42
0.099493
  0
VERTEX
  8
0
 10
906.984599
 20
102.000000
 42
0.029533
  0
VERTEX
  8
0
 10
908.269239
 20
104.654928
 42
0.046280
  0
VERTEX
  8
0
 10
909.016153
 20
107.077061
 42
0.038064
  0
VERTEX
  8
0
 10
909.388783
 20
109.915468
 42
0.013612
  0
VERTEX
  8
0
 10
909.500000
 20
114.000000
 42
0.053135
  0
VERTEX
  8
0
 10
908.694425
 20
121.559043
 42
0.113631
  0
VERTEX
  8
0
 10
906.215474
 20
126.843401
 42
0.136500
  0
VERTEX
  8
0
 10
902.033424
 20
129.921827
 42
0.093783
  0
VERTEX
  8
0
 10
896.202947
 20
130.959962
 42
0.031565
  0
VERTEX
  8
0
 10
894.593634
 20
130.840784
 42
0.022606
  0
VERTEX
  8
0
 10
892.818549
 20
130.513676
 42
0.022943
  0
VERTEX
  8
0
 10
891.149678
 20
130.045841
 42
0.044680
  0
SEQEND
  0
POLYLINE
  8
0
 66
1
 70
1
  0
VERTEX
  8
0
 10
903.279633
 20
123.837053
 42
-0.210593
  0
VERTEX
  8
0
 10
904.459800
 20
118.667465
 42
-0.178025
  0
VERTEX
  8
0
 10
901.538946
 20
113.828110
 42
-0.170429
  0
VERTEX
  8
0
 10
896.061274
 20
111.904071
 42
-0.198958
  0
VERTEX
  8
0
 10
891.000000
 20
114.000000
 42
-0.103816
  0
VERTEX
  8
0
 10
889.376041
 20
116.486779
 42
-0.088492
  0
VERTEX
  8
0
 10
888.767741
 20
119.565139
 42
-0.087755
  0
VERTEX
  8
0
 10
889.260302
 20
122.686893
 42
-0.099662
  0
VERTEX
  8
0
 10
890.790228
 20
125.296734
 42
-0.160559
  0
VERTEX
  8
0
 10
893.311816
 20
126.752266
 42
-0.080536
  0
VERTEX
  8
0
 10
897.027697
 20
126.917286
 42
-0.077770
  0
VERTEX
  8
0
 10
900.745765
 20
125.881977
 42
-0.126780
  0
SEQEND
  0
POLYLINE
  8
0
 66
1
 70
1
  0
VERTEX
  8
0
 10
554.654988
 20
116.171259
 42
0.089993
  0
VERTEX
  8
0
 10
553.443235
 20
114.221466
 42
0.105074
  0
VERTEX
  8
0
 10
553.081081
 20
112.075456
 42
0.102980
  0
VERTEX
  8
0
 10
553.621996
 20
109.934167
 42
0.083374
  0
VERTEX
  8
0
 10
555.000000
 20
108.000000
 42
0.034819
  0
VERTEX
  8
0
 10
556.591409
 20
106.616041
 42
0.130469
  0
VERTEX
  8
0
 10
557.807576
 20
106.120806
 42
0.115002
  0
VERTEX
  8
0
 10
559.195710
 20
106.262558
 42
0.024196
  0
VERTEX
  8
0
 10
561.476924
 20
107.171439
 42
0.103473
  0
VERTEX
  8
0
 10
563.466963
 20
108.633830
 42
0.121315
  0
VERTEX
  8
0
 10
564.565348
 20
110.696087
 42
0.116761
  0
VERTEX
  8
0
 10
564.602490
 20
113.095896
 42
0.091011
  0
VERTEX
  8
0
 10
563.587184
 20
115.507285
 42
0.118803
  0
VERTEX
  8
0
 10
561.753798
 20
117.229908
 42
0.111348
  0
VERTEX
  8
0
 10
559.292507
 20
117.980449
 42
0.110980
  0
VERTEX
  8
0
 10
556.740681
 20
117.602979
 42
0.117365
  0
SEQEND
  0
ENDSEC
  0
EOF
