999
"DXF R12 Output" (www.mydxf.blogspot.com)
 0 
SECTION
 2 
HEADER
 9 
$ACADVER
 1 
AC1009
 9 
$EXTMIN
 10 
 0 
 20 
 0 
 9 
$EXTMAX
 10 
 8.5 
 20 
 11 
 0 
ENDSEC
 0 
SECTION
 2 
ENTITIES
0
POLYLINE
8
Layer 1
62
7
70
1
10
0.000000
20
0.000000
66
1
0
VERTEX
8
Layer 1
10
0.000000
20
92.604200
70
0
0
VERTEX
8
Layer 1
10
92.427836
20
92.604200
70
0
0
VERTEX
8
Layer 1
10
92.427836
20
0.176364
70
0
0
VERTEX
8
Layer 1
10
0.000000
20
0.176364
70
0
0
VERTEX
8
Layer 1
10
0.000000
20
92.604200
70
0
0
SEQEND
8
Layer 1
0
POLYLINE
8
Layer 1
62
7
70
1
10
0.000000
20
0.000000
66
1
0
VERTEX
8
Layer 1
10
0.000000
20
92.604200
70
0
0
VERTEX
8
Layer 1
10
92.427836
20
92.604200
70
0
0
VERTEX
8
Layer 1
10
92.427836
20
0.176364
70
0
0
VERTEX
8
Layer 1
10
0.000000
20
0.176364
70
0
0
VERTEX
8
Layer 1
10
0.000000
20
92.604200
70
0
0
SEQEND
8
Layer 1
0
POLYLINE
8
Layer 1
62
7
70
1
10
0.000000
20
0.000000
66
1
0
VERTEX
8
Layer 1
10
16.839050
20
8.483031
70
0
0
VERTEX
8
Layer 1
10
16.089396
20
8.675956
70
0
0
VERTEX
8
Layer 1
10
15.598814
20
9.210635
70
0
0
VERTEX
8
Layer 1
10
15.427938
20
10.009898
70
0
0
VERTEX
8
Layer 1
10
15.598814
20
10.809161
70
0
0
VERTEX
8
Layer 1
10
16.089396
20
11.349352
70
0
0
VERTEX
8
Layer 1
10
16.839050
20
11.542277
70
0
0
VERTEX
8
Layer 1
10
17.665873
20
11.299742
70
0
0
VERTEX
8
Layer 1
10
18.073773
20
10.621747
70
0
0
VERTEX
8
Layer 1
10
17.682410
20
10.621747
70
0
0
VERTEX
8
Layer 1
10
17.406802
20
11.062720
70
0
0
VERTEX
8
Layer 1
10
16.839050
20
11.228084
70
0
0
VERTEX
8
Layer 1
10
16.287834
20
11.079256
70
0
0
VERTEX
8
Layer 1
10
15.918520
20
10.660332
70
0
0
VERTEX
8
Layer 1
10
15.791740
20
10.009898
70
0
0
VERTEX
8
Layer 1
10
15.918520
20
9.353951
70
0
0
VERTEX
8
Layer 1
10
16.287834
20
8.940540
70
0
0
VERTEX
8
Layer 1
10
16.839050
20
8.797224
70
0
0
VERTEX
8
Layer 1
10
17.406802
20
8.957076
70
0
0
VERTEX
8
Layer 1
10
17.682410
20
9.392536
70
0
0
VERTEX
8
Layer 1
10
18.073773
20
9.392536
70
0
0
VERTEX
8
Layer 1
10
17.665873
20
8.720053
70
0
0
VERTEX
8
Layer 1
10
16.839050
20
8.483031
70
0
0
VERTEX
8
Layer 1
10
16.839050
20
8.483031
70
0
0
SEQEND
8
Layer 1
0
POLYLINE
8
Layer 1
62
7
70
1
10
0.000000
20
0.000000
66
1
0
VERTEX
8
Layer 1
10
21.966093
20
8.532640
70
0
0
VERTEX
8
Layer 1
10
21.966093
20
11.492668
70
0
0
VERTEX
8
Layer 1
10
22.318871
20
11.492668
70
0
0
VERTEX
8
Layer 1
10
22.318871
20
10.186287
70
0
0
VERTEX
8
Layer 1
10
23.856763
20
10.186287
70
0
0
VERTEX
8
Layer 1
10
23.856763
20
11.492668
70
0
0
VERTEX
8
Layer 1
10
24.209541
20
11.492668
70
0
0
VERTEX
8
Layer 1
10
24.209541
20
8.532640
70
0
0
VERTEX
8
Layer 1
10
23.856763
20
8.532640
70
0
0
VERTEX
8
Layer 1
10
23.856763
20
9.894143
70
0
0
VERTEX
8
Layer 1
10
22.318871
20
9.894143
70
0
0
VERTEX
8
Layer 1
10
22.318871
20
8.532640
70
0
0
VERTEX
8
Layer 1
10
21.966093
20
8.532640
70
0
0
SEQEND
8
Layer 1
0
POLYLINE
8
Layer 1
62
7
70
1
10
0.000000
20
0.000000
66
1
0
VERTEX
8
Layer 1
10
28.027980
20
8.532640
70
0
0
VERTEX
8
Layer 1
10
29.119387
20
11.492668
70
0
0
VERTEX
8
Layer 1
10
29.494213
20
11.492668
70
0
0
VERTEX
8
Layer 1
10
30.580108
20
8.532640
70
0
0
VERTEX
8
Layer 1
10
30.205281
20
8.532640
70
0
0
VERTEX
8
Layer 1
10
29.935186
20
9.293318
70
0
0
VERTEX
8
Layer 1
10
28.672902
20
9.293318
70
0
0
VERTEX
8
Layer 1
10
28.402806
20
8.532640
70
0
0
VERTEX
8
Layer 1
10
28.027980
20
8.532640
70
0
0
SEQEND
8
Layer 1
0
POLYLINE
8
Layer 1
62
7
70
1
10
0.000000
20
0.000000
66
1
0
VERTEX
8
Layer 1
10
28.783145
20
9.579950
70
0
0
VERTEX
8
Layer 1
10
29.830455
20
9.579950
70
0
0
VERTEX
8
Layer 1
10
29.306800
20
11.046183
70
0
0
VERTEX
8
Layer 1
10
28.783145
20
9.579950
70
0
0
SEQEND
8
Layer 1
0
POLYLINE
8
Layer 1
62
7
70
1
10
0.000000
20
0.000000
66
1
0
VERTEX
8
Layer 1
10
35.746159
20
8.483031
70
0
0
VERTEX
8
Layer 1
10
34.979969
20
8.675956
70
0
0
VERTEX
8
Layer 1
10
34.467339
20
9.210635
70
0
0
VERTEX
8
Layer 1
10
34.285438
20
10.009898
70
0
0
VERTEX
8
Layer 1
10
34.467339
20
10.809161
70
0
0
VERTEX
8
Layer 1
10
34.979969
20
11.349352
70
0
0
VERTEX
8
Layer 1
10
35.746159
20
11.542277
70
0
0
VERTEX
8
Layer 1
10
36.506837
20
11.349352
70
0
0
VERTEX
8
Layer 1
10
37.019467
20
10.809161
70
0
0
VERTEX
8
Layer 1
10
37.201368
20
10.009898
70
0
0
VERTEX
8
Layer 1
10
37.019467
20
9.210635
70
0
0
VERTEX
8
Layer 1
10
36.506837
20
8.675956
70
0
0
VERTEX
8
Layer 1
10
35.746159
20
8.483031
70
0
0
VERTEX
8
Layer 1
10
35.746159
20
8.483031
70
0
0
SEQEND
8
Layer 1
0
POLYLINE
8
Layer 1
62
7
70
1
10
0.000000
20
0.000000
66
1
0
VERTEX
8
Layer 1
10
35.746159
20
8.797224
70
0
0
VERTEX
8
Layer 1
10
36.313911
20
8.940540
70
0
0
VERTEX
8
Layer 1
10
36.699762
20
9.353951
70
0
0
VERTEX
8
Layer 1
10
36.837566
20
10.009898
70
0
0
VERTEX
8
Layer 1
10
36.699762
20
10.660332
70
0
0
VERTEX
8
Layer 1
10
36.313911
20
11.079256
70
0
0
VERTEX
8
Layer 1
10
35.746159
20
11.228084
70
0
0
VERTEX
8
Layer 1
10
35.172895
20
11.079256
70
0
0
VERTEX
8
Layer 1
10
34.787044
20
10.660332
70
0
0
VERTEX
8
Layer 1
10
34.649240
20
10.009898
70
0
0
VERTEX
8
Layer 1
10
34.787044
20
9.353951
70
0
0
VERTEX
8
Layer 1
10
35.172895
20
8.940540
70
0
0
VERTEX
8
Layer 1
10
35.746159
20
8.797224
70
0
0
VERTEX
8
Layer 1
10
35.746159
20
8.797224
70
0
0
SEQEND
8
Layer 1
0
POLYLINE
8
Layer 1
62
7
70
1
10
0.000000
20
0.000000
66
1
0
VERTEX
8
Layer 1
10
42.036472
20
8.483031
70
0
0
VERTEX
8
Layer 1
10
41.468720
20
8.598786
70
0
0
VERTEX
8
Layer 1
10
41.093893
20
8.929515
70
0
0
VERTEX
8
Layer 1
10
40.967113
20
9.420097
70
0
0
VERTEX
8
Layer 1
10
41.336428
20
9.420097
70
0
0
VERTEX
8
Layer 1
10
41.413598
20
9.100392
70
0
0
VERTEX
8
Layer 1
10
41.650621
20
8.868882
70
0
0
VERTEX
8
Layer 1
10
42.036472
20
8.780687
70
0
0
VERTEX
8
Layer 1
10
42.499493
20
8.924003
70
0
0
VERTEX
8
Layer 1
10
42.664857
20
9.287805
70
0
0
VERTEX
8
Layer 1
10
42.587687
20
9.568925
70
0
0
VERTEX
8
Layer 1
10
42.383737
20
9.745314
70
0
0
VERTEX
8
Layer 1
10
42.086081
20
9.861070
70
0
0
VERTEX
8
Layer 1
10
41.738815
20
9.976825
70
0
0
VERTEX
8
Layer 1
10
41.231697
20
10.268969
70
0
0
VERTEX
8
Layer 1
10
41.066332
20
10.731990
70
0
0
VERTEX
8
Layer 1
10
41.176575
20
11.150914
70
0
0
VERTEX
8
Layer 1
10
41.501792
20
11.437546
70
0
0
VERTEX
8
Layer 1
10
41.997887
20
11.542277
70
0
0
VERTEX
8
Layer 1
10
42.488468
20
11.437546
70
0
0
VERTEX
8
Layer 1
10
42.813686
20
11.145402
70
0
0
VERTEX
8
Layer 1
10
42.934953
20
10.720966
70
0
0
VERTEX
8
Layer 1
10
42.565639
20
10.720966
70
0
0
VERTEX
8
Layer 1
10
42.499493
20
10.963501
70
0
0
VERTEX
8
Layer 1
10
42.306567
20
11.161939
70
0
0
VERTEX
8
Layer 1
10
41.986862
20
11.239109
70
0
0
VERTEX
8
Layer 1
10
41.589987
20
11.117841
70
0
0
VERTEX
8
Layer 1
10
41.435647
20
10.765063
70
0
0
VERTEX
8
Layer 1
10
41.540378
20
10.472919
70
0
0
VERTEX
8
Layer 1
10
41.843546
20
10.307554
70
0
0
VERTEX
8
Layer 1
10
42.295543
20
10.158726
70
0
0
VERTEX
8
Layer 1
10
42.670370
20
9.976825
70
0
0
VERTEX
8
Layer 1
10
42.934953
20
9.717754
70
0
0
VERTEX
8
Layer 1
10
43.034172
20
9.304342
70
0
0
VERTEX
8
Layer 1
10
42.923929
20
8.907467
70
0
0
VERTEX
8
Layer 1
10
42.587687
20
8.598786
70
0
0
VERTEX
8
Layer 1
10
42.036472
20
8.483031
70
0
0
VERTEX
8
Layer 1
10
42.036472
20
8.483031
70
0
0
SEQEND
8
Layer 1
0
POLYLINE
8
Layer 1
62
7
70
1
10
0.000000
20
0.000000
66
1
0
VERTEX
8
Layer 1
10
47.357465
20
9.431121
70
0
0
VERTEX
8
Layer 1
10
47.103906
20
9.497267
70
0
0
VERTEX
8
Layer 1
10
46.916493
20
9.684681
70
0
0
VERTEX
8
Layer 1
10
46.850347
20
9.938240
70
0
0
VERTEX
8
Layer 1
10
46.916493
20
10.197311
70
0
0
VERTEX
8
Layer 1
10
47.103906
20
10.384725
70
0
0
VERTEX
8
Layer 1
10
47.357465
20
10.450870
70
0
0
VERTEX
8
Layer 1
10
47.616537
20
10.384725
70
0
0
VERTEX
8
Layer 1
10
47.798438
20
10.197311
70
0
0
VERTEX
8
Layer 1
10
47.864584
20
9.938240
70
0
0
VERTEX
8
Layer 1
10
47.798438
20
9.684681
70
0
0
VERTEX
8
Layer 1
10
47.616537
20
9.497267
70
0
0
VERTEX
8
Layer 1
10
47.357465
20
9.431121
70
0
0
VERTEX
8
Layer 1
10
47.357465
20
9.431121
70
0
0
SEQEND
8
Layer 1
0
POLYLINE
8
Layer 1
62
7
70
1
10
0.000000
20
0.000000
66
1
0
VERTEX
8
Layer 1
10
52.961234
20
8.483031
70
0
0
VERTEX
8
Layer 1
10
52.283238
20
8.675956
70
0
0
VERTEX
8
Layer 1
10
51.842266
20
9.210635
70
0
0
VERTEX
8
Layer 1
10
51.693438
20
10.009898
70
0
0
VERTEX
8
Layer 1
10
51.842266
20
10.809161
70
0
0
VERTEX
8
Layer 1
10
52.283238
20
11.349352
70
0
0
VERTEX
8
Layer 1
10
52.961234
20
11.542277
70
0
0
VERTEX
8
Layer 1
10
53.633717
20
11.349352
70
0
0
VERTEX
8
Layer 1
10
54.069177
20
10.809161
70
0
0
VERTEX
8
Layer 1
10
54.223517
20
10.009898
70
0
0
VERTEX
8
Layer 1
10
54.069177
20
9.210635
70
0
0
VERTEX
8
Layer 1
10
53.633717
20
8.675956
70
0
0
VERTEX
8
Layer 1
10
52.961234
20
8.483031
70
0
0
VERTEX
8
Layer 1
10
52.961234
20
8.483031
70
0
0
SEQEND
8
Layer 1
0
POLYLINE
8
Layer 1
62
7
70
1
10
0.000000
20
0.000000
66
1
0
VERTEX
8
Layer 1
10
52.961234
20
8.797224
70
0
0
VERTEX
8
Layer 1
10
53.424255
20
8.940540
70
0
0
VERTEX
8
Layer 1
10
53.743960
20
9.353951
70
0
0
VERTEX
8
Layer 1
10
53.865227
20
10.009898
70
0
0
VERTEX
8
Layer 1
10
53.743960
20
10.660332
70
0
0
VERTEX
8
Layer 1
10
53.424255
20
11.079256
70
0
0
VERTEX
8
Layer 1
10
52.961234
20
11.228084
70
0
0
VERTEX
8
Layer 1
10
52.498212
20
11.079256
70
0
0
VERTEX
8
Layer 1
10
52.172995
20
10.660332
70
0
0
VERTEX
8
Layer 1
10
52.057240
20
10.009898
70
0
0
VERTEX
8
Layer 1
10
52.172995
20
9.353951
70
0
0
VERTEX
8
Layer 1
10
52.498212
20
8.940540
70
0
0
VERTEX
8
Layer 1
10
52.961234
20
8.797224
70
0
0
VERTEX
8
Layer 1
10
52.961234
20
8.797224
70
0
0
SEQEND
8
Layer 1
0
POLYLINE
8
Layer 1
62
7
70
1
10
0.000000
20
0.000000
66
1
0
VERTEX
8
Layer 1
10
59.269534
20
8.483031
70
0
0
VERTEX
8
Layer 1
10
58.591538
20
8.675956
70
0
0
VERTEX
8
Layer 1
10
58.150566
20
9.210635
70
0
0
VERTEX
8
Layer 1
10
58.001738
20
10.009898
70
0
0
VERTEX
8
Layer 1
10
58.150566
20
10.809161
70
0
0
VERTEX
8
Layer 1
10
58.591538
20
11.349352
70
0
0
VERTEX
8
Layer 1
10
59.269534
20
11.542277
70
0
0
VERTEX
8
Layer 1
10
59.942017
20
11.349352
70
0
0
VERTEX
8
Layer 1
10
60.377477
20
10.809161
70
0
0
VERTEX
8
Layer 1
10
60.531817
20
10.009898
70
0
0
VERTEX
8
Layer 1
10
60.377477
20
9.210635
70
0
0
VERTEX
8
Layer 1
10
59.942017
20
8.675956
70
0
0
VERTEX
8
Layer 1
10
59.269534
20
8.483031
70
0
0
VERTEX
8
Layer 1
10
59.269534
20
8.483031
70
0
0
SEQEND
8
Layer 1
0
POLYLINE
8
Layer 1
62
7
70
1
10
0.000000
20
0.000000
66
1
0
VERTEX
8
Layer 1
10
59.269534
20
8.797224
70
0
0
VERTEX
8
Layer 1
10
59.732555
20
8.940540
70
0
0
VERTEX
8
Layer 1
10
60.052260
20
9.353951
70
0
0
VERTEX
8
Layer 1
10
60.173527
20
10.009898
70
0
0
VERTEX
8
Layer 1
10
60.052260
20
10.660332
70
0
0
VERTEX
8
Layer 1
10
59.732555
20
11.079256
70
0
0
VERTEX
8
Layer 1
10
59.269534
20
11.228084
70
0
0
VERTEX
8
Layer 1
10
58.806512
20
11.079256
70
0
0
VERTEX
8
Layer 1
10
58.481295
20
10.660332
70
0
0
VERTEX
8
Layer 1
10
58.365540
20
10.009898
70
0
0
VERTEX
8
Layer 1
10
58.481295
20
9.353951
70
0
0
VERTEX
8
Layer 1
10
58.806512
20
8.940540
70
0
0
VERTEX
8
Layer 1
10
59.269534
20
8.797224
70
0
0
VERTEX
8
Layer 1
10
59.269534
20
8.797224
70
0
0
SEQEND
8
Layer 1
0
POLYLINE
8
Layer 1
62
7
70
1
10
0.000000
20
0.000000
66
1
0
VERTEX
8
Layer 1
10
64.718037
20
8.532640
70
0
0
VERTEX
8
Layer 1
10
64.718037
20
11.095793
70
0
0
VERTEX
8
Layer 1
10
64.238480
20
10.991062
70
0
0
VERTEX
8
Layer 1
10
64.238480
20
11.233597
70
0
0
VERTEX
8
Layer 1
10
64.833792
20
11.492668
70
0
0
VERTEX
8
Layer 1
10
65.076327
20
11.492668
70
0
0
VERTEX
8
Layer 1
10
65.076327
20
8.532640
70
0
0
VERTEX
8
Layer 1
10
64.718037
20
8.532640
70
0
0
SEQEND
8
Layer 1
0
POLYLINE
8
Layer 1
62
7
70
1
10
0.000000
20
0.000000
66
1
0
VERTEX
8
Layer 1
10
70.002723
20
8.483031
70
0
0
VERTEX
8
Layer 1
10
69.490092
20
8.582249
70
0
0
VERTEX
8
Layer 1
10
69.126290
20
8.896442
70
0
0
VERTEX
8
Layer 1
10
68.977462
20
9.414585
70
0
0
VERTEX
8
Layer 1
10
69.341264
20
9.414585
70
0
0
VERTEX
8
Layer 1
10
69.512141
20
8.973613
70
0
0
VERTEX
8
Layer 1
10
70.002723
20
8.791711
70
0
0
VERTEX
8
Layer 1
10
70.471256
20
8.962588
70
0
0
VERTEX
8
Layer 1
10
70.631109
20
9.381512
70
0
0
VERTEX
8
Layer 1
10
70.531890
20
9.717754
70
0
0
VERTEX
8
Layer 1
10
70.267307
20
9.910679
70
0
0
VERTEX
8
Layer 1
10
69.903504
20
9.976825
70
0
0
VERTEX
8
Layer 1
10
69.683018
20
9.976825
70
0
0
VERTEX
8
Layer 1
10
69.683018
20
10.279994
70
0
0
VERTEX
8
Layer 1
10
69.903504
20
10.279994
70
0
0
VERTEX
8
Layer 1
10
70.349989
20
10.406773
70
0
0
VERTEX
8
Layer 1
10
70.515354
20
10.776088
70
0
0
VERTEX
8
Layer 1
10
70.383062
20
11.101305
70
0
0
VERTEX
8
Layer 1
10
70.002723
20
11.233597
70
0
0
VERTEX
8
Layer 1
10
69.605848
20
11.084768
70
0
0
VERTEX
8
Layer 1
10
69.445995
20
10.720966
70
0
0
VERTEX
8
Layer 1
10
69.087705
20
10.720966
70
0
0
VERTEX
8
Layer 1
10
69.214485
20
11.150914
70
0
0
VERTEX
8
Layer 1
10
69.534190
20
11.437546
70
0
0
VERTEX
8
Layer 1
10
70.002723
20
11.542277
70
0
0
VERTEX
8
Layer 1
10
70.482281
20
11.437546
70
0
0
VERTEX
8
Layer 1
10
70.774425
20
11.167451
70
0
0
VERTEX
8
Layer 1
10
70.873644
20
10.798136
70
0
0
VERTEX
8
Layer 1
10
70.746864
20
10.390237
70
0
0
VERTEX
8
Layer 1
10
70.383062
20
10.142190
70
0
0
VERTEX
8
Layer 1
10
70.818522
20
9.894143
70
0
0
VERTEX
8
Layer 1
10
70.989399
20
9.381512
70
0
0
VERTEX
8
Layer 1
10
70.879156
20
8.929515
70
0
0
VERTEX
8
Layer 1
10
70.548426
20
8.604298
70
0
0
VERTEX
8
Layer 1
10
70.002723
20
8.483031
70
0
0
VERTEX
8
Layer 1
10
70.002723
20
8.483031
70
0
0
SEQEND
8
Layer 1
0
POLYLINE
8
Layer 1
62
7
70
1
10
0.000000
20
0.000000
66
1
0
VERTEX
8
Layer 1
10
76.286647
20
8.532640
70
0
0
VERTEX
8
Layer 1
10
76.286647
20
9.166538
70
0
0
VERTEX
8
Layer 1
10
74.787340
20
9.166538
70
0
0
VERTEX
8
Layer 1
10
74.787340
20
9.442146
70
0
0
VERTEX
8
Layer 1
10
76.220501
20
11.492668
70
0
0
VERTEX
8
Layer 1
10
76.639425
20
11.492668
70
0
0
VERTEX
8
Layer 1
10
76.639425
20
9.480731
70
0
0
VERTEX
8
Layer 1
10
77.074885
20
9.480731
70
0
0
VERTEX
8
Layer 1
10
77.074885
20
9.166538
70
0
0
VERTEX
8
Layer 1
10
76.639425
20
9.166538
70
0
0
VERTEX
8
Layer 1
10
76.639425
20
8.532640
70
0
0
VERTEX
8
Layer 1
10
76.286647
20
8.532640
70
0
0
SEQEND
8
Layer 1
0
POLYLINE
8
Layer 1
62
7
70
1
10
0.000000
20
0.000000
66
1
0
VERTEX
8
Layer 1
10
75.178703
20
9.480731
70
0
0
VERTEX
8
Layer 1
10
76.303183
20
9.480731
70
0
0
VERTEX
8
Layer 1
10
76.303183
20
11.101305
70
0
0
VERTEX
8
Layer 1
10
75.178703
20
9.480731
70
0
0
SEQEND
8
Layer 1
 0 
ENDSEC
 0 
EOF