999
"DXF R12 Output" (www.mydxf.blogspot.com)
 0 
SECTION
 2 
HEADER
 9 
$ACADVER
 1 
AC1009
 9 
$EXTMIN
 10 
 0 
 20 
 0 
 9 
$EXTMAX
 10 
 8.5 
 20 
 11 
 0 
ENDSEC
 0 
SECTION
 2 
ENTITIES
0
POLYLINE
8
Layer 1
62
7
70
1
10
0.000000
20
0.000000
66
1
0
VERTEX
8
Layer 1
10
0.000000
20
92.604200
70
0
0
VERTEX
8
Layer 1
10
92.427836
20
92.604200
70
0
0
VERTEX
8
Layer 1
10
92.427836
20
0.176364
70
0
0
VERTEX
8
Layer 1
10
0.000000
20
0.176364
70
0
0
VERTEX
8
Layer 1
10
0.000000
20
92.604200
70
0
0
SEQEND
8
Layer 1
0
POLYLINE
8
Layer 1
62
7
70
1
10
0.000000
20
0.000000
66
1
0
VERTEX
8
Layer 1
10
0.000000
20
92.604200
70
0
0
VERTEX
8
Layer 1
10
92.427836
20
92.604200
70
0
0
VERTEX
8
Layer 1
10
92.427836
20
0.176364
70
0
0
VERTEX
8
Layer 1
10
0.000000
20
0.176364
70
0
0
VERTEX
8
Layer 1
10
0.000000
20
92.604200
70
0
0
SEQEND
8
Layer 1
0
POLYLINE
8
Layer 1
62
7
70
1
10
0.000000
20
0.000000
66
1
0
VERTEX
8
Layer 1
10
16.876250
20
8.483031
70
0
0
VERTEX
8
Layer 1
10
16.126596
20
8.675956
70
0
0
VERTEX
8
Layer 1
10
15.636014
20
9.210635
70
0
0
VERTEX
8
Layer 1
10
15.465138
20
10.009898
70
0
0
VERTEX
8
Layer 1
10
15.636014
20
10.809161
70
0
0
VERTEX
8
Layer 1
10
16.126596
20
11.349352
70
0
0
VERTEX
8
Layer 1
10
16.876250
20
11.542277
70
0
0
VERTEX
8
Layer 1
10
17.703073
20
11.299742
70
0
0
VERTEX
8
Layer 1
10
18.110973
20
10.621747
70
0
0
VERTEX
8
Layer 1
10
17.719610
20
10.621747
70
0
0
VERTEX
8
Layer 1
10
17.444002
20
11.062720
70
0
0
VERTEX
8
Layer 1
10
16.876250
20
11.228084
70
0
0
VERTEX
8
Layer 1
10
16.325034
20
11.079256
70
0
0
VERTEX
8
Layer 1
10
15.955720
20
10.660332
70
0
0
VERTEX
8
Layer 1
10
15.828940
20
10.009898
70
0
0
VERTEX
8
Layer 1
10
15.955720
20
9.353951
70
0
0
VERTEX
8
Layer 1
10
16.325034
20
8.940540
70
0
0
VERTEX
8
Layer 1
10
16.876250
20
8.797224
70
0
0
VERTEX
8
Layer 1
10
17.444002
20
8.957076
70
0
0
VERTEX
8
Layer 1
10
17.719610
20
9.392536
70
0
0
VERTEX
8
Layer 1
10
18.110973
20
9.392536
70
0
0
VERTEX
8
Layer 1
10
17.703073
20
8.720053
70
0
0
VERTEX
8
Layer 1
10
16.876250
20
8.483031
70
0
0
VERTEX
8
Layer 1
10
16.876250
20
8.483031
70
0
0
SEQEND
8
Layer 1
0
POLYLINE
8
Layer 1
62
7
70
1
10
0.000000
20
0.000000
66
1
0
VERTEX
8
Layer 1
10
22.003393
20
8.532640
70
0
0
VERTEX
8
Layer 1
10
22.003393
20
11.492668
70
0
0
VERTEX
8
Layer 1
10
22.356171
20
11.492668
70
0
0
VERTEX
8
Layer 1
10
22.356171
20
10.186287
70
0
0
VERTEX
8
Layer 1
10
23.894063
20
10.186287
70
0
0
VERTEX
8
Layer 1
10
23.894063
20
11.492668
70
0
0
VERTEX
8
Layer 1
10
24.246840
20
11.492668
70
0
0
VERTEX
8
Layer 1
10
24.246840
20
8.532640
70
0
0
VERTEX
8
Layer 1
10
23.894063
20
8.532640
70
0
0
VERTEX
8
Layer 1
10
23.894063
20
9.894143
70
0
0
VERTEX
8
Layer 1
10
22.356171
20
9.894143
70
0
0
VERTEX
8
Layer 1
10
22.356171
20
8.532640
70
0
0
VERTEX
8
Layer 1
10
22.003393
20
8.532640
70
0
0
SEQEND
8
Layer 1
0
POLYLINE
8
Layer 1
62
7
70
1
10
0.000000
20
0.000000
66
1
0
VERTEX
8
Layer 1
10
28.065180
20
8.532640
70
0
0
VERTEX
8
Layer 1
10
29.156587
20
11.492668
70
0
0
VERTEX
8
Layer 1
10
29.531413
20
11.492668
70
0
0
VERTEX
8
Layer 1
10
30.617308
20
8.532640
70
0
0
VERTEX
8
Layer 1
10
30.242481
20
8.532640
70
0
0
VERTEX
8
Layer 1
10
29.972386
20
9.293318
70
0
0
VERTEX
8
Layer 1
10
28.710102
20
9.293318
70
0
0
VERTEX
8
Layer 1
10
28.440006
20
8.532640
70
0
0
VERTEX
8
Layer 1
10
28.065180
20
8.532640
70
0
0
SEQEND
8
Layer 1
0
POLYLINE
8
Layer 1
62
7
70
1
10
0.000000
20
0.000000
66
1
0
VERTEX
8
Layer 1
10
28.820345
20
9.579950
70
0
0
VERTEX
8
Layer 1
10
29.867655
20
9.579950
70
0
0
VERTEX
8
Layer 1
10
29.344000
20
11.046183
70
0
0
VERTEX
8
Layer 1
10
28.820345
20
9.579950
70
0
0
SEQEND
8
Layer 1
0
POLYLINE
8
Layer 1
62
7
70
1
10
0.000000
20
0.000000
66
1
0
VERTEX
8
Layer 1
10
35.783359
20
8.483031
70
0
0
VERTEX
8
Layer 1
10
35.017169
20
8.675956
70
0
0
VERTEX
8
Layer 1
10
34.504539
20
9.210635
70
0
0
VERTEX
8
Layer 1
10
34.322638
20
10.009898
70
0
0
VERTEX
8
Layer 1
10
34.504539
20
10.809161
70
0
0
VERTEX
8
Layer 1
10
35.017169
20
11.349352
70
0
0
VERTEX
8
Layer 1
10
35.783359
20
11.542277
70
0
0
VERTEX
8
Layer 1
10
36.544037
20
11.349352
70
0
0
VERTEX
8
Layer 1
10
37.056667
20
10.809161
70
0
0
VERTEX
8
Layer 1
10
37.238568
20
10.009898
70
0
0
VERTEX
8
Layer 1
10
37.056667
20
9.210635
70
0
0
VERTEX
8
Layer 1
10
36.544037
20
8.675956
70
0
0
VERTEX
8
Layer 1
10
35.783359
20
8.483031
70
0
0
VERTEX
8
Layer 1
10
35.783359
20
8.483031
70
0
0
SEQEND
8
Layer 1
0
POLYLINE
8
Layer 1
62
7
70
1
10
0.000000
20
0.000000
66
1
0
VERTEX
8
Layer 1
10
35.783359
20
8.797224
70
0
0
VERTEX
8
Layer 1
10
36.351111
20
8.940540
70
0
0
VERTEX
8
Layer 1
10
36.736962
20
9.353951
70
0
0
VERTEX
8
Layer 1
10
36.874766
20
10.009898
70
0
0
VERTEX
8
Layer 1
10
36.736962
20
10.660332
70
0
0
VERTEX
8
Layer 1
10
36.351111
20
11.079256
70
0
0
VERTEX
8
Layer 1
10
35.783359
20
11.228084
70
0
0
VERTEX
8
Layer 1
10
35.210095
20
11.079256
70
0
0
VERTEX
8
Layer 1
10
34.824244
20
10.660332
70
0
0
VERTEX
8
Layer 1
10
34.686440
20
10.009898
70
0
0
VERTEX
8
Layer 1
10
34.824244
20
9.353951
70
0
0
VERTEX
8
Layer 1
10
35.210095
20
8.940540
70
0
0
VERTEX
8
Layer 1
10
35.783359
20
8.797224
70
0
0
VERTEX
8
Layer 1
10
35.783359
20
8.797224
70
0
0
SEQEND
8
Layer 1
0
POLYLINE
8
Layer 1
62
7
70
1
10
0.000000
20
0.000000
66
1
0
VERTEX
8
Layer 1
10
42.073872
20
8.483031
70
0
0
VERTEX
8
Layer 1
10
41.506120
20
8.598786
70
0
0
VERTEX
8
Layer 1
10
41.131293
20
8.929515
70
0
0
VERTEX
8
Layer 1
10
41.004513
20
9.420097
70
0
0
VERTEX
8
Layer 1
10
41.373828
20
9.420097
70
0
0
VERTEX
8
Layer 1
10
41.450998
20
9.100392
70
0
0
VERTEX
8
Layer 1
10
41.688021
20
8.868882
70
0
0
VERTEX
8
Layer 1
10
42.073872
20
8.780687
70
0
0
VERTEX
8
Layer 1
10
42.536893
20
8.924003
70
0
0
VERTEX
8
Layer 1
10
42.702257
20
9.287805
70
0
0
VERTEX
8
Layer 1
10
42.625087
20
9.568925
70
0
0
VERTEX
8
Layer 1
10
42.421137
20
9.745314
70
0
0
VERTEX
8
Layer 1
10
42.123481
20
9.861070
70
0
0
VERTEX
8
Layer 1
10
41.776215
20
9.976825
70
0
0
VERTEX
8
Layer 1
10
41.269097
20
10.268969
70
0
0
VERTEX
8
Layer 1
10
41.103732
20
10.731990
70
0
0
VERTEX
8
Layer 1
10
41.213975
20
11.150914
70
0
0
VERTEX
8
Layer 1
10
41.539192
20
11.437546
70
0
0
VERTEX
8
Layer 1
10
42.035287
20
11.542277
70
0
0
VERTEX
8
Layer 1
10
42.525868
20
11.437546
70
0
0
VERTEX
8
Layer 1
10
42.851086
20
11.145402
70
0
0
VERTEX
8
Layer 1
10
42.972353
20
10.720966
70
0
0
VERTEX
8
Layer 1
10
42.603039
20
10.720966
70
0
0
VERTEX
8
Layer 1
10
42.536893
20
10.963501
70
0
0
VERTEX
8
Layer 1
10
42.343967
20
11.161939
70
0
0
VERTEX
8
Layer 1
10
42.024262
20
11.239109
70
0
0
VERTEX
8
Layer 1
10
41.627387
20
11.117841
70
0
0
VERTEX
8
Layer 1
10
41.473047
20
10.765063
70
0
0
VERTEX
8
Layer 1
10
41.577778
20
10.472919
70
0
0
VERTEX
8
Layer 1
10
41.880946
20
10.307554
70
0
0
VERTEX
8
Layer 1
10
42.332943
20
10.158726
70
0
0
VERTEX
8
Layer 1
10
42.707770
20
9.976825
70
0
0
VERTEX
8
Layer 1
10
42.972353
20
9.717754
70
0
0
VERTEX
8
Layer 1
10
43.071572
20
9.304342
70
0
0
VERTEX
8
Layer 1
10
42.961329
20
8.907467
70
0
0
VERTEX
8
Layer 1
10
42.625087
20
8.598786
70
0
0
VERTEX
8
Layer 1
10
42.073872
20
8.483031
70
0
0
VERTEX
8
Layer 1
10
42.073872
20
8.483031
70
0
0
SEQEND
8
Layer 1
0
POLYLINE
8
Layer 1
62
7
70
1
10
0.000000
20
0.000000
66
1
0
VERTEX
8
Layer 1
10
47.394465
20
9.431121
70
0
0
VERTEX
8
Layer 1
10
47.140906
20
9.497267
70
0
0
VERTEX
8
Layer 1
10
46.953493
20
9.684681
70
0
0
VERTEX
8
Layer 1
10
46.887347
20
9.938240
70
0
0
VERTEX
8
Layer 1
10
46.953493
20
10.197311
70
0
0
VERTEX
8
Layer 1
10
47.140906
20
10.384725
70
0
0
VERTEX
8
Layer 1
10
47.394465
20
10.450870
70
0
0
VERTEX
8
Layer 1
10
47.653537
20
10.384725
70
0
0
VERTEX
8
Layer 1
10
47.835438
20
10.197311
70
0
0
VERTEX
8
Layer 1
10
47.901584
20
9.938240
70
0
0
VERTEX
8
Layer 1
10
47.835438
20
9.684681
70
0
0
VERTEX
8
Layer 1
10
47.653537
20
9.497267
70
0
0
VERTEX
8
Layer 1
10
47.394465
20
9.431121
70
0
0
VERTEX
8
Layer 1
10
47.394465
20
9.431121
70
0
0
SEQEND
8
Layer 1
0
POLYLINE
8
Layer 1
62
7
70
1
10
0.000000
20
0.000000
66
1
0
VERTEX
8
Layer 1
10
52.998634
20
8.483031
70
0
0
VERTEX
8
Layer 1
10
52.320638
20
8.675956
70
0
0
VERTEX
8
Layer 1
10
51.879666
20
9.210635
70
0
0
VERTEX
8
Layer 1
10
51.730838
20
10.009898
70
0
0
VERTEX
8
Layer 1
10
51.879666
20
10.809161
70
0
0
VERTEX
8
Layer 1
10
52.320638
20
11.349352
70
0
0
VERTEX
8
Layer 1
10
52.998634
20
11.542277
70
0
0
VERTEX
8
Layer 1
10
53.671117
20
11.349352
70
0
0
VERTEX
8
Layer 1
10
54.106577
20
10.809161
70
0
0
VERTEX
8
Layer 1
10
54.260917
20
10.009898
70
0
0
VERTEX
8
Layer 1
10
54.106577
20
9.210635
70
0
0
VERTEX
8
Layer 1
10
53.671117
20
8.675956
70
0
0
VERTEX
8
Layer 1
10
52.998634
20
8.483031
70
0
0
VERTEX
8
Layer 1
10
52.998634
20
8.483031
70
0
0
SEQEND
8
Layer 1
0
POLYLINE
8
Layer 1
62
7
70
1
10
0.000000
20
0.000000
66
1
0
VERTEX
8
Layer 1
10
52.998634
20
8.797224
70
0
0
VERTEX
8
Layer 1
10
53.461655
20
8.940540
70
0
0
VERTEX
8
Layer 1
10
53.781360
20
9.353951
70
0
0
VERTEX
8
Layer 1
10
53.902627
20
10.009898
70
0
0
VERTEX
8
Layer 1
10
53.781360
20
10.660332
70
0
0
VERTEX
8
Layer 1
10
53.461655
20
11.079256
70
0
0
VERTEX
8
Layer 1
10
52.998634
20
11.228084
70
0
0
VERTEX
8
Layer 1
10
52.535612
20
11.079256
70
0
0
VERTEX
8
Layer 1
10
52.210395
20
10.660332
70
0
0
VERTEX
8
Layer 1
10
52.094640
20
10.009898
70
0
0
VERTEX
8
Layer 1
10
52.210395
20
9.353951
70
0
0
VERTEX
8
Layer 1
10
52.535612
20
8.940540
70
0
0
VERTEX
8
Layer 1
10
52.998634
20
8.797224
70
0
0
VERTEX
8
Layer 1
10
52.998634
20
8.797224
70
0
0
SEQEND
8
Layer 1
0
POLYLINE
8
Layer 1
62
7
70
1
10
0.000000
20
0.000000
66
1
0
VERTEX
8
Layer 1
10
59.306934
20
8.483031
70
0
0
VERTEX
8
Layer 1
10
58.628938
20
8.675956
70
0
0
VERTEX
8
Layer 1
10
58.187966
20
9.210635
70
0
0
VERTEX
8
Layer 1
10
58.039138
20
10.009898
70
0
0
VERTEX
8
Layer 1
10
58.187966
20
10.809161
70
0
0
VERTEX
8
Layer 1
10
58.628938
20
11.349352
70
0
0
VERTEX
8
Layer 1
10
59.306934
20
11.542277
70
0
0
VERTEX
8
Layer 1
10
59.979417
20
11.349352
70
0
0
VERTEX
8
Layer 1
10
60.414877
20
10.809161
70
0
0
VERTEX
8
Layer 1
10
60.569217
20
10.009898
70
0
0
VERTEX
8
Layer 1
10
60.414877
20
9.210635
70
0
0
VERTEX
8
Layer 1
10
59.979417
20
8.675956
70
0
0
VERTEX
8
Layer 1
10
59.306934
20
8.483031
70
0
0
VERTEX
8
Layer 1
10
59.306934
20
8.483031
70
0
0
SEQEND
8
Layer 1
0
POLYLINE
8
Layer 1
62
7
70
1
10
0.000000
20
0.000000
66
1
0
VERTEX
8
Layer 1
10
59.306934
20
8.797224
70
0
0
VERTEX
8
Layer 1
10
59.769955
20
8.940540
70
0
0
VERTEX
8
Layer 1
10
60.089660
20
9.353951
70
0
0
VERTEX
8
Layer 1
10
60.210927
20
10.009898
70
0
0
VERTEX
8
Layer 1
10
60.089660
20
10.660332
70
0
0
VERTEX
8
Layer 1
10
59.769955
20
11.079256
70
0
0
VERTEX
8
Layer 1
10
59.306934
20
11.228084
70
0
0
VERTEX
8
Layer 1
10
58.843912
20
11.079256
70
0
0
VERTEX
8
Layer 1
10
58.518695
20
10.660332
70
0
0
VERTEX
8
Layer 1
10
58.402940
20
10.009898
70
0
0
VERTEX
8
Layer 1
10
58.518695
20
9.353951
70
0
0
VERTEX
8
Layer 1
10
58.843912
20
8.940540
70
0
0
VERTEX
8
Layer 1
10
59.306934
20
8.797224
70
0
0
VERTEX
8
Layer 1
10
59.306934
20
8.797224
70
0
0
SEQEND
8
Layer 1
0
POLYLINE
8
Layer 1
62
7
70
1
10
0.000000
20
0.000000
66
1
0
VERTEX
8
Layer 1
10
64.755437
20
8.532640
70
0
0
VERTEX
8
Layer 1
10
64.755437
20
11.095793
70
0
0
VERTEX
8
Layer 1
10
64.275880
20
10.991062
70
0
0
VERTEX
8
Layer 1
10
64.275880
20
11.233597
70
0
0
VERTEX
8
Layer 1
10
64.871192
20
11.492668
70
0
0
VERTEX
8
Layer 1
10
65.113727
20
11.492668
70
0
0
VERTEX
8
Layer 1
10
65.113727
20
8.532640
70
0
0
VERTEX
8
Layer 1
10
64.755437
20
8.532640
70
0
0
SEQEND
8
Layer 1
0
POLYLINE
8
Layer 1
62
7
70
1
10
0.000000
20
0.000000
66
1
0
VERTEX
8
Layer 1
10
70.040123
20
8.483031
70
0
0
VERTEX
8
Layer 1
10
69.527492
20
8.582249
70
0
0
VERTEX
8
Layer 1
10
69.163690
20
8.896442
70
0
0
VERTEX
8
Layer 1
10
69.014862
20
9.414585
70
0
0
VERTEX
8
Layer 1
10
69.378664
20
9.414585
70
0
0
VERTEX
8
Layer 1
10
69.549541
20
8.973613
70
0
0
VERTEX
8
Layer 1
10
70.040123
20
8.791711
70
0
0
VERTEX
8
Layer 1
10
70.508656
20
8.962588
70
0
0
VERTEX
8
Layer 1
10
70.668509
20
9.381512
70
0
0
VERTEX
8
Layer 1
10
70.569290
20
9.717754
70
0
0
VERTEX
8
Layer 1
10
70.304707
20
9.910679
70
0
0
VERTEX
8
Layer 1
10
69.940904
20
9.976825
70
0
0
VERTEX
8
Layer 1
10
69.720418
20
9.976825
70
0
0
VERTEX
8
Layer 1
10
69.720418
20
10.279994
70
0
0
VERTEX
8
Layer 1
10
69.940904
20
10.279994
70
0
0
VERTEX
8
Layer 1
10
70.387389
20
10.406773
70
0
0
VERTEX
8
Layer 1
10
70.552754
20
10.776088
70
0
0
VERTEX
8
Layer 1
10
70.420462
20
11.101305
70
0
0
VERTEX
8
Layer 1
10
70.040123
20
11.233597
70
0
0
VERTEX
8
Layer 1
10
69.643248
20
11.084768
70
0
0
VERTEX
8
Layer 1
10
69.483395
20
10.720966
70
0
0
VERTEX
8
Layer 1
10
69.125105
20
10.720966
70
0
0
VERTEX
8
Layer 1
10
69.251885
20
11.150914
70
0
0
VERTEX
8
Layer 1
10
69.571590
20
11.437546
70
0
0
VERTEX
8
Layer 1
10
70.040123
20
11.542277
70
0
0
VERTEX
8
Layer 1
10
70.519681
20
11.437546
70
0
0
VERTEX
8
Layer 1
10
70.811825
20
11.167451
70
0
0
VERTEX
8
Layer 1
10
70.911044
20
10.798136
70
0
0
VERTEX
8
Layer 1
10
70.784264
20
10.390237
70
0
0
VERTEX
8
Layer 1
10
70.420462
20
10.142190
70
0
0
VERTEX
8
Layer 1
10
70.855922
20
9.894143
70
0
0
VERTEX
8
Layer 1
10
71.026799
20
9.381512
70
0
0
VERTEX
8
Layer 1
10
70.916556
20
8.929515
70
0
0
VERTEX
8
Layer 1
10
70.585826
20
8.604298
70
0
0
VERTEX
8
Layer 1
10
70.040123
20
8.483031
70
0
0
VERTEX
8
Layer 1
10
70.040123
20
8.483031
70
0
0
SEQEND
8
Layer 1
0
POLYLINE
8
Layer 1
62
7
70
1
10
0.000000
20
0.000000
66
1
0
VERTEX
8
Layer 1
10
75.904723
20
8.483031
70
0
0
VERTEX
8
Layer 1
10
75.392092
20
8.582249
70
0
0
VERTEX
8
Layer 1
10
75.028290
20
8.896442
70
0
0
VERTEX
8
Layer 1
10
74.879462
20
9.414585
70
0
0
VERTEX
8
Layer 1
10
75.243264
20
9.414585
70
0
0
VERTEX
8
Layer 1
10
75.414141
20
8.973613
70
0
0
VERTEX
8
Layer 1
10
75.904723
20
8.791711
70
0
0
VERTEX
8
Layer 1
10
76.373256
20
8.962588
70
0
0
VERTEX
8
Layer 1
10
76.533109
20
9.381512
70
0
0
VERTEX
8
Layer 1
10
76.433890
20
9.717754
70
0
0
VERTEX
8
Layer 1
10
76.169307
20
9.910679
70
0
0
VERTEX
8
Layer 1
10
75.805504
20
9.976825
70
0
0
VERTEX
8
Layer 1
10
75.585018
20
9.976825
70
0
0
VERTEX
8
Layer 1
10
75.585018
20
10.279994
70
0
0
VERTEX
8
Layer 1
10
75.805504
20
10.279994
70
0
0
VERTEX
8
Layer 1
10
76.251989
20
10.406773
70
0
0
VERTEX
8
Layer 1
10
76.417354
20
10.776088
70
0
0
VERTEX
8
Layer 1
10
76.285062
20
11.101305
70
0
0
VERTEX
8
Layer 1
10
75.904723
20
11.233597
70
0
0
VERTEX
8
Layer 1
10
75.507848
20
11.084768
70
0
0
VERTEX
8
Layer 1
10
75.347995
20
10.720966
70
0
0
VERTEX
8
Layer 1
10
74.989705
20
10.720966
70
0
0
VERTEX
8
Layer 1
10
75.116485
20
11.150914
70
0
0
VERTEX
8
Layer 1
10
75.436190
20
11.437546
70
0
0
VERTEX
8
Layer 1
10
75.904723
20
11.542277
70
0
0
VERTEX
8
Layer 1
10
76.384281
20
11.437546
70
0
0
VERTEX
8
Layer 1
10
76.676425
20
11.167451
70
0
0
VERTEX
8
Layer 1
10
76.775644
20
10.798136
70
0
0
VERTEX
8
Layer 1
10
76.648864
20
10.390237
70
0
0
VERTEX
8
Layer 1
10
76.285062
20
10.142190
70
0
0
VERTEX
8
Layer 1
10
76.720522
20
9.894143
70
0
0
VERTEX
8
Layer 1
10
76.891399
20
9.381512
70
0
0
VERTEX
8
Layer 1
10
76.781156
20
8.929515
70
0
0
VERTEX
8
Layer 1
10
76.450426
20
8.604298
70
0
0
VERTEX
8
Layer 1
10
75.904723
20
8.483031
70
0
0
VERTEX
8
Layer 1
10
75.904723
20
8.483031
70
0
0
SEQEND
8
Layer 1
 0 
ENDSEC
 0 
EOF