999
"DXF R12 Output" (www.mydxf.blogspot.com)
 0 
SECTION
 2 
HEADER
 9 
$ACADVER
 1 
AC1009
 9 
$EXTMIN
 10 
 0 
 20 
 0 
 9 
$EXTMAX
 10 
 8.5 
 20 
 11 
 0 
ENDSEC
 0 
SECTION
 2 
ENTITIES
0
POLYLINE
8
Layer 1
62
7
70
1
10
0.000000
20
0.000000
66
1
0
VERTEX
8
Layer 1
10
0.000000
20
92.604200
70
0
0
VERTEX
8
Layer 1
10
92.427836
20
92.604200
70
0
0
VERTEX
8
Layer 1
10
92.427836
20
0.176364
70
0
0
VERTEX
8
Layer 1
10
0.000000
20
0.176364
70
0
0
VERTEX
8
Layer 1
10
0.000000
20
92.604200
70
0
0
SEQEND
8
Layer 1
0
POLYLINE
8
Layer 1
62
7
70
1
10
0.000000
20
0.000000
66
1
0
VERTEX
8
Layer 1
10
0.000000
20
92.604200
70
0
0
VERTEX
8
Layer 1
10
92.427836
20
92.604200
70
0
0
VERTEX
8
Layer 1
10
92.427836
20
0.176364
70
0
0
VERTEX
8
Layer 1
10
0.000000
20
0.176364
70
0
0
VERTEX
8
Layer 1
10
0.000000
20
92.604200
70
0
0
SEQEND
8
Layer 1
0
POLYLINE
8
Layer 1
62
7
70
1
10
0.000000
20
0.000000
66
1
0
VERTEX
8
Layer 1
10
16.826650
20
8.483031
70
0
0
VERTEX
8
Layer 1
10
16.076996
20
8.675956
70
0
0
VERTEX
8
Layer 1
10
15.586414
20
9.210635
70
0
0
VERTEX
8
Layer 1
10
15.415538
20
10.009898
70
0
0
VERTEX
8
Layer 1
10
15.586414
20
10.809161
70
0
0
VERTEX
8
Layer 1
10
16.076996
20
11.349352
70
0
0
VERTEX
8
Layer 1
10
16.826650
20
11.542277
70
0
0
VERTEX
8
Layer 1
10
17.653473
20
11.299742
70
0
0
VERTEX
8
Layer 1
10
18.061373
20
10.621747
70
0
0
VERTEX
8
Layer 1
10
17.670010
20
10.621747
70
0
0
VERTEX
8
Layer 1
10
17.394402
20
11.062720
70
0
0
VERTEX
8
Layer 1
10
16.826650
20
11.228084
70
0
0
VERTEX
8
Layer 1
10
16.275434
20
11.079256
70
0
0
VERTEX
8
Layer 1
10
15.906120
20
10.660332
70
0
0
VERTEX
8
Layer 1
10
15.779340
20
10.009898
70
0
0
VERTEX
8
Layer 1
10
15.906120
20
9.353951
70
0
0
VERTEX
8
Layer 1
10
16.275434
20
8.940540
70
0
0
VERTEX
8
Layer 1
10
16.826650
20
8.797224
70
0
0
VERTEX
8
Layer 1
10
17.394402
20
8.957076
70
0
0
VERTEX
8
Layer 1
10
17.670010
20
9.392536
70
0
0
VERTEX
8
Layer 1
10
18.061373
20
9.392536
70
0
0
VERTEX
8
Layer 1
10
17.653473
20
8.720053
70
0
0
VERTEX
8
Layer 1
10
16.826650
20
8.483031
70
0
0
VERTEX
8
Layer 1
10
16.826650
20
8.483031
70
0
0
SEQEND
8
Layer 1
0
POLYLINE
8
Layer 1
62
7
70
1
10
0.000000
20
0.000000
66
1
0
VERTEX
8
Layer 1
10
21.953693
20
8.532640
70
0
0
VERTEX
8
Layer 1
10
21.953693
20
11.492668
70
0
0
VERTEX
8
Layer 1
10
22.306471
20
11.492668
70
0
0
VERTEX
8
Layer 1
10
22.306471
20
10.186287
70
0
0
VERTEX
8
Layer 1
10
23.844363
20
10.186287
70
0
0
VERTEX
8
Layer 1
10
23.844363
20
11.492668
70
0
0
VERTEX
8
Layer 1
10
24.197141
20
11.492668
70
0
0
VERTEX
8
Layer 1
10
24.197141
20
8.532640
70
0
0
VERTEX
8
Layer 1
10
23.844363
20
8.532640
70
0
0
VERTEX
8
Layer 1
10
23.844363
20
9.894143
70
0
0
VERTEX
8
Layer 1
10
22.306471
20
9.894143
70
0
0
VERTEX
8
Layer 1
10
22.306471
20
8.532640
70
0
0
VERTEX
8
Layer 1
10
21.953693
20
8.532640
70
0
0
SEQEND
8
Layer 1
0
POLYLINE
8
Layer 1
62
7
70
1
10
0.000000
20
0.000000
66
1
0
VERTEX
8
Layer 1
10
28.015480
20
8.532640
70
0
0
VERTEX
8
Layer 1
10
29.106887
20
11.492668
70
0
0
VERTEX
8
Layer 1
10
29.481713
20
11.492668
70
0
0
VERTEX
8
Layer 1
10
30.567608
20
8.532640
70
0
0
VERTEX
8
Layer 1
10
30.192781
20
8.532640
70
0
0
VERTEX
8
Layer 1
10
29.922686
20
9.293318
70
0
0
VERTEX
8
Layer 1
10
28.660402
20
9.293318
70
0
0
VERTEX
8
Layer 1
10
28.390306
20
8.532640
70
0
0
VERTEX
8
Layer 1
10
28.015480
20
8.532640
70
0
0
SEQEND
8
Layer 1
0
POLYLINE
8
Layer 1
62
7
70
1
10
0.000000
20
0.000000
66
1
0
VERTEX
8
Layer 1
10
28.770645
20
9.579950
70
0
0
VERTEX
8
Layer 1
10
29.817955
20
9.579950
70
0
0
VERTEX
8
Layer 1
10
29.294300
20
11.046183
70
0
0
VERTEX
8
Layer 1
10
28.770645
20
9.579950
70
0
0
SEQEND
8
Layer 1
0
POLYLINE
8
Layer 1
62
7
70
1
10
0.000000
20
0.000000
66
1
0
VERTEX
8
Layer 1
10
35.733759
20
8.483031
70
0
0
VERTEX
8
Layer 1
10
34.967569
20
8.675956
70
0
0
VERTEX
8
Layer 1
10
34.454939
20
9.210635
70
0
0
VERTEX
8
Layer 1
10
34.273038
20
10.009898
70
0
0
VERTEX
8
Layer 1
10
34.454939
20
10.809161
70
0
0
VERTEX
8
Layer 1
10
34.967569
20
11.349352
70
0
0
VERTEX
8
Layer 1
10
35.733759
20
11.542277
70
0
0
VERTEX
8
Layer 1
10
36.494437
20
11.349352
70
0
0
VERTEX
8
Layer 1
10
37.007067
20
10.809161
70
0
0
VERTEX
8
Layer 1
10
37.188968
20
10.009898
70
0
0
VERTEX
8
Layer 1
10
37.007067
20
9.210635
70
0
0
VERTEX
8
Layer 1
10
36.494437
20
8.675956
70
0
0
VERTEX
8
Layer 1
10
35.733759
20
8.483031
70
0
0
VERTEX
8
Layer 1
10
35.733759
20
8.483031
70
0
0
SEQEND
8
Layer 1
0
POLYLINE
8
Layer 1
62
7
70
1
10
0.000000
20
0.000000
66
1
0
VERTEX
8
Layer 1
10
35.733759
20
8.797224
70
0
0
VERTEX
8
Layer 1
10
36.301511
20
8.940540
70
0
0
VERTEX
8
Layer 1
10
36.687362
20
9.353951
70
0
0
VERTEX
8
Layer 1
10
36.825166
20
10.009898
70
0
0
VERTEX
8
Layer 1
10
36.687362
20
10.660332
70
0
0
VERTEX
8
Layer 1
10
36.301511
20
11.079256
70
0
0
VERTEX
8
Layer 1
10
35.733759
20
11.228084
70
0
0
VERTEX
8
Layer 1
10
35.160495
20
11.079256
70
0
0
VERTEX
8
Layer 1
10
34.774644
20
10.660332
70
0
0
VERTEX
8
Layer 1
10
34.636840
20
10.009898
70
0
0
VERTEX
8
Layer 1
10
34.774644
20
9.353951
70
0
0
VERTEX
8
Layer 1
10
35.160495
20
8.940540
70
0
0
VERTEX
8
Layer 1
10
35.733759
20
8.797224
70
0
0
VERTEX
8
Layer 1
10
35.733759
20
8.797224
70
0
0
SEQEND
8
Layer 1
0
POLYLINE
8
Layer 1
62
7
70
1
10
0.000000
20
0.000000
66
1
0
VERTEX
8
Layer 1
10
42.024472
20
8.483031
70
0
0
VERTEX
8
Layer 1
10
41.456720
20
8.598786
70
0
0
VERTEX
8
Layer 1
10
41.081893
20
8.929515
70
0
0
VERTEX
8
Layer 1
10
40.955113
20
9.420097
70
0
0
VERTEX
8
Layer 1
10
41.324428
20
9.420097
70
0
0
VERTEX
8
Layer 1
10
41.401598
20
9.100392
70
0
0
VERTEX
8
Layer 1
10
41.638621
20
8.868882
70
0
0
VERTEX
8
Layer 1
10
42.024472
20
8.780687
70
0
0
VERTEX
8
Layer 1
10
42.487493
20
8.924003
70
0
0
VERTEX
8
Layer 1
10
42.652857
20
9.287805
70
0
0
VERTEX
8
Layer 1
10
42.575687
20
9.568925
70
0
0
VERTEX
8
Layer 1
10
42.371737
20
9.745314
70
0
0
VERTEX
8
Layer 1
10
42.074081
20
9.861070
70
0
0
VERTEX
8
Layer 1
10
41.726815
20
9.976825
70
0
0
VERTEX
8
Layer 1
10
41.219697
20
10.268969
70
0
0
VERTEX
8
Layer 1
10
41.054332
20
10.731990
70
0
0
VERTEX
8
Layer 1
10
41.164575
20
11.150914
70
0
0
VERTEX
8
Layer 1
10
41.489792
20
11.437546
70
0
0
VERTEX
8
Layer 1
10
41.985887
20
11.542277
70
0
0
VERTEX
8
Layer 1
10
42.476468
20
11.437546
70
0
0
VERTEX
8
Layer 1
10
42.801686
20
11.145402
70
0
0
VERTEX
8
Layer 1
10
42.922953
20
10.720966
70
0
0
VERTEX
8
Layer 1
10
42.553639
20
10.720966
70
0
0
VERTEX
8
Layer 1
10
42.487493
20
10.963501
70
0
0
VERTEX
8
Layer 1
10
42.294567
20
11.161939
70
0
0
VERTEX
8
Layer 1
10
41.974862
20
11.239109
70
0
0
VERTEX
8
Layer 1
10
41.577987
20
11.117841
70
0
0
VERTEX
8
Layer 1
10
41.423647
20
10.765063
70
0
0
VERTEX
8
Layer 1
10
41.528378
20
10.472919
70
0
0
VERTEX
8
Layer 1
10
41.831546
20
10.307554
70
0
0
VERTEX
8
Layer 1
10
42.283543
20
10.158726
70
0
0
VERTEX
8
Layer 1
10
42.658370
20
9.976825
70
0
0
VERTEX
8
Layer 1
10
42.922953
20
9.717754
70
0
0
VERTEX
8
Layer 1
10
43.022172
20
9.304342
70
0
0
VERTEX
8
Layer 1
10
42.911929
20
8.907467
70
0
0
VERTEX
8
Layer 1
10
42.575687
20
8.598786
70
0
0
VERTEX
8
Layer 1
10
42.024472
20
8.483031
70
0
0
VERTEX
8
Layer 1
10
42.024472
20
8.483031
70
0
0
SEQEND
8
Layer 1
0
POLYLINE
8
Layer 1
62
7
70
1
10
0.000000
20
0.000000
66
1
0
VERTEX
8
Layer 1
10
47.345065
20
9.431121
70
0
0
VERTEX
8
Layer 1
10
47.091506
20
9.497267
70
0
0
VERTEX
8
Layer 1
10
46.904093
20
9.684681
70
0
0
VERTEX
8
Layer 1
10
46.837947
20
9.938240
70
0
0
VERTEX
8
Layer 1
10
46.904093
20
10.197311
70
0
0
VERTEX
8
Layer 1
10
47.091506
20
10.384725
70
0
0
VERTEX
8
Layer 1
10
47.345065
20
10.450870
70
0
0
VERTEX
8
Layer 1
10
47.604137
20
10.384725
70
0
0
VERTEX
8
Layer 1
10
47.786038
20
10.197311
70
0
0
VERTEX
8
Layer 1
10
47.852184
20
9.938240
70
0
0
VERTEX
8
Layer 1
10
47.786038
20
9.684681
70
0
0
VERTEX
8
Layer 1
10
47.604137
20
9.497267
70
0
0
VERTEX
8
Layer 1
10
47.345065
20
9.431121
70
0
0
VERTEX
8
Layer 1
10
47.345065
20
9.431121
70
0
0
SEQEND
8
Layer 1
0
POLYLINE
8
Layer 1
62
7
70
1
10
0.000000
20
0.000000
66
1
0
VERTEX
8
Layer 1
10
52.949234
20
8.483031
70
0
0
VERTEX
8
Layer 1
10
52.271238
20
8.675956
70
0
0
VERTEX
8
Layer 1
10
51.830266
20
9.210635
70
0
0
VERTEX
8
Layer 1
10
51.681438
20
10.009898
70
0
0
VERTEX
8
Layer 1
10
51.830266
20
10.809161
70
0
0
VERTEX
8
Layer 1
10
52.271238
20
11.349352
70
0
0
VERTEX
8
Layer 1
10
52.949234
20
11.542277
70
0
0
VERTEX
8
Layer 1
10
53.621717
20
11.349352
70
0
0
VERTEX
8
Layer 1
10
54.057177
20
10.809161
70
0
0
VERTEX
8
Layer 1
10
54.211517
20
10.009898
70
0
0
VERTEX
8
Layer 1
10
54.057177
20
9.210635
70
0
0
VERTEX
8
Layer 1
10
53.621717
20
8.675956
70
0
0
VERTEX
8
Layer 1
10
52.949234
20
8.483031
70
0
0
VERTEX
8
Layer 1
10
52.949234
20
8.483031
70
0
0
SEQEND
8
Layer 1
0
POLYLINE
8
Layer 1
62
7
70
1
10
0.000000
20
0.000000
66
1
0
VERTEX
8
Layer 1
10
52.949234
20
8.797224
70
0
0
VERTEX
8
Layer 1
10
53.412255
20
8.940540
70
0
0
VERTEX
8
Layer 1
10
53.731960
20
9.353951
70
0
0
VERTEX
8
Layer 1
10
53.853227
20
10.009898
70
0
0
VERTEX
8
Layer 1
10
53.731960
20
10.660332
70
0
0
VERTEX
8
Layer 1
10
53.412255
20
11.079256
70
0
0
VERTEX
8
Layer 1
10
52.949234
20
11.228084
70
0
0
VERTEX
8
Layer 1
10
52.486212
20
11.079256
70
0
0
VERTEX
8
Layer 1
10
52.160995
20
10.660332
70
0
0
VERTEX
8
Layer 1
10
52.045240
20
10.009898
70
0
0
VERTEX
8
Layer 1
10
52.160995
20
9.353951
70
0
0
VERTEX
8
Layer 1
10
52.486212
20
8.940540
70
0
0
VERTEX
8
Layer 1
10
52.949234
20
8.797224
70
0
0
VERTEX
8
Layer 1
10
52.949234
20
8.797224
70
0
0
SEQEND
8
Layer 1
0
POLYLINE
8
Layer 1
62
7
70
1
10
0.000000
20
0.000000
66
1
0
VERTEX
8
Layer 1
10
59.257634
20
8.483031
70
0
0
VERTEX
8
Layer 1
10
58.579638
20
8.675956
70
0
0
VERTEX
8
Layer 1
10
58.138666
20
9.210635
70
0
0
VERTEX
8
Layer 1
10
57.989838
20
10.009898
70
0
0
VERTEX
8
Layer 1
10
58.138666
20
10.809161
70
0
0
VERTEX
8
Layer 1
10
58.579638
20
11.349352
70
0
0
VERTEX
8
Layer 1
10
59.257634
20
11.542277
70
0
0
VERTEX
8
Layer 1
10
59.930117
20
11.349352
70
0
0
VERTEX
8
Layer 1
10
60.365577
20
10.809161
70
0
0
VERTEX
8
Layer 1
10
60.519917
20
10.009898
70
0
0
VERTEX
8
Layer 1
10
60.365577
20
9.210635
70
0
0
VERTEX
8
Layer 1
10
59.930117
20
8.675956
70
0
0
VERTEX
8
Layer 1
10
59.257634
20
8.483031
70
0
0
VERTEX
8
Layer 1
10
59.257634
20
8.483031
70
0
0
SEQEND
8
Layer 1
0
POLYLINE
8
Layer 1
62
7
70
1
10
0.000000
20
0.000000
66
1
0
VERTEX
8
Layer 1
10
59.257634
20
8.797224
70
0
0
VERTEX
8
Layer 1
10
59.720655
20
8.940540
70
0
0
VERTEX
8
Layer 1
10
60.040360
20
9.353951
70
0
0
VERTEX
8
Layer 1
10
60.161627
20
10.009898
70
0
0
VERTEX
8
Layer 1
10
60.040360
20
10.660332
70
0
0
VERTEX
8
Layer 1
10
59.720655
20
11.079256
70
0
0
VERTEX
8
Layer 1
10
59.257634
20
11.228084
70
0
0
VERTEX
8
Layer 1
10
58.794612
20
11.079256
70
0
0
VERTEX
8
Layer 1
10
58.469395
20
10.660332
70
0
0
VERTEX
8
Layer 1
10
58.353640
20
10.009898
70
0
0
VERTEX
8
Layer 1
10
58.469395
20
9.353951
70
0
0
VERTEX
8
Layer 1
10
58.794612
20
8.940540
70
0
0
VERTEX
8
Layer 1
10
59.257634
20
8.797224
70
0
0
VERTEX
8
Layer 1
10
59.257634
20
8.797224
70
0
0
SEQEND
8
Layer 1
0
POLYLINE
8
Layer 1
62
7
70
1
10
0.000000
20
0.000000
66
1
0
VERTEX
8
Layer 1
10
64.706037
20
8.532640
70
0
0
VERTEX
8
Layer 1
10
64.706037
20
11.095793
70
0
0
VERTEX
8
Layer 1
10
64.226480
20
10.991062
70
0
0
VERTEX
8
Layer 1
10
64.226480
20
11.233597
70
0
0
VERTEX
8
Layer 1
10
64.821792
20
11.492668
70
0
0
VERTEX
8
Layer 1
10
65.064327
20
11.492668
70
0
0
VERTEX
8
Layer 1
10
65.064327
20
8.532640
70
0
0
VERTEX
8
Layer 1
10
64.706037
20
8.532640
70
0
0
SEQEND
8
Layer 1
0
POLYLINE
8
Layer 1
62
7
70
1
10
0.000000
20
0.000000
66
1
0
VERTEX
8
Layer 1
10
69.990423
20
8.483031
70
0
0
VERTEX
8
Layer 1
10
69.477792
20
8.582249
70
0
0
VERTEX
8
Layer 1
10
69.113990
20
8.896442
70
0
0
VERTEX
8
Layer 1
10
68.965162
20
9.414585
70
0
0
VERTEX
8
Layer 1
10
69.328964
20
9.414585
70
0
0
VERTEX
8
Layer 1
10
69.499841
20
8.973613
70
0
0
VERTEX
8
Layer 1
10
69.990423
20
8.791711
70
0
0
VERTEX
8
Layer 1
10
70.458956
20
8.962588
70
0
0
VERTEX
8
Layer 1
10
70.618809
20
9.381512
70
0
0
VERTEX
8
Layer 1
10
70.519590
20
9.717754
70
0
0
VERTEX
8
Layer 1
10
70.255007
20
9.910679
70
0
0
VERTEX
8
Layer 1
10
69.891204
20
9.976825
70
0
0
VERTEX
8
Layer 1
10
69.670718
20
9.976825
70
0
0
VERTEX
8
Layer 1
10
69.670718
20
10.279994
70
0
0
VERTEX
8
Layer 1
10
69.891204
20
10.279994
70
0
0
VERTEX
8
Layer 1
10
70.337689
20
10.406773
70
0
0
VERTEX
8
Layer 1
10
70.503054
20
10.776088
70
0
0
VERTEX
8
Layer 1
10
70.370762
20
11.101305
70
0
0
VERTEX
8
Layer 1
10
69.990423
20
11.233597
70
0
0
VERTEX
8
Layer 1
10
69.593548
20
11.084768
70
0
0
VERTEX
8
Layer 1
10
69.433695
20
10.720966
70
0
0
VERTEX
8
Layer 1
10
69.075405
20
10.720966
70
0
0
VERTEX
8
Layer 1
10
69.202185
20
11.150914
70
0
0
VERTEX
8
Layer 1
10
69.521890
20
11.437546
70
0
0
VERTEX
8
Layer 1
10
69.990423
20
11.542277
70
0
0
VERTEX
8
Layer 1
10
70.469981
20
11.437546
70
0
0
VERTEX
8
Layer 1
10
70.762125
20
11.167451
70
0
0
VERTEX
8
Layer 1
10
70.861344
20
10.798136
70
0
0
VERTEX
8
Layer 1
10
70.734564
20
10.390237
70
0
0
VERTEX
8
Layer 1
10
70.370762
20
10.142190
70
0
0
VERTEX
8
Layer 1
10
70.806222
20
9.894143
70
0
0
VERTEX
8
Layer 1
10
70.977099
20
9.381512
70
0
0
VERTEX
8
Layer 1
10
70.866856
20
8.929515
70
0
0
VERTEX
8
Layer 1
10
70.536126
20
8.604298
70
0
0
VERTEX
8
Layer 1
10
69.990423
20
8.483031
70
0
0
VERTEX
8
Layer 1
10
69.990423
20
8.483031
70
0
0
SEQEND
8
Layer 1
0
POLYLINE
8
Layer 1
62
7
70
1
10
0.000000
20
0.000000
66
1
0
VERTEX
8
Layer 1
10
75.938005
20
8.483031
70
0
0
VERTEX
8
Layer 1
10
75.408838
20
8.593274
70
0
0
VERTEX
8
Layer 1
10
75.050548
20
8.890930
70
0
0
VERTEX
8
Layer 1
10
74.890696
20
9.331903
70
0
0
VERTEX
8
Layer 1
10
75.237961
20
9.331903
70
0
0
VERTEX
8
Layer 1
10
75.474984
20
8.935027
70
0
0
VERTEX
8
Layer 1
10
75.943517
20
8.786199
70
0
0
VERTEX
8
Layer 1
10
76.307320
20
8.885418
70
0
0
VERTEX
8
Layer 1
10
76.544343
20
9.150002
70
0
0
VERTEX
8
Layer 1
10
76.627025
20
9.530340
70
0
0
VERTEX
8
Layer 1
10
76.439612
20
10.059507
70
0
0
VERTEX
8
Layer 1
10
75.954542
20
10.263457
70
0
0
VERTEX
8
Layer 1
10
75.535618
20
10.153214
70
0
0
VERTEX
8
Layer 1
10
75.282059
20
9.866582
70
0
0
VERTEX
8
Layer 1
10
74.945817
20
9.866582
70
0
0
VERTEX
8
Layer 1
10
75.199376
20
11.492668
70
0
0
VERTEX
8
Layer 1
10
76.753804
20
11.492668
70
0
0
VERTEX
8
Layer 1
10
76.753804
20
11.183987
70
0
0
VERTEX
8
Layer 1
10
75.474984
20
11.183987
70
0
0
VERTEX
8
Layer 1
10
75.298595
20
10.285506
70
0
0
VERTEX
8
Layer 1
10
75.579715
20
10.483943
70
0
0
VERTEX
8
Layer 1
10
75.993127
20
10.566626
70
0
0
VERTEX
8
Layer 1
10
76.500245
20
10.428822
70
0
0
VERTEX
8
Layer 1
10
76.841999
20
10.059507
70
0
0
VERTEX
8
Layer 1
10
76.968779
20
9.535852
70
0
0
VERTEX
8
Layer 1
10
76.847511
20
9.006685
70
0
0
VERTEX
8
Layer 1
10
76.494733
20
8.626347
70
0
0
VERTEX
8
Layer 1
10
75.938005
20
8.483031
70
0
0
VERTEX
8
Layer 1
10
75.938005
20
8.483031
70
0
0
SEQEND
8
Layer 1
 0 
ENDSEC
 0 
EOF