999
"DXF R12 Output" (www.mydxf.blogspot.com)
 0 
SECTION
 2 
HEADER
 9 
$ACADVER
 1 
AC1009
 9 
$EXTMIN
 10 
 0 
 20 
 0 
 9 
$EXTMAX
 10 
 8.5 
 20 
 11 
 0 
ENDSEC
 0 
SECTION
 2 
ENTITIES
0
POLYLINE
8
Layer 1
62
7
70
1
10
0.000000
20
0.000000
66
1
0
VERTEX
8
Layer 1
10
0.000000
20
92.604200
70
0
0
VERTEX
8
Layer 1
10
92.427836
20
92.604200
70
0
0
VERTEX
8
Layer 1
10
92.427836
20
0.176364
70
0
0
VERTEX
8
Layer 1
10
0.000000
20
0.176364
70
0
0
VERTEX
8
Layer 1
10
0.000000
20
92.604200
70
0
0
SEQEND
8
Layer 1
0
POLYLINE
8
Layer 1
62
7
70
1
10
0.000000
20
0.000000
66
1
0
VERTEX
8
Layer 1
10
0.000000
20
92.604200
70
0
0
VERTEX
8
Layer 1
10
92.427836
20
92.604200
70
0
0
VERTEX
8
Layer 1
10
92.427836
20
0.176364
70
0
0
VERTEX
8
Layer 1
10
0.000000
20
0.176364
70
0
0
VERTEX
8
Layer 1
10
0.000000
20
92.604200
70
0
0
SEQEND
8
Layer 1
0
POLYLINE
8
Layer 1
62
7
70
1
10
0.000000
20
0.000000
66
1
0
VERTEX
8
Layer 1
10
17.024750
20
8.483031
70
0
0
VERTEX
8
Layer 1
10
16.275096
20
8.675956
70
0
0
VERTEX
8
Layer 1
10
15.784514
20
9.210635
70
0
0
VERTEX
8
Layer 1
10
15.613638
20
10.009898
70
0
0
VERTEX
8
Layer 1
10
15.784514
20
10.809161
70
0
0
VERTEX
8
Layer 1
10
16.275096
20
11.349352
70
0
0
VERTEX
8
Layer 1
10
17.024750
20
11.542277
70
0
0
VERTEX
8
Layer 1
10
17.851573
20
11.299742
70
0
0
VERTEX
8
Layer 1
10
18.259473
20
10.621747
70
0
0
VERTEX
8
Layer 1
10
17.868110
20
10.621747
70
0
0
VERTEX
8
Layer 1
10
17.592502
20
11.062720
70
0
0
VERTEX
8
Layer 1
10
17.024750
20
11.228084
70
0
0
VERTEX
8
Layer 1
10
16.473534
20
11.079256
70
0
0
VERTEX
8
Layer 1
10
16.104220
20
10.660332
70
0
0
VERTEX
8
Layer 1
10
15.977440
20
10.009898
70
0
0
VERTEX
8
Layer 1
10
16.104220
20
9.353951
70
0
0
VERTEX
8
Layer 1
10
16.473534
20
8.940540
70
0
0
VERTEX
8
Layer 1
10
17.024750
20
8.797224
70
0
0
VERTEX
8
Layer 1
10
17.592502
20
8.957076
70
0
0
VERTEX
8
Layer 1
10
17.868110
20
9.392536
70
0
0
VERTEX
8
Layer 1
10
18.259473
20
9.392536
70
0
0
VERTEX
8
Layer 1
10
17.851573
20
8.720053
70
0
0
VERTEX
8
Layer 1
10
17.024750
20
8.483031
70
0
0
VERTEX
8
Layer 1
10
17.024750
20
8.483031
70
0
0
SEQEND
8
Layer 1
0
POLYLINE
8
Layer 1
62
7
70
1
10
0.000000
20
0.000000
66
1
0
VERTEX
8
Layer 1
10
22.151793
20
8.532640
70
0
0
VERTEX
8
Layer 1
10
22.151793
20
11.492668
70
0
0
VERTEX
8
Layer 1
10
22.504571
20
11.492668
70
0
0
VERTEX
8
Layer 1
10
22.504571
20
10.186287
70
0
0
VERTEX
8
Layer 1
10
24.042462
20
10.186287
70
0
0
VERTEX
8
Layer 1
10
24.042462
20
11.492668
70
0
0
VERTEX
8
Layer 1
10
24.395240
20
11.492668
70
0
0
VERTEX
8
Layer 1
10
24.395240
20
8.532640
70
0
0
VERTEX
8
Layer 1
10
24.042462
20
8.532640
70
0
0
VERTEX
8
Layer 1
10
24.042462
20
9.894143
70
0
0
VERTEX
8
Layer 1
10
22.504571
20
9.894143
70
0
0
VERTEX
8
Layer 1
10
22.504571
20
8.532640
70
0
0
VERTEX
8
Layer 1
10
22.151793
20
8.532640
70
0
0
SEQEND
8
Layer 1
0
POLYLINE
8
Layer 1
62
7
70
1
10
0.000000
20
0.000000
66
1
0
VERTEX
8
Layer 1
10
28.213580
20
8.532640
70
0
0
VERTEX
8
Layer 1
10
29.304987
20
11.492668
70
0
0
VERTEX
8
Layer 1
10
29.679813
20
11.492668
70
0
0
VERTEX
8
Layer 1
10
30.765708
20
8.532640
70
0
0
VERTEX
8
Layer 1
10
30.390881
20
8.532640
70
0
0
VERTEX
8
Layer 1
10
30.120786
20
9.293318
70
0
0
VERTEX
8
Layer 1
10
28.858502
20
9.293318
70
0
0
VERTEX
8
Layer 1
10
28.588406
20
8.532640
70
0
0
VERTEX
8
Layer 1
10
28.213580
20
8.532640
70
0
0
SEQEND
8
Layer 1
0
POLYLINE
8
Layer 1
62
7
70
1
10
0.000000
20
0.000000
66
1
0
VERTEX
8
Layer 1
10
28.968745
20
9.579950
70
0
0
VERTEX
8
Layer 1
10
30.016055
20
9.579950
70
0
0
VERTEX
8
Layer 1
10
29.492400
20
11.046183
70
0
0
VERTEX
8
Layer 1
10
28.968745
20
9.579950
70
0
0
SEQEND
8
Layer 1
0
POLYLINE
8
Layer 1
62
7
70
1
10
0.000000
20
0.000000
66
1
0
VERTEX
8
Layer 1
10
35.931759
20
8.483031
70
0
0
VERTEX
8
Layer 1
10
35.165569
20
8.675956
70
0
0
VERTEX
8
Layer 1
10
34.652939
20
9.210635
70
0
0
VERTEX
8
Layer 1
10
34.471038
20
10.009898
70
0
0
VERTEX
8
Layer 1
10
34.652939
20
10.809161
70
0
0
VERTEX
8
Layer 1
10
35.165569
20
11.349352
70
0
0
VERTEX
8
Layer 1
10
35.931759
20
11.542277
70
0
0
VERTEX
8
Layer 1
10
36.692437
20
11.349352
70
0
0
VERTEX
8
Layer 1
10
37.205067
20
10.809161
70
0
0
VERTEX
8
Layer 1
10
37.386968
20
10.009898
70
0
0
VERTEX
8
Layer 1
10
37.205067
20
9.210635
70
0
0
VERTEX
8
Layer 1
10
36.692437
20
8.675956
70
0
0
VERTEX
8
Layer 1
10
35.931759
20
8.483031
70
0
0
VERTEX
8
Layer 1
10
35.931759
20
8.483031
70
0
0
SEQEND
8
Layer 1
0
POLYLINE
8
Layer 1
62
7
70
1
10
0.000000
20
0.000000
66
1
0
VERTEX
8
Layer 1
10
35.931759
20
8.797224
70
0
0
VERTEX
8
Layer 1
10
36.499511
20
8.940540
70
0
0
VERTEX
8
Layer 1
10
36.885362
20
9.353951
70
0
0
VERTEX
8
Layer 1
10
37.023166
20
10.009898
70
0
0
VERTEX
8
Layer 1
10
36.885362
20
10.660332
70
0
0
VERTEX
8
Layer 1
10
36.499511
20
11.079256
70
0
0
VERTEX
8
Layer 1
10
35.931759
20
11.228084
70
0
0
VERTEX
8
Layer 1
10
35.358495
20
11.079256
70
0
0
VERTEX
8
Layer 1
10
34.972644
20
10.660332
70
0
0
VERTEX
8
Layer 1
10
34.834840
20
10.009898
70
0
0
VERTEX
8
Layer 1
10
34.972644
20
9.353951
70
0
0
VERTEX
8
Layer 1
10
35.358495
20
8.940540
70
0
0
VERTEX
8
Layer 1
10
35.931759
20
8.797224
70
0
0
VERTEX
8
Layer 1
10
35.931759
20
8.797224
70
0
0
SEQEND
8
Layer 1
0
POLYLINE
8
Layer 1
62
7
70
1
10
0.000000
20
0.000000
66
1
0
VERTEX
8
Layer 1
10
42.222372
20
8.483031
70
0
0
VERTEX
8
Layer 1
10
41.654620
20
8.598786
70
0
0
VERTEX
8
Layer 1
10
41.279793
20
8.929515
70
0
0
VERTEX
8
Layer 1
10
41.153013
20
9.420097
70
0
0
VERTEX
8
Layer 1
10
41.522328
20
9.420097
70
0
0
VERTEX
8
Layer 1
10
41.599498
20
9.100392
70
0
0
VERTEX
8
Layer 1
10
41.836521
20
8.868882
70
0
0
VERTEX
8
Layer 1
10
42.222372
20
8.780687
70
0
0
VERTEX
8
Layer 1
10
42.685393
20
8.924003
70
0
0
VERTEX
8
Layer 1
10
42.850757
20
9.287805
70
0
0
VERTEX
8
Layer 1
10
42.773587
20
9.568925
70
0
0
VERTEX
8
Layer 1
10
42.569637
20
9.745314
70
0
0
VERTEX
8
Layer 1
10
42.271981
20
9.861070
70
0
0
VERTEX
8
Layer 1
10
41.924715
20
9.976825
70
0
0
VERTEX
8
Layer 1
10
41.417597
20
10.268969
70
0
0
VERTEX
8
Layer 1
10
41.252232
20
10.731990
70
0
0
VERTEX
8
Layer 1
10
41.362475
20
11.150914
70
0
0
VERTEX
8
Layer 1
10
41.687692
20
11.437546
70
0
0
VERTEX
8
Layer 1
10
42.183787
20
11.542277
70
0
0
VERTEX
8
Layer 1
10
42.674368
20
11.437546
70
0
0
VERTEX
8
Layer 1
10
42.999586
20
11.145402
70
0
0
VERTEX
8
Layer 1
10
43.120853
20
10.720966
70
0
0
VERTEX
8
Layer 1
10
42.751539
20
10.720966
70
0
0
VERTEX
8
Layer 1
10
42.685393
20
10.963501
70
0
0
VERTEX
8
Layer 1
10
42.492467
20
11.161939
70
0
0
VERTEX
8
Layer 1
10
42.172762
20
11.239109
70
0
0
VERTEX
8
Layer 1
10
41.775887
20
11.117841
70
0
0
VERTEX
8
Layer 1
10
41.621547
20
10.765063
70
0
0
VERTEX
8
Layer 1
10
41.726278
20
10.472919
70
0
0
VERTEX
8
Layer 1
10
42.029446
20
10.307554
70
0
0
VERTEX
8
Layer 1
10
42.481443
20
10.158726
70
0
0
VERTEX
8
Layer 1
10
42.856270
20
9.976825
70
0
0
VERTEX
8
Layer 1
10
43.120853
20
9.717754
70
0
0
VERTEX
8
Layer 1
10
43.220072
20
9.304342
70
0
0
VERTEX
8
Layer 1
10
43.109829
20
8.907467
70
0
0
VERTEX
8
Layer 1
10
42.773587
20
8.598786
70
0
0
VERTEX
8
Layer 1
10
42.222372
20
8.483031
70
0
0
VERTEX
8
Layer 1
10
42.222372
20
8.483031
70
0
0
SEQEND
8
Layer 1
0
POLYLINE
8
Layer 1
62
7
70
1
10
0.000000
20
0.000000
66
1
0
VERTEX
8
Layer 1
10
47.543065
20
9.431121
70
0
0
VERTEX
8
Layer 1
10
47.289506
20
9.497267
70
0
0
VERTEX
8
Layer 1
10
47.102093
20
9.684681
70
0
0
VERTEX
8
Layer 1
10
47.035947
20
9.938240
70
0
0
VERTEX
8
Layer 1
10
47.102093
20
10.197311
70
0
0
VERTEX
8
Layer 1
10
47.289506
20
10.384725
70
0
0
VERTEX
8
Layer 1
10
47.543065
20
10.450870
70
0
0
VERTEX
8
Layer 1
10
47.802137
20
10.384725
70
0
0
VERTEX
8
Layer 1
10
47.984038
20
10.197311
70
0
0
VERTEX
8
Layer 1
10
48.050184
20
9.938240
70
0
0
VERTEX
8
Layer 1
10
47.984038
20
9.684681
70
0
0
VERTEX
8
Layer 1
10
47.802137
20
9.497267
70
0
0
VERTEX
8
Layer 1
10
47.543065
20
9.431121
70
0
0
VERTEX
8
Layer 1
10
47.543065
20
9.431121
70
0
0
SEQEND
8
Layer 1
0
POLYLINE
8
Layer 1
62
7
70
1
10
0.000000
20
0.000000
66
1
0
VERTEX
8
Layer 1
10
53.147134
20
8.483031
70
0
0
VERTEX
8
Layer 1
10
52.469138
20
8.675956
70
0
0
VERTEX
8
Layer 1
10
52.028166
20
9.210635
70
0
0
VERTEX
8
Layer 1
10
51.879338
20
10.009898
70
0
0
VERTEX
8
Layer 1
10
52.028166
20
10.809161
70
0
0
VERTEX
8
Layer 1
10
52.469138
20
11.349352
70
0
0
VERTEX
8
Layer 1
10
53.147134
20
11.542277
70
0
0
VERTEX
8
Layer 1
10
53.819617
20
11.349352
70
0
0
VERTEX
8
Layer 1
10
54.255077
20
10.809161
70
0
0
VERTEX
8
Layer 1
10
54.409417
20
10.009898
70
0
0
VERTEX
8
Layer 1
10
54.255077
20
9.210635
70
0
0
VERTEX
8
Layer 1
10
53.819617
20
8.675956
70
0
0
VERTEX
8
Layer 1
10
53.147134
20
8.483031
70
0
0
VERTEX
8
Layer 1
10
53.147134
20
8.483031
70
0
0
SEQEND
8
Layer 1
0
POLYLINE
8
Layer 1
62
7
70
1
10
0.000000
20
0.000000
66
1
0
VERTEX
8
Layer 1
10
53.147134
20
8.797224
70
0
0
VERTEX
8
Layer 1
10
53.610155
20
8.940540
70
0
0
VERTEX
8
Layer 1
10
53.929860
20
9.353951
70
0
0
VERTEX
8
Layer 1
10
54.051127
20
10.009898
70
0
0
VERTEX
8
Layer 1
10
53.929860
20
10.660332
70
0
0
VERTEX
8
Layer 1
10
53.610155
20
11.079256
70
0
0
VERTEX
8
Layer 1
10
53.147134
20
11.228084
70
0
0
VERTEX
8
Layer 1
10
52.684112
20
11.079256
70
0
0
VERTEX
8
Layer 1
10
52.358895
20
10.660332
70
0
0
VERTEX
8
Layer 1
10
52.243140
20
10.009898
70
0
0
VERTEX
8
Layer 1
10
52.358895
20
9.353951
70
0
0
VERTEX
8
Layer 1
10
52.684112
20
8.940540
70
0
0
VERTEX
8
Layer 1
10
53.147134
20
8.797224
70
0
0
VERTEX
8
Layer 1
10
53.147134
20
8.797224
70
0
0
SEQEND
8
Layer 1
0
POLYLINE
8
Layer 1
62
7
70
1
10
0.000000
20
0.000000
66
1
0
VERTEX
8
Layer 1
10
59.455534
20
8.483031
70
0
0
VERTEX
8
Layer 1
10
58.777538
20
8.675956
70
0
0
VERTEX
8
Layer 1
10
58.336566
20
9.210635
70
0
0
VERTEX
8
Layer 1
10
58.187738
20
10.009898
70
0
0
VERTEX
8
Layer 1
10
58.336566
20
10.809161
70
0
0
VERTEX
8
Layer 1
10
58.777538
20
11.349352
70
0
0
VERTEX
8
Layer 1
10
59.455534
20
11.542277
70
0
0
VERTEX
8
Layer 1
10
60.128017
20
11.349352
70
0
0
VERTEX
8
Layer 1
10
60.563477
20
10.809161
70
0
0
VERTEX
8
Layer 1
10
60.717817
20
10.009898
70
0
0
VERTEX
8
Layer 1
10
60.563477
20
9.210635
70
0
0
VERTEX
8
Layer 1
10
60.128017
20
8.675956
70
0
0
VERTEX
8
Layer 1
10
59.455534
20
8.483031
70
0
0
VERTEX
8
Layer 1
10
59.455534
20
8.483031
70
0
0
SEQEND
8
Layer 1
0
POLYLINE
8
Layer 1
62
7
70
1
10
0.000000
20
0.000000
66
1
0
VERTEX
8
Layer 1
10
59.455534
20
8.797224
70
0
0
VERTEX
8
Layer 1
10
59.918555
20
8.940540
70
0
0
VERTEX
8
Layer 1
10
60.238260
20
9.353951
70
0
0
VERTEX
8
Layer 1
10
60.359527
20
10.009898
70
0
0
VERTEX
8
Layer 1
10
60.238260
20
10.660332
70
0
0
VERTEX
8
Layer 1
10
59.918555
20
11.079256
70
0
0
VERTEX
8
Layer 1
10
59.455534
20
11.228084
70
0
0
VERTEX
8
Layer 1
10
58.992512
20
11.079256
70
0
0
VERTEX
8
Layer 1
10
58.667295
20
10.660332
70
0
0
VERTEX
8
Layer 1
10
58.551540
20
10.009898
70
0
0
VERTEX
8
Layer 1
10
58.667295
20
9.353951
70
0
0
VERTEX
8
Layer 1
10
58.992512
20
8.940540
70
0
0
VERTEX
8
Layer 1
10
59.455534
20
8.797224
70
0
0
VERTEX
8
Layer 1
10
59.455534
20
8.797224
70
0
0
SEQEND
8
Layer 1
0
POLYLINE
8
Layer 1
62
7
70
1
10
0.000000
20
0.000000
66
1
0
VERTEX
8
Layer 1
10
64.903937
20
8.532640
70
0
0
VERTEX
8
Layer 1
10
64.903937
20
11.095793
70
0
0
VERTEX
8
Layer 1
10
64.424380
20
10.991062
70
0
0
VERTEX
8
Layer 1
10
64.424380
20
11.233597
70
0
0
VERTEX
8
Layer 1
10
65.019692
20
11.492668
70
0
0
VERTEX
8
Layer 1
10
65.262227
20
11.492668
70
0
0
VERTEX
8
Layer 1
10
65.262227
20
8.532640
70
0
0
VERTEX
8
Layer 1
10
64.903937
20
8.532640
70
0
0
SEQEND
8
Layer 1
0
POLYLINE
8
Layer 1
62
7
70
1
10
0.000000
20
0.000000
66
1
0
VERTEX
8
Layer 1
10
69.218183
20
8.532640
70
0
0
VERTEX
8
Layer 1
10
69.218183
20
8.780687
70
0
0
VERTEX
8
Layer 1
10
69.785936
20
9.260245
70
0
0
VERTEX
8
Layer 1
10
70.265493
20
9.739802
70
0
0
VERTEX
8
Layer 1
10
70.596223
20
10.202823
70
0
0
VERTEX
8
Layer 1
10
70.717490
20
10.643796
70
0
0
VERTEX
8
Layer 1
10
70.662368
20
10.935940
70
0
0
VERTEX
8
Layer 1
10
70.491492
20
11.156426
70
0
0
VERTEX
8
Layer 1
10
70.171787
20
11.239109
70
0
0
VERTEX
8
Layer 1
10
69.846569
20
11.150914
70
0
0
VERTEX
8
Layer 1
10
69.648132
20
10.919404
70
0
0
VERTEX
8
Layer 1
10
69.581986
20
10.610723
70
0
0
VERTEX
8
Layer 1
10
69.240232
20
10.610723
70
0
0
VERTEX
8
Layer 1
10
69.361500
20
11.112329
70
0
0
VERTEX
8
Layer 1
10
69.697741
20
11.432034
70
0
0
VERTEX
8
Layer 1
10
70.177299
20
11.542277
70
0
0
VERTEX
8
Layer 1
10
70.816709
20
11.321791
70
0
0
VERTEX
8
Layer 1
10
71.006534
20
11.045839
70
0
0
VERTEX
8
Layer 1
10
71.070268
20
10.660332
70
0
0
VERTEX
8
Layer 1
10
70.937976
20
10.136677
70
0
0
VERTEX
8
Layer 1
10
70.607247
20
9.646096
70
0
0
VERTEX
8
Layer 1
10
70.171787
20
9.199611
70
0
0
VERTEX
8
Layer 1
10
69.741838
20
8.830296
70
0
0
VERTEX
8
Layer 1
10
71.174999
20
8.830296
70
0
0
VERTEX
8
Layer 1
10
71.174999
20
8.532640
70
0
0
VERTEX
8
Layer 1
10
69.218183
20
8.532640
70
0
0
SEQEND
8
Layer 1
0
POLYLINE
8
Layer 1
62
7
70
1
10
0.000000
20
0.000000
66
1
0
VERTEX
8
Layer 1
10
75.307528
20
8.532640
70
0
0
VERTEX
8
Layer 1
10
76.481617
20
11.189499
70
0
0
VERTEX
8
Layer 1
10
74.861043
20
11.189499
70
0
0
VERTEX
8
Layer 1
10
74.861043
20
11.492668
70
0
0
VERTEX
8
Layer 1
10
76.845419
20
11.492668
70
0
0
VERTEX
8
Layer 1
10
76.845419
20
11.228084
70
0
0
VERTEX
8
Layer 1
10
75.687867
20
8.532640
70
0
0
VERTEX
8
Layer 1
10
75.307528
20
8.532640
70
0
0
SEQEND
8
Layer 1
 0 
ENDSEC
 0 
EOF