999
"DXF R12 Output" (www.mydxf.blogspot.com)
 0 
SECTION
 2 
HEADER
 9 
$ACADVER
 1 
AC1009
 9 
$EXTMIN
 10 
 0 
 20 
 0 
 9 
$EXTMAX
 10 
 8.5 
 20 
 11 
 0 
ENDSEC
 0 
SECTION
 2 
ENTITIES
0
POLYLINE
8
Layer 1
62
7
70
1
10
0.000000
20
0.000000
66
1
0
VERTEX
8
Layer 1
10
0.000000
20
92.604200
70
0
0
VERTEX
8
Layer 1
10
92.427836
20
92.604200
70
0
0
VERTEX
8
Layer 1
10
92.427836
20
0.176364
70
0
0
VERTEX
8
Layer 1
10
0.000000
20
0.176364
70
0
0
VERTEX
8
Layer 1
10
0.000000
20
92.604200
70
0
0
SEQEND
8
Layer 1
0
POLYLINE
8
Layer 1
62
7
70
1
10
0.000000
20
0.000000
66
1
0
VERTEX
8
Layer 1
10
0.000000
20
92.604200
70
0
0
VERTEX
8
Layer 1
10
92.427836
20
92.604200
70
0
0
VERTEX
8
Layer 1
10
92.427836
20
0.176364
70
0
0
VERTEX
8
Layer 1
10
0.000000
20
0.176364
70
0
0
VERTEX
8
Layer 1
10
0.000000
20
92.604200
70
0
0
SEQEND
8
Layer 1
0
POLYLINE
8
Layer 1
62
7
70
1
10
0.000000
20
0.000000
66
1
0
VERTEX
8
Layer 1
10
16.863850
20
8.483031
70
0
0
VERTEX
8
Layer 1
10
16.114196
20
8.675956
70
0
0
VERTEX
8
Layer 1
10
15.623614
20
9.210635
70
0
0
VERTEX
8
Layer 1
10
15.452738
20
10.009898
70
0
0
VERTEX
8
Layer 1
10
15.623614
20
10.809161
70
0
0
VERTEX
8
Layer 1
10
16.114196
20
11.349352
70
0
0
VERTEX
8
Layer 1
10
16.863850
20
11.542277
70
0
0
VERTEX
8
Layer 1
10
17.690673
20
11.299742
70
0
0
VERTEX
8
Layer 1
10
18.098573
20
10.621747
70
0
0
VERTEX
8
Layer 1
10
17.707210
20
10.621747
70
0
0
VERTEX
8
Layer 1
10
17.431602
20
11.062720
70
0
0
VERTEX
8
Layer 1
10
16.863850
20
11.228084
70
0
0
VERTEX
8
Layer 1
10
16.312634
20
11.079256
70
0
0
VERTEX
8
Layer 1
10
15.943320
20
10.660332
70
0
0
VERTEX
8
Layer 1
10
15.816540
20
10.009898
70
0
0
VERTEX
8
Layer 1
10
15.943320
20
9.353951
70
0
0
VERTEX
8
Layer 1
10
16.312634
20
8.940540
70
0
0
VERTEX
8
Layer 1
10
16.863850
20
8.797224
70
0
0
VERTEX
8
Layer 1
10
17.431602
20
8.957076
70
0
0
VERTEX
8
Layer 1
10
17.707210
20
9.392536
70
0
0
VERTEX
8
Layer 1
10
18.098573
20
9.392536
70
0
0
VERTEX
8
Layer 1
10
17.690673
20
8.720053
70
0
0
VERTEX
8
Layer 1
10
16.863850
20
8.483031
70
0
0
VERTEX
8
Layer 1
10
16.863850
20
8.483031
70
0
0
SEQEND
8
Layer 1
0
POLYLINE
8
Layer 1
62
7
70
1
10
0.000000
20
0.000000
66
1
0
VERTEX
8
Layer 1
10
21.990993
20
8.532640
70
0
0
VERTEX
8
Layer 1
10
21.990993
20
11.492668
70
0
0
VERTEX
8
Layer 1
10
22.343771
20
11.492668
70
0
0
VERTEX
8
Layer 1
10
22.343771
20
10.186287
70
0
0
VERTEX
8
Layer 1
10
23.881663
20
10.186287
70
0
0
VERTEX
8
Layer 1
10
23.881663
20
11.492668
70
0
0
VERTEX
8
Layer 1
10
24.234440
20
11.492668
70
0
0
VERTEX
8
Layer 1
10
24.234440
20
8.532640
70
0
0
VERTEX
8
Layer 1
10
23.881663
20
8.532640
70
0
0
VERTEX
8
Layer 1
10
23.881663
20
9.894143
70
0
0
VERTEX
8
Layer 1
10
22.343771
20
9.894143
70
0
0
VERTEX
8
Layer 1
10
22.343771
20
8.532640
70
0
0
VERTEX
8
Layer 1
10
21.990993
20
8.532640
70
0
0
SEQEND
8
Layer 1
0
POLYLINE
8
Layer 1
62
7
70
1
10
0.000000
20
0.000000
66
1
0
VERTEX
8
Layer 1
10
28.052780
20
8.532640
70
0
0
VERTEX
8
Layer 1
10
29.144187
20
11.492668
70
0
0
VERTEX
8
Layer 1
10
29.519013
20
11.492668
70
0
0
VERTEX
8
Layer 1
10
30.604908
20
8.532640
70
0
0
VERTEX
8
Layer 1
10
30.230081
20
8.532640
70
0
0
VERTEX
8
Layer 1
10
29.959986
20
9.293318
70
0
0
VERTEX
8
Layer 1
10
28.697702
20
9.293318
70
0
0
VERTEX
8
Layer 1
10
28.427606
20
8.532640
70
0
0
VERTEX
8
Layer 1
10
28.052780
20
8.532640
70
0
0
SEQEND
8
Layer 1
0
POLYLINE
8
Layer 1
62
7
70
1
10
0.000000
20
0.000000
66
1
0
VERTEX
8
Layer 1
10
28.807945
20
9.579950
70
0
0
VERTEX
8
Layer 1
10
29.855255
20
9.579950
70
0
0
VERTEX
8
Layer 1
10
29.331600
20
11.046183
70
0
0
VERTEX
8
Layer 1
10
28.807945
20
9.579950
70
0
0
SEQEND
8
Layer 1
0
POLYLINE
8
Layer 1
62
7
70
1
10
0.000000
20
0.000000
66
1
0
VERTEX
8
Layer 1
10
35.770959
20
8.483031
70
0
0
VERTEX
8
Layer 1
10
35.004769
20
8.675956
70
0
0
VERTEX
8
Layer 1
10
34.492139
20
9.210635
70
0
0
VERTEX
8
Layer 1
10
34.310238
20
10.009898
70
0
0
VERTEX
8
Layer 1
10
34.492139
20
10.809161
70
0
0
VERTEX
8
Layer 1
10
35.004769
20
11.349352
70
0
0
VERTEX
8
Layer 1
10
35.770959
20
11.542277
70
0
0
VERTEX
8
Layer 1
10
36.531637
20
11.349352
70
0
0
VERTEX
8
Layer 1
10
37.044267
20
10.809161
70
0
0
VERTEX
8
Layer 1
10
37.226168
20
10.009898
70
0
0
VERTEX
8
Layer 1
10
37.044267
20
9.210635
70
0
0
VERTEX
8
Layer 1
10
36.531637
20
8.675956
70
0
0
VERTEX
8
Layer 1
10
35.770959
20
8.483031
70
0
0
VERTEX
8
Layer 1
10
35.770959
20
8.483031
70
0
0
SEQEND
8
Layer 1
0
POLYLINE
8
Layer 1
62
7
70
1
10
0.000000
20
0.000000
66
1
0
VERTEX
8
Layer 1
10
35.770959
20
8.797224
70
0
0
VERTEX
8
Layer 1
10
36.338711
20
8.940540
70
0
0
VERTEX
8
Layer 1
10
36.724562
20
9.353951
70
0
0
VERTEX
8
Layer 1
10
36.862366
20
10.009898
70
0
0
VERTEX
8
Layer 1
10
36.724562
20
10.660332
70
0
0
VERTEX
8
Layer 1
10
36.338711
20
11.079256
70
0
0
VERTEX
8
Layer 1
10
35.770959
20
11.228084
70
0
0
VERTEX
8
Layer 1
10
35.197695
20
11.079256
70
0
0
VERTEX
8
Layer 1
10
34.811844
20
10.660332
70
0
0
VERTEX
8
Layer 1
10
34.674040
20
10.009898
70
0
0
VERTEX
8
Layer 1
10
34.811844
20
9.353951
70
0
0
VERTEX
8
Layer 1
10
35.197695
20
8.940540
70
0
0
VERTEX
8
Layer 1
10
35.770959
20
8.797224
70
0
0
VERTEX
8
Layer 1
10
35.770959
20
8.797224
70
0
0
SEQEND
8
Layer 1
0
POLYLINE
8
Layer 1
62
7
70
1
10
0.000000
20
0.000000
66
1
0
VERTEX
8
Layer 1
10
42.061472
20
8.483031
70
0
0
VERTEX
8
Layer 1
10
41.493720
20
8.598786
70
0
0
VERTEX
8
Layer 1
10
41.118893
20
8.929515
70
0
0
VERTEX
8
Layer 1
10
40.992113
20
9.420097
70
0
0
VERTEX
8
Layer 1
10
41.361428
20
9.420097
70
0
0
VERTEX
8
Layer 1
10
41.438598
20
9.100392
70
0
0
VERTEX
8
Layer 1
10
41.675621
20
8.868882
70
0
0
VERTEX
8
Layer 1
10
42.061472
20
8.780687
70
0
0
VERTEX
8
Layer 1
10
42.524493
20
8.924003
70
0
0
VERTEX
8
Layer 1
10
42.689857
20
9.287805
70
0
0
VERTEX
8
Layer 1
10
42.612687
20
9.568925
70
0
0
VERTEX
8
Layer 1
10
42.408737
20
9.745314
70
0
0
VERTEX
8
Layer 1
10
42.111081
20
9.861070
70
0
0
VERTEX
8
Layer 1
10
41.763815
20
9.976825
70
0
0
VERTEX
8
Layer 1
10
41.256697
20
10.268969
70
0
0
VERTEX
8
Layer 1
10
41.091332
20
10.731990
70
0
0
VERTEX
8
Layer 1
10
41.201575
20
11.150914
70
0
0
VERTEX
8
Layer 1
10
41.526792
20
11.437546
70
0
0
VERTEX
8
Layer 1
10
42.022887
20
11.542277
70
0
0
VERTEX
8
Layer 1
10
42.513468
20
11.437546
70
0
0
VERTEX
8
Layer 1
10
42.838686
20
11.145402
70
0
0
VERTEX
8
Layer 1
10
42.959953
20
10.720966
70
0
0
VERTEX
8
Layer 1
10
42.590639
20
10.720966
70
0
0
VERTEX
8
Layer 1
10
42.524493
20
10.963501
70
0
0
VERTEX
8
Layer 1
10
42.331567
20
11.161939
70
0
0
VERTEX
8
Layer 1
10
42.011862
20
11.239109
70
0
0
VERTEX
8
Layer 1
10
41.614987
20
11.117841
70
0
0
VERTEX
8
Layer 1
10
41.460647
20
10.765063
70
0
0
VERTEX
8
Layer 1
10
41.565378
20
10.472919
70
0
0
VERTEX
8
Layer 1
10
41.868546
20
10.307554
70
0
0
VERTEX
8
Layer 1
10
42.320543
20
10.158726
70
0
0
VERTEX
8
Layer 1
10
42.695370
20
9.976825
70
0
0
VERTEX
8
Layer 1
10
42.959953
20
9.717754
70
0
0
VERTEX
8
Layer 1
10
43.059172
20
9.304342
70
0
0
VERTEX
8
Layer 1
10
42.948929
20
8.907467
70
0
0
VERTEX
8
Layer 1
10
42.612687
20
8.598786
70
0
0
VERTEX
8
Layer 1
10
42.061472
20
8.483031
70
0
0
VERTEX
8
Layer 1
10
42.061472
20
8.483031
70
0
0
SEQEND
8
Layer 1
0
POLYLINE
8
Layer 1
62
7
70
1
10
0.000000
20
0.000000
66
1
0
VERTEX
8
Layer 1
10
47.382165
20
9.431121
70
0
0
VERTEX
8
Layer 1
10
47.128606
20
9.497267
70
0
0
VERTEX
8
Layer 1
10
46.941193
20
9.684681
70
0
0
VERTEX
8
Layer 1
10
46.875047
20
9.938240
70
0
0
VERTEX
8
Layer 1
10
46.941193
20
10.197311
70
0
0
VERTEX
8
Layer 1
10
47.128606
20
10.384725
70
0
0
VERTEX
8
Layer 1
10
47.382165
20
10.450870
70
0
0
VERTEX
8
Layer 1
10
47.641237
20
10.384725
70
0
0
VERTEX
8
Layer 1
10
47.823138
20
10.197311
70
0
0
VERTEX
8
Layer 1
10
47.889284
20
9.938240
70
0
0
VERTEX
8
Layer 1
10
47.823138
20
9.684681
70
0
0
VERTEX
8
Layer 1
10
47.641237
20
9.497267
70
0
0
VERTEX
8
Layer 1
10
47.382165
20
9.431121
70
0
0
VERTEX
8
Layer 1
10
47.382165
20
9.431121
70
0
0
SEQEND
8
Layer 1
0
POLYLINE
8
Layer 1
62
7
70
1
10
0.000000
20
0.000000
66
1
0
VERTEX
8
Layer 1
10
52.986234
20
8.483031
70
0
0
VERTEX
8
Layer 1
10
52.308238
20
8.675956
70
0
0
VERTEX
8
Layer 1
10
51.867266
20
9.210635
70
0
0
VERTEX
8
Layer 1
10
51.718438
20
10.009898
70
0
0
VERTEX
8
Layer 1
10
51.867266
20
10.809161
70
0
0
VERTEX
8
Layer 1
10
52.308238
20
11.349352
70
0
0
VERTEX
8
Layer 1
10
52.986234
20
11.542277
70
0
0
VERTEX
8
Layer 1
10
53.658717
20
11.349352
70
0
0
VERTEX
8
Layer 1
10
54.094177
20
10.809161
70
0
0
VERTEX
8
Layer 1
10
54.248517
20
10.009898
70
0
0
VERTEX
8
Layer 1
10
54.094177
20
9.210635
70
0
0
VERTEX
8
Layer 1
10
53.658717
20
8.675956
70
0
0
VERTEX
8
Layer 1
10
52.986234
20
8.483031
70
0
0
VERTEX
8
Layer 1
10
52.986234
20
8.483031
70
0
0
SEQEND
8
Layer 1
0
POLYLINE
8
Layer 1
62
7
70
1
10
0.000000
20
0.000000
66
1
0
VERTEX
8
Layer 1
10
52.986234
20
8.797224
70
0
0
VERTEX
8
Layer 1
10
53.449255
20
8.940540
70
0
0
VERTEX
8
Layer 1
10
53.768960
20
9.353951
70
0
0
VERTEX
8
Layer 1
10
53.890227
20
10.009898
70
0
0
VERTEX
8
Layer 1
10
53.768960
20
10.660332
70
0
0
VERTEX
8
Layer 1
10
53.449255
20
11.079256
70
0
0
VERTEX
8
Layer 1
10
52.986234
20
11.228084
70
0
0
VERTEX
8
Layer 1
10
52.523212
20
11.079256
70
0
0
VERTEX
8
Layer 1
10
52.197995
20
10.660332
70
0
0
VERTEX
8
Layer 1
10
52.082240
20
10.009898
70
0
0
VERTEX
8
Layer 1
10
52.197995
20
9.353951
70
0
0
VERTEX
8
Layer 1
10
52.523212
20
8.940540
70
0
0
VERTEX
8
Layer 1
10
52.986234
20
8.797224
70
0
0
VERTEX
8
Layer 1
10
52.986234
20
8.797224
70
0
0
SEQEND
8
Layer 1
0
POLYLINE
8
Layer 1
62
7
70
1
10
0.000000
20
0.000000
66
1
0
VERTEX
8
Layer 1
10
59.294634
20
8.483031
70
0
0
VERTEX
8
Layer 1
10
58.616638
20
8.675956
70
0
0
VERTEX
8
Layer 1
10
58.175666
20
9.210635
70
0
0
VERTEX
8
Layer 1
10
58.026838
20
10.009898
70
0
0
VERTEX
8
Layer 1
10
58.175666
20
10.809161
70
0
0
VERTEX
8
Layer 1
10
58.616638
20
11.349352
70
0
0
VERTEX
8
Layer 1
10
59.294634
20
11.542277
70
0
0
VERTEX
8
Layer 1
10
59.967117
20
11.349352
70
0
0
VERTEX
8
Layer 1
10
60.402577
20
10.809161
70
0
0
VERTEX
8
Layer 1
10
60.556917
20
10.009898
70
0
0
VERTEX
8
Layer 1
10
60.402577
20
9.210635
70
0
0
VERTEX
8
Layer 1
10
59.967117
20
8.675956
70
0
0
VERTEX
8
Layer 1
10
59.294634
20
8.483031
70
0
0
VERTEX
8
Layer 1
10
59.294634
20
8.483031
70
0
0
SEQEND
8
Layer 1
0
POLYLINE
8
Layer 1
62
7
70
1
10
0.000000
20
0.000000
66
1
0
VERTEX
8
Layer 1
10
59.294634
20
8.797224
70
0
0
VERTEX
8
Layer 1
10
59.757655
20
8.940540
70
0
0
VERTEX
8
Layer 1
10
60.077360
20
9.353951
70
0
0
VERTEX
8
Layer 1
10
60.198627
20
10.009898
70
0
0
VERTEX
8
Layer 1
10
60.077360
20
10.660332
70
0
0
VERTEX
8
Layer 1
10
59.757655
20
11.079256
70
0
0
VERTEX
8
Layer 1
10
59.294634
20
11.228084
70
0
0
VERTEX
8
Layer 1
10
58.831612
20
11.079256
70
0
0
VERTEX
8
Layer 1
10
58.506395
20
10.660332
70
0
0
VERTEX
8
Layer 1
10
58.390640
20
10.009898
70
0
0
VERTEX
8
Layer 1
10
58.506395
20
9.353951
70
0
0
VERTEX
8
Layer 1
10
58.831612
20
8.940540
70
0
0
VERTEX
8
Layer 1
10
59.294634
20
8.797224
70
0
0
VERTEX
8
Layer 1
10
59.294634
20
8.797224
70
0
0
SEQEND
8
Layer 1
0
POLYLINE
8
Layer 1
62
7
70
1
10
0.000000
20
0.000000
66
1
0
VERTEX
8
Layer 1
10
64.743137
20
8.532640
70
0
0
VERTEX
8
Layer 1
10
64.743137
20
11.095793
70
0
0
VERTEX
8
Layer 1
10
64.263580
20
10.991062
70
0
0
VERTEX
8
Layer 1
10
64.263580
20
11.233597
70
0
0
VERTEX
8
Layer 1
10
64.858892
20
11.492668
70
0
0
VERTEX
8
Layer 1
10
65.101427
20
11.492668
70
0
0
VERTEX
8
Layer 1
10
65.101427
20
8.532640
70
0
0
VERTEX
8
Layer 1
10
64.743137
20
8.532640
70
0
0
SEQEND
8
Layer 1
0
POLYLINE
8
Layer 1
62
7
70
1
10
0.000000
20
0.000000
66
1
0
VERTEX
8
Layer 1
10
69.057683
20
8.532640
70
0
0
VERTEX
8
Layer 1
10
69.057683
20
8.780687
70
0
0
VERTEX
8
Layer 1
10
69.625436
20
9.260245
70
0
0
VERTEX
8
Layer 1
10
70.104993
20
9.739802
70
0
0
VERTEX
8
Layer 1
10
70.435723
20
10.202823
70
0
0
VERTEX
8
Layer 1
10
70.556990
20
10.643796
70
0
0
VERTEX
8
Layer 1
10
70.501868
20
10.935940
70
0
0
VERTEX
8
Layer 1
10
70.330992
20
11.156426
70
0
0
VERTEX
8
Layer 1
10
70.011287
20
11.239109
70
0
0
VERTEX
8
Layer 1
10
69.686069
20
11.150914
70
0
0
VERTEX
8
Layer 1
10
69.487632
20
10.919404
70
0
0
VERTEX
8
Layer 1
10
69.421486
20
10.610723
70
0
0
VERTEX
8
Layer 1
10
69.079732
20
10.610723
70
0
0
VERTEX
8
Layer 1
10
69.201000
20
11.112329
70
0
0
VERTEX
8
Layer 1
10
69.537241
20
11.432034
70
0
0
VERTEX
8
Layer 1
10
70.016799
20
11.542277
70
0
0
VERTEX
8
Layer 1
10
70.656209
20
11.321791
70
0
0
VERTEX
8
Layer 1
10
70.846034
20
11.045839
70
0
0
VERTEX
8
Layer 1
10
70.909768
20
10.660332
70
0
0
VERTEX
8
Layer 1
10
70.777476
20
10.136677
70
0
0
VERTEX
8
Layer 1
10
70.446747
20
9.646096
70
0
0
VERTEX
8
Layer 1
10
70.011287
20
9.199611
70
0
0
VERTEX
8
Layer 1
10
69.581338
20
8.830296
70
0
0
VERTEX
8
Layer 1
10
71.014499
20
8.830296
70
0
0
VERTEX
8
Layer 1
10
71.014499
20
8.532640
70
0
0
VERTEX
8
Layer 1
10
69.057683
20
8.532640
70
0
0
SEQEND
8
Layer 1
0
POLYLINE
8
Layer 1
62
7
70
1
10
0.000000
20
0.000000
66
1
0
VERTEX
8
Layer 1
10
75.879745
20
8.483031
70
0
0
VERTEX
8
Layer 1
10
75.356090
20
8.587762
70
0
0
VERTEX
8
Layer 1
10
74.986775
20
8.890930
70
0
0
VERTEX
8
Layer 1
10
74.854484
20
9.337415
70
0
0
VERTEX
8
Layer 1
10
75.014336
20
9.822485
70
0
0
VERTEX
8
Layer 1
10
75.433260
20
10.109117
70
0
0
VERTEX
8
Layer 1
10
75.063945
20
10.368188
70
0
0
VERTEX
8
Layer 1
10
74.931654
20
10.754039
70
0
0
VERTEX
8
Layer 1
10
75.047409
20
11.150914
70
0
0
VERTEX
8
Layer 1
10
75.372626
20
11.437546
70
0
0
VERTEX
8
Layer 1
10
75.879745
20
11.542277
70
0
0
VERTEX
8
Layer 1
10
76.386863
20
11.437546
70
0
0
VERTEX
8
Layer 1
10
76.712080
20
11.150914
70
0
0
VERTEX
8
Layer 1
10
76.827835
20
10.754039
70
0
0
VERTEX
8
Layer 1
10
76.695544
20
10.368188
70
0
0
VERTEX
8
Layer 1
10
76.320717
20
10.109117
70
0
0
VERTEX
8
Layer 1
10
76.745153
20
9.822485
70
0
0
VERTEX
8
Layer 1
10
76.905006
20
9.337415
70
0
0
VERTEX
8
Layer 1
10
76.767202
20
8.890930
70
0
0
VERTEX
8
Layer 1
10
76.403399
20
8.587762
70
0
0
VERTEX
8
Layer 1
10
75.879745
20
8.483031
70
0
0
VERTEX
8
Layer 1
10
75.879745
20
8.483031
70
0
0
SEQEND
8
Layer 1
0
POLYLINE
8
Layer 1
62
7
70
1
10
0.000000
20
0.000000
66
1
0
VERTEX
8
Layer 1
10
75.879745
20
10.235896
70
0
0
VERTEX
8
Layer 1
10
76.309693
20
10.373700
70
0
0
VERTEX
8
Layer 1
10
76.469545
20
10.737503
70
0
0
VERTEX
8
Layer 1
10
76.309693
20
11.112329
70
0
0
VERTEX
8
Layer 1
10
75.879745
20
11.239109
70
0
0
VERTEX
8
Layer 1
10
75.449796
20
11.112329
70
0
0
VERTEX
8
Layer 1
10
75.295456
20
10.737503
70
0
0
VERTEX
8
Layer 1
10
75.449796
20
10.373700
70
0
0
VERTEX
8
Layer 1
10
75.879745
20
10.235896
70
0
0
VERTEX
8
Layer 1
10
75.879745
20
10.235896
70
0
0
SEQEND
8
Layer 1
0
POLYLINE
8
Layer 1
62
7
70
1
10
0.000000
20
0.000000
66
1
0
VERTEX
8
Layer 1
10
75.879745
20
8.797224
70
0
0
VERTEX
8
Layer 1
10
76.381351
20
8.951564
70
0
0
VERTEX
8
Layer 1
10
76.546715
20
9.359463
70
0
0
VERTEX
8
Layer 1
10
76.364814
20
9.789412
70
0
0
VERTEX
8
Layer 1
10
75.879745
20
9.938240
70
0
0
VERTEX
8
Layer 1
10
75.394675
20
9.789412
70
0
0
VERTEX
8
Layer 1
10
75.212774
20
9.359463
70
0
0
VERTEX
8
Layer 1
10
75.378138
20
8.951564
70
0
0
VERTEX
8
Layer 1
10
75.879745
20
8.797224
70
0
0
VERTEX
8
Layer 1
10
75.879745
20
8.797224
70
0
0
SEQEND
8
Layer 1
 0 
ENDSEC
 0 
EOF