999
"DXF R12 Output" (www.mydxf.blogspot.com)
 0 
SECTION
 2 
HEADER
 9 
$ACADVER
 1 
AC1009
 9 
$EXTMIN
 10 
 0 
 20 
 0 
 9 
$EXTMAX
 10 
 8.5 
 20 
 11 
 0 
ENDSEC
 0 
SECTION
 2 
ENTITIES
0
POLYLINE
8
Layer 1
62
7
70
1
10
0.000000
20
0.000000
66
1
0
VERTEX
8
Layer 1
10
0.000000
20
92.604200
70
0
0
VERTEX
8
Layer 1
10
92.427836
20
92.604200
70
0
0
VERTEX
8
Layer 1
10
92.427836
20
0.176364
70
0
0
VERTEX
8
Layer 1
10
0.000000
20
0.176364
70
0
0
VERTEX
8
Layer 1
10
0.000000
20
92.604200
70
0
0
SEQEND
8
Layer 1
0
POLYLINE
8
Layer 1
62
7
70
1
10
0.000000
20
0.000000
66
1
0
VERTEX
8
Layer 1
10
0.000000
20
92.604200
70
0
0
VERTEX
8
Layer 1
10
92.427836
20
92.604200
70
0
0
VERTEX
8
Layer 1
10
92.427836
20
0.176364
70
0
0
VERTEX
8
Layer 1
10
0.000000
20
0.176364
70
0
0
VERTEX
8
Layer 1
10
0.000000
20
92.604200
70
0
0
SEQEND
8
Layer 1
0
POLYLINE
8
Layer 1
62
7
70
1
10
0.000000
20
0.000000
66
1
0
VERTEX
8
Layer 1
10
17.392050
20
8.483031
70
0
0
VERTEX
8
Layer 1
10
16.642396
20
8.675956
70
0
0
VERTEX
8
Layer 1
10
16.151814
20
9.210635
70
0
0
VERTEX
8
Layer 1
10
15.980938
20
10.009898
70
0
0
VERTEX
8
Layer 1
10
16.151814
20
10.809161
70
0
0
VERTEX
8
Layer 1
10
16.642396
20
11.349352
70
0
0
VERTEX
8
Layer 1
10
17.392050
20
11.542277
70
0
0
VERTEX
8
Layer 1
10
18.218873
20
11.299742
70
0
0
VERTEX
8
Layer 1
10
18.626773
20
10.621747
70
0
0
VERTEX
8
Layer 1
10
18.235410
20
10.621747
70
0
0
VERTEX
8
Layer 1
10
17.959802
20
11.062720
70
0
0
VERTEX
8
Layer 1
10
17.392050
20
11.228084
70
0
0
VERTEX
8
Layer 1
10
16.840834
20
11.079256
70
0
0
VERTEX
8
Layer 1
10
16.471520
20
10.660332
70
0
0
VERTEX
8
Layer 1
10
16.344740
20
10.009898
70
0
0
VERTEX
8
Layer 1
10
16.471520
20
9.353951
70
0
0
VERTEX
8
Layer 1
10
16.840834
20
8.940540
70
0
0
VERTEX
8
Layer 1
10
17.392050
20
8.797224
70
0
0
VERTEX
8
Layer 1
10
17.959802
20
8.957076
70
0
0
VERTEX
8
Layer 1
10
18.235410
20
9.392536
70
0
0
VERTEX
8
Layer 1
10
18.626773
20
9.392536
70
0
0
VERTEX
8
Layer 1
10
18.218873
20
8.720053
70
0
0
VERTEX
8
Layer 1
10
17.392050
20
8.483031
70
0
0
VERTEX
8
Layer 1
10
17.392050
20
8.483031
70
0
0
SEQEND
8
Layer 1
0
POLYLINE
8
Layer 1
62
7
70
1
10
0.000000
20
0.000000
66
1
0
VERTEX
8
Layer 1
10
22.519093
20
8.532640
70
0
0
VERTEX
8
Layer 1
10
22.519093
20
11.492668
70
0
0
VERTEX
8
Layer 1
10
22.871871
20
11.492668
70
0
0
VERTEX
8
Layer 1
10
22.871871
20
10.186287
70
0
0
VERTEX
8
Layer 1
10
24.409762
20
10.186287
70
0
0
VERTEX
8
Layer 1
10
24.409762
20
11.492668
70
0
0
VERTEX
8
Layer 1
10
24.762541
20
11.492668
70
0
0
VERTEX
8
Layer 1
10
24.762541
20
8.532640
70
0
0
VERTEX
8
Layer 1
10
24.409762
20
8.532640
70
0
0
VERTEX
8
Layer 1
10
24.409762
20
9.894143
70
0
0
VERTEX
8
Layer 1
10
22.871871
20
9.894143
70
0
0
VERTEX
8
Layer 1
10
22.871871
20
8.532640
70
0
0
VERTEX
8
Layer 1
10
22.519093
20
8.532640
70
0
0
SEQEND
8
Layer 1
0
POLYLINE
8
Layer 1
62
7
70
1
10
0.000000
20
0.000000
66
1
0
VERTEX
8
Layer 1
10
28.580880
20
8.532640
70
0
0
VERTEX
8
Layer 1
10
29.672287
20
11.492668
70
0
0
VERTEX
8
Layer 1
10
30.047113
20
11.492668
70
0
0
VERTEX
8
Layer 1
10
31.133008
20
8.532640
70
0
0
VERTEX
8
Layer 1
10
30.758181
20
8.532640
70
0
0
VERTEX
8
Layer 1
10
30.488086
20
9.293318
70
0
0
VERTEX
8
Layer 1
10
29.225802
20
9.293318
70
0
0
VERTEX
8
Layer 1
10
28.955706
20
8.532640
70
0
0
VERTEX
8
Layer 1
10
28.580880
20
8.532640
70
0
0
SEQEND
8
Layer 1
0
POLYLINE
8
Layer 1
62
7
70
1
10
0.000000
20
0.000000
66
1
0
VERTEX
8
Layer 1
10
29.336045
20
9.579950
70
0
0
VERTEX
8
Layer 1
10
30.383355
20
9.579950
70
0
0
VERTEX
8
Layer 1
10
29.859700
20
11.046183
70
0
0
VERTEX
8
Layer 1
10
29.336045
20
9.579950
70
0
0
SEQEND
8
Layer 1
0
POLYLINE
8
Layer 1
62
7
70
1
10
0.000000
20
0.000000
66
1
0
VERTEX
8
Layer 1
10
36.299159
20
8.483031
70
0
0
VERTEX
8
Layer 1
10
35.532969
20
8.675956
70
0
0
VERTEX
8
Layer 1
10
35.020339
20
9.210635
70
0
0
VERTEX
8
Layer 1
10
34.838438
20
10.009898
70
0
0
VERTEX
8
Layer 1
10
35.020339
20
10.809161
70
0
0
VERTEX
8
Layer 1
10
35.532969
20
11.349352
70
0
0
VERTEX
8
Layer 1
10
36.299159
20
11.542277
70
0
0
VERTEX
8
Layer 1
10
37.059837
20
11.349352
70
0
0
VERTEX
8
Layer 1
10
37.572467
20
10.809161
70
0
0
VERTEX
8
Layer 1
10
37.754368
20
10.009898
70
0
0
VERTEX
8
Layer 1
10
37.572467
20
9.210635
70
0
0
VERTEX
8
Layer 1
10
37.059837
20
8.675956
70
0
0
VERTEX
8
Layer 1
10
36.299159
20
8.483031
70
0
0
VERTEX
8
Layer 1
10
36.299159
20
8.483031
70
0
0
SEQEND
8
Layer 1
0
POLYLINE
8
Layer 1
62
7
70
1
10
0.000000
20
0.000000
66
1
0
VERTEX
8
Layer 1
10
36.299159
20
8.797224
70
0
0
VERTEX
8
Layer 1
10
36.866911
20
8.940540
70
0
0
VERTEX
8
Layer 1
10
37.252762
20
9.353951
70
0
0
VERTEX
8
Layer 1
10
37.390566
20
10.009898
70
0
0
VERTEX
8
Layer 1
10
37.252762
20
10.660332
70
0
0
VERTEX
8
Layer 1
10
36.866911
20
11.079256
70
0
0
VERTEX
8
Layer 1
10
36.299159
20
11.228084
70
0
0
VERTEX
8
Layer 1
10
35.725895
20
11.079256
70
0
0
VERTEX
8
Layer 1
10
35.340044
20
10.660332
70
0
0
VERTEX
8
Layer 1
10
35.202240
20
10.009898
70
0
0
VERTEX
8
Layer 1
10
35.340044
20
9.353951
70
0
0
VERTEX
8
Layer 1
10
35.725895
20
8.940540
70
0
0
VERTEX
8
Layer 1
10
36.299159
20
8.797224
70
0
0
VERTEX
8
Layer 1
10
36.299159
20
8.797224
70
0
0
SEQEND
8
Layer 1
0
POLYLINE
8
Layer 1
62
7
70
1
10
0.000000
20
0.000000
66
1
0
VERTEX
8
Layer 1
10
42.589672
20
8.483031
70
0
0
VERTEX
8
Layer 1
10
42.021920
20
8.598786
70
0
0
VERTEX
8
Layer 1
10
41.647093
20
8.929515
70
0
0
VERTEX
8
Layer 1
10
41.520313
20
9.420097
70
0
0
VERTEX
8
Layer 1
10
41.889628
20
9.420097
70
0
0
VERTEX
8
Layer 1
10
41.966798
20
9.100392
70
0
0
VERTEX
8
Layer 1
10
42.203821
20
8.868882
70
0
0
VERTEX
8
Layer 1
10
42.589672
20
8.780687
70
0
0
VERTEX
8
Layer 1
10
43.052693
20
8.924003
70
0
0
VERTEX
8
Layer 1
10
43.218057
20
9.287805
70
0
0
VERTEX
8
Layer 1
10
43.140887
20
9.568925
70
0
0
VERTEX
8
Layer 1
10
42.936937
20
9.745314
70
0
0
VERTEX
8
Layer 1
10
42.639281
20
9.861070
70
0
0
VERTEX
8
Layer 1
10
42.292015
20
9.976825
70
0
0
VERTEX
8
Layer 1
10
41.784897
20
10.268969
70
0
0
VERTEX
8
Layer 1
10
41.619532
20
10.731990
70
0
0
VERTEX
8
Layer 1
10
41.729775
20
11.150914
70
0
0
VERTEX
8
Layer 1
10
42.054992
20
11.437546
70
0
0
VERTEX
8
Layer 1
10
42.551087
20
11.542277
70
0
0
VERTEX
8
Layer 1
10
43.041668
20
11.437546
70
0
0
VERTEX
8
Layer 1
10
43.366886
20
11.145402
70
0
0
VERTEX
8
Layer 1
10
43.488153
20
10.720966
70
0
0
VERTEX
8
Layer 1
10
43.118839
20
10.720966
70
0
0
VERTEX
8
Layer 1
10
43.052693
20
10.963501
70
0
0
VERTEX
8
Layer 1
10
42.859767
20
11.161939
70
0
0
VERTEX
8
Layer 1
10
42.540062
20
11.239109
70
0
0
VERTEX
8
Layer 1
10
42.143187
20
11.117841
70
0
0
VERTEX
8
Layer 1
10
41.988847
20
10.765063
70
0
0
VERTEX
8
Layer 1
10
42.093578
20
10.472919
70
0
0
VERTEX
8
Layer 1
10
42.396746
20
10.307554
70
0
0
VERTEX
8
Layer 1
10
42.848743
20
10.158726
70
0
0
VERTEX
8
Layer 1
10
43.223570
20
9.976825
70
0
0
VERTEX
8
Layer 1
10
43.488153
20
9.717754
70
0
0
VERTEX
8
Layer 1
10
43.587372
20
9.304342
70
0
0
VERTEX
8
Layer 1
10
43.477129
20
8.907467
70
0
0
VERTEX
8
Layer 1
10
43.140887
20
8.598786
70
0
0
VERTEX
8
Layer 1
10
42.589672
20
8.483031
70
0
0
VERTEX
8
Layer 1
10
42.589672
20
8.483031
70
0
0
SEQEND
8
Layer 1
0
POLYLINE
8
Layer 1
62
7
70
1
10
0.000000
20
0.000000
66
1
0
VERTEX
8
Layer 1
10
47.910265
20
9.431121
70
0
0
VERTEX
8
Layer 1
10
47.656706
20
9.497267
70
0
0
VERTEX
8
Layer 1
10
47.469293
20
9.684681
70
0
0
VERTEX
8
Layer 1
10
47.403147
20
9.938240
70
0
0
VERTEX
8
Layer 1
10
47.469293
20
10.197311
70
0
0
VERTEX
8
Layer 1
10
47.656706
20
10.384725
70
0
0
VERTEX
8
Layer 1
10
47.910265
20
10.450870
70
0
0
VERTEX
8
Layer 1
10
48.169337
20
10.384725
70
0
0
VERTEX
8
Layer 1
10
48.351238
20
10.197311
70
0
0
VERTEX
8
Layer 1
10
48.417384
20
9.938240
70
0
0
VERTEX
8
Layer 1
10
48.351238
20
9.684681
70
0
0
VERTEX
8
Layer 1
10
48.169337
20
9.497267
70
0
0
VERTEX
8
Layer 1
10
47.910265
20
9.431121
70
0
0
VERTEX
8
Layer 1
10
47.910265
20
9.431121
70
0
0
SEQEND
8
Layer 1
0
POLYLINE
8
Layer 1
62
7
70
1
10
0.000000
20
0.000000
66
1
0
VERTEX
8
Layer 1
10
53.514334
20
8.483031
70
0
0
VERTEX
8
Layer 1
10
52.836338
20
8.675956
70
0
0
VERTEX
8
Layer 1
10
52.395366
20
9.210635
70
0
0
VERTEX
8
Layer 1
10
52.246538
20
10.009898
70
0
0
VERTEX
8
Layer 1
10
52.395366
20
10.809161
70
0
0
VERTEX
8
Layer 1
10
52.836338
20
11.349352
70
0
0
VERTEX
8
Layer 1
10
53.514334
20
11.542277
70
0
0
VERTEX
8
Layer 1
10
54.186817
20
11.349352
70
0
0
VERTEX
8
Layer 1
10
54.622277
20
10.809161
70
0
0
VERTEX
8
Layer 1
10
54.776617
20
10.009898
70
0
0
VERTEX
8
Layer 1
10
54.622277
20
9.210635
70
0
0
VERTEX
8
Layer 1
10
54.186817
20
8.675956
70
0
0
VERTEX
8
Layer 1
10
53.514334
20
8.483031
70
0
0
VERTEX
8
Layer 1
10
53.514334
20
8.483031
70
0
0
SEQEND
8
Layer 1
0
POLYLINE
8
Layer 1
62
7
70
1
10
0.000000
20
0.000000
66
1
0
VERTEX
8
Layer 1
10
53.514334
20
8.797224
70
0
0
VERTEX
8
Layer 1
10
53.977355
20
8.940540
70
0
0
VERTEX
8
Layer 1
10
54.297060
20
9.353951
70
0
0
VERTEX
8
Layer 1
10
54.418327
20
10.009898
70
0
0
VERTEX
8
Layer 1
10
54.297060
20
10.660332
70
0
0
VERTEX
8
Layer 1
10
53.977355
20
11.079256
70
0
0
VERTEX
8
Layer 1
10
53.514334
20
11.228084
70
0
0
VERTEX
8
Layer 1
10
53.051312
20
11.079256
70
0
0
VERTEX
8
Layer 1
10
52.726095
20
10.660332
70
0
0
VERTEX
8
Layer 1
10
52.610340
20
10.009898
70
0
0
VERTEX
8
Layer 1
10
52.726095
20
9.353951
70
0
0
VERTEX
8
Layer 1
10
53.051312
20
8.940540
70
0
0
VERTEX
8
Layer 1
10
53.514334
20
8.797224
70
0
0
VERTEX
8
Layer 1
10
53.514334
20
8.797224
70
0
0
SEQEND
8
Layer 1
0
POLYLINE
8
Layer 1
62
7
70
1
10
0.000000
20
0.000000
66
1
0
VERTEX
8
Layer 1
10
59.822734
20
8.483031
70
0
0
VERTEX
8
Layer 1
10
59.144738
20
8.675956
70
0
0
VERTEX
8
Layer 1
10
58.703766
20
9.210635
70
0
0
VERTEX
8
Layer 1
10
58.554938
20
10.009898
70
0
0
VERTEX
8
Layer 1
10
58.703766
20
10.809161
70
0
0
VERTEX
8
Layer 1
10
59.144738
20
11.349352
70
0
0
VERTEX
8
Layer 1
10
59.822734
20
11.542277
70
0
0
VERTEX
8
Layer 1
10
60.495217
20
11.349352
70
0
0
VERTEX
8
Layer 1
10
60.930677
20
10.809161
70
0
0
VERTEX
8
Layer 1
10
61.085017
20
10.009898
70
0
0
VERTEX
8
Layer 1
10
60.930677
20
9.210635
70
0
0
VERTEX
8
Layer 1
10
60.495217
20
8.675956
70
0
0
VERTEX
8
Layer 1
10
59.822734
20
8.483031
70
0
0
VERTEX
8
Layer 1
10
59.822734
20
8.483031
70
0
0
SEQEND
8
Layer 1
0
POLYLINE
8
Layer 1
62
7
70
1
10
0.000000
20
0.000000
66
1
0
VERTEX
8
Layer 1
10
59.822734
20
8.797224
70
0
0
VERTEX
8
Layer 1
10
60.285755
20
8.940540
70
0
0
VERTEX
8
Layer 1
10
60.605460
20
9.353951
70
0
0
VERTEX
8
Layer 1
10
60.726727
20
10.009898
70
0
0
VERTEX
8
Layer 1
10
60.605460
20
10.660332
70
0
0
VERTEX
8
Layer 1
10
60.285755
20
11.079256
70
0
0
VERTEX
8
Layer 1
10
59.822734
20
11.228084
70
0
0
VERTEX
8
Layer 1
10
59.359712
20
11.079256
70
0
0
VERTEX
8
Layer 1
10
59.034495
20
10.660332
70
0
0
VERTEX
8
Layer 1
10
58.918740
20
10.009898
70
0
0
VERTEX
8
Layer 1
10
59.034495
20
9.353951
70
0
0
VERTEX
8
Layer 1
10
59.359712
20
8.940540
70
0
0
VERTEX
8
Layer 1
10
59.822734
20
8.797224
70
0
0
VERTEX
8
Layer 1
10
59.822734
20
8.797224
70
0
0
SEQEND
8
Layer 1
0
POLYLINE
8
Layer 1
62
7
70
1
10
0.000000
20
0.000000
66
1
0
VERTEX
8
Layer 1
10
65.271237
20
8.532640
70
0
0
VERTEX
8
Layer 1
10
65.271237
20
11.095793
70
0
0
VERTEX
8
Layer 1
10
64.791680
20
10.991062
70
0
0
VERTEX
8
Layer 1
10
64.791680
20
11.233597
70
0
0
VERTEX
8
Layer 1
10
65.386992
20
11.492668
70
0
0
VERTEX
8
Layer 1
10
65.629527
20
11.492668
70
0
0
VERTEX
8
Layer 1
10
65.629527
20
8.532640
70
0
0
VERTEX
8
Layer 1
10
65.271237
20
8.532640
70
0
0
SEQEND
8
Layer 1
0
POLYLINE
8
Layer 1
62
7
70
1
10
0.000000
20
0.000000
66
1
0
VERTEX
8
Layer 1
10
69.927537
20
8.532640
70
0
0
VERTEX
8
Layer 1
10
69.927537
20
11.095793
70
0
0
VERTEX
8
Layer 1
10
69.447980
20
10.991062
70
0
0
VERTEX
8
Layer 1
10
69.447980
20
11.233597
70
0
0
VERTEX
8
Layer 1
10
70.043292
20
11.492668
70
0
0
VERTEX
8
Layer 1
10
70.285827
20
11.492668
70
0
0
VERTEX
8
Layer 1
10
70.285827
20
8.532640
70
0
0
VERTEX
8
Layer 1
10
69.927537
20
8.532640
70
0
0
SEQEND
8
Layer 1
0
POLYLINE
8
Layer 1
62
7
70
1
10
0.000000
20
0.000000
66
1
0
VERTEX
8
Layer 1
10
75.267345
20
8.483031
70
0
0
VERTEX
8
Layer 1
10
74.787787
20
8.593274
70
0
0
VERTEX
8
Layer 1
10
74.473594
20
8.885418
70
0
0
VERTEX
8
Layer 1
10
74.330278
20
9.293318
70
0
0
VERTEX
8
Layer 1
10
74.661007
20
9.293318
70
0
0
VERTEX
8
Layer 1
10
74.864957
20
8.918491
70
0
0
VERTEX
8
Layer 1
10
75.272857
20
8.791711
70
0
0
VERTEX
8
Layer 1
10
75.579643
20
8.870260
70
0
0
VERTEX
8
Layer 1
10
75.829585
20
9.105904
70
0
0
VERTEX
8
Layer 1
10
76.072119
20
10.087068
70
0
0
VERTEX
8
Layer 1
10
75.746902
20
9.739802
70
0
0
VERTEX
8
Layer 1
10
75.217735
20
9.596486
70
0
0
VERTEX
8
Layer 1
10
74.738178
20
9.712241
70
0
0
VERTEX
8
Layer 1
10
74.379887
20
10.048483
70
0
0
VERTEX
8
Layer 1
10
74.242084
20
10.550089
70
0
0
VERTEX
8
Layer 1
10
74.363351
20
11.024135
70
0
0
VERTEX
8
Layer 1
10
74.716129
20
11.398961
70
0
0
VERTEX
8
Layer 1
10
75.261832
20
11.542277
70
0
0
VERTEX
8
Layer 1
10
75.802024
20
11.421010
70
0
0
VERTEX
8
Layer 1
10
76.154802
20
11.095793
70
0
0
VERTEX
8
Layer 1
10
76.353239
20
10.643796
70
0
0
VERTEX
8
Layer 1
10
76.413873
20
10.131165
70
0
0
VERTEX
8
Layer 1
10
76.276069
20
9.271269
70
0
0
VERTEX
8
Layer 1
10
75.884706
20
8.692493
70
0
0
VERTEX
8
Layer 1
10
75.267345
20
8.483031
70
0
0
VERTEX
8
Layer 1
10
75.267345
20
8.483031
70
0
0
SEQEND
8
Layer 1
0
POLYLINE
8
Layer 1
62
7
70
1
10
0.000000
20
0.000000
66
1
0
VERTEX
8
Layer 1
10
75.289393
20
9.905167
70
0
0
VERTEX
8
Layer 1
10
75.642171
20
9.993361
70
0
0
VERTEX
8
Layer 1
10
75.890218
20
10.235896
70
0
0
VERTEX
8
Layer 1
10
75.983925
20
10.572138
70
0
0
VERTEX
8
Layer 1
10
75.890218
20
10.908379
70
0
0
VERTEX
8
Layer 1
10
75.642171
20
11.145402
70
0
0
VERTEX
8
Layer 1
10
75.289393
20
11.228084
70
0
0
VERTEX
8
Layer 1
10
74.931103
20
11.145402
70
0
0
VERTEX
8
Layer 1
10
74.688568
20
10.908379
70
0
0
VERTEX
8
Layer 1
10
74.600374
20
10.566626
70
0
0
VERTEX
8
Layer 1
10
74.793299
20
10.081556
70
0
0
VERTEX
8
Layer 1
10
75.289393
20
9.905167
70
0
0
VERTEX
8
Layer 1
10
75.289393
20
9.905167
70
0
0
SEQEND
8
Layer 1
 0 
ENDSEC
 0 
EOF