999
"DXF R12 Output" (www.mydxf.blogspot.com)
 0 
SECTION
 2 
HEADER
 9 
$ACADVER
 1 
AC1009
 9 
$EXTMIN
 10 
 0 
 20 
 0 
 9 
$EXTMAX
 10 
 8.5 
 20 
 11 
 0 
ENDSEC
 0 
SECTION
 2 
ENTITIES
0
POLYLINE
8
Layer 1
62
7
70
1
10
0.000000
20
0.000000
66
1
0
VERTEX
8
Layer 1
10
0.000000
20
92.604200
70
0
0
VERTEX
8
Layer 1
10
92.427836
20
92.604200
70
0
0
VERTEX
8
Layer 1
10
92.427836
20
0.176364
70
0
0
VERTEX
8
Layer 1
10
0.000000
20
0.176364
70
0
0
VERTEX
8
Layer 1
10
0.000000
20
92.604200
70
0
0
SEQEND
8
Layer 1
0
POLYLINE
8
Layer 1
62
7
70
1
10
0.000000
20
0.000000
66
1
0
VERTEX
8
Layer 1
10
0.000000
20
92.604200
70
0
0
VERTEX
8
Layer 1
10
92.427836
20
92.604200
70
0
0
VERTEX
8
Layer 1
10
92.427836
20
0.176364
70
0
0
VERTEX
8
Layer 1
10
0.000000
20
0.176364
70
0
0
VERTEX
8
Layer 1
10
0.000000
20
92.604200
70
0
0
SEQEND
8
Layer 1
0
POLYLINE
8
Layer 1
62
7
70
1
10
0.000000
20
0.000000
66
1
0
VERTEX
8
Layer 1
10
17.445650
20
8.483031
70
0
0
VERTEX
8
Layer 1
10
16.695996
20
8.675956
70
0
0
VERTEX
8
Layer 1
10
16.205414
20
9.210635
70
0
0
VERTEX
8
Layer 1
10
16.034538
20
10.009898
70
0
0
VERTEX
8
Layer 1
10
16.205414
20
10.809161
70
0
0
VERTEX
8
Layer 1
10
16.695996
20
11.349352
70
0
0
VERTEX
8
Layer 1
10
17.445650
20
11.542277
70
0
0
VERTEX
8
Layer 1
10
18.272473
20
11.299742
70
0
0
VERTEX
8
Layer 1
10
18.680373
20
10.621747
70
0
0
VERTEX
8
Layer 1
10
18.289010
20
10.621747
70
0
0
VERTEX
8
Layer 1
10
18.013402
20
11.062720
70
0
0
VERTEX
8
Layer 1
10
17.445650
20
11.228084
70
0
0
VERTEX
8
Layer 1
10
16.894434
20
11.079256
70
0
0
VERTEX
8
Layer 1
10
16.525120
20
10.660332
70
0
0
VERTEX
8
Layer 1
10
16.398340
20
10.009898
70
0
0
VERTEX
8
Layer 1
10
16.525120
20
9.353951
70
0
0
VERTEX
8
Layer 1
10
16.894434
20
8.940540
70
0
0
VERTEX
8
Layer 1
10
17.445650
20
8.797224
70
0
0
VERTEX
8
Layer 1
10
18.013402
20
8.957076
70
0
0
VERTEX
8
Layer 1
10
18.289010
20
9.392536
70
0
0
VERTEX
8
Layer 1
10
18.680373
20
9.392536
70
0
0
VERTEX
8
Layer 1
10
18.272473
20
8.720053
70
0
0
VERTEX
8
Layer 1
10
17.445650
20
8.483031
70
0
0
VERTEX
8
Layer 1
10
17.445650
20
8.483031
70
0
0
SEQEND
8
Layer 1
0
POLYLINE
8
Layer 1
62
7
70
1
10
0.000000
20
0.000000
66
1
0
VERTEX
8
Layer 1
10
22.572693
20
8.532640
70
0
0
VERTEX
8
Layer 1
10
22.572693
20
11.492668
70
0
0
VERTEX
8
Layer 1
10
22.925471
20
11.492668
70
0
0
VERTEX
8
Layer 1
10
22.925471
20
10.186287
70
0
0
VERTEX
8
Layer 1
10
24.463363
20
10.186287
70
0
0
VERTEX
8
Layer 1
10
24.463363
20
11.492668
70
0
0
VERTEX
8
Layer 1
10
24.816141
20
11.492668
70
0
0
VERTEX
8
Layer 1
10
24.816141
20
8.532640
70
0
0
VERTEX
8
Layer 1
10
24.463363
20
8.532640
70
0
0
VERTEX
8
Layer 1
10
24.463363
20
9.894143
70
0
0
VERTEX
8
Layer 1
10
22.925471
20
9.894143
70
0
0
VERTEX
8
Layer 1
10
22.925471
20
8.532640
70
0
0
VERTEX
8
Layer 1
10
22.572693
20
8.532640
70
0
0
SEQEND
8
Layer 1
0
POLYLINE
8
Layer 1
62
7
70
1
10
0.000000
20
0.000000
66
1
0
VERTEX
8
Layer 1
10
28.634480
20
8.532640
70
0
0
VERTEX
8
Layer 1
10
29.725887
20
11.492668
70
0
0
VERTEX
8
Layer 1
10
30.100713
20
11.492668
70
0
0
VERTEX
8
Layer 1
10
31.186608
20
8.532640
70
0
0
VERTEX
8
Layer 1
10
30.811781
20
8.532640
70
0
0
VERTEX
8
Layer 1
10
30.541686
20
9.293318
70
0
0
VERTEX
8
Layer 1
10
29.279402
20
9.293318
70
0
0
VERTEX
8
Layer 1
10
29.009306
20
8.532640
70
0
0
VERTEX
8
Layer 1
10
28.634480
20
8.532640
70
0
0
SEQEND
8
Layer 1
0
POLYLINE
8
Layer 1
62
7
70
1
10
0.000000
20
0.000000
66
1
0
VERTEX
8
Layer 1
10
29.389645
20
9.579950
70
0
0
VERTEX
8
Layer 1
10
30.436955
20
9.579950
70
0
0
VERTEX
8
Layer 1
10
29.913300
20
11.046183
70
0
0
VERTEX
8
Layer 1
10
29.389645
20
9.579950
70
0
0
SEQEND
8
Layer 1
0
POLYLINE
8
Layer 1
62
7
70
1
10
0.000000
20
0.000000
66
1
0
VERTEX
8
Layer 1
10
36.352659
20
8.483031
70
0
0
VERTEX
8
Layer 1
10
35.586469
20
8.675956
70
0
0
VERTEX
8
Layer 1
10
35.073839
20
9.210635
70
0
0
VERTEX
8
Layer 1
10
34.891938
20
10.009898
70
0
0
VERTEX
8
Layer 1
10
35.073839
20
10.809161
70
0
0
VERTEX
8
Layer 1
10
35.586469
20
11.349352
70
0
0
VERTEX
8
Layer 1
10
36.352659
20
11.542277
70
0
0
VERTEX
8
Layer 1
10
37.113337
20
11.349352
70
0
0
VERTEX
8
Layer 1
10
37.625967
20
10.809161
70
0
0
VERTEX
8
Layer 1
10
37.807868
20
10.009898
70
0
0
VERTEX
8
Layer 1
10
37.625967
20
9.210635
70
0
0
VERTEX
8
Layer 1
10
37.113337
20
8.675956
70
0
0
VERTEX
8
Layer 1
10
36.352659
20
8.483031
70
0
0
VERTEX
8
Layer 1
10
36.352659
20
8.483031
70
0
0
SEQEND
8
Layer 1
0
POLYLINE
8
Layer 1
62
7
70
1
10
0.000000
20
0.000000
66
1
0
VERTEX
8
Layer 1
10
36.352659
20
8.797224
70
0
0
VERTEX
8
Layer 1
10
36.920411
20
8.940540
70
0
0
VERTEX
8
Layer 1
10
37.306262
20
9.353951
70
0
0
VERTEX
8
Layer 1
10
37.444066
20
10.009898
70
0
0
VERTEX
8
Layer 1
10
37.306262
20
10.660332
70
0
0
VERTEX
8
Layer 1
10
36.920411
20
11.079256
70
0
0
VERTEX
8
Layer 1
10
36.352659
20
11.228084
70
0
0
VERTEX
8
Layer 1
10
35.779395
20
11.079256
70
0
0
VERTEX
8
Layer 1
10
35.393544
20
10.660332
70
0
0
VERTEX
8
Layer 1
10
35.255740
20
10.009898
70
0
0
VERTEX
8
Layer 1
10
35.393544
20
9.353951
70
0
0
VERTEX
8
Layer 1
10
35.779395
20
8.940540
70
0
0
VERTEX
8
Layer 1
10
36.352659
20
8.797224
70
0
0
VERTEX
8
Layer 1
10
36.352659
20
8.797224
70
0
0
SEQEND
8
Layer 1
0
POLYLINE
8
Layer 1
62
7
70
1
10
0.000000
20
0.000000
66
1
0
VERTEX
8
Layer 1
10
42.643272
20
8.483031
70
0
0
VERTEX
8
Layer 1
10
42.075520
20
8.598786
70
0
0
VERTEX
8
Layer 1
10
41.700693
20
8.929515
70
0
0
VERTEX
8
Layer 1
10
41.573913
20
9.420097
70
0
0
VERTEX
8
Layer 1
10
41.943228
20
9.420097
70
0
0
VERTEX
8
Layer 1
10
42.020398
20
9.100392
70
0
0
VERTEX
8
Layer 1
10
42.257421
20
8.868882
70
0
0
VERTEX
8
Layer 1
10
42.643272
20
8.780687
70
0
0
VERTEX
8
Layer 1
10
43.106293
20
8.924003
70
0
0
VERTEX
8
Layer 1
10
43.271657
20
9.287805
70
0
0
VERTEX
8
Layer 1
10
43.194487
20
9.568925
70
0
0
VERTEX
8
Layer 1
10
42.990537
20
9.745314
70
0
0
VERTEX
8
Layer 1
10
42.692881
20
9.861070
70
0
0
VERTEX
8
Layer 1
10
42.345615
20
9.976825
70
0
0
VERTEX
8
Layer 1
10
41.838497
20
10.268969
70
0
0
VERTEX
8
Layer 1
10
41.673132
20
10.731990
70
0
0
VERTEX
8
Layer 1
10
41.783375
20
11.150914
70
0
0
VERTEX
8
Layer 1
10
42.108592
20
11.437546
70
0
0
VERTEX
8
Layer 1
10
42.604687
20
11.542277
70
0
0
VERTEX
8
Layer 1
10
43.095268
20
11.437546
70
0
0
VERTEX
8
Layer 1
10
43.420486
20
11.145402
70
0
0
VERTEX
8
Layer 1
10
43.541753
20
10.720966
70
0
0
VERTEX
8
Layer 1
10
43.172439
20
10.720966
70
0
0
VERTEX
8
Layer 1
10
43.106293
20
10.963501
70
0
0
VERTEX
8
Layer 1
10
42.913367
20
11.161939
70
0
0
VERTEX
8
Layer 1
10
42.593662
20
11.239109
70
0
0
VERTEX
8
Layer 1
10
42.196787
20
11.117841
70
0
0
VERTEX
8
Layer 1
10
42.042447
20
10.765063
70
0
0
VERTEX
8
Layer 1
10
42.147178
20
10.472919
70
0
0
VERTEX
8
Layer 1
10
42.450346
20
10.307554
70
0
0
VERTEX
8
Layer 1
10
42.902343
20
10.158726
70
0
0
VERTEX
8
Layer 1
10
43.277170
20
9.976825
70
0
0
VERTEX
8
Layer 1
10
43.541753
20
9.717754
70
0
0
VERTEX
8
Layer 1
10
43.640972
20
9.304342
70
0
0
VERTEX
8
Layer 1
10
43.530729
20
8.907467
70
0
0
VERTEX
8
Layer 1
10
43.194487
20
8.598786
70
0
0
VERTEX
8
Layer 1
10
42.643272
20
8.483031
70
0
0
VERTEX
8
Layer 1
10
42.643272
20
8.483031
70
0
0
SEQEND
8
Layer 1
0
POLYLINE
8
Layer 1
62
7
70
1
10
0.000000
20
0.000000
66
1
0
VERTEX
8
Layer 1
10
47.963865
20
9.431121
70
0
0
VERTEX
8
Layer 1
10
47.710306
20
9.497267
70
0
0
VERTEX
8
Layer 1
10
47.522893
20
9.684681
70
0
0
VERTEX
8
Layer 1
10
47.456747
20
9.938240
70
0
0
VERTEX
8
Layer 1
10
47.522893
20
10.197311
70
0
0
VERTEX
8
Layer 1
10
47.710306
20
10.384725
70
0
0
VERTEX
8
Layer 1
10
47.963865
20
10.450870
70
0
0
VERTEX
8
Layer 1
10
48.222937
20
10.384725
70
0
0
VERTEX
8
Layer 1
10
48.404838
20
10.197311
70
0
0
VERTEX
8
Layer 1
10
48.470984
20
9.938240
70
0
0
VERTEX
8
Layer 1
10
48.404838
20
9.684681
70
0
0
VERTEX
8
Layer 1
10
48.222937
20
9.497267
70
0
0
VERTEX
8
Layer 1
10
47.963865
20
9.431121
70
0
0
VERTEX
8
Layer 1
10
47.963865
20
9.431121
70
0
0
SEQEND
8
Layer 1
0
POLYLINE
8
Layer 1
62
7
70
1
10
0.000000
20
0.000000
66
1
0
VERTEX
8
Layer 1
10
53.567934
20
8.483031
70
0
0
VERTEX
8
Layer 1
10
52.889938
20
8.675956
70
0
0
VERTEX
8
Layer 1
10
52.448966
20
9.210635
70
0
0
VERTEX
8
Layer 1
10
52.300138
20
10.009898
70
0
0
VERTEX
8
Layer 1
10
52.448966
20
10.809161
70
0
0
VERTEX
8
Layer 1
10
52.889938
20
11.349352
70
0
0
VERTEX
8
Layer 1
10
53.567934
20
11.542277
70
0
0
VERTEX
8
Layer 1
10
54.240417
20
11.349352
70
0
0
VERTEX
8
Layer 1
10
54.675877
20
10.809161
70
0
0
VERTEX
8
Layer 1
10
54.830217
20
10.009898
70
0
0
VERTEX
8
Layer 1
10
54.675877
20
9.210635
70
0
0
VERTEX
8
Layer 1
10
54.240417
20
8.675956
70
0
0
VERTEX
8
Layer 1
10
53.567934
20
8.483031
70
0
0
VERTEX
8
Layer 1
10
53.567934
20
8.483031
70
0
0
SEQEND
8
Layer 1
0
POLYLINE
8
Layer 1
62
7
70
1
10
0.000000
20
0.000000
66
1
0
VERTEX
8
Layer 1
10
53.567934
20
8.797224
70
0
0
VERTEX
8
Layer 1
10
54.030955
20
8.940540
70
0
0
VERTEX
8
Layer 1
10
54.350660
20
9.353951
70
0
0
VERTEX
8
Layer 1
10
54.471927
20
10.009898
70
0
0
VERTEX
8
Layer 1
10
54.350660
20
10.660332
70
0
0
VERTEX
8
Layer 1
10
54.030955
20
11.079256
70
0
0
VERTEX
8
Layer 1
10
53.567934
20
11.228084
70
0
0
VERTEX
8
Layer 1
10
53.104912
20
11.079256
70
0
0
VERTEX
8
Layer 1
10
52.779695
20
10.660332
70
0
0
VERTEX
8
Layer 1
10
52.663940
20
10.009898
70
0
0
VERTEX
8
Layer 1
10
52.779695
20
9.353951
70
0
0
VERTEX
8
Layer 1
10
53.104912
20
8.940540
70
0
0
VERTEX
8
Layer 1
10
53.567934
20
8.797224
70
0
0
VERTEX
8
Layer 1
10
53.567934
20
8.797224
70
0
0
SEQEND
8
Layer 1
0
POLYLINE
8
Layer 1
62
7
70
1
10
0.000000
20
0.000000
66
1
0
VERTEX
8
Layer 1
10
59.876334
20
8.483031
70
0
0
VERTEX
8
Layer 1
10
59.198338
20
8.675956
70
0
0
VERTEX
8
Layer 1
10
58.757366
20
9.210635
70
0
0
VERTEX
8
Layer 1
10
58.608538
20
10.009898
70
0
0
VERTEX
8
Layer 1
10
58.757366
20
10.809161
70
0
0
VERTEX
8
Layer 1
10
59.198338
20
11.349352
70
0
0
VERTEX
8
Layer 1
10
59.876334
20
11.542277
70
0
0
VERTEX
8
Layer 1
10
60.548817
20
11.349352
70
0
0
VERTEX
8
Layer 1
10
60.984277
20
10.809161
70
0
0
VERTEX
8
Layer 1
10
61.138617
20
10.009898
70
0
0
VERTEX
8
Layer 1
10
60.984277
20
9.210635
70
0
0
VERTEX
8
Layer 1
10
60.548817
20
8.675956
70
0
0
VERTEX
8
Layer 1
10
59.876334
20
8.483031
70
0
0
VERTEX
8
Layer 1
10
59.876334
20
8.483031
70
0
0
SEQEND
8
Layer 1
0
POLYLINE
8
Layer 1
62
7
70
1
10
0.000000
20
0.000000
66
1
0
VERTEX
8
Layer 1
10
59.876334
20
8.797224
70
0
0
VERTEX
8
Layer 1
10
60.339355
20
8.940540
70
0
0
VERTEX
8
Layer 1
10
60.659060
20
9.353951
70
0
0
VERTEX
8
Layer 1
10
60.780327
20
10.009898
70
0
0
VERTEX
8
Layer 1
10
60.659060
20
10.660332
70
0
0
VERTEX
8
Layer 1
10
60.339355
20
11.079256
70
0
0
VERTEX
8
Layer 1
10
59.876334
20
11.228084
70
0
0
VERTEX
8
Layer 1
10
59.413312
20
11.079256
70
0
0
VERTEX
8
Layer 1
10
59.088095
20
10.660332
70
0
0
VERTEX
8
Layer 1
10
58.972340
20
10.009898
70
0
0
VERTEX
8
Layer 1
10
59.088095
20
9.353951
70
0
0
VERTEX
8
Layer 1
10
59.413312
20
8.940540
70
0
0
VERTEX
8
Layer 1
10
59.876334
20
8.797224
70
0
0
VERTEX
8
Layer 1
10
59.876334
20
8.797224
70
0
0
SEQEND
8
Layer 1
0
POLYLINE
8
Layer 1
62
7
70
1
10
0.000000
20
0.000000
66
1
0
VERTEX
8
Layer 1
10
65.324837
20
8.532640
70
0
0
VERTEX
8
Layer 1
10
65.324837
20
11.095793
70
0
0
VERTEX
8
Layer 1
10
64.845280
20
10.991062
70
0
0
VERTEX
8
Layer 1
10
64.845280
20
11.233597
70
0
0
VERTEX
8
Layer 1
10
65.440592
20
11.492668
70
0
0
VERTEX
8
Layer 1
10
65.683127
20
11.492668
70
0
0
VERTEX
8
Layer 1
10
65.683127
20
8.532640
70
0
0
VERTEX
8
Layer 1
10
65.324837
20
8.532640
70
0
0
SEQEND
8
Layer 1
0
POLYLINE
8
Layer 1
62
7
70
1
10
0.000000
20
0.000000
66
1
0
VERTEX
8
Layer 1
10
69.981137
20
8.532640
70
0
0
VERTEX
8
Layer 1
10
69.981137
20
11.095793
70
0
0
VERTEX
8
Layer 1
10
69.501580
20
10.991062
70
0
0
VERTEX
8
Layer 1
10
69.501580
20
11.233597
70
0
0
VERTEX
8
Layer 1
10
70.096892
20
11.492668
70
0
0
VERTEX
8
Layer 1
10
70.339427
20
11.492668
70
0
0
VERTEX
8
Layer 1
10
70.339427
20
8.532640
70
0
0
VERTEX
8
Layer 1
10
69.981137
20
8.532640
70
0
0
SEQEND
8
Layer 1
0
POLYLINE
8
Layer 1
62
7
70
1
10
0.000000
20
0.000000
66
1
0
VERTEX
8
Layer 1
10
75.684747
20
8.532640
70
0
0
VERTEX
8
Layer 1
10
75.684747
20
9.166538
70
0
0
VERTEX
8
Layer 1
10
74.185440
20
9.166538
70
0
0
VERTEX
8
Layer 1
10
74.185440
20
9.442146
70
0
0
VERTEX
8
Layer 1
10
75.618601
20
11.492668
70
0
0
VERTEX
8
Layer 1
10
76.037525
20
11.492668
70
0
0
VERTEX
8
Layer 1
10
76.037525
20
9.480731
70
0
0
VERTEX
8
Layer 1
10
76.472985
20
9.480731
70
0
0
VERTEX
8
Layer 1
10
76.472985
20
9.166538
70
0
0
VERTEX
8
Layer 1
10
76.037525
20
9.166538
70
0
0
VERTEX
8
Layer 1
10
76.037525
20
8.532640
70
0
0
VERTEX
8
Layer 1
10
75.684747
20
8.532640
70
0
0
SEQEND
8
Layer 1
0
POLYLINE
8
Layer 1
62
7
70
1
10
0.000000
20
0.000000
66
1
0
VERTEX
8
Layer 1
10
74.576803
20
9.480731
70
0
0
VERTEX
8
Layer 1
10
75.701283
20
9.480731
70
0
0
VERTEX
8
Layer 1
10
75.701283
20
11.101305
70
0
0
VERTEX
8
Layer 1
10
74.576803
20
9.480731
70
0
0
SEQEND
8
Layer 1
 0 
ENDSEC
 0 
EOF