999
"DXF R12 Output" (www.mydxf.blogspot.com)
 0 
SECTION
 2 
HEADER
 9 
$ACADVER
 1 
AC1009
 9 
$EXTMIN
 10 
 0 
 20 
 0 
 9 
$EXTMAX
 10 
 8.5 
 20 
 11 
 0 
ENDSEC
 0 
SECTION
 2 
ENTITIES
0
POLYLINE
8
Layer 1
62
7
70
1
10
0.000000
20
0.000000
66
1
0
VERTEX
8
Layer 1
10
0.000000
20
92.604200
70
0
0
VERTEX
8
Layer 1
10
92.427836
20
92.604200
70
0
0
VERTEX
8
Layer 1
10
92.427836
20
0.176364
70
0
0
VERTEX
8
Layer 1
10
0.000000
20
0.176364
70
0
0
VERTEX
8
Layer 1
10
0.000000
20
92.604200
70
0
0
SEQEND
8
Layer 1
0
POLYLINE
8
Layer 1
62
7
70
1
10
0.000000
20
0.000000
66
1
0
VERTEX
8
Layer 1
10
0.000000
20
92.604200
70
0
0
VERTEX
8
Layer 1
10
92.427836
20
92.604200
70
0
0
VERTEX
8
Layer 1
10
92.427836
20
0.176364
70
0
0
VERTEX
8
Layer 1
10
0.000000
20
0.176364
70
0
0
VERTEX
8
Layer 1
10
0.000000
20
92.604200
70
0
0
SEQEND
8
Layer 1
0
POLYLINE
8
Layer 1
62
7
70
1
10
0.000000
20
0.000000
66
1
0
VERTEX
8
Layer 1
10
17.429250
20
8.483031
70
0
0
VERTEX
8
Layer 1
10
16.679596
20
8.675956
70
0
0
VERTEX
8
Layer 1
10
16.189014
20
9.210635
70
0
0
VERTEX
8
Layer 1
10
16.018138
20
10.009898
70
0
0
VERTEX
8
Layer 1
10
16.189014
20
10.809161
70
0
0
VERTEX
8
Layer 1
10
16.679596
20
11.349352
70
0
0
VERTEX
8
Layer 1
10
17.429250
20
11.542277
70
0
0
VERTEX
8
Layer 1
10
18.256073
20
11.299742
70
0
0
VERTEX
8
Layer 1
10
18.663973
20
10.621747
70
0
0
VERTEX
8
Layer 1
10
18.272610
20
10.621747
70
0
0
VERTEX
8
Layer 1
10
17.997002
20
11.062720
70
0
0
VERTEX
8
Layer 1
10
17.429250
20
11.228084
70
0
0
VERTEX
8
Layer 1
10
16.878034
20
11.079256
70
0
0
VERTEX
8
Layer 1
10
16.508720
20
10.660332
70
0
0
VERTEX
8
Layer 1
10
16.381940
20
10.009898
70
0
0
VERTEX
8
Layer 1
10
16.508720
20
9.353951
70
0
0
VERTEX
8
Layer 1
10
16.878034
20
8.940540
70
0
0
VERTEX
8
Layer 1
10
17.429250
20
8.797224
70
0
0
VERTEX
8
Layer 1
10
17.997002
20
8.957076
70
0
0
VERTEX
8
Layer 1
10
18.272610
20
9.392536
70
0
0
VERTEX
8
Layer 1
10
18.663973
20
9.392536
70
0
0
VERTEX
8
Layer 1
10
18.256073
20
8.720053
70
0
0
VERTEX
8
Layer 1
10
17.429250
20
8.483031
70
0
0
VERTEX
8
Layer 1
10
17.429250
20
8.483031
70
0
0
SEQEND
8
Layer 1
0
POLYLINE
8
Layer 1
62
7
70
1
10
0.000000
20
0.000000
66
1
0
VERTEX
8
Layer 1
10
22.556093
20
8.532640
70
0
0
VERTEX
8
Layer 1
10
22.556093
20
11.492668
70
0
0
VERTEX
8
Layer 1
10
22.908871
20
11.492668
70
0
0
VERTEX
8
Layer 1
10
22.908871
20
10.186287
70
0
0
VERTEX
8
Layer 1
10
24.446763
20
10.186287
70
0
0
VERTEX
8
Layer 1
10
24.446763
20
11.492668
70
0
0
VERTEX
8
Layer 1
10
24.799540
20
11.492668
70
0
0
VERTEX
8
Layer 1
10
24.799540
20
8.532640
70
0
0
VERTEX
8
Layer 1
10
24.446763
20
8.532640
70
0
0
VERTEX
8
Layer 1
10
24.446763
20
9.894143
70
0
0
VERTEX
8
Layer 1
10
22.908871
20
9.894143
70
0
0
VERTEX
8
Layer 1
10
22.908871
20
8.532640
70
0
0
VERTEX
8
Layer 1
10
22.556093
20
8.532640
70
0
0
SEQEND
8
Layer 1
0
POLYLINE
8
Layer 1
62
7
70
1
10
0.000000
20
0.000000
66
1
0
VERTEX
8
Layer 1
10
28.618180
20
8.532640
70
0
0
VERTEX
8
Layer 1
10
29.709587
20
11.492668
70
0
0
VERTEX
8
Layer 1
10
30.084413
20
11.492668
70
0
0
VERTEX
8
Layer 1
10
31.170308
20
8.532640
70
0
0
VERTEX
8
Layer 1
10
30.795481
20
8.532640
70
0
0
VERTEX
8
Layer 1
10
30.525386
20
9.293318
70
0
0
VERTEX
8
Layer 1
10
29.263102
20
9.293318
70
0
0
VERTEX
8
Layer 1
10
28.993006
20
8.532640
70
0
0
VERTEX
8
Layer 1
10
28.618180
20
8.532640
70
0
0
SEQEND
8
Layer 1
0
POLYLINE
8
Layer 1
62
7
70
1
10
0.000000
20
0.000000
66
1
0
VERTEX
8
Layer 1
10
29.373345
20
9.579950
70
0
0
VERTEX
8
Layer 1
10
30.420655
20
9.579950
70
0
0
VERTEX
8
Layer 1
10
29.897000
20
11.046183
70
0
0
VERTEX
8
Layer 1
10
29.373345
20
9.579950
70
0
0
SEQEND
8
Layer 1
0
POLYLINE
8
Layer 1
62
7
70
1
10
0.000000
20
0.000000
66
1
0
VERTEX
8
Layer 1
10
36.336059
20
8.483031
70
0
0
VERTEX
8
Layer 1
10
35.569869
20
8.675956
70
0
0
VERTEX
8
Layer 1
10
35.057239
20
9.210635
70
0
0
VERTEX
8
Layer 1
10
34.875338
20
10.009898
70
0
0
VERTEX
8
Layer 1
10
35.057239
20
10.809161
70
0
0
VERTEX
8
Layer 1
10
35.569869
20
11.349352
70
0
0
VERTEX
8
Layer 1
10
36.336059
20
11.542277
70
0
0
VERTEX
8
Layer 1
10
37.096737
20
11.349352
70
0
0
VERTEX
8
Layer 1
10
37.609367
20
10.809161
70
0
0
VERTEX
8
Layer 1
10
37.791268
20
10.009898
70
0
0
VERTEX
8
Layer 1
10
37.609367
20
9.210635
70
0
0
VERTEX
8
Layer 1
10
37.096737
20
8.675956
70
0
0
VERTEX
8
Layer 1
10
36.336059
20
8.483031
70
0
0
VERTEX
8
Layer 1
10
36.336059
20
8.483031
70
0
0
SEQEND
8
Layer 1
0
POLYLINE
8
Layer 1
62
7
70
1
10
0.000000
20
0.000000
66
1
0
VERTEX
8
Layer 1
10
36.336059
20
8.797224
70
0
0
VERTEX
8
Layer 1
10
36.903811
20
8.940540
70
0
0
VERTEX
8
Layer 1
10
37.289662
20
9.353951
70
0
0
VERTEX
8
Layer 1
10
37.427466
20
10.009898
70
0
0
VERTEX
8
Layer 1
10
37.289662
20
10.660332
70
0
0
VERTEX
8
Layer 1
10
36.903811
20
11.079256
70
0
0
VERTEX
8
Layer 1
10
36.336059
20
11.228084
70
0
0
VERTEX
8
Layer 1
10
35.762795
20
11.079256
70
0
0
VERTEX
8
Layer 1
10
35.376944
20
10.660332
70
0
0
VERTEX
8
Layer 1
10
35.239140
20
10.009898
70
0
0
VERTEX
8
Layer 1
10
35.376944
20
9.353951
70
0
0
VERTEX
8
Layer 1
10
35.762795
20
8.940540
70
0
0
VERTEX
8
Layer 1
10
36.336059
20
8.797224
70
0
0
VERTEX
8
Layer 1
10
36.336059
20
8.797224
70
0
0
SEQEND
8
Layer 1
0
POLYLINE
8
Layer 1
62
7
70
1
10
0.000000
20
0.000000
66
1
0
VERTEX
8
Layer 1
10
42.626672
20
8.483031
70
0
0
VERTEX
8
Layer 1
10
42.058920
20
8.598786
70
0
0
VERTEX
8
Layer 1
10
41.684093
20
8.929515
70
0
0
VERTEX
8
Layer 1
10
41.557313
20
9.420097
70
0
0
VERTEX
8
Layer 1
10
41.926628
20
9.420097
70
0
0
VERTEX
8
Layer 1
10
42.003798
20
9.100392
70
0
0
VERTEX
8
Layer 1
10
42.240821
20
8.868882
70
0
0
VERTEX
8
Layer 1
10
42.626672
20
8.780687
70
0
0
VERTEX
8
Layer 1
10
43.089693
20
8.924003
70
0
0
VERTEX
8
Layer 1
10
43.255057
20
9.287805
70
0
0
VERTEX
8
Layer 1
10
43.177887
20
9.568925
70
0
0
VERTEX
8
Layer 1
10
42.973937
20
9.745314
70
0
0
VERTEX
8
Layer 1
10
42.676281
20
9.861070
70
0
0
VERTEX
8
Layer 1
10
42.329015
20
9.976825
70
0
0
VERTEX
8
Layer 1
10
41.821897
20
10.268969
70
0
0
VERTEX
8
Layer 1
10
41.656532
20
10.731990
70
0
0
VERTEX
8
Layer 1
10
41.766775
20
11.150914
70
0
0
VERTEX
8
Layer 1
10
42.091992
20
11.437546
70
0
0
VERTEX
8
Layer 1
10
42.588087
20
11.542277
70
0
0
VERTEX
8
Layer 1
10
43.078668
20
11.437546
70
0
0
VERTEX
8
Layer 1
10
43.403886
20
11.145402
70
0
0
VERTEX
8
Layer 1
10
43.525153
20
10.720966
70
0
0
VERTEX
8
Layer 1
10
43.155839
20
10.720966
70
0
0
VERTEX
8
Layer 1
10
43.089693
20
10.963501
70
0
0
VERTEX
8
Layer 1
10
42.896767
20
11.161939
70
0
0
VERTEX
8
Layer 1
10
42.577062
20
11.239109
70
0
0
VERTEX
8
Layer 1
10
42.180187
20
11.117841
70
0
0
VERTEX
8
Layer 1
10
42.025847
20
10.765063
70
0
0
VERTEX
8
Layer 1
10
42.130578
20
10.472919
70
0
0
VERTEX
8
Layer 1
10
42.433746
20
10.307554
70
0
0
VERTEX
8
Layer 1
10
42.885743
20
10.158726
70
0
0
VERTEX
8
Layer 1
10
43.260570
20
9.976825
70
0
0
VERTEX
8
Layer 1
10
43.525153
20
9.717754
70
0
0
VERTEX
8
Layer 1
10
43.624372
20
9.304342
70
0
0
VERTEX
8
Layer 1
10
43.514129
20
8.907467
70
0
0
VERTEX
8
Layer 1
10
43.177887
20
8.598786
70
0
0
VERTEX
8
Layer 1
10
42.626672
20
8.483031
70
0
0
VERTEX
8
Layer 1
10
42.626672
20
8.483031
70
0
0
SEQEND
8
Layer 1
0
POLYLINE
8
Layer 1
62
7
70
1
10
0.000000
20
0.000000
66
1
0
VERTEX
8
Layer 1
10
47.947665
20
9.431121
70
0
0
VERTEX
8
Layer 1
10
47.694106
20
9.497267
70
0
0
VERTEX
8
Layer 1
10
47.506693
20
9.684681
70
0
0
VERTEX
8
Layer 1
10
47.440547
20
9.938240
70
0
0
VERTEX
8
Layer 1
10
47.506693
20
10.197311
70
0
0
VERTEX
8
Layer 1
10
47.694106
20
10.384725
70
0
0
VERTEX
8
Layer 1
10
47.947665
20
10.450870
70
0
0
VERTEX
8
Layer 1
10
48.206737
20
10.384725
70
0
0
VERTEX
8
Layer 1
10
48.388638
20
10.197311
70
0
0
VERTEX
8
Layer 1
10
48.454784
20
9.938240
70
0
0
VERTEX
8
Layer 1
10
48.388638
20
9.684681
70
0
0
VERTEX
8
Layer 1
10
48.206737
20
9.497267
70
0
0
VERTEX
8
Layer 1
10
47.947665
20
9.431121
70
0
0
VERTEX
8
Layer 1
10
47.947665
20
9.431121
70
0
0
SEQEND
8
Layer 1
0
POLYLINE
8
Layer 1
62
7
70
1
10
0.000000
20
0.000000
66
1
0
VERTEX
8
Layer 1
10
53.551734
20
8.483031
70
0
0
VERTEX
8
Layer 1
10
52.873738
20
8.675956
70
0
0
VERTEX
8
Layer 1
10
52.432766
20
9.210635
70
0
0
VERTEX
8
Layer 1
10
52.283938
20
10.009898
70
0
0
VERTEX
8
Layer 1
10
52.432766
20
10.809161
70
0
0
VERTEX
8
Layer 1
10
52.873738
20
11.349352
70
0
0
VERTEX
8
Layer 1
10
53.551734
20
11.542277
70
0
0
VERTEX
8
Layer 1
10
54.224217
20
11.349352
70
0
0
VERTEX
8
Layer 1
10
54.659677
20
10.809161
70
0
0
VERTEX
8
Layer 1
10
54.814017
20
10.009898
70
0
0
VERTEX
8
Layer 1
10
54.659677
20
9.210635
70
0
0
VERTEX
8
Layer 1
10
54.224217
20
8.675956
70
0
0
VERTEX
8
Layer 1
10
53.551734
20
8.483031
70
0
0
VERTEX
8
Layer 1
10
53.551734
20
8.483031
70
0
0
SEQEND
8
Layer 1
0
POLYLINE
8
Layer 1
62
7
70
1
10
0.000000
20
0.000000
66
1
0
VERTEX
8
Layer 1
10
53.551734
20
8.797224
70
0
0
VERTEX
8
Layer 1
10
54.014755
20
8.940540
70
0
0
VERTEX
8
Layer 1
10
54.334460
20
9.353951
70
0
0
VERTEX
8
Layer 1
10
54.455727
20
10.009898
70
0
0
VERTEX
8
Layer 1
10
54.334460
20
10.660332
70
0
0
VERTEX
8
Layer 1
10
54.014755
20
11.079256
70
0
0
VERTEX
8
Layer 1
10
53.551734
20
11.228084
70
0
0
VERTEX
8
Layer 1
10
53.088712
20
11.079256
70
0
0
VERTEX
8
Layer 1
10
52.763495
20
10.660332
70
0
0
VERTEX
8
Layer 1
10
52.647740
20
10.009898
70
0
0
VERTEX
8
Layer 1
10
52.763495
20
9.353951
70
0
0
VERTEX
8
Layer 1
10
53.088712
20
8.940540
70
0
0
VERTEX
8
Layer 1
10
53.551734
20
8.797224
70
0
0
VERTEX
8
Layer 1
10
53.551734
20
8.797224
70
0
0
SEQEND
8
Layer 1
0
POLYLINE
8
Layer 1
62
7
70
1
10
0.000000
20
0.000000
66
1
0
VERTEX
8
Layer 1
10
59.859734
20
8.483031
70
0
0
VERTEX
8
Layer 1
10
59.181738
20
8.675956
70
0
0
VERTEX
8
Layer 1
10
58.740766
20
9.210635
70
0
0
VERTEX
8
Layer 1
10
58.591938
20
10.009898
70
0
0
VERTEX
8
Layer 1
10
58.740766
20
10.809161
70
0
0
VERTEX
8
Layer 1
10
59.181738
20
11.349352
70
0
0
VERTEX
8
Layer 1
10
59.859734
20
11.542277
70
0
0
VERTEX
8
Layer 1
10
60.532217
20
11.349352
70
0
0
VERTEX
8
Layer 1
10
60.967677
20
10.809161
70
0
0
VERTEX
8
Layer 1
10
61.122017
20
10.009898
70
0
0
VERTEX
8
Layer 1
10
60.967677
20
9.210635
70
0
0
VERTEX
8
Layer 1
10
60.532217
20
8.675956
70
0
0
VERTEX
8
Layer 1
10
59.859734
20
8.483031
70
0
0
VERTEX
8
Layer 1
10
59.859734
20
8.483031
70
0
0
SEQEND
8
Layer 1
0
POLYLINE
8
Layer 1
62
7
70
1
10
0.000000
20
0.000000
66
1
0
VERTEX
8
Layer 1
10
59.859734
20
8.797224
70
0
0
VERTEX
8
Layer 1
10
60.322755
20
8.940540
70
0
0
VERTEX
8
Layer 1
10
60.642460
20
9.353951
70
0
0
VERTEX
8
Layer 1
10
60.763727
20
10.009898
70
0
0
VERTEX
8
Layer 1
10
60.642460
20
10.660332
70
0
0
VERTEX
8
Layer 1
10
60.322755
20
11.079256
70
0
0
VERTEX
8
Layer 1
10
59.859734
20
11.228084
70
0
0
VERTEX
8
Layer 1
10
59.396712
20
11.079256
70
0
0
VERTEX
8
Layer 1
10
59.071495
20
10.660332
70
0
0
VERTEX
8
Layer 1
10
58.955740
20
10.009898
70
0
0
VERTEX
8
Layer 1
10
59.071495
20
9.353951
70
0
0
VERTEX
8
Layer 1
10
59.396712
20
8.940540
70
0
0
VERTEX
8
Layer 1
10
59.859734
20
8.797224
70
0
0
VERTEX
8
Layer 1
10
59.859734
20
8.797224
70
0
0
SEQEND
8
Layer 1
0
POLYLINE
8
Layer 1
62
7
70
1
10
0.000000
20
0.000000
66
1
0
VERTEX
8
Layer 1
10
65.308237
20
8.532640
70
0
0
VERTEX
8
Layer 1
10
65.308237
20
11.095793
70
0
0
VERTEX
8
Layer 1
10
64.828680
20
10.991062
70
0
0
VERTEX
8
Layer 1
10
64.828680
20
11.233597
70
0
0
VERTEX
8
Layer 1
10
65.423992
20
11.492668
70
0
0
VERTEX
8
Layer 1
10
65.666527
20
11.492668
70
0
0
VERTEX
8
Layer 1
10
65.666527
20
8.532640
70
0
0
VERTEX
8
Layer 1
10
65.308237
20
8.532640
70
0
0
SEQEND
8
Layer 1
0
POLYLINE
8
Layer 1
62
7
70
1
10
0.000000
20
0.000000
66
1
0
VERTEX
8
Layer 1
10
69.964537
20
8.532640
70
0
0
VERTEX
8
Layer 1
10
69.964537
20
11.095793
70
0
0
VERTEX
8
Layer 1
10
69.484980
20
10.991062
70
0
0
VERTEX
8
Layer 1
10
69.484980
20
11.233597
70
0
0
VERTEX
8
Layer 1
10
70.080292
20
11.492668
70
0
0
VERTEX
8
Layer 1
10
70.322827
20
11.492668
70
0
0
VERTEX
8
Layer 1
10
70.322827
20
8.532640
70
0
0
VERTEX
8
Layer 1
10
69.964537
20
8.532640
70
0
0
SEQEND
8
Layer 1
0
POLYLINE
8
Layer 1
62
7
70
1
10
0.000000
20
0.000000
66
1
0
VERTEX
8
Layer 1
10
75.331905
20
8.483031
70
0
0
VERTEX
8
Layer 1
10
74.802738
20
8.593274
70
0
0
VERTEX
8
Layer 1
10
74.444448
20
8.890930
70
0
0
VERTEX
8
Layer 1
10
74.284596
20
9.331903
70
0
0
VERTEX
8
Layer 1
10
74.631861
20
9.331903
70
0
0
VERTEX
8
Layer 1
10
74.868884
20
8.935027
70
0
0
VERTEX
8
Layer 1
10
75.337418
20
8.786199
70
0
0
VERTEX
8
Layer 1
10
75.701220
20
8.885418
70
0
0
VERTEX
8
Layer 1
10
75.938243
20
9.150002
70
0
0
VERTEX
8
Layer 1
10
76.020925
20
9.530340
70
0
0
VERTEX
8
Layer 1
10
75.833512
20
10.059507
70
0
0
VERTEX
8
Layer 1
10
75.348442
20
10.263457
70
0
0
VERTEX
8
Layer 1
10
74.929518
20
10.153214
70
0
0
VERTEX
8
Layer 1
10
74.675959
20
9.866582
70
0
0
VERTEX
8
Layer 1
10
74.339717
20
9.866582
70
0
0
VERTEX
8
Layer 1
10
74.593276
20
11.492668
70
0
0
VERTEX
8
Layer 1
10
76.147704
20
11.492668
70
0
0
VERTEX
8
Layer 1
10
76.147704
20
11.183987
70
0
0
VERTEX
8
Layer 1
10
74.868884
20
11.183987
70
0
0
VERTEX
8
Layer 1
10
74.692495
20
10.285506
70
0
0
VERTEX
8
Layer 1
10
74.973615
20
10.483943
70
0
0
VERTEX
8
Layer 1
10
75.387027
20
10.566626
70
0
0
VERTEX
8
Layer 1
10
75.894145
20
10.428822
70
0
0
VERTEX
8
Layer 1
10
76.235899
20
10.059507
70
0
0
VERTEX
8
Layer 1
10
76.362679
20
9.535852
70
0
0
VERTEX
8
Layer 1
10
76.241411
20
9.006685
70
0
0
VERTEX
8
Layer 1
10
75.888633
20
8.626347
70
0
0
VERTEX
8
Layer 1
10
75.331905
20
8.483031
70
0
0
VERTEX
8
Layer 1
10
75.331905
20
8.483031
70
0
0
SEQEND
8
Layer 1
 0 
ENDSEC
 0 
EOF