999
"DXF R12 Output" (www.mydxf.blogspot.com)
 0 
SECTION
 2 
HEADER
 9 
$ACADVER
 1 
AC1009
 9 
$EXTMIN
 10 
 0 
 20 
 0 
 9 
$EXTMAX
 10 
 8.5 
 20 
 11 
 0 
ENDSEC
 0 
SECTION
 2 
ENTITIES
0
POLYLINE
8
Layer 1
62
7
70
1
10
0.000000
20
0.000000
66
1
0
VERTEX
8
Layer 1
10
0.000000
20
92.604200
70
0
0
VERTEX
8
Layer 1
10
92.427836
20
92.604200
70
0
0
VERTEX
8
Layer 1
10
92.427836
20
0.176364
70
0
0
VERTEX
8
Layer 1
10
0.000000
20
0.176364
70
0
0
VERTEX
8
Layer 1
10
0.000000
20
92.604200
70
0
0
SEQEND
8
Layer 1
0
POLYLINE
8
Layer 1
62
7
70
1
10
0.000000
20
0.000000
66
1
0
VERTEX
8
Layer 1
10
0.000000
20
92.604200
70
0
0
VERTEX
8
Layer 1
10
92.427836
20
92.604200
70
0
0
VERTEX
8
Layer 1
10
92.427836
20
0.176364
70
0
0
VERTEX
8
Layer 1
10
0.000000
20
0.176364
70
0
0
VERTEX
8
Layer 1
10
0.000000
20
92.604200
70
0
0
SEQEND
8
Layer 1
0
POLYLINE
8
Layer 1
62
7
70
1
10
0.000000
20
0.000000
66
1
0
VERTEX
8
Layer 1
10
16.653450
20
8.483031
70
0
0
VERTEX
8
Layer 1
10
15.903796
20
8.675956
70
0
0
VERTEX
8
Layer 1
10
15.413214
20
9.210635
70
0
0
VERTEX
8
Layer 1
10
15.242338
20
10.009898
70
0
0
VERTEX
8
Layer 1
10
15.413214
20
10.809161
70
0
0
VERTEX
8
Layer 1
10
15.903796
20
11.349352
70
0
0
VERTEX
8
Layer 1
10
16.653450
20
11.542277
70
0
0
VERTEX
8
Layer 1
10
17.480273
20
11.299742
70
0
0
VERTEX
8
Layer 1
10
17.888173
20
10.621747
70
0
0
VERTEX
8
Layer 1
10
17.496810
20
10.621747
70
0
0
VERTEX
8
Layer 1
10
17.221202
20
11.062720
70
0
0
VERTEX
8
Layer 1
10
16.653450
20
11.228084
70
0
0
VERTEX
8
Layer 1
10
16.102234
20
11.079256
70
0
0
VERTEX
8
Layer 1
10
15.732920
20
10.660332
70
0
0
VERTEX
8
Layer 1
10
15.606140
20
10.009898
70
0
0
VERTEX
8
Layer 1
10
15.732920
20
9.353951
70
0
0
VERTEX
8
Layer 1
10
16.102234
20
8.940540
70
0
0
VERTEX
8
Layer 1
10
16.653450
20
8.797224
70
0
0
VERTEX
8
Layer 1
10
17.221202
20
8.957076
70
0
0
VERTEX
8
Layer 1
10
17.496810
20
9.392536
70
0
0
VERTEX
8
Layer 1
10
17.888173
20
9.392536
70
0
0
VERTEX
8
Layer 1
10
17.480273
20
8.720053
70
0
0
VERTEX
8
Layer 1
10
16.653450
20
8.483031
70
0
0
VERTEX
8
Layer 1
10
16.653450
20
8.483031
70
0
0
SEQEND
8
Layer 1
0
POLYLINE
8
Layer 1
62
7
70
1
10
0.000000
20
0.000000
66
1
0
VERTEX
8
Layer 1
10
21.780493
20
8.532640
70
0
0
VERTEX
8
Layer 1
10
21.780493
20
11.492668
70
0
0
VERTEX
8
Layer 1
10
22.133271
20
11.492668
70
0
0
VERTEX
8
Layer 1
10
22.133271
20
10.186287
70
0
0
VERTEX
8
Layer 1
10
23.671163
20
10.186287
70
0
0
VERTEX
8
Layer 1
10
23.671163
20
11.492668
70
0
0
VERTEX
8
Layer 1
10
24.023941
20
11.492668
70
0
0
VERTEX
8
Layer 1
10
24.023941
20
8.532640
70
0
0
VERTEX
8
Layer 1
10
23.671163
20
8.532640
70
0
0
VERTEX
8
Layer 1
10
23.671163
20
9.894143
70
0
0
VERTEX
8
Layer 1
10
22.133271
20
9.894143
70
0
0
VERTEX
8
Layer 1
10
22.133271
20
8.532640
70
0
0
VERTEX
8
Layer 1
10
21.780493
20
8.532640
70
0
0
SEQEND
8
Layer 1
0
POLYLINE
8
Layer 1
62
7
70
1
10
0.000000
20
0.000000
66
1
0
VERTEX
8
Layer 1
10
27.842280
20
8.532640
70
0
0
VERTEX
8
Layer 1
10
28.933687
20
11.492668
70
0
0
VERTEX
8
Layer 1
10
29.308513
20
11.492668
70
0
0
VERTEX
8
Layer 1
10
30.394408
20
8.532640
70
0
0
VERTEX
8
Layer 1
10
30.019581
20
8.532640
70
0
0
VERTEX
8
Layer 1
10
29.749486
20
9.293318
70
0
0
VERTEX
8
Layer 1
10
28.487202
20
9.293318
70
0
0
VERTEX
8
Layer 1
10
28.217106
20
8.532640
70
0
0
VERTEX
8
Layer 1
10
27.842280
20
8.532640
70
0
0
SEQEND
8
Layer 1
0
POLYLINE
8
Layer 1
62
7
70
1
10
0.000000
20
0.000000
66
1
0
VERTEX
8
Layer 1
10
28.597445
20
9.579950
70
0
0
VERTEX
8
Layer 1
10
29.644755
20
9.579950
70
0
0
VERTEX
8
Layer 1
10
29.121100
20
11.046183
70
0
0
VERTEX
8
Layer 1
10
28.597445
20
9.579950
70
0
0
SEQEND
8
Layer 1
0
POLYLINE
8
Layer 1
62
7
70
1
10
0.000000
20
0.000000
66
1
0
VERTEX
8
Layer 1
10
35.560459
20
8.483031
70
0
0
VERTEX
8
Layer 1
10
34.794269
20
8.675956
70
0
0
VERTEX
8
Layer 1
10
34.281639
20
9.210635
70
0
0
VERTEX
8
Layer 1
10
34.099738
20
10.009898
70
0
0
VERTEX
8
Layer 1
10
34.281639
20
10.809161
70
0
0
VERTEX
8
Layer 1
10
34.794269
20
11.349352
70
0
0
VERTEX
8
Layer 1
10
35.560459
20
11.542277
70
0
0
VERTEX
8
Layer 1
10
36.321137
20
11.349352
70
0
0
VERTEX
8
Layer 1
10
36.833767
20
10.809161
70
0
0
VERTEX
8
Layer 1
10
37.015668
20
10.009898
70
0
0
VERTEX
8
Layer 1
10
36.833767
20
9.210635
70
0
0
VERTEX
8
Layer 1
10
36.321137
20
8.675956
70
0
0
VERTEX
8
Layer 1
10
35.560459
20
8.483031
70
0
0
VERTEX
8
Layer 1
10
35.560459
20
8.483031
70
0
0
SEQEND
8
Layer 1
0
POLYLINE
8
Layer 1
62
7
70
1
10
0.000000
20
0.000000
66
1
0
VERTEX
8
Layer 1
10
35.560459
20
8.797224
70
0
0
VERTEX
8
Layer 1
10
36.128211
20
8.940540
70
0
0
VERTEX
8
Layer 1
10
36.514062
20
9.353951
70
0
0
VERTEX
8
Layer 1
10
36.651866
20
10.009898
70
0
0
VERTEX
8
Layer 1
10
36.514062
20
10.660332
70
0
0
VERTEX
8
Layer 1
10
36.128211
20
11.079256
70
0
0
VERTEX
8
Layer 1
10
35.560459
20
11.228084
70
0
0
VERTEX
8
Layer 1
10
34.987195
20
11.079256
70
0
0
VERTEX
8
Layer 1
10
34.601344
20
10.660332
70
0
0
VERTEX
8
Layer 1
10
34.463540
20
10.009898
70
0
0
VERTEX
8
Layer 1
10
34.601344
20
9.353951
70
0
0
VERTEX
8
Layer 1
10
34.987195
20
8.940540
70
0
0
VERTEX
8
Layer 1
10
35.560459
20
8.797224
70
0
0
VERTEX
8
Layer 1
10
35.560459
20
8.797224
70
0
0
SEQEND
8
Layer 1
0
POLYLINE
8
Layer 1
62
7
70
1
10
0.000000
20
0.000000
66
1
0
VERTEX
8
Layer 1
10
41.850872
20
8.483031
70
0
0
VERTEX
8
Layer 1
10
41.283120
20
8.598786
70
0
0
VERTEX
8
Layer 1
10
40.908293
20
8.929515
70
0
0
VERTEX
8
Layer 1
10
40.781513
20
9.420097
70
0
0
VERTEX
8
Layer 1
10
41.150828
20
9.420097
70
0
0
VERTEX
8
Layer 1
10
41.227998
20
9.100392
70
0
0
VERTEX
8
Layer 1
10
41.465021
20
8.868882
70
0
0
VERTEX
8
Layer 1
10
41.850872
20
8.780687
70
0
0
VERTEX
8
Layer 1
10
42.313893
20
8.924003
70
0
0
VERTEX
8
Layer 1
10
42.479257
20
9.287805
70
0
0
VERTEX
8
Layer 1
10
42.402087
20
9.568925
70
0
0
VERTEX
8
Layer 1
10
42.198137
20
9.745314
70
0
0
VERTEX
8
Layer 1
10
41.900481
20
9.861070
70
0
0
VERTEX
8
Layer 1
10
41.553215
20
9.976825
70
0
0
VERTEX
8
Layer 1
10
41.046097
20
10.268969
70
0
0
VERTEX
8
Layer 1
10
40.880732
20
10.731990
70
0
0
VERTEX
8
Layer 1
10
40.990975
20
11.150914
70
0
0
VERTEX
8
Layer 1
10
41.316192
20
11.437546
70
0
0
VERTEX
8
Layer 1
10
41.812287
20
11.542277
70
0
0
VERTEX
8
Layer 1
10
42.302868
20
11.437546
70
0
0
VERTEX
8
Layer 1
10
42.628086
20
11.145402
70
0
0
VERTEX
8
Layer 1
10
42.749353
20
10.720966
70
0
0
VERTEX
8
Layer 1
10
42.380039
20
10.720966
70
0
0
VERTEX
8
Layer 1
10
42.313893
20
10.963501
70
0
0
VERTEX
8
Layer 1
10
42.120967
20
11.161939
70
0
0
VERTEX
8
Layer 1
10
41.801262
20
11.239109
70
0
0
VERTEX
8
Layer 1
10
41.404387
20
11.117841
70
0
0
VERTEX
8
Layer 1
10
41.250047
20
10.765063
70
0
0
VERTEX
8
Layer 1
10
41.354778
20
10.472919
70
0
0
VERTEX
8
Layer 1
10
41.657946
20
10.307554
70
0
0
VERTEX
8
Layer 1
10
42.109943
20
10.158726
70
0
0
VERTEX
8
Layer 1
10
42.484770
20
9.976825
70
0
0
VERTEX
8
Layer 1
10
42.749353
20
9.717754
70
0
0
VERTEX
8
Layer 1
10
42.848572
20
9.304342
70
0
0
VERTEX
8
Layer 1
10
42.738329
20
8.907467
70
0
0
VERTEX
8
Layer 1
10
42.402087
20
8.598786
70
0
0
VERTEX
8
Layer 1
10
41.850872
20
8.483031
70
0
0
VERTEX
8
Layer 1
10
41.850872
20
8.483031
70
0
0
SEQEND
8
Layer 1
0
POLYLINE
8
Layer 1
62
7
70
1
10
0.000000
20
0.000000
66
1
0
VERTEX
8
Layer 1
10
47.171865
20
9.431121
70
0
0
VERTEX
8
Layer 1
10
46.918306
20
9.497267
70
0
0
VERTEX
8
Layer 1
10
46.730893
20
9.684681
70
0
0
VERTEX
8
Layer 1
10
46.664747
20
9.938240
70
0
0
VERTEX
8
Layer 1
10
46.730893
20
10.197311
70
0
0
VERTEX
8
Layer 1
10
46.918306
20
10.384725
70
0
0
VERTEX
8
Layer 1
10
47.171865
20
10.450870
70
0
0
VERTEX
8
Layer 1
10
47.430937
20
10.384725
70
0
0
VERTEX
8
Layer 1
10
47.612838
20
10.197311
70
0
0
VERTEX
8
Layer 1
10
47.678984
20
9.938240
70
0
0
VERTEX
8
Layer 1
10
47.612838
20
9.684681
70
0
0
VERTEX
8
Layer 1
10
47.430937
20
9.497267
70
0
0
VERTEX
8
Layer 1
10
47.171865
20
9.431121
70
0
0
VERTEX
8
Layer 1
10
47.171865
20
9.431121
70
0
0
SEQEND
8
Layer 1
0
POLYLINE
8
Layer 1
62
7
70
1
10
0.000000
20
0.000000
66
1
0
VERTEX
8
Layer 1
10
52.775634
20
8.483031
70
0
0
VERTEX
8
Layer 1
10
52.097638
20
8.675956
70
0
0
VERTEX
8
Layer 1
10
51.656666
20
9.210635
70
0
0
VERTEX
8
Layer 1
10
51.507838
20
10.009898
70
0
0
VERTEX
8
Layer 1
10
51.656666
20
10.809161
70
0
0
VERTEX
8
Layer 1
10
52.097638
20
11.349352
70
0
0
VERTEX
8
Layer 1
10
52.775634
20
11.542277
70
0
0
VERTEX
8
Layer 1
10
53.448117
20
11.349352
70
0
0
VERTEX
8
Layer 1
10
53.883577
20
10.809161
70
0
0
VERTEX
8
Layer 1
10
54.037917
20
10.009898
70
0
0
VERTEX
8
Layer 1
10
53.883577
20
9.210635
70
0
0
VERTEX
8
Layer 1
10
53.448117
20
8.675956
70
0
0
VERTEX
8
Layer 1
10
52.775634
20
8.483031
70
0
0
VERTEX
8
Layer 1
10
52.775634
20
8.483031
70
0
0
SEQEND
8
Layer 1
0
POLYLINE
8
Layer 1
62
7
70
1
10
0.000000
20
0.000000
66
1
0
VERTEX
8
Layer 1
10
52.775634
20
8.797224
70
0
0
VERTEX
8
Layer 1
10
53.238655
20
8.940540
70
0
0
VERTEX
8
Layer 1
10
53.558360
20
9.353951
70
0
0
VERTEX
8
Layer 1
10
53.679627
20
10.009898
70
0
0
VERTEX
8
Layer 1
10
53.558360
20
10.660332
70
0
0
VERTEX
8
Layer 1
10
53.238655
20
11.079256
70
0
0
VERTEX
8
Layer 1
10
52.775634
20
11.228084
70
0
0
VERTEX
8
Layer 1
10
52.312612
20
11.079256
70
0
0
VERTEX
8
Layer 1
10
51.987395
20
10.660332
70
0
0
VERTEX
8
Layer 1
10
51.871640
20
10.009898
70
0
0
VERTEX
8
Layer 1
10
51.987395
20
9.353951
70
0
0
VERTEX
8
Layer 1
10
52.312612
20
8.940540
70
0
0
VERTEX
8
Layer 1
10
52.775634
20
8.797224
70
0
0
VERTEX
8
Layer 1
10
52.775634
20
8.797224
70
0
0
SEQEND
8
Layer 1
0
POLYLINE
8
Layer 1
62
7
70
1
10
0.000000
20
0.000000
66
1
0
VERTEX
8
Layer 1
10
59.084034
20
8.483031
70
0
0
VERTEX
8
Layer 1
10
58.406038
20
8.675956
70
0
0
VERTEX
8
Layer 1
10
57.965066
20
9.210635
70
0
0
VERTEX
8
Layer 1
10
57.816238
20
10.009898
70
0
0
VERTEX
8
Layer 1
10
57.965066
20
10.809161
70
0
0
VERTEX
8
Layer 1
10
58.406038
20
11.349352
70
0
0
VERTEX
8
Layer 1
10
59.084034
20
11.542277
70
0
0
VERTEX
8
Layer 1
10
59.756517
20
11.349352
70
0
0
VERTEX
8
Layer 1
10
60.191977
20
10.809161
70
0
0
VERTEX
8
Layer 1
10
60.346317
20
10.009898
70
0
0
VERTEX
8
Layer 1
10
60.191977
20
9.210635
70
0
0
VERTEX
8
Layer 1
10
59.756517
20
8.675956
70
0
0
VERTEX
8
Layer 1
10
59.084034
20
8.483031
70
0
0
VERTEX
8
Layer 1
10
59.084034
20
8.483031
70
0
0
SEQEND
8
Layer 1
0
POLYLINE
8
Layer 1
62
7
70
1
10
0.000000
20
0.000000
66
1
0
VERTEX
8
Layer 1
10
59.084034
20
8.797224
70
0
0
VERTEX
8
Layer 1
10
59.547055
20
8.940540
70
0
0
VERTEX
8
Layer 1
10
59.866760
20
9.353951
70
0
0
VERTEX
8
Layer 1
10
59.988027
20
10.009898
70
0
0
VERTEX
8
Layer 1
10
59.866760
20
10.660332
70
0
0
VERTEX
8
Layer 1
10
59.547055
20
11.079256
70
0
0
VERTEX
8
Layer 1
10
59.084034
20
11.228084
70
0
0
VERTEX
8
Layer 1
10
58.621012
20
11.079256
70
0
0
VERTEX
8
Layer 1
10
58.295795
20
10.660332
70
0
0
VERTEX
8
Layer 1
10
58.180040
20
10.009898
70
0
0
VERTEX
8
Layer 1
10
58.295795
20
9.353951
70
0
0
VERTEX
8
Layer 1
10
58.621012
20
8.940540
70
0
0
VERTEX
8
Layer 1
10
59.084034
20
8.797224
70
0
0
VERTEX
8
Layer 1
10
59.084034
20
8.797224
70
0
0
SEQEND
8
Layer 1
0
POLYLINE
8
Layer 1
62
7
70
1
10
0.000000
20
0.000000
66
1
0
VERTEX
8
Layer 1
10
64.532537
20
8.532640
70
0
0
VERTEX
8
Layer 1
10
64.532537
20
11.095793
70
0
0
VERTEX
8
Layer 1
10
64.052980
20
10.991062
70
0
0
VERTEX
8
Layer 1
10
64.052980
20
11.233597
70
0
0
VERTEX
8
Layer 1
10
64.648292
20
11.492668
70
0
0
VERTEX
8
Layer 1
10
64.890827
20
11.492668
70
0
0
VERTEX
8
Layer 1
10
64.890827
20
8.532640
70
0
0
VERTEX
8
Layer 1
10
64.532537
20
8.532640
70
0
0
SEQEND
8
Layer 1
0
POLYLINE
8
Layer 1
62
7
70
1
10
0.000000
20
0.000000
66
1
0
VERTEX
8
Layer 1
10
69.817223
20
8.483031
70
0
0
VERTEX
8
Layer 1
10
69.304592
20
8.582249
70
0
0
VERTEX
8
Layer 1
10
68.940790
20
8.896442
70
0
0
VERTEX
8
Layer 1
10
68.791962
20
9.414585
70
0
0
VERTEX
8
Layer 1
10
69.155764
20
9.414585
70
0
0
VERTEX
8
Layer 1
10
69.326641
20
8.973613
70
0
0
VERTEX
8
Layer 1
10
69.817223
20
8.791711
70
0
0
VERTEX
8
Layer 1
10
70.285756
20
8.962588
70
0
0
VERTEX
8
Layer 1
10
70.445609
20
9.381512
70
0
0
VERTEX
8
Layer 1
10
70.346390
20
9.717754
70
0
0
VERTEX
8
Layer 1
10
70.081806
20
9.910679
70
0
0
VERTEX
8
Layer 1
10
69.718004
20
9.976825
70
0
0
VERTEX
8
Layer 1
10
69.497518
20
9.976825
70
0
0
VERTEX
8
Layer 1
10
69.497518
20
10.279994
70
0
0
VERTEX
8
Layer 1
10
69.718004
20
10.279994
70
0
0
VERTEX
8
Layer 1
10
70.164489
20
10.406773
70
0
0
VERTEX
8
Layer 1
10
70.329854
20
10.776088
70
0
0
VERTEX
8
Layer 1
10
70.197562
20
11.101305
70
0
0
VERTEX
8
Layer 1
10
69.817223
20
11.233597
70
0
0
VERTEX
8
Layer 1
10
69.420348
20
11.084768
70
0
0
VERTEX
8
Layer 1
10
69.260495
20
10.720966
70
0
0
VERTEX
8
Layer 1
10
68.902205
20
10.720966
70
0
0
VERTEX
8
Layer 1
10
69.028985
20
11.150914
70
0
0
VERTEX
8
Layer 1
10
69.348690
20
11.437546
70
0
0
VERTEX
8
Layer 1
10
69.817223
20
11.542277
70
0
0
VERTEX
8
Layer 1
10
70.296781
20
11.437546
70
0
0
VERTEX
8
Layer 1
10
70.588925
20
11.167451
70
0
0
VERTEX
8
Layer 1
10
70.688144
20
10.798136
70
0
0
VERTEX
8
Layer 1
10
70.561364
20
10.390237
70
0
0
VERTEX
8
Layer 1
10
70.197562
20
10.142190
70
0
0
VERTEX
8
Layer 1
10
70.633022
20
9.894143
70
0
0
VERTEX
8
Layer 1
10
70.803899
20
9.381512
70
0
0
VERTEX
8
Layer 1
10
70.693656
20
8.929515
70
0
0
VERTEX
8
Layer 1
10
70.362926
20
8.604298
70
0
0
VERTEX
8
Layer 1
10
69.817223
20
8.483031
70
0
0
VERTEX
8
Layer 1
10
69.817223
20
8.483031
70
0
0
SEQEND
8
Layer 1
0
POLYLINE
8
Layer 1
62
7
70
1
10
0.000000
20
0.000000
66
1
0
VERTEX
8
Layer 1
10
75.913234
20
8.483031
70
0
0
VERTEX
8
Layer 1
10
75.235238
20
8.675956
70
0
0
VERTEX
8
Layer 1
10
74.794266
20
9.210635
70
0
0
VERTEX
8
Layer 1
10
74.645438
20
10.009898
70
0
0
VERTEX
8
Layer 1
10
74.794266
20
10.809161
70
0
0
VERTEX
8
Layer 1
10
75.235238
20
11.349352
70
0
0
VERTEX
8
Layer 1
10
75.913234
20
11.542277
70
0
0
VERTEX
8
Layer 1
10
76.585717
20
11.349352
70
0
0
VERTEX
8
Layer 1
10
77.021177
20
10.809161
70
0
0
VERTEX
8
Layer 1
10
77.175517
20
10.009898
70
0
0
VERTEX
8
Layer 1
10
77.021177
20
9.210635
70
0
0
VERTEX
8
Layer 1
10
76.585717
20
8.675956
70
0
0
VERTEX
8
Layer 1
10
75.913234
20
8.483031
70
0
0
VERTEX
8
Layer 1
10
75.913234
20
8.483031
70
0
0
SEQEND
8
Layer 1
0
POLYLINE
8
Layer 1
62
7
70
1
10
0.000000
20
0.000000
66
1
0
VERTEX
8
Layer 1
10
75.913234
20
8.797224
70
0
0
VERTEX
8
Layer 1
10
76.376255
20
8.940540
70
0
0
VERTEX
8
Layer 1
10
76.695960
20
9.353951
70
0
0
VERTEX
8
Layer 1
10
76.817227
20
10.009898
70
0
0
VERTEX
8
Layer 1
10
76.695960
20
10.660332
70
0
0
VERTEX
8
Layer 1
10
76.376255
20
11.079256
70
0
0
VERTEX
8
Layer 1
10
75.913234
20
11.228084
70
0
0
VERTEX
8
Layer 1
10
75.450212
20
11.079256
70
0
0
VERTEX
8
Layer 1
10
75.124995
20
10.660332
70
0
0
VERTEX
8
Layer 1
10
75.009240
20
10.009898
70
0
0
VERTEX
8
Layer 1
10
75.124995
20
9.353951
70
0
0
VERTEX
8
Layer 1
10
75.450212
20
8.940540
70
0
0
VERTEX
8
Layer 1
10
75.913234
20
8.797224
70
0
0
VERTEX
8
Layer 1
10
75.913234
20
8.797224
70
0
0
SEQEND
8
Layer 1
 0 
ENDSEC
 0 
EOF