999
"DXF R12 Output" (www.mydxf.blogspot.com)
 0 
SECTION
 2 
HEADER
 9 
$ACADVER
 1 
AC1009
 9 
$EXTMIN
 10 
 0 
 20 
 0 
 9 
$EXTMAX
 10 
 8.5 
 20 
 11 
 0 
ENDSEC
 0 
SECTION
 2 
ENTITIES
0
POLYLINE
8
Layer 1
62
7
70
1
10
0.000000
20
0.000000
66
1
0
VERTEX
8
Layer 1
10
0.000000
20
92.604200
70
0
0
VERTEX
8
Layer 1
10
92.427836
20
92.604200
70
0
0
VERTEX
8
Layer 1
10
92.427836
20
0.176364
70
0
0
VERTEX
8
Layer 1
10
0.000000
20
0.176364
70
0
0
VERTEX
8
Layer 1
10
0.000000
20
92.604200
70
0
0
SEQEND
8
Layer 1
0
POLYLINE
8
Layer 1
62
7
70
1
10
0.000000
20
0.000000
66
1
0
VERTEX
8
Layer 1
10
0.000000
20
92.604200
70
0
0
VERTEX
8
Layer 1
10
92.427836
20
92.604200
70
0
0
VERTEX
8
Layer 1
10
92.427836
20
0.176364
70
0
0
VERTEX
8
Layer 1
10
0.000000
20
0.176364
70
0
0
VERTEX
8
Layer 1
10
0.000000
20
92.604200
70
0
0
SEQEND
8
Layer 1
0
POLYLINE
8
Layer 1
62
7
70
1
10
0.000000
20
0.000000
66
1
0
VERTEX
8
Layer 1
10
17.433250
20
8.483031
70
0
0
VERTEX
8
Layer 1
10
16.683596
20
8.675956
70
0
0
VERTEX
8
Layer 1
10
16.193014
20
9.210635
70
0
0
VERTEX
8
Layer 1
10
16.022138
20
10.009898
70
0
0
VERTEX
8
Layer 1
10
16.193014
20
10.809161
70
0
0
VERTEX
8
Layer 1
10
16.683596
20
11.349352
70
0
0
VERTEX
8
Layer 1
10
17.433250
20
11.542277
70
0
0
VERTEX
8
Layer 1
10
18.260073
20
11.299742
70
0
0
VERTEX
8
Layer 1
10
18.667973
20
10.621747
70
0
0
VERTEX
8
Layer 1
10
18.276610
20
10.621747
70
0
0
VERTEX
8
Layer 1
10
18.001002
20
11.062720
70
0
0
VERTEX
8
Layer 1
10
17.433250
20
11.228084
70
0
0
VERTEX
8
Layer 1
10
16.882034
20
11.079256
70
0
0
VERTEX
8
Layer 1
10
16.512720
20
10.660332
70
0
0
VERTEX
8
Layer 1
10
16.385940
20
10.009898
70
0
0
VERTEX
8
Layer 1
10
16.512720
20
9.353951
70
0
0
VERTEX
8
Layer 1
10
16.882034
20
8.940540
70
0
0
VERTEX
8
Layer 1
10
17.433250
20
8.797224
70
0
0
VERTEX
8
Layer 1
10
18.001002
20
8.957076
70
0
0
VERTEX
8
Layer 1
10
18.276610
20
9.392536
70
0
0
VERTEX
8
Layer 1
10
18.667973
20
9.392536
70
0
0
VERTEX
8
Layer 1
10
18.260073
20
8.720053
70
0
0
VERTEX
8
Layer 1
10
17.433250
20
8.483031
70
0
0
VERTEX
8
Layer 1
10
17.433250
20
8.483031
70
0
0
SEQEND
8
Layer 1
0
POLYLINE
8
Layer 1
62
7
70
1
10
0.000000
20
0.000000
66
1
0
VERTEX
8
Layer 1
10
22.560293
20
8.532640
70
0
0
VERTEX
8
Layer 1
10
22.560293
20
11.492668
70
0
0
VERTEX
8
Layer 1
10
22.913071
20
11.492668
70
0
0
VERTEX
8
Layer 1
10
22.913071
20
10.186287
70
0
0
VERTEX
8
Layer 1
10
24.450962
20
10.186287
70
0
0
VERTEX
8
Layer 1
10
24.450962
20
11.492668
70
0
0
VERTEX
8
Layer 1
10
24.803740
20
11.492668
70
0
0
VERTEX
8
Layer 1
10
24.803740
20
8.532640
70
0
0
VERTEX
8
Layer 1
10
24.450962
20
8.532640
70
0
0
VERTEX
8
Layer 1
10
24.450962
20
9.894143
70
0
0
VERTEX
8
Layer 1
10
22.913071
20
9.894143
70
0
0
VERTEX
8
Layer 1
10
22.913071
20
8.532640
70
0
0
VERTEX
8
Layer 1
10
22.560293
20
8.532640
70
0
0
SEQEND
8
Layer 1
0
POLYLINE
8
Layer 1
62
7
70
1
10
0.000000
20
0.000000
66
1
0
VERTEX
8
Layer 1
10
28.622080
20
8.532640
70
0
0
VERTEX
8
Layer 1
10
29.713487
20
11.492668
70
0
0
VERTEX
8
Layer 1
10
30.088313
20
11.492668
70
0
0
VERTEX
8
Layer 1
10
31.174208
20
8.532640
70
0
0
VERTEX
8
Layer 1
10
30.799381
20
8.532640
70
0
0
VERTEX
8
Layer 1
10
30.529286
20
9.293318
70
0
0
VERTEX
8
Layer 1
10
29.267002
20
9.293318
70
0
0
VERTEX
8
Layer 1
10
28.996906
20
8.532640
70
0
0
VERTEX
8
Layer 1
10
28.622080
20
8.532640
70
0
0
SEQEND
8
Layer 1
0
POLYLINE
8
Layer 1
62
7
70
1
10
0.000000
20
0.000000
66
1
0
VERTEX
8
Layer 1
10
29.377245
20
9.579950
70
0
0
VERTEX
8
Layer 1
10
30.424555
20
9.579950
70
0
0
VERTEX
8
Layer 1
10
29.900900
20
11.046183
70
0
0
VERTEX
8
Layer 1
10
29.377245
20
9.579950
70
0
0
SEQEND
8
Layer 1
0
POLYLINE
8
Layer 1
62
7
70
1
10
0.000000
20
0.000000
66
1
0
VERTEX
8
Layer 1
10
36.340259
20
8.483031
70
0
0
VERTEX
8
Layer 1
10
35.574069
20
8.675956
70
0
0
VERTEX
8
Layer 1
10
35.061439
20
9.210635
70
0
0
VERTEX
8
Layer 1
10
34.879538
20
10.009898
70
0
0
VERTEX
8
Layer 1
10
35.061439
20
10.809161
70
0
0
VERTEX
8
Layer 1
10
35.574069
20
11.349352
70
0
0
VERTEX
8
Layer 1
10
36.340259
20
11.542277
70
0
0
VERTEX
8
Layer 1
10
37.100937
20
11.349352
70
0
0
VERTEX
8
Layer 1
10
37.613567
20
10.809161
70
0
0
VERTEX
8
Layer 1
10
37.795468
20
10.009898
70
0
0
VERTEX
8
Layer 1
10
37.613567
20
9.210635
70
0
0
VERTEX
8
Layer 1
10
37.100937
20
8.675956
70
0
0
VERTEX
8
Layer 1
10
36.340259
20
8.483031
70
0
0
VERTEX
8
Layer 1
10
36.340259
20
8.483031
70
0
0
SEQEND
8
Layer 1
0
POLYLINE
8
Layer 1
62
7
70
1
10
0.000000
20
0.000000
66
1
0
VERTEX
8
Layer 1
10
36.340259
20
8.797224
70
0
0
VERTEX
8
Layer 1
10
36.908011
20
8.940540
70
0
0
VERTEX
8
Layer 1
10
37.293862
20
9.353951
70
0
0
VERTEX
8
Layer 1
10
37.431666
20
10.009898
70
0
0
VERTEX
8
Layer 1
10
37.293862
20
10.660332
70
0
0
VERTEX
8
Layer 1
10
36.908011
20
11.079256
70
0
0
VERTEX
8
Layer 1
10
36.340259
20
11.228084
70
0
0
VERTEX
8
Layer 1
10
35.766995
20
11.079256
70
0
0
VERTEX
8
Layer 1
10
35.381144
20
10.660332
70
0
0
VERTEX
8
Layer 1
10
35.243340
20
10.009898
70
0
0
VERTEX
8
Layer 1
10
35.381144
20
9.353951
70
0
0
VERTEX
8
Layer 1
10
35.766995
20
8.940540
70
0
0
VERTEX
8
Layer 1
10
36.340259
20
8.797224
70
0
0
VERTEX
8
Layer 1
10
36.340259
20
8.797224
70
0
0
SEQEND
8
Layer 1
0
POLYLINE
8
Layer 1
62
7
70
1
10
0.000000
20
0.000000
66
1
0
VERTEX
8
Layer 1
10
42.630872
20
8.483031
70
0
0
VERTEX
8
Layer 1
10
42.063120
20
8.598786
70
0
0
VERTEX
8
Layer 1
10
41.688293
20
8.929515
70
0
0
VERTEX
8
Layer 1
10
41.561513
20
9.420097
70
0
0
VERTEX
8
Layer 1
10
41.930828
20
9.420097
70
0
0
VERTEX
8
Layer 1
10
42.007998
20
9.100392
70
0
0
VERTEX
8
Layer 1
10
42.245021
20
8.868882
70
0
0
VERTEX
8
Layer 1
10
42.630872
20
8.780687
70
0
0
VERTEX
8
Layer 1
10
43.093893
20
8.924003
70
0
0
VERTEX
8
Layer 1
10
43.259257
20
9.287805
70
0
0
VERTEX
8
Layer 1
10
43.182087
20
9.568925
70
0
0
VERTEX
8
Layer 1
10
42.978137
20
9.745314
70
0
0
VERTEX
8
Layer 1
10
42.680481
20
9.861070
70
0
0
VERTEX
8
Layer 1
10
42.333215
20
9.976825
70
0
0
VERTEX
8
Layer 1
10
41.826097
20
10.268969
70
0
0
VERTEX
8
Layer 1
10
41.660732
20
10.731990
70
0
0
VERTEX
8
Layer 1
10
41.770975
20
11.150914
70
0
0
VERTEX
8
Layer 1
10
42.096192
20
11.437546
70
0
0
VERTEX
8
Layer 1
10
42.592287
20
11.542277
70
0
0
VERTEX
8
Layer 1
10
43.082868
20
11.437546
70
0
0
VERTEX
8
Layer 1
10
43.408086
20
11.145402
70
0
0
VERTEX
8
Layer 1
10
43.529353
20
10.720966
70
0
0
VERTEX
8
Layer 1
10
43.160039
20
10.720966
70
0
0
VERTEX
8
Layer 1
10
43.093893
20
10.963501
70
0
0
VERTEX
8
Layer 1
10
42.900967
20
11.161939
70
0
0
VERTEX
8
Layer 1
10
42.581262
20
11.239109
70
0
0
VERTEX
8
Layer 1
10
42.184387
20
11.117841
70
0
0
VERTEX
8
Layer 1
10
42.030047
20
10.765063
70
0
0
VERTEX
8
Layer 1
10
42.134778
20
10.472919
70
0
0
VERTEX
8
Layer 1
10
42.437946
20
10.307554
70
0
0
VERTEX
8
Layer 1
10
42.889943
20
10.158726
70
0
0
VERTEX
8
Layer 1
10
43.264770
20
9.976825
70
0
0
VERTEX
8
Layer 1
10
43.529353
20
9.717754
70
0
0
VERTEX
8
Layer 1
10
43.628572
20
9.304342
70
0
0
VERTEX
8
Layer 1
10
43.518329
20
8.907467
70
0
0
VERTEX
8
Layer 1
10
43.182087
20
8.598786
70
0
0
VERTEX
8
Layer 1
10
42.630872
20
8.483031
70
0
0
VERTEX
8
Layer 1
10
42.630872
20
8.483031
70
0
0
SEQEND
8
Layer 1
0
POLYLINE
8
Layer 1
62
7
70
1
10
0.000000
20
0.000000
66
1
0
VERTEX
8
Layer 1
10
47.951565
20
9.431121
70
0
0
VERTEX
8
Layer 1
10
47.698006
20
9.497267
70
0
0
VERTEX
8
Layer 1
10
47.510593
20
9.684681
70
0
0
VERTEX
8
Layer 1
10
47.444447
20
9.938240
70
0
0
VERTEX
8
Layer 1
10
47.510593
20
10.197311
70
0
0
VERTEX
8
Layer 1
10
47.698006
20
10.384725
70
0
0
VERTEX
8
Layer 1
10
47.951565
20
10.450870
70
0
0
VERTEX
8
Layer 1
10
48.210637
20
10.384725
70
0
0
VERTEX
8
Layer 1
10
48.392538
20
10.197311
70
0
0
VERTEX
8
Layer 1
10
48.458684
20
9.938240
70
0
0
VERTEX
8
Layer 1
10
48.392538
20
9.684681
70
0
0
VERTEX
8
Layer 1
10
48.210637
20
9.497267
70
0
0
VERTEX
8
Layer 1
10
47.951565
20
9.431121
70
0
0
VERTEX
8
Layer 1
10
47.951565
20
9.431121
70
0
0
SEQEND
8
Layer 1
0
POLYLINE
8
Layer 1
62
7
70
1
10
0.000000
20
0.000000
66
1
0
VERTEX
8
Layer 1
10
53.555634
20
8.483031
70
0
0
VERTEX
8
Layer 1
10
52.877638
20
8.675956
70
0
0
VERTEX
8
Layer 1
10
52.436666
20
9.210635
70
0
0
VERTEX
8
Layer 1
10
52.287838
20
10.009898
70
0
0
VERTEX
8
Layer 1
10
52.436666
20
10.809161
70
0
0
VERTEX
8
Layer 1
10
52.877638
20
11.349352
70
0
0
VERTEX
8
Layer 1
10
53.555634
20
11.542277
70
0
0
VERTEX
8
Layer 1
10
54.228117
20
11.349352
70
0
0
VERTEX
8
Layer 1
10
54.663577
20
10.809161
70
0
0
VERTEX
8
Layer 1
10
54.817917
20
10.009898
70
0
0
VERTEX
8
Layer 1
10
54.663577
20
9.210635
70
0
0
VERTEX
8
Layer 1
10
54.228117
20
8.675956
70
0
0
VERTEX
8
Layer 1
10
53.555634
20
8.483031
70
0
0
VERTEX
8
Layer 1
10
53.555634
20
8.483031
70
0
0
SEQEND
8
Layer 1
0
POLYLINE
8
Layer 1
62
7
70
1
10
0.000000
20
0.000000
66
1
0
VERTEX
8
Layer 1
10
53.555634
20
8.797224
70
0
0
VERTEX
8
Layer 1
10
54.018655
20
8.940540
70
0
0
VERTEX
8
Layer 1
10
54.338360
20
9.353951
70
0
0
VERTEX
8
Layer 1
10
54.459627
20
10.009898
70
0
0
VERTEX
8
Layer 1
10
54.338360
20
10.660332
70
0
0
VERTEX
8
Layer 1
10
54.018655
20
11.079256
70
0
0
VERTEX
8
Layer 1
10
53.555634
20
11.228084
70
0
0
VERTEX
8
Layer 1
10
53.092612
20
11.079256
70
0
0
VERTEX
8
Layer 1
10
52.767395
20
10.660332
70
0
0
VERTEX
8
Layer 1
10
52.651640
20
10.009898
70
0
0
VERTEX
8
Layer 1
10
52.767395
20
9.353951
70
0
0
VERTEX
8
Layer 1
10
53.092612
20
8.940540
70
0
0
VERTEX
8
Layer 1
10
53.555634
20
8.797224
70
0
0
VERTEX
8
Layer 1
10
53.555634
20
8.797224
70
0
0
SEQEND
8
Layer 1
0
POLYLINE
8
Layer 1
62
7
70
1
10
0.000000
20
0.000000
66
1
0
VERTEX
8
Layer 1
10
59.864034
20
8.483031
70
0
0
VERTEX
8
Layer 1
10
59.186038
20
8.675956
70
0
0
VERTEX
8
Layer 1
10
58.745066
20
9.210635
70
0
0
VERTEX
8
Layer 1
10
58.596238
20
10.009898
70
0
0
VERTEX
8
Layer 1
10
58.745066
20
10.809161
70
0
0
VERTEX
8
Layer 1
10
59.186038
20
11.349352
70
0
0
VERTEX
8
Layer 1
10
59.864034
20
11.542277
70
0
0
VERTEX
8
Layer 1
10
60.536517
20
11.349352
70
0
0
VERTEX
8
Layer 1
10
60.971977
20
10.809161
70
0
0
VERTEX
8
Layer 1
10
61.126317
20
10.009898
70
0
0
VERTEX
8
Layer 1
10
60.971977
20
9.210635
70
0
0
VERTEX
8
Layer 1
10
60.536517
20
8.675956
70
0
0
VERTEX
8
Layer 1
10
59.864034
20
8.483031
70
0
0
VERTEX
8
Layer 1
10
59.864034
20
8.483031
70
0
0
SEQEND
8
Layer 1
0
POLYLINE
8
Layer 1
62
7
70
1
10
0.000000
20
0.000000
66
1
0
VERTEX
8
Layer 1
10
59.864034
20
8.797224
70
0
0
VERTEX
8
Layer 1
10
60.327055
20
8.940540
70
0
0
VERTEX
8
Layer 1
10
60.646760
20
9.353951
70
0
0
VERTEX
8
Layer 1
10
60.768027
20
10.009898
70
0
0
VERTEX
8
Layer 1
10
60.646760
20
10.660332
70
0
0
VERTEX
8
Layer 1
10
60.327055
20
11.079256
70
0
0
VERTEX
8
Layer 1
10
59.864034
20
11.228084
70
0
0
VERTEX
8
Layer 1
10
59.401012
20
11.079256
70
0
0
VERTEX
8
Layer 1
10
59.075795
20
10.660332
70
0
0
VERTEX
8
Layer 1
10
58.960040
20
10.009898
70
0
0
VERTEX
8
Layer 1
10
59.075795
20
9.353951
70
0
0
VERTEX
8
Layer 1
10
59.401012
20
8.940540
70
0
0
VERTEX
8
Layer 1
10
59.864034
20
8.797224
70
0
0
VERTEX
8
Layer 1
10
59.864034
20
8.797224
70
0
0
SEQEND
8
Layer 1
0
POLYLINE
8
Layer 1
62
7
70
1
10
0.000000
20
0.000000
66
1
0
VERTEX
8
Layer 1
10
65.312437
20
8.532640
70
0
0
VERTEX
8
Layer 1
10
65.312437
20
11.095793
70
0
0
VERTEX
8
Layer 1
10
64.832880
20
10.991062
70
0
0
VERTEX
8
Layer 1
10
64.832880
20
11.233597
70
0
0
VERTEX
8
Layer 1
10
65.428192
20
11.492668
70
0
0
VERTEX
8
Layer 1
10
65.670727
20
11.492668
70
0
0
VERTEX
8
Layer 1
10
65.670727
20
8.532640
70
0
0
VERTEX
8
Layer 1
10
65.312437
20
8.532640
70
0
0
SEQEND
8
Layer 1
0
POLYLINE
8
Layer 1
62
7
70
1
10
0.000000
20
0.000000
66
1
0
VERTEX
8
Layer 1
10
69.968437
20
8.532640
70
0
0
VERTEX
8
Layer 1
10
69.968437
20
11.095793
70
0
0
VERTEX
8
Layer 1
10
69.488880
20
10.991062
70
0
0
VERTEX
8
Layer 1
10
69.488880
20
11.233597
70
0
0
VERTEX
8
Layer 1
10
70.084192
20
11.492668
70
0
0
VERTEX
8
Layer 1
10
70.326727
20
11.492668
70
0
0
VERTEX
8
Layer 1
10
70.326727
20
8.532640
70
0
0
VERTEX
8
Layer 1
10
69.968437
20
8.532640
70
0
0
SEQEND
8
Layer 1
0
POLYLINE
8
Layer 1
62
7
70
1
10
0.000000
20
0.000000
66
1
0
VERTEX
8
Layer 1
10
75.308245
20
8.483031
70
0
0
VERTEX
8
Layer 1
10
74.784590
20
8.587762
70
0
0
VERTEX
8
Layer 1
10
74.415275
20
8.890930
70
0
0
VERTEX
8
Layer 1
10
74.282984
20
9.337415
70
0
0
VERTEX
8
Layer 1
10
74.442836
20
9.822485
70
0
0
VERTEX
8
Layer 1
10
74.861760
20
10.109117
70
0
0
VERTEX
8
Layer 1
10
74.492445
20
10.368188
70
0
0
VERTEX
8
Layer 1
10
74.360154
20
10.754039
70
0
0
VERTEX
8
Layer 1
10
74.475909
20
11.150914
70
0
0
VERTEX
8
Layer 1
10
74.801126
20
11.437546
70
0
0
VERTEX
8
Layer 1
10
75.308245
20
11.542277
70
0
0
VERTEX
8
Layer 1
10
75.815363
20
11.437546
70
0
0
VERTEX
8
Layer 1
10
76.140580
20
11.150914
70
0
0
VERTEX
8
Layer 1
10
76.256335
20
10.754039
70
0
0
VERTEX
8
Layer 1
10
76.124044
20
10.368188
70
0
0
VERTEX
8
Layer 1
10
75.749217
20
10.109117
70
0
0
VERTEX
8
Layer 1
10
76.173653
20
9.822485
70
0
0
VERTEX
8
Layer 1
10
76.333506
20
9.337415
70
0
0
VERTEX
8
Layer 1
10
76.195702
20
8.890930
70
0
0
VERTEX
8
Layer 1
10
75.831899
20
8.587762
70
0
0
VERTEX
8
Layer 1
10
75.308245
20
8.483031
70
0
0
VERTEX
8
Layer 1
10
75.308245
20
8.483031
70
0
0
SEQEND
8
Layer 1
0
POLYLINE
8
Layer 1
62
7
70
1
10
0.000000
20
0.000000
66
1
0
VERTEX
8
Layer 1
10
75.308245
20
10.235896
70
0
0
VERTEX
8
Layer 1
10
75.738193
20
10.373700
70
0
0
VERTEX
8
Layer 1
10
75.898045
20
10.737503
70
0
0
VERTEX
8
Layer 1
10
75.738193
20
11.112329
70
0
0
VERTEX
8
Layer 1
10
75.308245
20
11.239109
70
0
0
VERTEX
8
Layer 1
10
74.878296
20
11.112329
70
0
0
VERTEX
8
Layer 1
10
74.723956
20
10.737503
70
0
0
VERTEX
8
Layer 1
10
74.878296
20
10.373700
70
0
0
VERTEX
8
Layer 1
10
75.308245
20
10.235896
70
0
0
VERTEX
8
Layer 1
10
75.308245
20
10.235896
70
0
0
SEQEND
8
Layer 1
0
POLYLINE
8
Layer 1
62
7
70
1
10
0.000000
20
0.000000
66
1
0
VERTEX
8
Layer 1
10
75.308245
20
8.797224
70
0
0
VERTEX
8
Layer 1
10
75.809851
20
8.951564
70
0
0
VERTEX
8
Layer 1
10
75.975215
20
9.359463
70
0
0
VERTEX
8
Layer 1
10
75.793314
20
9.789412
70
0
0
VERTEX
8
Layer 1
10
75.308245
20
9.938240
70
0
0
VERTEX
8
Layer 1
10
74.823175
20
9.789412
70
0
0
VERTEX
8
Layer 1
10
74.641274
20
9.359463
70
0
0
VERTEX
8
Layer 1
10
74.806638
20
8.951564
70
0
0
VERTEX
8
Layer 1
10
75.308245
20
8.797224
70
0
0
VERTEX
8
Layer 1
10
75.308245
20
8.797224
70
0
0
SEQEND
8
Layer 1
 0 
ENDSEC
 0 
EOF