999
"DXF R12 Output" (www.mydxf.blogspot.com)
 0 
SECTION
 2 
HEADER
 9 
$ACADVER
 1 
AC1009
 9 
$EXTMIN
 10 
 0 
 20 
 0 
 9 
$EXTMAX
 10 
 8.5 
 20 
 11 
 0 
ENDSEC
 0 
SECTION
 2 
ENTITIES
0
POLYLINE
8
Layer 1
62
7
70
1
10
0.000000
20
0.000000
66
1
0
VERTEX
8
Layer 1
10
0.000000
20
92.604200
70
0
0
VERTEX
8
Layer 1
10
92.427836
20
92.604200
70
0
0
VERTEX
8
Layer 1
10
92.427836
20
0.176364
70
0
0
VERTEX
8
Layer 1
10
0.000000
20
0.176364
70
0
0
VERTEX
8
Layer 1
10
0.000000
20
92.604200
70
0
0
SEQEND
8
Layer 1
0
POLYLINE
8
Layer 1
62
7
70
1
10
0.000000
20
0.000000
66
1
0
VERTEX
8
Layer 1
10
0.000000
20
92.604200
70
0
0
VERTEX
8
Layer 1
10
92.427836
20
92.604200
70
0
0
VERTEX
8
Layer 1
10
92.427836
20
0.176364
70
0
0
VERTEX
8
Layer 1
10
0.000000
20
0.176364
70
0
0
VERTEX
8
Layer 1
10
0.000000
20
92.604200
70
0
0
SEQEND
8
Layer 1
0
POLYLINE
8
Layer 1
62
7
70
1
10
0.000000
20
0.000000
66
1
0
VERTEX
8
Layer 1
10
16.789650
20
8.483031
70
0
0
VERTEX
8
Layer 1
10
16.039996
20
8.675956
70
0
0
VERTEX
8
Layer 1
10
15.549414
20
9.210635
70
0
0
VERTEX
8
Layer 1
10
15.378538
20
10.009898
70
0
0
VERTEX
8
Layer 1
10
15.549414
20
10.809161
70
0
0
VERTEX
8
Layer 1
10
16.039996
20
11.349352
70
0
0
VERTEX
8
Layer 1
10
16.789650
20
11.542277
70
0
0
VERTEX
8
Layer 1
10
17.616473
20
11.299742
70
0
0
VERTEX
8
Layer 1
10
18.024373
20
10.621747
70
0
0
VERTEX
8
Layer 1
10
17.633010
20
10.621747
70
0
0
VERTEX
8
Layer 1
10
17.357402
20
11.062720
70
0
0
VERTEX
8
Layer 1
10
16.789650
20
11.228084
70
0
0
VERTEX
8
Layer 1
10
16.238434
20
11.079256
70
0
0
VERTEX
8
Layer 1
10
15.869120
20
10.660332
70
0
0
VERTEX
8
Layer 1
10
15.742340
20
10.009898
70
0
0
VERTEX
8
Layer 1
10
15.869120
20
9.353951
70
0
0
VERTEX
8
Layer 1
10
16.238434
20
8.940540
70
0
0
VERTEX
8
Layer 1
10
16.789650
20
8.797224
70
0
0
VERTEX
8
Layer 1
10
17.357402
20
8.957076
70
0
0
VERTEX
8
Layer 1
10
17.633010
20
9.392536
70
0
0
VERTEX
8
Layer 1
10
18.024373
20
9.392536
70
0
0
VERTEX
8
Layer 1
10
17.616473
20
8.720053
70
0
0
VERTEX
8
Layer 1
10
16.789650
20
8.483031
70
0
0
VERTEX
8
Layer 1
10
16.789650
20
8.483031
70
0
0
SEQEND
8
Layer 1
0
POLYLINE
8
Layer 1
62
7
70
1
10
0.000000
20
0.000000
66
1
0
VERTEX
8
Layer 1
10
21.916793
20
8.532640
70
0
0
VERTEX
8
Layer 1
10
21.916793
20
11.492668
70
0
0
VERTEX
8
Layer 1
10
22.269571
20
11.492668
70
0
0
VERTEX
8
Layer 1
10
22.269571
20
10.186287
70
0
0
VERTEX
8
Layer 1
10
23.807462
20
10.186287
70
0
0
VERTEX
8
Layer 1
10
23.807462
20
11.492668
70
0
0
VERTEX
8
Layer 1
10
24.160241
20
11.492668
70
0
0
VERTEX
8
Layer 1
10
24.160241
20
8.532640
70
0
0
VERTEX
8
Layer 1
10
23.807462
20
8.532640
70
0
0
VERTEX
8
Layer 1
10
23.807462
20
9.894143
70
0
0
VERTEX
8
Layer 1
10
22.269571
20
9.894143
70
0
0
VERTEX
8
Layer 1
10
22.269571
20
8.532640
70
0
0
VERTEX
8
Layer 1
10
21.916793
20
8.532640
70
0
0
SEQEND
8
Layer 1
0
POLYLINE
8
Layer 1
62
7
70
1
10
0.000000
20
0.000000
66
1
0
VERTEX
8
Layer 1
10
27.978580
20
8.532640
70
0
0
VERTEX
8
Layer 1
10
29.069987
20
11.492668
70
0
0
VERTEX
8
Layer 1
10
29.444813
20
11.492668
70
0
0
VERTEX
8
Layer 1
10
30.530708
20
8.532640
70
0
0
VERTEX
8
Layer 1
10
30.155881
20
8.532640
70
0
0
VERTEX
8
Layer 1
10
29.885786
20
9.293318
70
0
0
VERTEX
8
Layer 1
10
28.623502
20
9.293318
70
0
0
VERTEX
8
Layer 1
10
28.353406
20
8.532640
70
0
0
VERTEX
8
Layer 1
10
27.978580
20
8.532640
70
0
0
SEQEND
8
Layer 1
0
POLYLINE
8
Layer 1
62
7
70
1
10
0.000000
20
0.000000
66
1
0
VERTEX
8
Layer 1
10
28.733745
20
9.579950
70
0
0
VERTEX
8
Layer 1
10
29.781055
20
9.579950
70
0
0
VERTEX
8
Layer 1
10
29.257400
20
11.046183
70
0
0
VERTEX
8
Layer 1
10
28.733745
20
9.579950
70
0
0
SEQEND
8
Layer 1
0
POLYLINE
8
Layer 1
62
7
70
1
10
0.000000
20
0.000000
66
1
0
VERTEX
8
Layer 1
10
35.696759
20
8.483031
70
0
0
VERTEX
8
Layer 1
10
34.930569
20
8.675956
70
0
0
VERTEX
8
Layer 1
10
34.417939
20
9.210635
70
0
0
VERTEX
8
Layer 1
10
34.236038
20
10.009898
70
0
0
VERTEX
8
Layer 1
10
34.417939
20
10.809161
70
0
0
VERTEX
8
Layer 1
10
34.930569
20
11.349352
70
0
0
VERTEX
8
Layer 1
10
35.696759
20
11.542277
70
0
0
VERTEX
8
Layer 1
10
36.457437
20
11.349352
70
0
0
VERTEX
8
Layer 1
10
36.970067
20
10.809161
70
0
0
VERTEX
8
Layer 1
10
37.151968
20
10.009898
70
0
0
VERTEX
8
Layer 1
10
36.970067
20
9.210635
70
0
0
VERTEX
8
Layer 1
10
36.457437
20
8.675956
70
0
0
VERTEX
8
Layer 1
10
35.696759
20
8.483031
70
0
0
VERTEX
8
Layer 1
10
35.696759
20
8.483031
70
0
0
SEQEND
8
Layer 1
0
POLYLINE
8
Layer 1
62
7
70
1
10
0.000000
20
0.000000
66
1
0
VERTEX
8
Layer 1
10
35.696759
20
8.797224
70
0
0
VERTEX
8
Layer 1
10
36.264511
20
8.940540
70
0
0
VERTEX
8
Layer 1
10
36.650362
20
9.353951
70
0
0
VERTEX
8
Layer 1
10
36.788166
20
10.009898
70
0
0
VERTEX
8
Layer 1
10
36.650362
20
10.660332
70
0
0
VERTEX
8
Layer 1
10
36.264511
20
11.079256
70
0
0
VERTEX
8
Layer 1
10
35.696759
20
11.228084
70
0
0
VERTEX
8
Layer 1
10
35.123495
20
11.079256
70
0
0
VERTEX
8
Layer 1
10
34.737644
20
10.660332
70
0
0
VERTEX
8
Layer 1
10
34.599840
20
10.009898
70
0
0
VERTEX
8
Layer 1
10
34.737644
20
9.353951
70
0
0
VERTEX
8
Layer 1
10
35.123495
20
8.940540
70
0
0
VERTEX
8
Layer 1
10
35.696759
20
8.797224
70
0
0
VERTEX
8
Layer 1
10
35.696759
20
8.797224
70
0
0
SEQEND
8
Layer 1
0
POLYLINE
8
Layer 1
62
7
70
1
10
0.000000
20
0.000000
66
1
0
VERTEX
8
Layer 1
10
41.987072
20
8.483031
70
0
0
VERTEX
8
Layer 1
10
41.419320
20
8.598786
70
0
0
VERTEX
8
Layer 1
10
41.044493
20
8.929515
70
0
0
VERTEX
8
Layer 1
10
40.917713
20
9.420097
70
0
0
VERTEX
8
Layer 1
10
41.287028
20
9.420097
70
0
0
VERTEX
8
Layer 1
10
41.364198
20
9.100392
70
0
0
VERTEX
8
Layer 1
10
41.601221
20
8.868882
70
0
0
VERTEX
8
Layer 1
10
41.987072
20
8.780687
70
0
0
VERTEX
8
Layer 1
10
42.450093
20
8.924003
70
0
0
VERTEX
8
Layer 1
10
42.615457
20
9.287805
70
0
0
VERTEX
8
Layer 1
10
42.538287
20
9.568925
70
0
0
VERTEX
8
Layer 1
10
42.334337
20
9.745314
70
0
0
VERTEX
8
Layer 1
10
42.036681
20
9.861070
70
0
0
VERTEX
8
Layer 1
10
41.689415
20
9.976825
70
0
0
VERTEX
8
Layer 1
10
41.182297
20
10.268969
70
0
0
VERTEX
8
Layer 1
10
41.016932
20
10.731990
70
0
0
VERTEX
8
Layer 1
10
41.127175
20
11.150914
70
0
0
VERTEX
8
Layer 1
10
41.452392
20
11.437546
70
0
0
VERTEX
8
Layer 1
10
41.948487
20
11.542277
70
0
0
VERTEX
8
Layer 1
10
42.439068
20
11.437546
70
0
0
VERTEX
8
Layer 1
10
42.764286
20
11.145402
70
0
0
VERTEX
8
Layer 1
10
42.885553
20
10.720966
70
0
0
VERTEX
8
Layer 1
10
42.516239
20
10.720966
70
0
0
VERTEX
8
Layer 1
10
42.450093
20
10.963501
70
0
0
VERTEX
8
Layer 1
10
42.257167
20
11.161939
70
0
0
VERTEX
8
Layer 1
10
41.937462
20
11.239109
70
0
0
VERTEX
8
Layer 1
10
41.540587
20
11.117841
70
0
0
VERTEX
8
Layer 1
10
41.386247
20
10.765063
70
0
0
VERTEX
8
Layer 1
10
41.490978
20
10.472919
70
0
0
VERTEX
8
Layer 1
10
41.794146
20
10.307554
70
0
0
VERTEX
8
Layer 1
10
42.246143
20
10.158726
70
0
0
VERTEX
8
Layer 1
10
42.620970
20
9.976825
70
0
0
VERTEX
8
Layer 1
10
42.885553
20
9.717754
70
0
0
VERTEX
8
Layer 1
10
42.984772
20
9.304342
70
0
0
VERTEX
8
Layer 1
10
42.874529
20
8.907467
70
0
0
VERTEX
8
Layer 1
10
42.538287
20
8.598786
70
0
0
VERTEX
8
Layer 1
10
41.987072
20
8.483031
70
0
0
VERTEX
8
Layer 1
10
41.987072
20
8.483031
70
0
0
SEQEND
8
Layer 1
0
POLYLINE
8
Layer 1
62
7
70
1
10
0.000000
20
0.000000
66
1
0
VERTEX
8
Layer 1
10
47.308065
20
9.431121
70
0
0
VERTEX
8
Layer 1
10
47.054506
20
9.497267
70
0
0
VERTEX
8
Layer 1
10
46.867093
20
9.684681
70
0
0
VERTEX
8
Layer 1
10
46.800947
20
9.938240
70
0
0
VERTEX
8
Layer 1
10
46.867093
20
10.197311
70
0
0
VERTEX
8
Layer 1
10
47.054506
20
10.384725
70
0
0
VERTEX
8
Layer 1
10
47.308065
20
10.450870
70
0
0
VERTEX
8
Layer 1
10
47.567137
20
10.384725
70
0
0
VERTEX
8
Layer 1
10
47.749038
20
10.197311
70
0
0
VERTEX
8
Layer 1
10
47.815184
20
9.938240
70
0
0
VERTEX
8
Layer 1
10
47.749038
20
9.684681
70
0
0
VERTEX
8
Layer 1
10
47.567137
20
9.497267
70
0
0
VERTEX
8
Layer 1
10
47.308065
20
9.431121
70
0
0
VERTEX
8
Layer 1
10
47.308065
20
9.431121
70
0
0
SEQEND
8
Layer 1
0
POLYLINE
8
Layer 1
62
7
70
1
10
0.000000
20
0.000000
66
1
0
VERTEX
8
Layer 1
10
52.911834
20
8.483031
70
0
0
VERTEX
8
Layer 1
10
52.233838
20
8.675956
70
0
0
VERTEX
8
Layer 1
10
51.792866
20
9.210635
70
0
0
VERTEX
8
Layer 1
10
51.644038
20
10.009898
70
0
0
VERTEX
8
Layer 1
10
51.792866
20
10.809161
70
0
0
VERTEX
8
Layer 1
10
52.233838
20
11.349352
70
0
0
VERTEX
8
Layer 1
10
52.911834
20
11.542277
70
0
0
VERTEX
8
Layer 1
10
53.584317
20
11.349352
70
0
0
VERTEX
8
Layer 1
10
54.019777
20
10.809161
70
0
0
VERTEX
8
Layer 1
10
54.174117
20
10.009898
70
0
0
VERTEX
8
Layer 1
10
54.019777
20
9.210635
70
0
0
VERTEX
8
Layer 1
10
53.584317
20
8.675956
70
0
0
VERTEX
8
Layer 1
10
52.911834
20
8.483031
70
0
0
VERTEX
8
Layer 1
10
52.911834
20
8.483031
70
0
0
SEQEND
8
Layer 1
0
POLYLINE
8
Layer 1
62
7
70
1
10
0.000000
20
0.000000
66
1
0
VERTEX
8
Layer 1
10
52.911834
20
8.797224
70
0
0
VERTEX
8
Layer 1
10
53.374855
20
8.940540
70
0
0
VERTEX
8
Layer 1
10
53.694560
20
9.353951
70
0
0
VERTEX
8
Layer 1
10
53.815827
20
10.009898
70
0
0
VERTEX
8
Layer 1
10
53.694560
20
10.660332
70
0
0
VERTEX
8
Layer 1
10
53.374855
20
11.079256
70
0
0
VERTEX
8
Layer 1
10
52.911834
20
11.228084
70
0
0
VERTEX
8
Layer 1
10
52.448812
20
11.079256
70
0
0
VERTEX
8
Layer 1
10
52.123595
20
10.660332
70
0
0
VERTEX
8
Layer 1
10
52.007840
20
10.009898
70
0
0
VERTEX
8
Layer 1
10
52.123595
20
9.353951
70
0
0
VERTEX
8
Layer 1
10
52.448812
20
8.940540
70
0
0
VERTEX
8
Layer 1
10
52.911834
20
8.797224
70
0
0
VERTEX
8
Layer 1
10
52.911834
20
8.797224
70
0
0
SEQEND
8
Layer 1
0
POLYLINE
8
Layer 1
62
7
70
1
10
0.000000
20
0.000000
66
1
0
VERTEX
8
Layer 1
10
59.220234
20
8.483031
70
0
0
VERTEX
8
Layer 1
10
58.542238
20
8.675956
70
0
0
VERTEX
8
Layer 1
10
58.101266
20
9.210635
70
0
0
VERTEX
8
Layer 1
10
57.952438
20
10.009898
70
0
0
VERTEX
8
Layer 1
10
58.101266
20
10.809161
70
0
0
VERTEX
8
Layer 1
10
58.542238
20
11.349352
70
0
0
VERTEX
8
Layer 1
10
59.220234
20
11.542277
70
0
0
VERTEX
8
Layer 1
10
59.892717
20
11.349352
70
0
0
VERTEX
8
Layer 1
10
60.328177
20
10.809161
70
0
0
VERTEX
8
Layer 1
10
60.482517
20
10.009898
70
0
0
VERTEX
8
Layer 1
10
60.328177
20
9.210635
70
0
0
VERTEX
8
Layer 1
10
59.892717
20
8.675956
70
0
0
VERTEX
8
Layer 1
10
59.220234
20
8.483031
70
0
0
VERTEX
8
Layer 1
10
59.220234
20
8.483031
70
0
0
SEQEND
8
Layer 1
0
POLYLINE
8
Layer 1
62
7
70
1
10
0.000000
20
0.000000
66
1
0
VERTEX
8
Layer 1
10
59.220234
20
8.797224
70
0
0
VERTEX
8
Layer 1
10
59.683255
20
8.940540
70
0
0
VERTEX
8
Layer 1
10
60.002960
20
9.353951
70
0
0
VERTEX
8
Layer 1
10
60.124227
20
10.009898
70
0
0
VERTEX
8
Layer 1
10
60.002960
20
10.660332
70
0
0
VERTEX
8
Layer 1
10
59.683255
20
11.079256
70
0
0
VERTEX
8
Layer 1
10
59.220234
20
11.228084
70
0
0
VERTEX
8
Layer 1
10
58.757212
20
11.079256
70
0
0
VERTEX
8
Layer 1
10
58.431995
20
10.660332
70
0
0
VERTEX
8
Layer 1
10
58.316240
20
10.009898
70
0
0
VERTEX
8
Layer 1
10
58.431995
20
9.353951
70
0
0
VERTEX
8
Layer 1
10
58.757212
20
8.940540
70
0
0
VERTEX
8
Layer 1
10
59.220234
20
8.797224
70
0
0
VERTEX
8
Layer 1
10
59.220234
20
8.797224
70
0
0
SEQEND
8
Layer 1
0
POLYLINE
8
Layer 1
62
7
70
1
10
0.000000
20
0.000000
66
1
0
VERTEX
8
Layer 1
10
64.668637
20
8.532640
70
0
0
VERTEX
8
Layer 1
10
64.668637
20
11.095793
70
0
0
VERTEX
8
Layer 1
10
64.189080
20
10.991062
70
0
0
VERTEX
8
Layer 1
10
64.189080
20
11.233597
70
0
0
VERTEX
8
Layer 1
10
64.784392
20
11.492668
70
0
0
VERTEX
8
Layer 1
10
65.026927
20
11.492668
70
0
0
VERTEX
8
Layer 1
10
65.026927
20
8.532640
70
0
0
VERTEX
8
Layer 1
10
64.668637
20
8.532640
70
0
0
SEQEND
8
Layer 1
0
POLYLINE
8
Layer 1
62
7
70
1
10
0.000000
20
0.000000
66
1
0
VERTEX
8
Layer 1
10
69.953323
20
8.483031
70
0
0
VERTEX
8
Layer 1
10
69.440692
20
8.582249
70
0
0
VERTEX
8
Layer 1
10
69.076890
20
8.896442
70
0
0
VERTEX
8
Layer 1
10
68.928062
20
9.414585
70
0
0
VERTEX
8
Layer 1
10
69.291864
20
9.414585
70
0
0
VERTEX
8
Layer 1
10
69.462741
20
8.973613
70
0
0
VERTEX
8
Layer 1
10
69.953323
20
8.791711
70
0
0
VERTEX
8
Layer 1
10
70.421856
20
8.962588
70
0
0
VERTEX
8
Layer 1
10
70.581709
20
9.381512
70
0
0
VERTEX
8
Layer 1
10
70.482490
20
9.717754
70
0
0
VERTEX
8
Layer 1
10
70.217906
20
9.910679
70
0
0
VERTEX
8
Layer 1
10
69.854104
20
9.976825
70
0
0
VERTEX
8
Layer 1
10
69.633618
20
9.976825
70
0
0
VERTEX
8
Layer 1
10
69.633618
20
10.279994
70
0
0
VERTEX
8
Layer 1
10
69.854104
20
10.279994
70
0
0
VERTEX
8
Layer 1
10
70.300589
20
10.406773
70
0
0
VERTEX
8
Layer 1
10
70.465954
20
10.776088
70
0
0
VERTEX
8
Layer 1
10
70.333662
20
11.101305
70
0
0
VERTEX
8
Layer 1
10
69.953323
20
11.233597
70
0
0
VERTEX
8
Layer 1
10
69.556448
20
11.084768
70
0
0
VERTEX
8
Layer 1
10
69.396595
20
10.720966
70
0
0
VERTEX
8
Layer 1
10
69.038305
20
10.720966
70
0
0
VERTEX
8
Layer 1
10
69.165085
20
11.150914
70
0
0
VERTEX
8
Layer 1
10
69.484790
20
11.437546
70
0
0
VERTEX
8
Layer 1
10
69.953323
20
11.542277
70
0
0
VERTEX
8
Layer 1
10
70.432881
20
11.437546
70
0
0
VERTEX
8
Layer 1
10
70.725025
20
11.167451
70
0
0
VERTEX
8
Layer 1
10
70.824244
20
10.798136
70
0
0
VERTEX
8
Layer 1
10
70.697464
20
10.390237
70
0
0
VERTEX
8
Layer 1
10
70.333662
20
10.142190
70
0
0
VERTEX
8
Layer 1
10
70.769122
20
9.894143
70
0
0
VERTEX
8
Layer 1
10
70.939999
20
9.381512
70
0
0
VERTEX
8
Layer 1
10
70.829756
20
8.929515
70
0
0
VERTEX
8
Layer 1
10
70.499026
20
8.604298
70
0
0
VERTEX
8
Layer 1
10
69.953323
20
8.483031
70
0
0
VERTEX
8
Layer 1
10
69.953323
20
8.483031
70
0
0
SEQEND
8
Layer 1
0
POLYLINE
8
Layer 1
62
7
70
1
10
0.000000
20
0.000000
66
1
0
VERTEX
8
Layer 1
10
75.961639
20
8.483031
70
0
0
VERTEX
8
Layer 1
10
75.421448
20
8.604298
70
0
0
VERTEX
8
Layer 1
10
75.068670
20
8.924003
70
0
0
VERTEX
8
Layer 1
10
74.870232
20
9.376000
70
0
0
VERTEX
8
Layer 1
10
74.809598
20
9.894143
70
0
0
VERTEX
8
Layer 1
10
74.947402
20
10.754039
70
0
0
VERTEX
8
Layer 1
10
75.338765
20
11.332815
70
0
0
VERTEX
8
Layer 1
10
75.956127
20
11.542277
70
0
0
VERTEX
8
Layer 1
10
76.435685
20
11.432034
70
0
0
VERTEX
8
Layer 1
10
76.749877
20
11.134378
70
0
0
VERTEX
8
Layer 1
10
76.898706
20
10.731990
70
0
0
VERTEX
8
Layer 1
10
76.567976
20
10.731990
70
0
0
VERTEX
8
Layer 1
10
76.358514
20
11.101305
70
0
0
VERTEX
8
Layer 1
10
75.956127
20
11.233597
70
0
0
VERTEX
8
Layer 1
10
75.647102
20
11.155048
70
0
0
VERTEX
8
Layer 1
10
75.393887
20
10.919404
70
0
0
VERTEX
8
Layer 1
10
75.151352
20
9.938240
70
0
0
VERTEX
8
Layer 1
10
75.471057
20
10.279994
70
0
0
VERTEX
8
Layer 1
10
76.005736
20
10.428822
70
0
0
VERTEX
8
Layer 1
10
76.479782
20
10.307554
70
0
0
VERTEX
8
Layer 1
10
76.843584
20
9.976825
70
0
0
VERTEX
8
Layer 1
10
76.986900
20
9.475219
70
0
0
VERTEX
8
Layer 1
10
76.860121
20
8.995661
70
0
0
VERTEX
8
Layer 1
10
76.507343
20
8.626347
70
0
0
VERTEX
8
Layer 1
10
75.961639
20
8.483031
70
0
0
VERTEX
8
Layer 1
10
75.961639
20
8.483031
70
0
0
SEQEND
8
Layer 1
0
POLYLINE
8
Layer 1
62
7
70
1
10
0.000000
20
0.000000
66
1
0
VERTEX
8
Layer 1
10
75.934078
20
8.797224
70
0
0
VERTEX
8
Layer 1
10
76.286856
20
8.879906
70
0
0
VERTEX
8
Layer 1
10
76.534903
20
9.111416
70
0
0
VERTEX
8
Layer 1
10
76.623098
20
9.458682
70
0
0
VERTEX
8
Layer 1
10
76.424660
20
9.938240
70
0
0
VERTEX
8
Layer 1
10
75.934078
20
10.120141
70
0
0
VERTEX
8
Layer 1
10
75.581300
20
10.026434
70
0
0
VERTEX
8
Layer 1
10
75.333253
20
9.783899
70
0
0
VERTEX
8
Layer 1
10
75.245059
20
9.453170
70
0
0
VERTEX
8
Layer 1
10
75.333253
20
9.111416
70
0
0
VERTEX
8
Layer 1
10
75.581300
20
8.879906
70
0
0
VERTEX
8
Layer 1
10
75.934078
20
8.797224
70
0
0
VERTEX
8
Layer 1
10
75.934078
20
8.797224
70
0
0
SEQEND
8
Layer 1
 0 
ENDSEC
 0 
EOF