999
"DXF R12 Output" (www.mydxf.blogspot.com)
 0 
SECTION
 2 
HEADER
 9 
$ACADVER
 1 
AC1009
 9 
$EXTMIN
 10 
 0 
 20 
 0 
 9 
$EXTMAX
 10 
 8.5 
 20 
 11 
 0 
ENDSEC
 0 
SECTION
 2 
ENTITIES
0
POLYLINE
8
Layer 1
62
7
70
1
10
0.000000
20
0.000000
66
1
0
VERTEX
8
Layer 1
10
0.000000
20
92.604200
70
0
0
VERTEX
8
Layer 1
10
92.427836
20
92.604200
70
0
0
VERTEX
8
Layer 1
10
92.427836
20
0.176364
70
0
0
VERTEX
8
Layer 1
10
0.000000
20
0.176364
70
0
0
VERTEX
8
Layer 1
10
0.000000
20
92.604200
70
0
0
SEQEND
8
Layer 1
0
POLYLINE
8
Layer 1
62
7
70
1
10
0.000000
20
0.000000
66
1
0
VERTEX
8
Layer 1
10
0.000000
20
92.604200
70
0
0
VERTEX
8
Layer 1
10
92.427836
20
92.604200
70
0
0
VERTEX
8
Layer 1
10
92.427836
20
0.176364
70
0
0
VERTEX
8
Layer 1
10
0.000000
20
0.176364
70
0
0
VERTEX
8
Layer 1
10
0.000000
20
92.604200
70
0
0
SEQEND
8
Layer 1
0
POLYLINE
8
Layer 1
62
7
70
1
10
0.000000
20
0.000000
66
1
0
VERTEX
8
Layer 1
10
16.946550
20
8.483031
70
0
0
VERTEX
8
Layer 1
10
16.196896
20
8.675956
70
0
0
VERTEX
8
Layer 1
10
15.706314
20
9.210635
70
0
0
VERTEX
8
Layer 1
10
15.535438
20
10.009898
70
0
0
VERTEX
8
Layer 1
10
15.706314
20
10.809161
70
0
0
VERTEX
8
Layer 1
10
16.196896
20
11.349352
70
0
0
VERTEX
8
Layer 1
10
16.946550
20
11.542277
70
0
0
VERTEX
8
Layer 1
10
17.773373
20
11.299742
70
0
0
VERTEX
8
Layer 1
10
18.181273
20
10.621747
70
0
0
VERTEX
8
Layer 1
10
17.789910
20
10.621747
70
0
0
VERTEX
8
Layer 1
10
17.514302
20
11.062720
70
0
0
VERTEX
8
Layer 1
10
16.946550
20
11.228084
70
0
0
VERTEX
8
Layer 1
10
16.395334
20
11.079256
70
0
0
VERTEX
8
Layer 1
10
16.026020
20
10.660332
70
0
0
VERTEX
8
Layer 1
10
15.899240
20
10.009898
70
0
0
VERTEX
8
Layer 1
10
16.026020
20
9.353951
70
0
0
VERTEX
8
Layer 1
10
16.395334
20
8.940540
70
0
0
VERTEX
8
Layer 1
10
16.946550
20
8.797224
70
0
0
VERTEX
8
Layer 1
10
17.514302
20
8.957076
70
0
0
VERTEX
8
Layer 1
10
17.789910
20
9.392536
70
0
0
VERTEX
8
Layer 1
10
18.181273
20
9.392536
70
0
0
VERTEX
8
Layer 1
10
17.773373
20
8.720053
70
0
0
VERTEX
8
Layer 1
10
16.946550
20
8.483031
70
0
0
VERTEX
8
Layer 1
10
16.946550
20
8.483031
70
0
0
SEQEND
8
Layer 1
0
POLYLINE
8
Layer 1
62
7
70
1
10
0.000000
20
0.000000
66
1
0
VERTEX
8
Layer 1
10
22.073393
20
8.532640
70
0
0
VERTEX
8
Layer 1
10
22.073393
20
11.492668
70
0
0
VERTEX
8
Layer 1
10
22.426171
20
11.492668
70
0
0
VERTEX
8
Layer 1
10
22.426171
20
10.186287
70
0
0
VERTEX
8
Layer 1
10
23.964063
20
10.186287
70
0
0
VERTEX
8
Layer 1
10
23.964063
20
11.492668
70
0
0
VERTEX
8
Layer 1
10
24.316840
20
11.492668
70
0
0
VERTEX
8
Layer 1
10
24.316840
20
8.532640
70
0
0
VERTEX
8
Layer 1
10
23.964063
20
8.532640
70
0
0
VERTEX
8
Layer 1
10
23.964063
20
9.894143
70
0
0
VERTEX
8
Layer 1
10
22.426171
20
9.894143
70
0
0
VERTEX
8
Layer 1
10
22.426171
20
8.532640
70
0
0
VERTEX
8
Layer 1
10
22.073393
20
8.532640
70
0
0
SEQEND
8
Layer 1
0
POLYLINE
8
Layer 1
62
7
70
1
10
0.000000
20
0.000000
66
1
0
VERTEX
8
Layer 1
10
28.135180
20
8.532640
70
0
0
VERTEX
8
Layer 1
10
29.226587
20
11.492668
70
0
0
VERTEX
8
Layer 1
10
29.601413
20
11.492668
70
0
0
VERTEX
8
Layer 1
10
30.687308
20
8.532640
70
0
0
VERTEX
8
Layer 1
10
30.312481
20
8.532640
70
0
0
VERTEX
8
Layer 1
10
30.042386
20
9.293318
70
0
0
VERTEX
8
Layer 1
10
28.780102
20
9.293318
70
0
0
VERTEX
8
Layer 1
10
28.510006
20
8.532640
70
0
0
VERTEX
8
Layer 1
10
28.135180
20
8.532640
70
0
0
SEQEND
8
Layer 1
0
POLYLINE
8
Layer 1
62
7
70
1
10
0.000000
20
0.000000
66
1
0
VERTEX
8
Layer 1
10
28.890345
20
9.579950
70
0
0
VERTEX
8
Layer 1
10
29.937655
20
9.579950
70
0
0
VERTEX
8
Layer 1
10
29.414000
20
11.046183
70
0
0
VERTEX
8
Layer 1
10
28.890345
20
9.579950
70
0
0
SEQEND
8
Layer 1
0
POLYLINE
8
Layer 1
62
7
70
1
10
0.000000
20
0.000000
66
1
0
VERTEX
8
Layer 1
10
35.853359
20
8.483031
70
0
0
VERTEX
8
Layer 1
10
35.087169
20
8.675956
70
0
0
VERTEX
8
Layer 1
10
34.574539
20
9.210635
70
0
0
VERTEX
8
Layer 1
10
34.392638
20
10.009898
70
0
0
VERTEX
8
Layer 1
10
34.574539
20
10.809161
70
0
0
VERTEX
8
Layer 1
10
35.087169
20
11.349352
70
0
0
VERTEX
8
Layer 1
10
35.853359
20
11.542277
70
0
0
VERTEX
8
Layer 1
10
36.614037
20
11.349352
70
0
0
VERTEX
8
Layer 1
10
37.126667
20
10.809161
70
0
0
VERTEX
8
Layer 1
10
37.308568
20
10.009898
70
0
0
VERTEX
8
Layer 1
10
37.126667
20
9.210635
70
0
0
VERTEX
8
Layer 1
10
36.614037
20
8.675956
70
0
0
VERTEX
8
Layer 1
10
35.853359
20
8.483031
70
0
0
VERTEX
8
Layer 1
10
35.853359
20
8.483031
70
0
0
SEQEND
8
Layer 1
0
POLYLINE
8
Layer 1
62
7
70
1
10
0.000000
20
0.000000
66
1
0
VERTEX
8
Layer 1
10
35.853359
20
8.797224
70
0
0
VERTEX
8
Layer 1
10
36.421111
20
8.940540
70
0
0
VERTEX
8
Layer 1
10
36.806962
20
9.353951
70
0
0
VERTEX
8
Layer 1
10
36.944766
20
10.009898
70
0
0
VERTEX
8
Layer 1
10
36.806962
20
10.660332
70
0
0
VERTEX
8
Layer 1
10
36.421111
20
11.079256
70
0
0
VERTEX
8
Layer 1
10
35.853359
20
11.228084
70
0
0
VERTEX
8
Layer 1
10
35.280095
20
11.079256
70
0
0
VERTEX
8
Layer 1
10
34.894244
20
10.660332
70
0
0
VERTEX
8
Layer 1
10
34.756440
20
10.009898
70
0
0
VERTEX
8
Layer 1
10
34.894244
20
9.353951
70
0
0
VERTEX
8
Layer 1
10
35.280095
20
8.940540
70
0
0
VERTEX
8
Layer 1
10
35.853359
20
8.797224
70
0
0
VERTEX
8
Layer 1
10
35.853359
20
8.797224
70
0
0
SEQEND
8
Layer 1
0
POLYLINE
8
Layer 1
62
7
70
1
10
0.000000
20
0.000000
66
1
0
VERTEX
8
Layer 1
10
42.144072
20
8.483031
70
0
0
VERTEX
8
Layer 1
10
41.576320
20
8.598786
70
0
0
VERTEX
8
Layer 1
10
41.201493
20
8.929515
70
0
0
VERTEX
8
Layer 1
10
41.074713
20
9.420097
70
0
0
VERTEX
8
Layer 1
10
41.444028
20
9.420097
70
0
0
VERTEX
8
Layer 1
10
41.521198
20
9.100392
70
0
0
VERTEX
8
Layer 1
10
41.758221
20
8.868882
70
0
0
VERTEX
8
Layer 1
10
42.144072
20
8.780687
70
0
0
VERTEX
8
Layer 1
10
42.607093
20
8.924003
70
0
0
VERTEX
8
Layer 1
10
42.772457
20
9.287805
70
0
0
VERTEX
8
Layer 1
10
42.695287
20
9.568925
70
0
0
VERTEX
8
Layer 1
10
42.491337
20
9.745314
70
0
0
VERTEX
8
Layer 1
10
42.193681
20
9.861070
70
0
0
VERTEX
8
Layer 1
10
41.846415
20
9.976825
70
0
0
VERTEX
8
Layer 1
10
41.339297
20
10.268969
70
0
0
VERTEX
8
Layer 1
10
41.173932
20
10.731990
70
0
0
VERTEX
8
Layer 1
10
41.284175
20
11.150914
70
0
0
VERTEX
8
Layer 1
10
41.609392
20
11.437546
70
0
0
VERTEX
8
Layer 1
10
42.105487
20
11.542277
70
0
0
VERTEX
8
Layer 1
10
42.596068
20
11.437546
70
0
0
VERTEX
8
Layer 1
10
42.921286
20
11.145402
70
0
0
VERTEX
8
Layer 1
10
43.042553
20
10.720966
70
0
0
VERTEX
8
Layer 1
10
42.673239
20
10.720966
70
0
0
VERTEX
8
Layer 1
10
42.607093
20
10.963501
70
0
0
VERTEX
8
Layer 1
10
42.414167
20
11.161939
70
0
0
VERTEX
8
Layer 1
10
42.094462
20
11.239109
70
0
0
VERTEX
8
Layer 1
10
41.697587
20
11.117841
70
0
0
VERTEX
8
Layer 1
10
41.543247
20
10.765063
70
0
0
VERTEX
8
Layer 1
10
41.647978
20
10.472919
70
0
0
VERTEX
8
Layer 1
10
41.951146
20
10.307554
70
0
0
VERTEX
8
Layer 1
10
42.403143
20
10.158726
70
0
0
VERTEX
8
Layer 1
10
42.777970
20
9.976825
70
0
0
VERTEX
8
Layer 1
10
43.042553
20
9.717754
70
0
0
VERTEX
8
Layer 1
10
43.141772
20
9.304342
70
0
0
VERTEX
8
Layer 1
10
43.031529
20
8.907467
70
0
0
VERTEX
8
Layer 1
10
42.695287
20
8.598786
70
0
0
VERTEX
8
Layer 1
10
42.144072
20
8.483031
70
0
0
VERTEX
8
Layer 1
10
42.144072
20
8.483031
70
0
0
SEQEND
8
Layer 1
0
POLYLINE
8
Layer 1
62
7
70
1
10
0.000000
20
0.000000
66
1
0
VERTEX
8
Layer 1
10
47.465065
20
9.431121
70
0
0
VERTEX
8
Layer 1
10
47.211506
20
9.497267
70
0
0
VERTEX
8
Layer 1
10
47.024093
20
9.684681
70
0
0
VERTEX
8
Layer 1
10
46.957947
20
9.938240
70
0
0
VERTEX
8
Layer 1
10
47.024093
20
10.197311
70
0
0
VERTEX
8
Layer 1
10
47.211506
20
10.384725
70
0
0
VERTEX
8
Layer 1
10
47.465065
20
10.450870
70
0
0
VERTEX
8
Layer 1
10
47.724137
20
10.384725
70
0
0
VERTEX
8
Layer 1
10
47.906038
20
10.197311
70
0
0
VERTEX
8
Layer 1
10
47.972184
20
9.938240
70
0
0
VERTEX
8
Layer 1
10
47.906038
20
9.684681
70
0
0
VERTEX
8
Layer 1
10
47.724137
20
9.497267
70
0
0
VERTEX
8
Layer 1
10
47.465065
20
9.431121
70
0
0
VERTEX
8
Layer 1
10
47.465065
20
9.431121
70
0
0
SEQEND
8
Layer 1
0
POLYLINE
8
Layer 1
62
7
70
1
10
0.000000
20
0.000000
66
1
0
VERTEX
8
Layer 1
10
53.068834
20
8.483031
70
0
0
VERTEX
8
Layer 1
10
52.390838
20
8.675956
70
0
0
VERTEX
8
Layer 1
10
51.949866
20
9.210635
70
0
0
VERTEX
8
Layer 1
10
51.801038
20
10.009898
70
0
0
VERTEX
8
Layer 1
10
51.949866
20
10.809161
70
0
0
VERTEX
8
Layer 1
10
52.390838
20
11.349352
70
0
0
VERTEX
8
Layer 1
10
53.068834
20
11.542277
70
0
0
VERTEX
8
Layer 1
10
53.741317
20
11.349352
70
0
0
VERTEX
8
Layer 1
10
54.176777
20
10.809161
70
0
0
VERTEX
8
Layer 1
10
54.331117
20
10.009898
70
0
0
VERTEX
8
Layer 1
10
54.176777
20
9.210635
70
0
0
VERTEX
8
Layer 1
10
53.741317
20
8.675956
70
0
0
VERTEX
8
Layer 1
10
53.068834
20
8.483031
70
0
0
VERTEX
8
Layer 1
10
53.068834
20
8.483031
70
0
0
SEQEND
8
Layer 1
0
POLYLINE
8
Layer 1
62
7
70
1
10
0.000000
20
0.000000
66
1
0
VERTEX
8
Layer 1
10
53.068834
20
8.797224
70
0
0
VERTEX
8
Layer 1
10
53.531855
20
8.940540
70
0
0
VERTEX
8
Layer 1
10
53.851560
20
9.353951
70
0
0
VERTEX
8
Layer 1
10
53.972827
20
10.009898
70
0
0
VERTEX
8
Layer 1
10
53.851560
20
10.660332
70
0
0
VERTEX
8
Layer 1
10
53.531855
20
11.079256
70
0
0
VERTEX
8
Layer 1
10
53.068834
20
11.228084
70
0
0
VERTEX
8
Layer 1
10
52.605812
20
11.079256
70
0
0
VERTEX
8
Layer 1
10
52.280595
20
10.660332
70
0
0
VERTEX
8
Layer 1
10
52.164840
20
10.009898
70
0
0
VERTEX
8
Layer 1
10
52.280595
20
9.353951
70
0
0
VERTEX
8
Layer 1
10
52.605812
20
8.940540
70
0
0
VERTEX
8
Layer 1
10
53.068834
20
8.797224
70
0
0
VERTEX
8
Layer 1
10
53.068834
20
8.797224
70
0
0
SEQEND
8
Layer 1
0
POLYLINE
8
Layer 1
62
7
70
1
10
0.000000
20
0.000000
66
1
0
VERTEX
8
Layer 1
10
59.377134
20
8.483031
70
0
0
VERTEX
8
Layer 1
10
58.699138
20
8.675956
70
0
0
VERTEX
8
Layer 1
10
58.258166
20
9.210635
70
0
0
VERTEX
8
Layer 1
10
58.109338
20
10.009898
70
0
0
VERTEX
8
Layer 1
10
58.258166
20
10.809161
70
0
0
VERTEX
8
Layer 1
10
58.699138
20
11.349352
70
0
0
VERTEX
8
Layer 1
10
59.377134
20
11.542277
70
0
0
VERTEX
8
Layer 1
10
60.049617
20
11.349352
70
0
0
VERTEX
8
Layer 1
10
60.485077
20
10.809161
70
0
0
VERTEX
8
Layer 1
10
60.639417
20
10.009898
70
0
0
VERTEX
8
Layer 1
10
60.485077
20
9.210635
70
0
0
VERTEX
8
Layer 1
10
60.049617
20
8.675956
70
0
0
VERTEX
8
Layer 1
10
59.377134
20
8.483031
70
0
0
VERTEX
8
Layer 1
10
59.377134
20
8.483031
70
0
0
SEQEND
8
Layer 1
0
POLYLINE
8
Layer 1
62
7
70
1
10
0.000000
20
0.000000
66
1
0
VERTEX
8
Layer 1
10
59.377134
20
8.797224
70
0
0
VERTEX
8
Layer 1
10
59.840155
20
8.940540
70
0
0
VERTEX
8
Layer 1
10
60.159860
20
9.353951
70
0
0
VERTEX
8
Layer 1
10
60.281127
20
10.009898
70
0
0
VERTEX
8
Layer 1
10
60.159860
20
10.660332
70
0
0
VERTEX
8
Layer 1
10
59.840155
20
11.079256
70
0
0
VERTEX
8
Layer 1
10
59.377134
20
11.228084
70
0
0
VERTEX
8
Layer 1
10
58.914112
20
11.079256
70
0
0
VERTEX
8
Layer 1
10
58.588895
20
10.660332
70
0
0
VERTEX
8
Layer 1
10
58.473140
20
10.009898
70
0
0
VERTEX
8
Layer 1
10
58.588895
20
9.353951
70
0
0
VERTEX
8
Layer 1
10
58.914112
20
8.940540
70
0
0
VERTEX
8
Layer 1
10
59.377134
20
8.797224
70
0
0
VERTEX
8
Layer 1
10
59.377134
20
8.797224
70
0
0
SEQEND
8
Layer 1
0
POLYLINE
8
Layer 1
62
7
70
1
10
0.000000
20
0.000000
66
1
0
VERTEX
8
Layer 1
10
64.825637
20
8.532640
70
0
0
VERTEX
8
Layer 1
10
64.825637
20
11.095793
70
0
0
VERTEX
8
Layer 1
10
64.346080
20
10.991062
70
0
0
VERTEX
8
Layer 1
10
64.346080
20
11.233597
70
0
0
VERTEX
8
Layer 1
10
64.941392
20
11.492668
70
0
0
VERTEX
8
Layer 1
10
65.183927
20
11.492668
70
0
0
VERTEX
8
Layer 1
10
65.183927
20
8.532640
70
0
0
VERTEX
8
Layer 1
10
64.825637
20
8.532640
70
0
0
SEQEND
8
Layer 1
0
POLYLINE
8
Layer 1
62
7
70
1
10
0.000000
20
0.000000
66
1
0
VERTEX
8
Layer 1
10
69.139883
20
8.532640
70
0
0
VERTEX
8
Layer 1
10
69.139883
20
8.780687
70
0
0
VERTEX
8
Layer 1
10
69.707636
20
9.260245
70
0
0
VERTEX
8
Layer 1
10
70.187193
20
9.739802
70
0
0
VERTEX
8
Layer 1
10
70.517923
20
10.202823
70
0
0
VERTEX
8
Layer 1
10
70.639190
20
10.643796
70
0
0
VERTEX
8
Layer 1
10
70.584068
20
10.935940
70
0
0
VERTEX
8
Layer 1
10
70.413192
20
11.156426
70
0
0
VERTEX
8
Layer 1
10
70.093487
20
11.239109
70
0
0
VERTEX
8
Layer 1
10
69.768269
20
11.150914
70
0
0
VERTEX
8
Layer 1
10
69.569832
20
10.919404
70
0
0
VERTEX
8
Layer 1
10
69.503686
20
10.610723
70
0
0
VERTEX
8
Layer 1
10
69.161932
20
10.610723
70
0
0
VERTEX
8
Layer 1
10
69.283200
20
11.112329
70
0
0
VERTEX
8
Layer 1
10
69.619441
20
11.432034
70
0
0
VERTEX
8
Layer 1
10
70.098999
20
11.542277
70
0
0
VERTEX
8
Layer 1
10
70.738409
20
11.321791
70
0
0
VERTEX
8
Layer 1
10
70.928234
20
11.045839
70
0
0
VERTEX
8
Layer 1
10
70.991968
20
10.660332
70
0
0
VERTEX
8
Layer 1
10
70.859676
20
10.136677
70
0
0
VERTEX
8
Layer 1
10
70.528947
20
9.646096
70
0
0
VERTEX
8
Layer 1
10
70.093487
20
9.199611
70
0
0
VERTEX
8
Layer 1
10
69.663538
20
8.830296
70
0
0
VERTEX
8
Layer 1
10
71.096699
20
8.830296
70
0
0
VERTEX
8
Layer 1
10
71.096699
20
8.532640
70
0
0
VERTEX
8
Layer 1
10
69.139883
20
8.532640
70
0
0
SEQEND
8
Layer 1
0
POLYLINE
8
Layer 1
62
7
70
1
10
0.000000
20
0.000000
66
1
0
VERTEX
8
Layer 1
10
74.937383
20
8.532640
70
0
0
VERTEX
8
Layer 1
10
74.937383
20
8.780687
70
0
0
VERTEX
8
Layer 1
10
75.505136
20
9.260245
70
0
0
VERTEX
8
Layer 1
10
75.984693
20
9.739802
70
0
0
VERTEX
8
Layer 1
10
76.315423
20
10.202823
70
0
0
VERTEX
8
Layer 1
10
76.436690
20
10.643796
70
0
0
VERTEX
8
Layer 1
10
76.381568
20
10.935940
70
0
0
VERTEX
8
Layer 1
10
76.210692
20
11.156426
70
0
0
VERTEX
8
Layer 1
10
75.890987
20
11.239109
70
0
0
VERTEX
8
Layer 1
10
75.565769
20
11.150914
70
0
0
VERTEX
8
Layer 1
10
75.367332
20
10.919404
70
0
0
VERTEX
8
Layer 1
10
75.301186
20
10.610723
70
0
0
VERTEX
8
Layer 1
10
74.959432
20
10.610723
70
0
0
VERTEX
8
Layer 1
10
75.080700
20
11.112329
70
0
0
VERTEX
8
Layer 1
10
75.416941
20
11.432034
70
0
0
VERTEX
8
Layer 1
10
75.896499
20
11.542277
70
0
0
VERTEX
8
Layer 1
10
76.535909
20
11.321791
70
0
0
VERTEX
8
Layer 1
10
76.725734
20
11.045839
70
0
0
VERTEX
8
Layer 1
10
76.789468
20
10.660332
70
0
0
VERTEX
8
Layer 1
10
76.657176
20
10.136677
70
0
0
VERTEX
8
Layer 1
10
76.326447
20
9.646096
70
0
0
VERTEX
8
Layer 1
10
75.890987
20
9.199611
70
0
0
VERTEX
8
Layer 1
10
75.461038
20
8.830296
70
0
0
VERTEX
8
Layer 1
10
76.894199
20
8.830296
70
0
0
VERTEX
8
Layer 1
10
76.894199
20
8.532640
70
0
0
VERTEX
8
Layer 1
10
74.937383
20
8.532640
70
0
0
SEQEND
8
Layer 1
 0 
ENDSEC
 0 
EOF