999
"DXF R12 Output" (www.mydxf.blogspot.com)
 0 
SECTION
 2 
HEADER
 9 
$ACADVER
 1 
AC1009
 9 
$EXTMIN
 10 
 0 
 20 
 0 
 9 
$EXTMAX
 10 
 8.5 
 20 
 11 
 0 
ENDSEC
 0 
SECTION
 2 
ENTITIES
0
POLYLINE
8
Layer 1
62
7
70
1
10
0.000000
20
0.000000
66
1
0
VERTEX
8
Layer 1
10
0.000000
20
92.604200
70
0
0
VERTEX
8
Layer 1
10
92.427836
20
92.604200
70
0
0
VERTEX
8
Layer 1
10
92.427836
20
0.176364
70
0
0
VERTEX
8
Layer 1
10
0.000000
20
0.176364
70
0
0
VERTEX
8
Layer 1
10
0.000000
20
92.604200
70
0
0
SEQEND
8
Layer 1
0
POLYLINE
8
Layer 1
62
7
70
1
10
0.000000
20
0.000000
66
1
0
VERTEX
8
Layer 1
10
0.000000
20
92.604200
70
0
0
VERTEX
8
Layer 1
10
92.427836
20
92.604200
70
0
0
VERTEX
8
Layer 1
10
92.427836
20
0.176364
70
0
0
VERTEX
8
Layer 1
10
0.000000
20
0.176364
70
0
0
VERTEX
8
Layer 1
10
0.000000
20
92.604200
70
0
0
SEQEND
8
Layer 1
0
POLYLINE
8
Layer 1
62
7
70
1
10
0.000000
20
0.000000
66
1
0
VERTEX
8
Layer 1
10
16.690650
20
8.483031
70
0
0
VERTEX
8
Layer 1
10
15.940996
20
8.675956
70
0
0
VERTEX
8
Layer 1
10
15.450414
20
9.210635
70
0
0
VERTEX
8
Layer 1
10
15.279538
20
10.009898
70
0
0
VERTEX
8
Layer 1
10
15.450414
20
10.809161
70
0
0
VERTEX
8
Layer 1
10
15.940996
20
11.349352
70
0
0
VERTEX
8
Layer 1
10
16.690650
20
11.542277
70
0
0
VERTEX
8
Layer 1
10
17.517473
20
11.299742
70
0
0
VERTEX
8
Layer 1
10
17.925373
20
10.621747
70
0
0
VERTEX
8
Layer 1
10
17.534010
20
10.621747
70
0
0
VERTEX
8
Layer 1
10
17.258402
20
11.062720
70
0
0
VERTEX
8
Layer 1
10
16.690650
20
11.228084
70
0
0
VERTEX
8
Layer 1
10
16.139434
20
11.079256
70
0
0
VERTEX
8
Layer 1
10
15.770120
20
10.660332
70
0
0
VERTEX
8
Layer 1
10
15.643340
20
10.009898
70
0
0
VERTEX
8
Layer 1
10
15.770120
20
9.353951
70
0
0
VERTEX
8
Layer 1
10
16.139434
20
8.940540
70
0
0
VERTEX
8
Layer 1
10
16.690650
20
8.797224
70
0
0
VERTEX
8
Layer 1
10
17.258402
20
8.957076
70
0
0
VERTEX
8
Layer 1
10
17.534010
20
9.392536
70
0
0
VERTEX
8
Layer 1
10
17.925373
20
9.392536
70
0
0
VERTEX
8
Layer 1
10
17.517473
20
8.720053
70
0
0
VERTEX
8
Layer 1
10
16.690650
20
8.483031
70
0
0
VERTEX
8
Layer 1
10
16.690650
20
8.483031
70
0
0
SEQEND
8
Layer 1
0
POLYLINE
8
Layer 1
62
7
70
1
10
0.000000
20
0.000000
66
1
0
VERTEX
8
Layer 1
10
21.817693
20
8.532640
70
0
0
VERTEX
8
Layer 1
10
21.817693
20
11.492668
70
0
0
VERTEX
8
Layer 1
10
22.170471
20
11.492668
70
0
0
VERTEX
8
Layer 1
10
22.170471
20
10.186287
70
0
0
VERTEX
8
Layer 1
10
23.708362
20
10.186287
70
0
0
VERTEX
8
Layer 1
10
23.708362
20
11.492668
70
0
0
VERTEX
8
Layer 1
10
24.061141
20
11.492668
70
0
0
VERTEX
8
Layer 1
10
24.061141
20
8.532640
70
0
0
VERTEX
8
Layer 1
10
23.708362
20
8.532640
70
0
0
VERTEX
8
Layer 1
10
23.708362
20
9.894143
70
0
0
VERTEX
8
Layer 1
10
22.170471
20
9.894143
70
0
0
VERTEX
8
Layer 1
10
22.170471
20
8.532640
70
0
0
VERTEX
8
Layer 1
10
21.817693
20
8.532640
70
0
0
SEQEND
8
Layer 1
0
POLYLINE
8
Layer 1
62
7
70
1
10
0.000000
20
0.000000
66
1
0
VERTEX
8
Layer 1
10
27.879480
20
8.532640
70
0
0
VERTEX
8
Layer 1
10
28.970887
20
11.492668
70
0
0
VERTEX
8
Layer 1
10
29.345713
20
11.492668
70
0
0
VERTEX
8
Layer 1
10
30.431608
20
8.532640
70
0
0
VERTEX
8
Layer 1
10
30.056781
20
8.532640
70
0
0
VERTEX
8
Layer 1
10
29.786686
20
9.293318
70
0
0
VERTEX
8
Layer 1
10
28.524402
20
9.293318
70
0
0
VERTEX
8
Layer 1
10
28.254306
20
8.532640
70
0
0
VERTEX
8
Layer 1
10
27.879480
20
8.532640
70
0
0
SEQEND
8
Layer 1
0
POLYLINE
8
Layer 1
62
7
70
1
10
0.000000
20
0.000000
66
1
0
VERTEX
8
Layer 1
10
28.634645
20
9.579950
70
0
0
VERTEX
8
Layer 1
10
29.681955
20
9.579950
70
0
0
VERTEX
8
Layer 1
10
29.158300
20
11.046183
70
0
0
VERTEX
8
Layer 1
10
28.634645
20
9.579950
70
0
0
SEQEND
8
Layer 1
0
POLYLINE
8
Layer 1
62
7
70
1
10
0.000000
20
0.000000
66
1
0
VERTEX
8
Layer 1
10
35.597759
20
8.483031
70
0
0
VERTEX
8
Layer 1
10
34.831569
20
8.675956
70
0
0
VERTEX
8
Layer 1
10
34.318939
20
9.210635
70
0
0
VERTEX
8
Layer 1
10
34.137038
20
10.009898
70
0
0
VERTEX
8
Layer 1
10
34.318939
20
10.809161
70
0
0
VERTEX
8
Layer 1
10
34.831569
20
11.349352
70
0
0
VERTEX
8
Layer 1
10
35.597759
20
11.542277
70
0
0
VERTEX
8
Layer 1
10
36.358437
20
11.349352
70
0
0
VERTEX
8
Layer 1
10
36.871067
20
10.809161
70
0
0
VERTEX
8
Layer 1
10
37.052968
20
10.009898
70
0
0
VERTEX
8
Layer 1
10
36.871067
20
9.210635
70
0
0
VERTEX
8
Layer 1
10
36.358437
20
8.675956
70
0
0
VERTEX
8
Layer 1
10
35.597759
20
8.483031
70
0
0
VERTEX
8
Layer 1
10
35.597759
20
8.483031
70
0
0
SEQEND
8
Layer 1
0
POLYLINE
8
Layer 1
62
7
70
1
10
0.000000
20
0.000000
66
1
0
VERTEX
8
Layer 1
10
35.597759
20
8.797224
70
0
0
VERTEX
8
Layer 1
10
36.165511
20
8.940540
70
0
0
VERTEX
8
Layer 1
10
36.551362
20
9.353951
70
0
0
VERTEX
8
Layer 1
10
36.689166
20
10.009898
70
0
0
VERTEX
8
Layer 1
10
36.551362
20
10.660332
70
0
0
VERTEX
8
Layer 1
10
36.165511
20
11.079256
70
0
0
VERTEX
8
Layer 1
10
35.597759
20
11.228084
70
0
0
VERTEX
8
Layer 1
10
35.024495
20
11.079256
70
0
0
VERTEX
8
Layer 1
10
34.638644
20
10.660332
70
0
0
VERTEX
8
Layer 1
10
34.500840
20
10.009898
70
0
0
VERTEX
8
Layer 1
10
34.638644
20
9.353951
70
0
0
VERTEX
8
Layer 1
10
35.024495
20
8.940540
70
0
0
VERTEX
8
Layer 1
10
35.597759
20
8.797224
70
0
0
VERTEX
8
Layer 1
10
35.597759
20
8.797224
70
0
0
SEQEND
8
Layer 1
0
POLYLINE
8
Layer 1
62
7
70
1
10
0.000000
20
0.000000
66
1
0
VERTEX
8
Layer 1
10
41.888272
20
8.483031
70
0
0
VERTEX
8
Layer 1
10
41.320520
20
8.598786
70
0
0
VERTEX
8
Layer 1
10
40.945693
20
8.929515
70
0
0
VERTEX
8
Layer 1
10
40.818913
20
9.420097
70
0
0
VERTEX
8
Layer 1
10
41.188228
20
9.420097
70
0
0
VERTEX
8
Layer 1
10
41.265398
20
9.100392
70
0
0
VERTEX
8
Layer 1
10
41.502421
20
8.868882
70
0
0
VERTEX
8
Layer 1
10
41.888272
20
8.780687
70
0
0
VERTEX
8
Layer 1
10
42.351293
20
8.924003
70
0
0
VERTEX
8
Layer 1
10
42.516657
20
9.287805
70
0
0
VERTEX
8
Layer 1
10
42.439487
20
9.568925
70
0
0
VERTEX
8
Layer 1
10
42.235537
20
9.745314
70
0
0
VERTEX
8
Layer 1
10
41.937881
20
9.861070
70
0
0
VERTEX
8
Layer 1
10
41.590615
20
9.976825
70
0
0
VERTEX
8
Layer 1
10
41.083497
20
10.268969
70
0
0
VERTEX
8
Layer 1
10
40.918132
20
10.731990
70
0
0
VERTEX
8
Layer 1
10
41.028375
20
11.150914
70
0
0
VERTEX
8
Layer 1
10
41.353592
20
11.437546
70
0
0
VERTEX
8
Layer 1
10
41.849687
20
11.542277
70
0
0
VERTEX
8
Layer 1
10
42.340268
20
11.437546
70
0
0
VERTEX
8
Layer 1
10
42.665486
20
11.145402
70
0
0
VERTEX
8
Layer 1
10
42.786753
20
10.720966
70
0
0
VERTEX
8
Layer 1
10
42.417439
20
10.720966
70
0
0
VERTEX
8
Layer 1
10
42.351293
20
10.963501
70
0
0
VERTEX
8
Layer 1
10
42.158367
20
11.161939
70
0
0
VERTEX
8
Layer 1
10
41.838662
20
11.239109
70
0
0
VERTEX
8
Layer 1
10
41.441787
20
11.117841
70
0
0
VERTEX
8
Layer 1
10
41.287447
20
10.765063
70
0
0
VERTEX
8
Layer 1
10
41.392178
20
10.472919
70
0
0
VERTEX
8
Layer 1
10
41.695346
20
10.307554
70
0
0
VERTEX
8
Layer 1
10
42.147343
20
10.158726
70
0
0
VERTEX
8
Layer 1
10
42.522170
20
9.976825
70
0
0
VERTEX
8
Layer 1
10
42.786753
20
9.717754
70
0
0
VERTEX
8
Layer 1
10
42.885972
20
9.304342
70
0
0
VERTEX
8
Layer 1
10
42.775729
20
8.907467
70
0
0
VERTEX
8
Layer 1
10
42.439487
20
8.598786
70
0
0
VERTEX
8
Layer 1
10
41.888272
20
8.483031
70
0
0
VERTEX
8
Layer 1
10
41.888272
20
8.483031
70
0
0
SEQEND
8
Layer 1
0
POLYLINE
8
Layer 1
62
7
70
1
10
0.000000
20
0.000000
66
1
0
VERTEX
8
Layer 1
10
47.208965
20
9.431121
70
0
0
VERTEX
8
Layer 1
10
46.955406
20
9.497267
70
0
0
VERTEX
8
Layer 1
10
46.767993
20
9.684681
70
0
0
VERTEX
8
Layer 1
10
46.701847
20
9.938240
70
0
0
VERTEX
8
Layer 1
10
46.767993
20
10.197311
70
0
0
VERTEX
8
Layer 1
10
46.955406
20
10.384725
70
0
0
VERTEX
8
Layer 1
10
47.208965
20
10.450870
70
0
0
VERTEX
8
Layer 1
10
47.468037
20
10.384725
70
0
0
VERTEX
8
Layer 1
10
47.649938
20
10.197311
70
0
0
VERTEX
8
Layer 1
10
47.716084
20
9.938240
70
0
0
VERTEX
8
Layer 1
10
47.649938
20
9.684681
70
0
0
VERTEX
8
Layer 1
10
47.468037
20
9.497267
70
0
0
VERTEX
8
Layer 1
10
47.208965
20
9.431121
70
0
0
VERTEX
8
Layer 1
10
47.208965
20
9.431121
70
0
0
SEQEND
8
Layer 1
0
POLYLINE
8
Layer 1
62
7
70
1
10
0.000000
20
0.000000
66
1
0
VERTEX
8
Layer 1
10
52.813034
20
8.483031
70
0
0
VERTEX
8
Layer 1
10
52.135038
20
8.675956
70
0
0
VERTEX
8
Layer 1
10
51.694066
20
9.210635
70
0
0
VERTEX
8
Layer 1
10
51.545238
20
10.009898
70
0
0
VERTEX
8
Layer 1
10
51.694066
20
10.809161
70
0
0
VERTEX
8
Layer 1
10
52.135038
20
11.349352
70
0
0
VERTEX
8
Layer 1
10
52.813034
20
11.542277
70
0
0
VERTEX
8
Layer 1
10
53.485517
20
11.349352
70
0
0
VERTEX
8
Layer 1
10
53.920977
20
10.809161
70
0
0
VERTEX
8
Layer 1
10
54.075317
20
10.009898
70
0
0
VERTEX
8
Layer 1
10
53.920977
20
9.210635
70
0
0
VERTEX
8
Layer 1
10
53.485517
20
8.675956
70
0
0
VERTEX
8
Layer 1
10
52.813034
20
8.483031
70
0
0
VERTEX
8
Layer 1
10
52.813034
20
8.483031
70
0
0
SEQEND
8
Layer 1
0
POLYLINE
8
Layer 1
62
7
70
1
10
0.000000
20
0.000000
66
1
0
VERTEX
8
Layer 1
10
52.813034
20
8.797224
70
0
0
VERTEX
8
Layer 1
10
53.276055
20
8.940540
70
0
0
VERTEX
8
Layer 1
10
53.595760
20
9.353951
70
0
0
VERTEX
8
Layer 1
10
53.717027
20
10.009898
70
0
0
VERTEX
8
Layer 1
10
53.595760
20
10.660332
70
0
0
VERTEX
8
Layer 1
10
53.276055
20
11.079256
70
0
0
VERTEX
8
Layer 1
10
52.813034
20
11.228084
70
0
0
VERTEX
8
Layer 1
10
52.350012
20
11.079256
70
0
0
VERTEX
8
Layer 1
10
52.024795
20
10.660332
70
0
0
VERTEX
8
Layer 1
10
51.909040
20
10.009898
70
0
0
VERTEX
8
Layer 1
10
52.024795
20
9.353951
70
0
0
VERTEX
8
Layer 1
10
52.350012
20
8.940540
70
0
0
VERTEX
8
Layer 1
10
52.813034
20
8.797224
70
0
0
VERTEX
8
Layer 1
10
52.813034
20
8.797224
70
0
0
SEQEND
8
Layer 1
0
POLYLINE
8
Layer 1
62
7
70
1
10
0.000000
20
0.000000
66
1
0
VERTEX
8
Layer 1
10
59.121434
20
8.483031
70
0
0
VERTEX
8
Layer 1
10
58.443438
20
8.675956
70
0
0
VERTEX
8
Layer 1
10
58.002466
20
9.210635
70
0
0
VERTEX
8
Layer 1
10
57.853638
20
10.009898
70
0
0
VERTEX
8
Layer 1
10
58.002466
20
10.809161
70
0
0
VERTEX
8
Layer 1
10
58.443438
20
11.349352
70
0
0
VERTEX
8
Layer 1
10
59.121434
20
11.542277
70
0
0
VERTEX
8
Layer 1
10
59.793917
20
11.349352
70
0
0
VERTEX
8
Layer 1
10
60.229377
20
10.809161
70
0
0
VERTEX
8
Layer 1
10
60.383717
20
10.009898
70
0
0
VERTEX
8
Layer 1
10
60.229377
20
9.210635
70
0
0
VERTEX
8
Layer 1
10
59.793917
20
8.675956
70
0
0
VERTEX
8
Layer 1
10
59.121434
20
8.483031
70
0
0
VERTEX
8
Layer 1
10
59.121434
20
8.483031
70
0
0
SEQEND
8
Layer 1
0
POLYLINE
8
Layer 1
62
7
70
1
10
0.000000
20
0.000000
66
1
0
VERTEX
8
Layer 1
10
59.121434
20
8.797224
70
0
0
VERTEX
8
Layer 1
10
59.584455
20
8.940540
70
0
0
VERTEX
8
Layer 1
10
59.904160
20
9.353951
70
0
0
VERTEX
8
Layer 1
10
60.025427
20
10.009898
70
0
0
VERTEX
8
Layer 1
10
59.904160
20
10.660332
70
0
0
VERTEX
8
Layer 1
10
59.584455
20
11.079256
70
0
0
VERTEX
8
Layer 1
10
59.121434
20
11.228084
70
0
0
VERTEX
8
Layer 1
10
58.658412
20
11.079256
70
0
0
VERTEX
8
Layer 1
10
58.333195
20
10.660332
70
0
0
VERTEX
8
Layer 1
10
58.217440
20
10.009898
70
0
0
VERTEX
8
Layer 1
10
58.333195
20
9.353951
70
0
0
VERTEX
8
Layer 1
10
58.658412
20
8.940540
70
0
0
VERTEX
8
Layer 1
10
59.121434
20
8.797224
70
0
0
VERTEX
8
Layer 1
10
59.121434
20
8.797224
70
0
0
SEQEND
8
Layer 1
0
POLYLINE
8
Layer 1
62
7
70
1
10
0.000000
20
0.000000
66
1
0
VERTEX
8
Layer 1
10
64.569837
20
8.532640
70
0
0
VERTEX
8
Layer 1
10
64.569837
20
11.095793
70
0
0
VERTEX
8
Layer 1
10
64.090280
20
10.991062
70
0
0
VERTEX
8
Layer 1
10
64.090280
20
11.233597
70
0
0
VERTEX
8
Layer 1
10
64.685592
20
11.492668
70
0
0
VERTEX
8
Layer 1
10
64.928127
20
11.492668
70
0
0
VERTEX
8
Layer 1
10
64.928127
20
8.532640
70
0
0
VERTEX
8
Layer 1
10
64.569837
20
8.532640
70
0
0
SEQEND
8
Layer 1
0
POLYLINE
8
Layer 1
62
7
70
1
10
0.000000
20
0.000000
66
1
0
VERTEX
8
Layer 1
10
68.884084
20
8.532640
70
0
0
VERTEX
8
Layer 1
10
68.884084
20
8.780687
70
0
0
VERTEX
8
Layer 1
10
69.451836
20
9.260245
70
0
0
VERTEX
8
Layer 1
10
69.931393
20
9.739802
70
0
0
VERTEX
8
Layer 1
10
70.262123
20
10.202823
70
0
0
VERTEX
8
Layer 1
10
70.383390
20
10.643796
70
0
0
VERTEX
8
Layer 1
10
70.328268
20
10.935940
70
0
0
VERTEX
8
Layer 1
10
70.157392
20
11.156426
70
0
0
VERTEX
8
Layer 1
10
69.837687
20
11.239109
70
0
0
VERTEX
8
Layer 1
10
69.512469
20
11.150914
70
0
0
VERTEX
8
Layer 1
10
69.314032
20
10.919404
70
0
0
VERTEX
8
Layer 1
10
69.247886
20
10.610723
70
0
0
VERTEX
8
Layer 1
10
68.906132
20
10.610723
70
0
0
VERTEX
8
Layer 1
10
69.027400
20
11.112329
70
0
0
VERTEX
8
Layer 1
10
69.363641
20
11.432034
70
0
0
VERTEX
8
Layer 1
10
69.843199
20
11.542277
70
0
0
VERTEX
8
Layer 1
10
70.482609
20
11.321791
70
0
0
VERTEX
8
Layer 1
10
70.672434
20
11.045839
70
0
0
VERTEX
8
Layer 1
10
70.736168
20
10.660332
70
0
0
VERTEX
8
Layer 1
10
70.603876
20
10.136677
70
0
0
VERTEX
8
Layer 1
10
70.273147
20
9.646096
70
0
0
VERTEX
8
Layer 1
10
69.837687
20
9.199611
70
0
0
VERTEX
8
Layer 1
10
69.407738
20
8.830296
70
0
0
VERTEX
8
Layer 1
10
70.840899
20
8.830296
70
0
0
VERTEX
8
Layer 1
10
70.840899
20
8.532640
70
0
0
VERTEX
8
Layer 1
10
68.884084
20
8.532640
70
0
0
SEQEND
8
Layer 1
0
POLYLINE
8
Layer 1
62
7
70
1
10
0.000000
20
0.000000
66
1
0
VERTEX
8
Layer 1
10
75.882934
20
8.483031
70
0
0
VERTEX
8
Layer 1
10
75.204938
20
8.675956
70
0
0
VERTEX
8
Layer 1
10
74.763966
20
9.210635
70
0
0
VERTEX
8
Layer 1
10
74.615138
20
10.009898
70
0
0
VERTEX
8
Layer 1
10
74.763966
20
10.809161
70
0
0
VERTEX
8
Layer 1
10
75.204938
20
11.349352
70
0
0
VERTEX
8
Layer 1
10
75.882934
20
11.542277
70
0
0
VERTEX
8
Layer 1
10
76.555417
20
11.349352
70
0
0
VERTEX
8
Layer 1
10
76.990877
20
10.809161
70
0
0
VERTEX
8
Layer 1
10
77.145217
20
10.009898
70
0
0
VERTEX
8
Layer 1
10
76.990877
20
9.210635
70
0
0
VERTEX
8
Layer 1
10
76.555417
20
8.675956
70
0
0
VERTEX
8
Layer 1
10
75.882934
20
8.483031
70
0
0
VERTEX
8
Layer 1
10
75.882934
20
8.483031
70
0
0
SEQEND
8
Layer 1
0
POLYLINE
8
Layer 1
62
7
70
1
10
0.000000
20
0.000000
66
1
0
VERTEX
8
Layer 1
10
75.882934
20
8.797224
70
0
0
VERTEX
8
Layer 1
10
76.345955
20
8.940540
70
0
0
VERTEX
8
Layer 1
10
76.665660
20
9.353951
70
0
0
VERTEX
8
Layer 1
10
76.786927
20
10.009898
70
0
0
VERTEX
8
Layer 1
10
76.665660
20
10.660332
70
0
0
VERTEX
8
Layer 1
10
76.345955
20
11.079256
70
0
0
VERTEX
8
Layer 1
10
75.882934
20
11.228084
70
0
0
VERTEX
8
Layer 1
10
75.419912
20
11.079256
70
0
0
VERTEX
8
Layer 1
10
75.094695
20
10.660332
70
0
0
VERTEX
8
Layer 1
10
74.978940
20
10.009898
70
0
0
VERTEX
8
Layer 1
10
75.094695
20
9.353951
70
0
0
VERTEX
8
Layer 1
10
75.419912
20
8.940540
70
0
0
VERTEX
8
Layer 1
10
75.882934
20
8.797224
70
0
0
VERTEX
8
Layer 1
10
75.882934
20
8.797224
70
0
0
SEQEND
8
Layer 1
 0 
ENDSEC
 0 
EOF