999
"DXF R12 Output" (www.mydxf.blogspot.com)
 0 
SECTION
 2 
HEADER
 9 
$ACADVER
 1 
AC1009
 9 
$EXTMIN
 10 
 0 
 20 
 0 
 9 
$EXTMAX
 10 
 8.5 
 20 
 11 
 0 
ENDSEC
 0 
SECTION
 2 
ENTITIES
0
POLYLINE
8
Layer 1
62
7
70
1
10
0.000000
20
0.000000
66
1
0
VERTEX
8
Layer 1
10
0.000000
20
92.604200
70
0
0
VERTEX
8
Layer 1
10
92.427836
20
92.604200
70
0
0
VERTEX
8
Layer 1
10
92.427836
20
0.176364
70
0
0
VERTEX
8
Layer 1
10
0.000000
20
0.176364
70
0
0
VERTEX
8
Layer 1
10
0.000000
20
92.604200
70
0
0
SEQEND
8
Layer 1
0
POLYLINE
8
Layer 1
62
7
70
1
10
0.000000
20
0.000000
66
1
0
VERTEX
8
Layer 1
10
0.000000
20
92.604200
70
0
0
VERTEX
8
Layer 1
10
92.427836
20
92.604200
70
0
0
VERTEX
8
Layer 1
10
92.427836
20
0.176364
70
0
0
VERTEX
8
Layer 1
10
0.000000
20
0.176364
70
0
0
VERTEX
8
Layer 1
10
0.000000
20
92.604200
70
0
0
SEQEND
8
Layer 1
0
POLYLINE
8
Layer 1
62
7
70
1
10
0.000000
20
0.000000
66
1
0
VERTEX
8
Layer 1
10
16.991650
20
8.483031
70
0
0
VERTEX
8
Layer 1
10
16.241996
20
8.675956
70
0
0
VERTEX
8
Layer 1
10
15.751414
20
9.210635
70
0
0
VERTEX
8
Layer 1
10
15.580538
20
10.009898
70
0
0
VERTEX
8
Layer 1
10
15.751414
20
10.809161
70
0
0
VERTEX
8
Layer 1
10
16.241996
20
11.349352
70
0
0
VERTEX
8
Layer 1
10
16.991650
20
11.542277
70
0
0
VERTEX
8
Layer 1
10
17.818473
20
11.299742
70
0
0
VERTEX
8
Layer 1
10
18.226373
20
10.621747
70
0
0
VERTEX
8
Layer 1
10
17.835010
20
10.621747
70
0
0
VERTEX
8
Layer 1
10
17.559402
20
11.062720
70
0
0
VERTEX
8
Layer 1
10
16.991650
20
11.228084
70
0
0
VERTEX
8
Layer 1
10
16.440434
20
11.079256
70
0
0
VERTEX
8
Layer 1
10
16.071120
20
10.660332
70
0
0
VERTEX
8
Layer 1
10
15.944340
20
10.009898
70
0
0
VERTEX
8
Layer 1
10
16.071120
20
9.353951
70
0
0
VERTEX
8
Layer 1
10
16.440434
20
8.940540
70
0
0
VERTEX
8
Layer 1
10
16.991650
20
8.797224
70
0
0
VERTEX
8
Layer 1
10
17.559402
20
8.957076
70
0
0
VERTEX
8
Layer 1
10
17.835010
20
9.392536
70
0
0
VERTEX
8
Layer 1
10
18.226373
20
9.392536
70
0
0
VERTEX
8
Layer 1
10
17.818473
20
8.720053
70
0
0
VERTEX
8
Layer 1
10
16.991650
20
8.483031
70
0
0
VERTEX
8
Layer 1
10
16.991650
20
8.483031
70
0
0
SEQEND
8
Layer 1
0
POLYLINE
8
Layer 1
62
7
70
1
10
0.000000
20
0.000000
66
1
0
VERTEX
8
Layer 1
10
22.118793
20
8.532640
70
0
0
VERTEX
8
Layer 1
10
22.118793
20
11.492668
70
0
0
VERTEX
8
Layer 1
10
22.471571
20
11.492668
70
0
0
VERTEX
8
Layer 1
10
22.471571
20
10.186287
70
0
0
VERTEX
8
Layer 1
10
24.009463
20
10.186287
70
0
0
VERTEX
8
Layer 1
10
24.009463
20
11.492668
70
0
0
VERTEX
8
Layer 1
10
24.362240
20
11.492668
70
0
0
VERTEX
8
Layer 1
10
24.362240
20
8.532640
70
0
0
VERTEX
8
Layer 1
10
24.009463
20
8.532640
70
0
0
VERTEX
8
Layer 1
10
24.009463
20
9.894143
70
0
0
VERTEX
8
Layer 1
10
22.471571
20
9.894143
70
0
0
VERTEX
8
Layer 1
10
22.471571
20
8.532640
70
0
0
VERTEX
8
Layer 1
10
22.118793
20
8.532640
70
0
0
SEQEND
8
Layer 1
0
POLYLINE
8
Layer 1
62
7
70
1
10
0.000000
20
0.000000
66
1
0
VERTEX
8
Layer 1
10
28.180580
20
8.532640
70
0
0
VERTEX
8
Layer 1
10
29.271987
20
11.492668
70
0
0
VERTEX
8
Layer 1
10
29.646813
20
11.492668
70
0
0
VERTEX
8
Layer 1
10
30.732708
20
8.532640
70
0
0
VERTEX
8
Layer 1
10
30.357881
20
8.532640
70
0
0
VERTEX
8
Layer 1
10
30.087786
20
9.293318
70
0
0
VERTEX
8
Layer 1
10
28.825502
20
9.293318
70
0
0
VERTEX
8
Layer 1
10
28.555406
20
8.532640
70
0
0
VERTEX
8
Layer 1
10
28.180580
20
8.532640
70
0
0
SEQEND
8
Layer 1
0
POLYLINE
8
Layer 1
62
7
70
1
10
0.000000
20
0.000000
66
1
0
VERTEX
8
Layer 1
10
28.935745
20
9.579950
70
0
0
VERTEX
8
Layer 1
10
29.983055
20
9.579950
70
0
0
VERTEX
8
Layer 1
10
29.459400
20
11.046183
70
0
0
VERTEX
8
Layer 1
10
28.935745
20
9.579950
70
0
0
SEQEND
8
Layer 1
0
POLYLINE
8
Layer 1
62
7
70
1
10
0.000000
20
0.000000
66
1
0
VERTEX
8
Layer 1
10
35.898759
20
8.483031
70
0
0
VERTEX
8
Layer 1
10
35.132569
20
8.675956
70
0
0
VERTEX
8
Layer 1
10
34.619939
20
9.210635
70
0
0
VERTEX
8
Layer 1
10
34.438038
20
10.009898
70
0
0
VERTEX
8
Layer 1
10
34.619939
20
10.809161
70
0
0
VERTEX
8
Layer 1
10
35.132569
20
11.349352
70
0
0
VERTEX
8
Layer 1
10
35.898759
20
11.542277
70
0
0
VERTEX
8
Layer 1
10
36.659437
20
11.349352
70
0
0
VERTEX
8
Layer 1
10
37.172067
20
10.809161
70
0
0
VERTEX
8
Layer 1
10
37.353968
20
10.009898
70
0
0
VERTEX
8
Layer 1
10
37.172067
20
9.210635
70
0
0
VERTEX
8
Layer 1
10
36.659437
20
8.675956
70
0
0
VERTEX
8
Layer 1
10
35.898759
20
8.483031
70
0
0
VERTEX
8
Layer 1
10
35.898759
20
8.483031
70
0
0
SEQEND
8
Layer 1
0
POLYLINE
8
Layer 1
62
7
70
1
10
0.000000
20
0.000000
66
1
0
VERTEX
8
Layer 1
10
35.898759
20
8.797224
70
0
0
VERTEX
8
Layer 1
10
36.466511
20
8.940540
70
0
0
VERTEX
8
Layer 1
10
36.852362
20
9.353951
70
0
0
VERTEX
8
Layer 1
10
36.990166
20
10.009898
70
0
0
VERTEX
8
Layer 1
10
36.852362
20
10.660332
70
0
0
VERTEX
8
Layer 1
10
36.466511
20
11.079256
70
0
0
VERTEX
8
Layer 1
10
35.898759
20
11.228084
70
0
0
VERTEX
8
Layer 1
10
35.325495
20
11.079256
70
0
0
VERTEX
8
Layer 1
10
34.939644
20
10.660332
70
0
0
VERTEX
8
Layer 1
10
34.801840
20
10.009898
70
0
0
VERTEX
8
Layer 1
10
34.939644
20
9.353951
70
0
0
VERTEX
8
Layer 1
10
35.325495
20
8.940540
70
0
0
VERTEX
8
Layer 1
10
35.898759
20
8.797224
70
0
0
VERTEX
8
Layer 1
10
35.898759
20
8.797224
70
0
0
SEQEND
8
Layer 1
0
POLYLINE
8
Layer 1
62
7
70
1
10
0.000000
20
0.000000
66
1
0
VERTEX
8
Layer 1
10
42.189272
20
8.483031
70
0
0
VERTEX
8
Layer 1
10
41.621520
20
8.598786
70
0
0
VERTEX
8
Layer 1
10
41.246693
20
8.929515
70
0
0
VERTEX
8
Layer 1
10
41.119913
20
9.420097
70
0
0
VERTEX
8
Layer 1
10
41.489228
20
9.420097
70
0
0
VERTEX
8
Layer 1
10
41.566398
20
9.100392
70
0
0
VERTEX
8
Layer 1
10
41.803421
20
8.868882
70
0
0
VERTEX
8
Layer 1
10
42.189272
20
8.780687
70
0
0
VERTEX
8
Layer 1
10
42.652293
20
8.924003
70
0
0
VERTEX
8
Layer 1
10
42.817657
20
9.287805
70
0
0
VERTEX
8
Layer 1
10
42.740487
20
9.568925
70
0
0
VERTEX
8
Layer 1
10
42.536537
20
9.745314
70
0
0
VERTEX
8
Layer 1
10
42.238881
20
9.861070
70
0
0
VERTEX
8
Layer 1
10
41.891615
20
9.976825
70
0
0
VERTEX
8
Layer 1
10
41.384497
20
10.268969
70
0
0
VERTEX
8
Layer 1
10
41.219132
20
10.731990
70
0
0
VERTEX
8
Layer 1
10
41.329375
20
11.150914
70
0
0
VERTEX
8
Layer 1
10
41.654592
20
11.437546
70
0
0
VERTEX
8
Layer 1
10
42.150687
20
11.542277
70
0
0
VERTEX
8
Layer 1
10
42.641268
20
11.437546
70
0
0
VERTEX
8
Layer 1
10
42.966486
20
11.145402
70
0
0
VERTEX
8
Layer 1
10
43.087753
20
10.720966
70
0
0
VERTEX
8
Layer 1
10
42.718439
20
10.720966
70
0
0
VERTEX
8
Layer 1
10
42.652293
20
10.963501
70
0
0
VERTEX
8
Layer 1
10
42.459367
20
11.161939
70
0
0
VERTEX
8
Layer 1
10
42.139662
20
11.239109
70
0
0
VERTEX
8
Layer 1
10
41.742787
20
11.117841
70
0
0
VERTEX
8
Layer 1
10
41.588447
20
10.765063
70
0
0
VERTEX
8
Layer 1
10
41.693178
20
10.472919
70
0
0
VERTEX
8
Layer 1
10
41.996346
20
10.307554
70
0
0
VERTEX
8
Layer 1
10
42.448343
20
10.158726
70
0
0
VERTEX
8
Layer 1
10
42.823170
20
9.976825
70
0
0
VERTEX
8
Layer 1
10
43.087753
20
9.717754
70
0
0
VERTEX
8
Layer 1
10
43.186972
20
9.304342
70
0
0
VERTEX
8
Layer 1
10
43.076729
20
8.907467
70
0
0
VERTEX
8
Layer 1
10
42.740487
20
8.598786
70
0
0
VERTEX
8
Layer 1
10
42.189272
20
8.483031
70
0
0
VERTEX
8
Layer 1
10
42.189272
20
8.483031
70
0
0
SEQEND
8
Layer 1
0
POLYLINE
8
Layer 1
62
7
70
1
10
0.000000
20
0.000000
66
1
0
VERTEX
8
Layer 1
10
47.510165
20
9.431121
70
0
0
VERTEX
8
Layer 1
10
47.256606
20
9.497267
70
0
0
VERTEX
8
Layer 1
10
47.069193
20
9.684681
70
0
0
VERTEX
8
Layer 1
10
47.003047
20
9.938240
70
0
0
VERTEX
8
Layer 1
10
47.069193
20
10.197311
70
0
0
VERTEX
8
Layer 1
10
47.256606
20
10.384725
70
0
0
VERTEX
8
Layer 1
10
47.510165
20
10.450870
70
0
0
VERTEX
8
Layer 1
10
47.769237
20
10.384725
70
0
0
VERTEX
8
Layer 1
10
47.951138
20
10.197311
70
0
0
VERTEX
8
Layer 1
10
48.017284
20
9.938240
70
0
0
VERTEX
8
Layer 1
10
47.951138
20
9.684681
70
0
0
VERTEX
8
Layer 1
10
47.769237
20
9.497267
70
0
0
VERTEX
8
Layer 1
10
47.510165
20
9.431121
70
0
0
VERTEX
8
Layer 1
10
47.510165
20
9.431121
70
0
0
SEQEND
8
Layer 1
0
POLYLINE
8
Layer 1
62
7
70
1
10
0.000000
20
0.000000
66
1
0
VERTEX
8
Layer 1
10
53.114334
20
8.483031
70
0
0
VERTEX
8
Layer 1
10
52.436338
20
8.675956
70
0
0
VERTEX
8
Layer 1
10
51.995366
20
9.210635
70
0
0
VERTEX
8
Layer 1
10
51.846538
20
10.009898
70
0
0
VERTEX
8
Layer 1
10
51.995366
20
10.809161
70
0
0
VERTEX
8
Layer 1
10
52.436338
20
11.349352
70
0
0
VERTEX
8
Layer 1
10
53.114334
20
11.542277
70
0
0
VERTEX
8
Layer 1
10
53.786817
20
11.349352
70
0
0
VERTEX
8
Layer 1
10
54.222277
20
10.809161
70
0
0
VERTEX
8
Layer 1
10
54.376617
20
10.009898
70
0
0
VERTEX
8
Layer 1
10
54.222277
20
9.210635
70
0
0
VERTEX
8
Layer 1
10
53.786817
20
8.675956
70
0
0
VERTEX
8
Layer 1
10
53.114334
20
8.483031
70
0
0
VERTEX
8
Layer 1
10
53.114334
20
8.483031
70
0
0
SEQEND
8
Layer 1
0
POLYLINE
8
Layer 1
62
7
70
1
10
0.000000
20
0.000000
66
1
0
VERTEX
8
Layer 1
10
53.114334
20
8.797224
70
0
0
VERTEX
8
Layer 1
10
53.577355
20
8.940540
70
0
0
VERTEX
8
Layer 1
10
53.897060
20
9.353951
70
0
0
VERTEX
8
Layer 1
10
54.018327
20
10.009898
70
0
0
VERTEX
8
Layer 1
10
53.897060
20
10.660332
70
0
0
VERTEX
8
Layer 1
10
53.577355
20
11.079256
70
0
0
VERTEX
8
Layer 1
10
53.114334
20
11.228084
70
0
0
VERTEX
8
Layer 1
10
52.651312
20
11.079256
70
0
0
VERTEX
8
Layer 1
10
52.326095
20
10.660332
70
0
0
VERTEX
8
Layer 1
10
52.210340
20
10.009898
70
0
0
VERTEX
8
Layer 1
10
52.326095
20
9.353951
70
0
0
VERTEX
8
Layer 1
10
52.651312
20
8.940540
70
0
0
VERTEX
8
Layer 1
10
53.114334
20
8.797224
70
0
0
VERTEX
8
Layer 1
10
53.114334
20
8.797224
70
0
0
SEQEND
8
Layer 1
0
POLYLINE
8
Layer 1
62
7
70
1
10
0.000000
20
0.000000
66
1
0
VERTEX
8
Layer 1
10
59.422634
20
8.483031
70
0
0
VERTEX
8
Layer 1
10
58.744638
20
8.675956
70
0
0
VERTEX
8
Layer 1
10
58.303666
20
9.210635
70
0
0
VERTEX
8
Layer 1
10
58.154838
20
10.009898
70
0
0
VERTEX
8
Layer 1
10
58.303666
20
10.809161
70
0
0
VERTEX
8
Layer 1
10
58.744638
20
11.349352
70
0
0
VERTEX
8
Layer 1
10
59.422634
20
11.542277
70
0
0
VERTEX
8
Layer 1
10
60.095117
20
11.349352
70
0
0
VERTEX
8
Layer 1
10
60.530577
20
10.809161
70
0
0
VERTEX
8
Layer 1
10
60.684917
20
10.009898
70
0
0
VERTEX
8
Layer 1
10
60.530577
20
9.210635
70
0
0
VERTEX
8
Layer 1
10
60.095117
20
8.675956
70
0
0
VERTEX
8
Layer 1
10
59.422634
20
8.483031
70
0
0
VERTEX
8
Layer 1
10
59.422634
20
8.483031
70
0
0
SEQEND
8
Layer 1
0
POLYLINE
8
Layer 1
62
7
70
1
10
0.000000
20
0.000000
66
1
0
VERTEX
8
Layer 1
10
59.422634
20
8.797224
70
0
0
VERTEX
8
Layer 1
10
59.885655
20
8.940540
70
0
0
VERTEX
8
Layer 1
10
60.205360
20
9.353951
70
0
0
VERTEX
8
Layer 1
10
60.326627
20
10.009898
70
0
0
VERTEX
8
Layer 1
10
60.205360
20
10.660332
70
0
0
VERTEX
8
Layer 1
10
59.885655
20
11.079256
70
0
0
VERTEX
8
Layer 1
10
59.422634
20
11.228084
70
0
0
VERTEX
8
Layer 1
10
58.959612
20
11.079256
70
0
0
VERTEX
8
Layer 1
10
58.634395
20
10.660332
70
0
0
VERTEX
8
Layer 1
10
58.518640
20
10.009898
70
0
0
VERTEX
8
Layer 1
10
58.634395
20
9.353951
70
0
0
VERTEX
8
Layer 1
10
58.959612
20
8.940540
70
0
0
VERTEX
8
Layer 1
10
59.422634
20
8.797224
70
0
0
VERTEX
8
Layer 1
10
59.422634
20
8.797224
70
0
0
SEQEND
8
Layer 1
0
POLYLINE
8
Layer 1
62
7
70
1
10
0.000000
20
0.000000
66
1
0
VERTEX
8
Layer 1
10
64.871137
20
8.532640
70
0
0
VERTEX
8
Layer 1
10
64.871137
20
11.095793
70
0
0
VERTEX
8
Layer 1
10
64.391580
20
10.991062
70
0
0
VERTEX
8
Layer 1
10
64.391580
20
11.233597
70
0
0
VERTEX
8
Layer 1
10
64.986892
20
11.492668
70
0
0
VERTEX
8
Layer 1
10
65.229427
20
11.492668
70
0
0
VERTEX
8
Layer 1
10
65.229427
20
8.532640
70
0
0
VERTEX
8
Layer 1
10
64.871137
20
8.532640
70
0
0
SEQEND
8
Layer 1
0
POLYLINE
8
Layer 1
62
7
70
1
10
0.000000
20
0.000000
66
1
0
VERTEX
8
Layer 1
10
70.155523
20
8.483031
70
0
0
VERTEX
8
Layer 1
10
69.642892
20
8.582249
70
0
0
VERTEX
8
Layer 1
10
69.279090
20
8.896442
70
0
0
VERTEX
8
Layer 1
10
69.130262
20
9.414585
70
0
0
VERTEX
8
Layer 1
10
69.494064
20
9.414585
70
0
0
VERTEX
8
Layer 1
10
69.664941
20
8.973613
70
0
0
VERTEX
8
Layer 1
10
70.155523
20
8.791711
70
0
0
VERTEX
8
Layer 1
10
70.624056
20
8.962588
70
0
0
VERTEX
8
Layer 1
10
70.783909
20
9.381512
70
0
0
VERTEX
8
Layer 1
10
70.684690
20
9.717754
70
0
0
VERTEX
8
Layer 1
10
70.420107
20
9.910679
70
0
0
VERTEX
8
Layer 1
10
70.056304
20
9.976825
70
0
0
VERTEX
8
Layer 1
10
69.835818
20
9.976825
70
0
0
VERTEX
8
Layer 1
10
69.835818
20
10.279994
70
0
0
VERTEX
8
Layer 1
10
70.056304
20
10.279994
70
0
0
VERTEX
8
Layer 1
10
70.502789
20
10.406773
70
0
0
VERTEX
8
Layer 1
10
70.668154
20
10.776088
70
0
0
VERTEX
8
Layer 1
10
70.535862
20
11.101305
70
0
0
VERTEX
8
Layer 1
10
70.155523
20
11.233597
70
0
0
VERTEX
8
Layer 1
10
69.758648
20
11.084768
70
0
0
VERTEX
8
Layer 1
10
69.598795
20
10.720966
70
0
0
VERTEX
8
Layer 1
10
69.240505
20
10.720966
70
0
0
VERTEX
8
Layer 1
10
69.367285
20
11.150914
70
0
0
VERTEX
8
Layer 1
10
69.686990
20
11.437546
70
0
0
VERTEX
8
Layer 1
10
70.155523
20
11.542277
70
0
0
VERTEX
8
Layer 1
10
70.635081
20
11.437546
70
0
0
VERTEX
8
Layer 1
10
70.927225
20
11.167451
70
0
0
VERTEX
8
Layer 1
10
71.026444
20
10.798136
70
0
0
VERTEX
8
Layer 1
10
70.899664
20
10.390237
70
0
0
VERTEX
8
Layer 1
10
70.535862
20
10.142190
70
0
0
VERTEX
8
Layer 1
10
70.971322
20
9.894143
70
0
0
VERTEX
8
Layer 1
10
71.142199
20
9.381512
70
0
0
VERTEX
8
Layer 1
10
71.031956
20
8.929515
70
0
0
VERTEX
8
Layer 1
10
70.701226
20
8.604298
70
0
0
VERTEX
8
Layer 1
10
70.155523
20
8.483031
70
0
0
VERTEX
8
Layer 1
10
70.155523
20
8.483031
70
0
0
SEQEND
8
Layer 1
0
POLYLINE
8
Layer 1
62
7
70
1
10
0.000000
20
0.000000
66
1
0
VERTEX
8
Layer 1
10
75.342428
20
8.532640
70
0
0
VERTEX
8
Layer 1
10
76.516517
20
11.189499
70
0
0
VERTEX
8
Layer 1
10
74.895943
20
11.189499
70
0
0
VERTEX
8
Layer 1
10
74.895943
20
11.492668
70
0
0
VERTEX
8
Layer 1
10
76.880319
20
11.492668
70
0
0
VERTEX
8
Layer 1
10
76.880319
20
11.228084
70
0
0
VERTEX
8
Layer 1
10
75.722767
20
8.532640
70
0
0
VERTEX
8
Layer 1
10
75.342428
20
8.532640
70
0
0
SEQEND
8
Layer 1
 0 
ENDSEC
 0 
EOF