999
"DXF R12 Output" (www.mydxf.blogspot.com)
 0 
SECTION
 2 
HEADER
 9 
$ACADVER
 1 
AC1009
 9 
$EXTMIN
 10 
 0 
 20 
 0 
 9 
$EXTMAX
 10 
 8.5 
 20 
 11 
 0 
ENDSEC
 0 
SECTION
 2 
ENTITIES
0
POLYLINE
8
Layer 1
62
7
70
1
10
0.000000
20
0.000000
66
1
0
VERTEX
8
Layer 1
10
0.000000
20
92.604200
70
0
0
VERTEX
8
Layer 1
10
92.427836
20
92.604200
70
0
0
VERTEX
8
Layer 1
10
92.427836
20
0.176364
70
0
0
VERTEX
8
Layer 1
10
0.000000
20
0.176364
70
0
0
VERTEX
8
Layer 1
10
0.000000
20
92.604200
70
0
0
SEQEND
8
Layer 1
0
POLYLINE
8
Layer 1
62
7
70
1
10
0.000000
20
0.000000
66
1
0
VERTEX
8
Layer 1
10
0.000000
20
92.604200
70
0
0
VERTEX
8
Layer 1
10
92.427836
20
92.604200
70
0
0
VERTEX
8
Layer 1
10
92.427836
20
0.176364
70
0
0
VERTEX
8
Layer 1
10
0.000000
20
0.176364
70
0
0
VERTEX
8
Layer 1
10
0.000000
20
92.604200
70
0
0
SEQEND
8
Layer 1
0
POLYLINE
8
Layer 1
62
7
70
1
10
0.000000
20
0.000000
66
1
0
VERTEX
8
Layer 1
10
16.859650
20
8.483031
70
0
0
VERTEX
8
Layer 1
10
16.109996
20
8.675956
70
0
0
VERTEX
8
Layer 1
10
15.619414
20
9.210635
70
0
0
VERTEX
8
Layer 1
10
15.448538
20
10.009898
70
0
0
VERTEX
8
Layer 1
10
15.619414
20
10.809161
70
0
0
VERTEX
8
Layer 1
10
16.109996
20
11.349352
70
0
0
VERTEX
8
Layer 1
10
16.859650
20
11.542277
70
0
0
VERTEX
8
Layer 1
10
17.686473
20
11.299742
70
0
0
VERTEX
8
Layer 1
10
18.094373
20
10.621747
70
0
0
VERTEX
8
Layer 1
10
17.703010
20
10.621747
70
0
0
VERTEX
8
Layer 1
10
17.427402
20
11.062720
70
0
0
VERTEX
8
Layer 1
10
16.859650
20
11.228084
70
0
0
VERTEX
8
Layer 1
10
16.308434
20
11.079256
70
0
0
VERTEX
8
Layer 1
10
15.939120
20
10.660332
70
0
0
VERTEX
8
Layer 1
10
15.812340
20
10.009898
70
0
0
VERTEX
8
Layer 1
10
15.939120
20
9.353951
70
0
0
VERTEX
8
Layer 1
10
16.308434
20
8.940540
70
0
0
VERTEX
8
Layer 1
10
16.859650
20
8.797224
70
0
0
VERTEX
8
Layer 1
10
17.427402
20
8.957076
70
0
0
VERTEX
8
Layer 1
10
17.703010
20
9.392536
70
0
0
VERTEX
8
Layer 1
10
18.094373
20
9.392536
70
0
0
VERTEX
8
Layer 1
10
17.686473
20
8.720053
70
0
0
VERTEX
8
Layer 1
10
16.859650
20
8.483031
70
0
0
VERTEX
8
Layer 1
10
16.859650
20
8.483031
70
0
0
SEQEND
8
Layer 1
0
POLYLINE
8
Layer 1
62
7
70
1
10
0.000000
20
0.000000
66
1
0
VERTEX
8
Layer 1
10
21.986693
20
8.532640
70
0
0
VERTEX
8
Layer 1
10
21.986693
20
11.492668
70
0
0
VERTEX
8
Layer 1
10
22.339471
20
11.492668
70
0
0
VERTEX
8
Layer 1
10
22.339471
20
10.186287
70
0
0
VERTEX
8
Layer 1
10
23.877363
20
10.186287
70
0
0
VERTEX
8
Layer 1
10
23.877363
20
11.492668
70
0
0
VERTEX
8
Layer 1
10
24.230140
20
11.492668
70
0
0
VERTEX
8
Layer 1
10
24.230140
20
8.532640
70
0
0
VERTEX
8
Layer 1
10
23.877363
20
8.532640
70
0
0
VERTEX
8
Layer 1
10
23.877363
20
9.894143
70
0
0
VERTEX
8
Layer 1
10
22.339471
20
9.894143
70
0
0
VERTEX
8
Layer 1
10
22.339471
20
8.532640
70
0
0
VERTEX
8
Layer 1
10
21.986693
20
8.532640
70
0
0
SEQEND
8
Layer 1
0
POLYLINE
8
Layer 1
62
7
70
1
10
0.000000
20
0.000000
66
1
0
VERTEX
8
Layer 1
10
28.048480
20
8.532640
70
0
0
VERTEX
8
Layer 1
10
29.139887
20
11.492668
70
0
0
VERTEX
8
Layer 1
10
29.514713
20
11.492668
70
0
0
VERTEX
8
Layer 1
10
30.600608
20
8.532640
70
0
0
VERTEX
8
Layer 1
10
30.225781
20
8.532640
70
0
0
VERTEX
8
Layer 1
10
29.955686
20
9.293318
70
0
0
VERTEX
8
Layer 1
10
28.693402
20
9.293318
70
0
0
VERTEX
8
Layer 1
10
28.423306
20
8.532640
70
0
0
VERTEX
8
Layer 1
10
28.048480
20
8.532640
70
0
0
SEQEND
8
Layer 1
0
POLYLINE
8
Layer 1
62
7
70
1
10
0.000000
20
0.000000
66
1
0
VERTEX
8
Layer 1
10
28.803645
20
9.579950
70
0
0
VERTEX
8
Layer 1
10
29.850955
20
9.579950
70
0
0
VERTEX
8
Layer 1
10
29.327300
20
11.046183
70
0
0
VERTEX
8
Layer 1
10
28.803645
20
9.579950
70
0
0
SEQEND
8
Layer 1
0
POLYLINE
8
Layer 1
62
7
70
1
10
0.000000
20
0.000000
66
1
0
VERTEX
8
Layer 1
10
35.766659
20
8.483031
70
0
0
VERTEX
8
Layer 1
10
35.000469
20
8.675956
70
0
0
VERTEX
8
Layer 1
10
34.487839
20
9.210635
70
0
0
VERTEX
8
Layer 1
10
34.305938
20
10.009898
70
0
0
VERTEX
8
Layer 1
10
34.487839
20
10.809161
70
0
0
VERTEX
8
Layer 1
10
35.000469
20
11.349352
70
0
0
VERTEX
8
Layer 1
10
35.766659
20
11.542277
70
0
0
VERTEX
8
Layer 1
10
36.527337
20
11.349352
70
0
0
VERTEX
8
Layer 1
10
37.039967
20
10.809161
70
0
0
VERTEX
8
Layer 1
10
37.221868
20
10.009898
70
0
0
VERTEX
8
Layer 1
10
37.039967
20
9.210635
70
0
0
VERTEX
8
Layer 1
10
36.527337
20
8.675956
70
0
0
VERTEX
8
Layer 1
10
35.766659
20
8.483031
70
0
0
VERTEX
8
Layer 1
10
35.766659
20
8.483031
70
0
0
SEQEND
8
Layer 1
0
POLYLINE
8
Layer 1
62
7
70
1
10
0.000000
20
0.000000
66
1
0
VERTEX
8
Layer 1
10
35.766659
20
8.797224
70
0
0
VERTEX
8
Layer 1
10
36.334411
20
8.940540
70
0
0
VERTEX
8
Layer 1
10
36.720262
20
9.353951
70
0
0
VERTEX
8
Layer 1
10
36.858066
20
10.009898
70
0
0
VERTEX
8
Layer 1
10
36.720262
20
10.660332
70
0
0
VERTEX
8
Layer 1
10
36.334411
20
11.079256
70
0
0
VERTEX
8
Layer 1
10
35.766659
20
11.228084
70
0
0
VERTEX
8
Layer 1
10
35.193395
20
11.079256
70
0
0
VERTEX
8
Layer 1
10
34.807544
20
10.660332
70
0
0
VERTEX
8
Layer 1
10
34.669740
20
10.009898
70
0
0
VERTEX
8
Layer 1
10
34.807544
20
9.353951
70
0
0
VERTEX
8
Layer 1
10
35.193395
20
8.940540
70
0
0
VERTEX
8
Layer 1
10
35.766659
20
8.797224
70
0
0
VERTEX
8
Layer 1
10
35.766659
20
8.797224
70
0
0
SEQEND
8
Layer 1
0
POLYLINE
8
Layer 1
62
7
70
1
10
0.000000
20
0.000000
66
1
0
VERTEX
8
Layer 1
10
42.057272
20
8.483031
70
0
0
VERTEX
8
Layer 1
10
41.489520
20
8.598786
70
0
0
VERTEX
8
Layer 1
10
41.114693
20
8.929515
70
0
0
VERTEX
8
Layer 1
10
40.987913
20
9.420097
70
0
0
VERTEX
8
Layer 1
10
41.357228
20
9.420097
70
0
0
VERTEX
8
Layer 1
10
41.434398
20
9.100392
70
0
0
VERTEX
8
Layer 1
10
41.671421
20
8.868882
70
0
0
VERTEX
8
Layer 1
10
42.057272
20
8.780687
70
0
0
VERTEX
8
Layer 1
10
42.520293
20
8.924003
70
0
0
VERTEX
8
Layer 1
10
42.685657
20
9.287805
70
0
0
VERTEX
8
Layer 1
10
42.608487
20
9.568925
70
0
0
VERTEX
8
Layer 1
10
42.404537
20
9.745314
70
0
0
VERTEX
8
Layer 1
10
42.106881
20
9.861070
70
0
0
VERTEX
8
Layer 1
10
41.759615
20
9.976825
70
0
0
VERTEX
8
Layer 1
10
41.252497
20
10.268969
70
0
0
VERTEX
8
Layer 1
10
41.087132
20
10.731990
70
0
0
VERTEX
8
Layer 1
10
41.197375
20
11.150914
70
0
0
VERTEX
8
Layer 1
10
41.522592
20
11.437546
70
0
0
VERTEX
8
Layer 1
10
42.018687
20
11.542277
70
0
0
VERTEX
8
Layer 1
10
42.509268
20
11.437546
70
0
0
VERTEX
8
Layer 1
10
42.834486
20
11.145402
70
0
0
VERTEX
8
Layer 1
10
42.955753
20
10.720966
70
0
0
VERTEX
8
Layer 1
10
42.586439
20
10.720966
70
0
0
VERTEX
8
Layer 1
10
42.520293
20
10.963501
70
0
0
VERTEX
8
Layer 1
10
42.327367
20
11.161939
70
0
0
VERTEX
8
Layer 1
10
42.007662
20
11.239109
70
0
0
VERTEX
8
Layer 1
10
41.610787
20
11.117841
70
0
0
VERTEX
8
Layer 1
10
41.456447
20
10.765063
70
0
0
VERTEX
8
Layer 1
10
41.561178
20
10.472919
70
0
0
VERTEX
8
Layer 1
10
41.864346
20
10.307554
70
0
0
VERTEX
8
Layer 1
10
42.316343
20
10.158726
70
0
0
VERTEX
8
Layer 1
10
42.691170
20
9.976825
70
0
0
VERTEX
8
Layer 1
10
42.955753
20
9.717754
70
0
0
VERTEX
8
Layer 1
10
43.054972
20
9.304342
70
0
0
VERTEX
8
Layer 1
10
42.944729
20
8.907467
70
0
0
VERTEX
8
Layer 1
10
42.608487
20
8.598786
70
0
0
VERTEX
8
Layer 1
10
42.057272
20
8.483031
70
0
0
VERTEX
8
Layer 1
10
42.057272
20
8.483031
70
0
0
SEQEND
8
Layer 1
0
POLYLINE
8
Layer 1
62
7
70
1
10
0.000000
20
0.000000
66
1
0
VERTEX
8
Layer 1
10
47.377965
20
9.431121
70
0
0
VERTEX
8
Layer 1
10
47.124406
20
9.497267
70
0
0
VERTEX
8
Layer 1
10
46.936993
20
9.684681
70
0
0
VERTEX
8
Layer 1
10
46.870847
20
9.938240
70
0
0
VERTEX
8
Layer 1
10
46.936993
20
10.197311
70
0
0
VERTEX
8
Layer 1
10
47.124406
20
10.384725
70
0
0
VERTEX
8
Layer 1
10
47.377965
20
10.450870
70
0
0
VERTEX
8
Layer 1
10
47.637037
20
10.384725
70
0
0
VERTEX
8
Layer 1
10
47.818938
20
10.197311
70
0
0
VERTEX
8
Layer 1
10
47.885084
20
9.938240
70
0
0
VERTEX
8
Layer 1
10
47.818938
20
9.684681
70
0
0
VERTEX
8
Layer 1
10
47.637037
20
9.497267
70
0
0
VERTEX
8
Layer 1
10
47.377965
20
9.431121
70
0
0
VERTEX
8
Layer 1
10
47.377965
20
9.431121
70
0
0
SEQEND
8
Layer 1
0
POLYLINE
8
Layer 1
62
7
70
1
10
0.000000
20
0.000000
66
1
0
VERTEX
8
Layer 1
10
52.982334
20
8.483031
70
0
0
VERTEX
8
Layer 1
10
52.304338
20
8.675956
70
0
0
VERTEX
8
Layer 1
10
51.863366
20
9.210635
70
0
0
VERTEX
8
Layer 1
10
51.714538
20
10.009898
70
0
0
VERTEX
8
Layer 1
10
51.863366
20
10.809161
70
0
0
VERTEX
8
Layer 1
10
52.304338
20
11.349352
70
0
0
VERTEX
8
Layer 1
10
52.982334
20
11.542277
70
0
0
VERTEX
8
Layer 1
10
53.654817
20
11.349352
70
0
0
VERTEX
8
Layer 1
10
54.090277
20
10.809161
70
0
0
VERTEX
8
Layer 1
10
54.244617
20
10.009898
70
0
0
VERTEX
8
Layer 1
10
54.090277
20
9.210635
70
0
0
VERTEX
8
Layer 1
10
53.654817
20
8.675956
70
0
0
VERTEX
8
Layer 1
10
52.982334
20
8.483031
70
0
0
VERTEX
8
Layer 1
10
52.982334
20
8.483031
70
0
0
SEQEND
8
Layer 1
0
POLYLINE
8
Layer 1
62
7
70
1
10
0.000000
20
0.000000
66
1
0
VERTEX
8
Layer 1
10
52.982334
20
8.797224
70
0
0
VERTEX
8
Layer 1
10
53.445355
20
8.940540
70
0
0
VERTEX
8
Layer 1
10
53.765060
20
9.353951
70
0
0
VERTEX
8
Layer 1
10
53.886327
20
10.009898
70
0
0
VERTEX
8
Layer 1
10
53.765060
20
10.660332
70
0
0
VERTEX
8
Layer 1
10
53.445355
20
11.079256
70
0
0
VERTEX
8
Layer 1
10
52.982334
20
11.228084
70
0
0
VERTEX
8
Layer 1
10
52.519312
20
11.079256
70
0
0
VERTEX
8
Layer 1
10
52.194095
20
10.660332
70
0
0
VERTEX
8
Layer 1
10
52.078340
20
10.009898
70
0
0
VERTEX
8
Layer 1
10
52.194095
20
9.353951
70
0
0
VERTEX
8
Layer 1
10
52.519312
20
8.940540
70
0
0
VERTEX
8
Layer 1
10
52.982334
20
8.797224
70
0
0
VERTEX
8
Layer 1
10
52.982334
20
8.797224
70
0
0
SEQEND
8
Layer 1
0
POLYLINE
8
Layer 1
62
7
70
1
10
0.000000
20
0.000000
66
1
0
VERTEX
8
Layer 1
10
59.290734
20
8.483031
70
0
0
VERTEX
8
Layer 1
10
58.612738
20
8.675956
70
0
0
VERTEX
8
Layer 1
10
58.171766
20
9.210635
70
0
0
VERTEX
8
Layer 1
10
58.022938
20
10.009898
70
0
0
VERTEX
8
Layer 1
10
58.171766
20
10.809161
70
0
0
VERTEX
8
Layer 1
10
58.612738
20
11.349352
70
0
0
VERTEX
8
Layer 1
10
59.290734
20
11.542277
70
0
0
VERTEX
8
Layer 1
10
59.963217
20
11.349352
70
0
0
VERTEX
8
Layer 1
10
60.398677
20
10.809161
70
0
0
VERTEX
8
Layer 1
10
60.553017
20
10.009898
70
0
0
VERTEX
8
Layer 1
10
60.398677
20
9.210635
70
0
0
VERTEX
8
Layer 1
10
59.963217
20
8.675956
70
0
0
VERTEX
8
Layer 1
10
59.290734
20
8.483031
70
0
0
VERTEX
8
Layer 1
10
59.290734
20
8.483031
70
0
0
SEQEND
8
Layer 1
0
POLYLINE
8
Layer 1
62
7
70
1
10
0.000000
20
0.000000
66
1
0
VERTEX
8
Layer 1
10
59.290734
20
8.797224
70
0
0
VERTEX
8
Layer 1
10
59.753755
20
8.940540
70
0
0
VERTEX
8
Layer 1
10
60.073460
20
9.353951
70
0
0
VERTEX
8
Layer 1
10
60.194727
20
10.009898
70
0
0
VERTEX
8
Layer 1
10
60.073460
20
10.660332
70
0
0
VERTEX
8
Layer 1
10
59.753755
20
11.079256
70
0
0
VERTEX
8
Layer 1
10
59.290734
20
11.228084
70
0
0
VERTEX
8
Layer 1
10
58.827712
20
11.079256
70
0
0
VERTEX
8
Layer 1
10
58.502495
20
10.660332
70
0
0
VERTEX
8
Layer 1
10
58.386740
20
10.009898
70
0
0
VERTEX
8
Layer 1
10
58.502495
20
9.353951
70
0
0
VERTEX
8
Layer 1
10
58.827712
20
8.940540
70
0
0
VERTEX
8
Layer 1
10
59.290734
20
8.797224
70
0
0
VERTEX
8
Layer 1
10
59.290734
20
8.797224
70
0
0
SEQEND
8
Layer 1
0
POLYLINE
8
Layer 1
62
7
70
1
10
0.000000
20
0.000000
66
1
0
VERTEX
8
Layer 1
10
64.738837
20
8.532640
70
0
0
VERTEX
8
Layer 1
10
64.738837
20
11.095793
70
0
0
VERTEX
8
Layer 1
10
64.259280
20
10.991062
70
0
0
VERTEX
8
Layer 1
10
64.259280
20
11.233597
70
0
0
VERTEX
8
Layer 1
10
64.854592
20
11.492668
70
0
0
VERTEX
8
Layer 1
10
65.097127
20
11.492668
70
0
0
VERTEX
8
Layer 1
10
65.097127
20
8.532640
70
0
0
VERTEX
8
Layer 1
10
64.738837
20
8.532640
70
0
0
SEQEND
8
Layer 1
0
POLYLINE
8
Layer 1
62
7
70
1
10
0.000000
20
0.000000
66
1
0
VERTEX
8
Layer 1
10
69.053383
20
8.532640
70
0
0
VERTEX
8
Layer 1
10
69.053383
20
8.780687
70
0
0
VERTEX
8
Layer 1
10
69.621136
20
9.260245
70
0
0
VERTEX
8
Layer 1
10
70.100693
20
9.739802
70
0
0
VERTEX
8
Layer 1
10
70.431423
20
10.202823
70
0
0
VERTEX
8
Layer 1
10
70.552690
20
10.643796
70
0
0
VERTEX
8
Layer 1
10
70.497568
20
10.935940
70
0
0
VERTEX
8
Layer 1
10
70.326692
20
11.156426
70
0
0
VERTEX
8
Layer 1
10
70.006987
20
11.239109
70
0
0
VERTEX
8
Layer 1
10
69.681769
20
11.150914
70
0
0
VERTEX
8
Layer 1
10
69.483332
20
10.919404
70
0
0
VERTEX
8
Layer 1
10
69.417186
20
10.610723
70
0
0
VERTEX
8
Layer 1
10
69.075432
20
10.610723
70
0
0
VERTEX
8
Layer 1
10
69.196700
20
11.112329
70
0
0
VERTEX
8
Layer 1
10
69.532941
20
11.432034
70
0
0
VERTEX
8
Layer 1
10
70.012499
20
11.542277
70
0
0
VERTEX
8
Layer 1
10
70.651909
20
11.321791
70
0
0
VERTEX
8
Layer 1
10
70.841734
20
11.045839
70
0
0
VERTEX
8
Layer 1
10
70.905468
20
10.660332
70
0
0
VERTEX
8
Layer 1
10
70.773176
20
10.136677
70
0
0
VERTEX
8
Layer 1
10
70.442447
20
9.646096
70
0
0
VERTEX
8
Layer 1
10
70.006987
20
9.199611
70
0
0
VERTEX
8
Layer 1
10
69.577038
20
8.830296
70
0
0
VERTEX
8
Layer 1
10
71.010199
20
8.830296
70
0
0
VERTEX
8
Layer 1
10
71.010199
20
8.532640
70
0
0
VERTEX
8
Layer 1
10
69.053383
20
8.532640
70
0
0
SEQEND
8
Layer 1
0
POLYLINE
8
Layer 1
62
7
70
1
10
0.000000
20
0.000000
66
1
0
VERTEX
8
Layer 1
10
75.903105
20
8.483031
70
0
0
VERTEX
8
Layer 1
10
75.373938
20
8.593274
70
0
0
VERTEX
8
Layer 1
10
75.015648
20
8.890930
70
0
0
VERTEX
8
Layer 1
10
74.855796
20
9.331903
70
0
0
VERTEX
8
Layer 1
10
75.203062
20
9.331903
70
0
0
VERTEX
8
Layer 1
10
75.440084
20
8.935027
70
0
0
VERTEX
8
Layer 1
10
75.908618
20
8.786199
70
0
0
VERTEX
8
Layer 1
10
76.272420
20
8.885418
70
0
0
VERTEX
8
Layer 1
10
76.509443
20
9.150002
70
0
0
VERTEX
8
Layer 1
10
76.592125
20
9.530340
70
0
0
VERTEX
8
Layer 1
10
76.404712
20
10.059507
70
0
0
VERTEX
8
Layer 1
10
75.919642
20
10.263457
70
0
0
VERTEX
8
Layer 1
10
75.500718
20
10.153214
70
0
0
VERTEX
8
Layer 1
10
75.247159
20
9.866582
70
0
0
VERTEX
8
Layer 1
10
74.910917
20
9.866582
70
0
0
VERTEX
8
Layer 1
10
75.164476
20
11.492668
70
0
0
VERTEX
8
Layer 1
10
76.718904
20
11.492668
70
0
0
VERTEX
8
Layer 1
10
76.718904
20
11.183987
70
0
0
VERTEX
8
Layer 1
10
75.440084
20
11.183987
70
0
0
VERTEX
8
Layer 1
10
75.263695
20
10.285506
70
0
0
VERTEX
8
Layer 1
10
75.544815
20
10.483943
70
0
0
VERTEX
8
Layer 1
10
75.958227
20
10.566626
70
0
0
VERTEX
8
Layer 1
10
76.465345
20
10.428822
70
0
0
VERTEX
8
Layer 1
10
76.807099
20
10.059507
70
0
0
VERTEX
8
Layer 1
10
76.933879
20
9.535852
70
0
0
VERTEX
8
Layer 1
10
76.812611
20
9.006685
70
0
0
VERTEX
8
Layer 1
10
76.459833
20
8.626347
70
0
0
VERTEX
8
Layer 1
10
75.903105
20
8.483031
70
0
0
VERTEX
8
Layer 1
10
75.903105
20
8.483031
70
0
0
SEQEND
8
Layer 1
 0 
ENDSEC
 0 
EOF