999
"DXF R12 Output" (www.mydxf.blogspot.com)
 0 
SECTION
 2 
HEADER
 9 
$ACADVER
 1 
AC1009
 9 
$EXTMIN
 10 
 0 
 20 
 0 
 9 
$EXTMAX
 10 
 8.5 
 20 
 11 
 0 
ENDSEC
 0 
SECTION
 2 
ENTITIES
0
POLYLINE
8
Layer 1
62
7
70
1
10
0.000000
20
0.000000
66
1
0
VERTEX
8
Layer 1
10
0.000000
20
92.604200
70
0
0
VERTEX
8
Layer 1
10
92.427836
20
92.604200
70
0
0
VERTEX
8
Layer 1
10
92.427836
20
0.176364
70
0
0
VERTEX
8
Layer 1
10
0.000000
20
0.176364
70
0
0
VERTEX
8
Layer 1
10
0.000000
20
92.604200
70
0
0
SEQEND
8
Layer 1
0
POLYLINE
8
Layer 1
62
7
70
1
10
0.000000
20
0.000000
66
1
0
VERTEX
8
Layer 1
10
0.000000
20
92.604200
70
0
0
VERTEX
8
Layer 1
10
92.427836
20
92.604200
70
0
0
VERTEX
8
Layer 1
10
92.427836
20
0.176364
70
0
0
VERTEX
8
Layer 1
10
0.000000
20
0.176364
70
0
0
VERTEX
8
Layer 1
10
0.000000
20
92.604200
70
0
0
SEQEND
8
Layer 1
0
POLYLINE
8
Layer 1
62
7
70
1
10
0.000000
20
0.000000
66
1
0
VERTEX
8
Layer 1
10
16.909350
20
8.483031
70
0
0
VERTEX
8
Layer 1
10
16.159696
20
8.675956
70
0
0
VERTEX
8
Layer 1
10
15.669114
20
9.210635
70
0
0
VERTEX
8
Layer 1
10
15.498238
20
10.009898
70
0
0
VERTEX
8
Layer 1
10
15.669114
20
10.809161
70
0
0
VERTEX
8
Layer 1
10
16.159696
20
11.349352
70
0
0
VERTEX
8
Layer 1
10
16.909350
20
11.542277
70
0
0
VERTEX
8
Layer 1
10
17.736173
20
11.299742
70
0
0
VERTEX
8
Layer 1
10
18.144073
20
10.621747
70
0
0
VERTEX
8
Layer 1
10
17.752710
20
10.621747
70
0
0
VERTEX
8
Layer 1
10
17.477102
20
11.062720
70
0
0
VERTEX
8
Layer 1
10
16.909350
20
11.228084
70
0
0
VERTEX
8
Layer 1
10
16.358134
20
11.079256
70
0
0
VERTEX
8
Layer 1
10
15.988820
20
10.660332
70
0
0
VERTEX
8
Layer 1
10
15.862040
20
10.009898
70
0
0
VERTEX
8
Layer 1
10
15.988820
20
9.353951
70
0
0
VERTEX
8
Layer 1
10
16.358134
20
8.940540
70
0
0
VERTEX
8
Layer 1
10
16.909350
20
8.797224
70
0
0
VERTEX
8
Layer 1
10
17.477102
20
8.957076
70
0
0
VERTEX
8
Layer 1
10
17.752710
20
9.392536
70
0
0
VERTEX
8
Layer 1
10
18.144073
20
9.392536
70
0
0
VERTEX
8
Layer 1
10
17.736173
20
8.720053
70
0
0
VERTEX
8
Layer 1
10
16.909350
20
8.483031
70
0
0
VERTEX
8
Layer 1
10
16.909350
20
8.483031
70
0
0
SEQEND
8
Layer 1
0
POLYLINE
8
Layer 1
62
7
70
1
10
0.000000
20
0.000000
66
1
0
VERTEX
8
Layer 1
10
22.036393
20
8.532640
70
0
0
VERTEX
8
Layer 1
10
22.036393
20
11.492668
70
0
0
VERTEX
8
Layer 1
10
22.389171
20
11.492668
70
0
0
VERTEX
8
Layer 1
10
22.389171
20
10.186287
70
0
0
VERTEX
8
Layer 1
10
23.927063
20
10.186287
70
0
0
VERTEX
8
Layer 1
10
23.927063
20
11.492668
70
0
0
VERTEX
8
Layer 1
10
24.279840
20
11.492668
70
0
0
VERTEX
8
Layer 1
10
24.279840
20
8.532640
70
0
0
VERTEX
8
Layer 1
10
23.927063
20
8.532640
70
0
0
VERTEX
8
Layer 1
10
23.927063
20
9.894143
70
0
0
VERTEX
8
Layer 1
10
22.389171
20
9.894143
70
0
0
VERTEX
8
Layer 1
10
22.389171
20
8.532640
70
0
0
VERTEX
8
Layer 1
10
22.036393
20
8.532640
70
0
0
SEQEND
8
Layer 1
0
POLYLINE
8
Layer 1
62
7
70
1
10
0.000000
20
0.000000
66
1
0
VERTEX
8
Layer 1
10
28.098180
20
8.532640
70
0
0
VERTEX
8
Layer 1
10
29.189587
20
11.492668
70
0
0
VERTEX
8
Layer 1
10
29.564413
20
11.492668
70
0
0
VERTEX
8
Layer 1
10
30.650308
20
8.532640
70
0
0
VERTEX
8
Layer 1
10
30.275481
20
8.532640
70
0
0
VERTEX
8
Layer 1
10
30.005386
20
9.293318
70
0
0
VERTEX
8
Layer 1
10
28.743102
20
9.293318
70
0
0
VERTEX
8
Layer 1
10
28.473006
20
8.532640
70
0
0
VERTEX
8
Layer 1
10
28.098180
20
8.532640
70
0
0
SEQEND
8
Layer 1
0
POLYLINE
8
Layer 1
62
7
70
1
10
0.000000
20
0.000000
66
1
0
VERTEX
8
Layer 1
10
28.853345
20
9.579950
70
0
0
VERTEX
8
Layer 1
10
29.900655
20
9.579950
70
0
0
VERTEX
8
Layer 1
10
29.377000
20
11.046183
70
0
0
VERTEX
8
Layer 1
10
28.853345
20
9.579950
70
0
0
SEQEND
8
Layer 1
0
POLYLINE
8
Layer 1
62
7
70
1
10
0.000000
20
0.000000
66
1
0
VERTEX
8
Layer 1
10
35.816359
20
8.483031
70
0
0
VERTEX
8
Layer 1
10
35.050169
20
8.675956
70
0
0
VERTEX
8
Layer 1
10
34.537539
20
9.210635
70
0
0
VERTEX
8
Layer 1
10
34.355638
20
10.009898
70
0
0
VERTEX
8
Layer 1
10
34.537539
20
10.809161
70
0
0
VERTEX
8
Layer 1
10
35.050169
20
11.349352
70
0
0
VERTEX
8
Layer 1
10
35.816359
20
11.542277
70
0
0
VERTEX
8
Layer 1
10
36.577037
20
11.349352
70
0
0
VERTEX
8
Layer 1
10
37.089667
20
10.809161
70
0
0
VERTEX
8
Layer 1
10
37.271568
20
10.009898
70
0
0
VERTEX
8
Layer 1
10
37.089667
20
9.210635
70
0
0
VERTEX
8
Layer 1
10
36.577037
20
8.675956
70
0
0
VERTEX
8
Layer 1
10
35.816359
20
8.483031
70
0
0
VERTEX
8
Layer 1
10
35.816359
20
8.483031
70
0
0
SEQEND
8
Layer 1
0
POLYLINE
8
Layer 1
62
7
70
1
10
0.000000
20
0.000000
66
1
0
VERTEX
8
Layer 1
10
35.816359
20
8.797224
70
0
0
VERTEX
8
Layer 1
10
36.384111
20
8.940540
70
0
0
VERTEX
8
Layer 1
10
36.769962
20
9.353951
70
0
0
VERTEX
8
Layer 1
10
36.907766
20
10.009898
70
0
0
VERTEX
8
Layer 1
10
36.769962
20
10.660332
70
0
0
VERTEX
8
Layer 1
10
36.384111
20
11.079256
70
0
0
VERTEX
8
Layer 1
10
35.816359
20
11.228084
70
0
0
VERTEX
8
Layer 1
10
35.243095
20
11.079256
70
0
0
VERTEX
8
Layer 1
10
34.857244
20
10.660332
70
0
0
VERTEX
8
Layer 1
10
34.719440
20
10.009898
70
0
0
VERTEX
8
Layer 1
10
34.857244
20
9.353951
70
0
0
VERTEX
8
Layer 1
10
35.243095
20
8.940540
70
0
0
VERTEX
8
Layer 1
10
35.816359
20
8.797224
70
0
0
VERTEX
8
Layer 1
10
35.816359
20
8.797224
70
0
0
SEQEND
8
Layer 1
0
POLYLINE
8
Layer 1
62
7
70
1
10
0.000000
20
0.000000
66
1
0
VERTEX
8
Layer 1
10
42.106672
20
8.483031
70
0
0
VERTEX
8
Layer 1
10
41.538920
20
8.598786
70
0
0
VERTEX
8
Layer 1
10
41.164093
20
8.929515
70
0
0
VERTEX
8
Layer 1
10
41.037313
20
9.420097
70
0
0
VERTEX
8
Layer 1
10
41.406628
20
9.420097
70
0
0
VERTEX
8
Layer 1
10
41.483798
20
9.100392
70
0
0
VERTEX
8
Layer 1
10
41.720821
20
8.868882
70
0
0
VERTEX
8
Layer 1
10
42.106672
20
8.780687
70
0
0
VERTEX
8
Layer 1
10
42.569693
20
8.924003
70
0
0
VERTEX
8
Layer 1
10
42.735057
20
9.287805
70
0
0
VERTEX
8
Layer 1
10
42.657887
20
9.568925
70
0
0
VERTEX
8
Layer 1
10
42.453937
20
9.745314
70
0
0
VERTEX
8
Layer 1
10
42.156281
20
9.861070
70
0
0
VERTEX
8
Layer 1
10
41.809015
20
9.976825
70
0
0
VERTEX
8
Layer 1
10
41.301897
20
10.268969
70
0
0
VERTEX
8
Layer 1
10
41.136532
20
10.731990
70
0
0
VERTEX
8
Layer 1
10
41.246775
20
11.150914
70
0
0
VERTEX
8
Layer 1
10
41.571992
20
11.437546
70
0
0
VERTEX
8
Layer 1
10
42.068087
20
11.542277
70
0
0
VERTEX
8
Layer 1
10
42.558668
20
11.437546
70
0
0
VERTEX
8
Layer 1
10
42.883886
20
11.145402
70
0
0
VERTEX
8
Layer 1
10
43.005153
20
10.720966
70
0
0
VERTEX
8
Layer 1
10
42.635839
20
10.720966
70
0
0
VERTEX
8
Layer 1
10
42.569693
20
10.963501
70
0
0
VERTEX
8
Layer 1
10
42.376767
20
11.161939
70
0
0
VERTEX
8
Layer 1
10
42.057062
20
11.239109
70
0
0
VERTEX
8
Layer 1
10
41.660187
20
11.117841
70
0
0
VERTEX
8
Layer 1
10
41.505847
20
10.765063
70
0
0
VERTEX
8
Layer 1
10
41.610578
20
10.472919
70
0
0
VERTEX
8
Layer 1
10
41.913746
20
10.307554
70
0
0
VERTEX
8
Layer 1
10
42.365743
20
10.158726
70
0
0
VERTEX
8
Layer 1
10
42.740570
20
9.976825
70
0
0
VERTEX
8
Layer 1
10
43.005153
20
9.717754
70
0
0
VERTEX
8
Layer 1
10
43.104372
20
9.304342
70
0
0
VERTEX
8
Layer 1
10
42.994129
20
8.907467
70
0
0
VERTEX
8
Layer 1
10
42.657887
20
8.598786
70
0
0
VERTEX
8
Layer 1
10
42.106672
20
8.483031
70
0
0
VERTEX
8
Layer 1
10
42.106672
20
8.483031
70
0
0
SEQEND
8
Layer 1
0
POLYLINE
8
Layer 1
62
7
70
1
10
0.000000
20
0.000000
66
1
0
VERTEX
8
Layer 1
10
47.427665
20
9.431121
70
0
0
VERTEX
8
Layer 1
10
47.174106
20
9.497267
70
0
0
VERTEX
8
Layer 1
10
46.986693
20
9.684681
70
0
0
VERTEX
8
Layer 1
10
46.920547
20
9.938240
70
0
0
VERTEX
8
Layer 1
10
46.986693
20
10.197311
70
0
0
VERTEX
8
Layer 1
10
47.174106
20
10.384725
70
0
0
VERTEX
8
Layer 1
10
47.427665
20
10.450870
70
0
0
VERTEX
8
Layer 1
10
47.686737
20
10.384725
70
0
0
VERTEX
8
Layer 1
10
47.868638
20
10.197311
70
0
0
VERTEX
8
Layer 1
10
47.934784
20
9.938240
70
0
0
VERTEX
8
Layer 1
10
47.868638
20
9.684681
70
0
0
VERTEX
8
Layer 1
10
47.686737
20
9.497267
70
0
0
VERTEX
8
Layer 1
10
47.427665
20
9.431121
70
0
0
VERTEX
8
Layer 1
10
47.427665
20
9.431121
70
0
0
SEQEND
8
Layer 1
0
POLYLINE
8
Layer 1
62
7
70
1
10
0.000000
20
0.000000
66
1
0
VERTEX
8
Layer 1
10
53.031734
20
8.483031
70
0
0
VERTEX
8
Layer 1
10
52.353738
20
8.675956
70
0
0
VERTEX
8
Layer 1
10
51.912766
20
9.210635
70
0
0
VERTEX
8
Layer 1
10
51.763938
20
10.009898
70
0
0
VERTEX
8
Layer 1
10
51.912766
20
10.809161
70
0
0
VERTEX
8
Layer 1
10
52.353738
20
11.349352
70
0
0
VERTEX
8
Layer 1
10
53.031734
20
11.542277
70
0
0
VERTEX
8
Layer 1
10
53.704217
20
11.349352
70
0
0
VERTEX
8
Layer 1
10
54.139677
20
10.809161
70
0
0
VERTEX
8
Layer 1
10
54.294017
20
10.009898
70
0
0
VERTEX
8
Layer 1
10
54.139677
20
9.210635
70
0
0
VERTEX
8
Layer 1
10
53.704217
20
8.675956
70
0
0
VERTEX
8
Layer 1
10
53.031734
20
8.483031
70
0
0
VERTEX
8
Layer 1
10
53.031734
20
8.483031
70
0
0
SEQEND
8
Layer 1
0
POLYLINE
8
Layer 1
62
7
70
1
10
0.000000
20
0.000000
66
1
0
VERTEX
8
Layer 1
10
53.031734
20
8.797224
70
0
0
VERTEX
8
Layer 1
10
53.494755
20
8.940540
70
0
0
VERTEX
8
Layer 1
10
53.814460
20
9.353951
70
0
0
VERTEX
8
Layer 1
10
53.935727
20
10.009898
70
0
0
VERTEX
8
Layer 1
10
53.814460
20
10.660332
70
0
0
VERTEX
8
Layer 1
10
53.494755
20
11.079256
70
0
0
VERTEX
8
Layer 1
10
53.031734
20
11.228084
70
0
0
VERTEX
8
Layer 1
10
52.568712
20
11.079256
70
0
0
VERTEX
8
Layer 1
10
52.243495
20
10.660332
70
0
0
VERTEX
8
Layer 1
10
52.127740
20
10.009898
70
0
0
VERTEX
8
Layer 1
10
52.243495
20
9.353951
70
0
0
VERTEX
8
Layer 1
10
52.568712
20
8.940540
70
0
0
VERTEX
8
Layer 1
10
53.031734
20
8.797224
70
0
0
VERTEX
8
Layer 1
10
53.031734
20
8.797224
70
0
0
SEQEND
8
Layer 1
0
POLYLINE
8
Layer 1
62
7
70
1
10
0.000000
20
0.000000
66
1
0
VERTEX
8
Layer 1
10
59.340134
20
8.483031
70
0
0
VERTEX
8
Layer 1
10
58.662138
20
8.675956
70
0
0
VERTEX
8
Layer 1
10
58.221166
20
9.210635
70
0
0
VERTEX
8
Layer 1
10
58.072338
20
10.009898
70
0
0
VERTEX
8
Layer 1
10
58.221166
20
10.809161
70
0
0
VERTEX
8
Layer 1
10
58.662138
20
11.349352
70
0
0
VERTEX
8
Layer 1
10
59.340134
20
11.542277
70
0
0
VERTEX
8
Layer 1
10
60.012617
20
11.349352
70
0
0
VERTEX
8
Layer 1
10
60.448077
20
10.809161
70
0
0
VERTEX
8
Layer 1
10
60.602417
20
10.009898
70
0
0
VERTEX
8
Layer 1
10
60.448077
20
9.210635
70
0
0
VERTEX
8
Layer 1
10
60.012617
20
8.675956
70
0
0
VERTEX
8
Layer 1
10
59.340134
20
8.483031
70
0
0
VERTEX
8
Layer 1
10
59.340134
20
8.483031
70
0
0
SEQEND
8
Layer 1
0
POLYLINE
8
Layer 1
62
7
70
1
10
0.000000
20
0.000000
66
1
0
VERTEX
8
Layer 1
10
59.340134
20
8.797224
70
0
0
VERTEX
8
Layer 1
10
59.803155
20
8.940540
70
0
0
VERTEX
8
Layer 1
10
60.122860
20
9.353951
70
0
0
VERTEX
8
Layer 1
10
60.244127
20
10.009898
70
0
0
VERTEX
8
Layer 1
10
60.122860
20
10.660332
70
0
0
VERTEX
8
Layer 1
10
59.803155
20
11.079256
70
0
0
VERTEX
8
Layer 1
10
59.340134
20
11.228084
70
0
0
VERTEX
8
Layer 1
10
58.877112
20
11.079256
70
0
0
VERTEX
8
Layer 1
10
58.551895
20
10.660332
70
0
0
VERTEX
8
Layer 1
10
58.436140
20
10.009898
70
0
0
VERTEX
8
Layer 1
10
58.551895
20
9.353951
70
0
0
VERTEX
8
Layer 1
10
58.877112
20
8.940540
70
0
0
VERTEX
8
Layer 1
10
59.340134
20
8.797224
70
0
0
VERTEX
8
Layer 1
10
59.340134
20
8.797224
70
0
0
SEQEND
8
Layer 1
0
POLYLINE
8
Layer 1
62
7
70
1
10
0.000000
20
0.000000
66
1
0
VERTEX
8
Layer 1
10
64.788237
20
8.532640
70
0
0
VERTEX
8
Layer 1
10
64.788237
20
11.095793
70
0
0
VERTEX
8
Layer 1
10
64.308680
20
10.991062
70
0
0
VERTEX
8
Layer 1
10
64.308680
20
11.233597
70
0
0
VERTEX
8
Layer 1
10
64.903992
20
11.492668
70
0
0
VERTEX
8
Layer 1
10
65.146527
20
11.492668
70
0
0
VERTEX
8
Layer 1
10
65.146527
20
8.532640
70
0
0
VERTEX
8
Layer 1
10
64.788237
20
8.532640
70
0
0
SEQEND
8
Layer 1
0
POLYLINE
8
Layer 1
62
7
70
1
10
0.000000
20
0.000000
66
1
0
VERTEX
8
Layer 1
10
70.072923
20
8.483031
70
0
0
VERTEX
8
Layer 1
10
69.560292
20
8.582249
70
0
0
VERTEX
8
Layer 1
10
69.196490
20
8.896442
70
0
0
VERTEX
8
Layer 1
10
69.047662
20
9.414585
70
0
0
VERTEX
8
Layer 1
10
69.411464
20
9.414585
70
0
0
VERTEX
8
Layer 1
10
69.582341
20
8.973613
70
0
0
VERTEX
8
Layer 1
10
70.072923
20
8.791711
70
0
0
VERTEX
8
Layer 1
10
70.541456
20
8.962588
70
0
0
VERTEX
8
Layer 1
10
70.701309
20
9.381512
70
0
0
VERTEX
8
Layer 1
10
70.602090
20
9.717754
70
0
0
VERTEX
8
Layer 1
10
70.337507
20
9.910679
70
0
0
VERTEX
8
Layer 1
10
69.973704
20
9.976825
70
0
0
VERTEX
8
Layer 1
10
69.753218
20
9.976825
70
0
0
VERTEX
8
Layer 1
10
69.753218
20
10.279994
70
0
0
VERTEX
8
Layer 1
10
69.973704
20
10.279994
70
0
0
VERTEX
8
Layer 1
10
70.420189
20
10.406773
70
0
0
VERTEX
8
Layer 1
10
70.585554
20
10.776088
70
0
0
VERTEX
8
Layer 1
10
70.453262
20
11.101305
70
0
0
VERTEX
8
Layer 1
10
70.072923
20
11.233597
70
0
0
VERTEX
8
Layer 1
10
69.676048
20
11.084768
70
0
0
VERTEX
8
Layer 1
10
69.516195
20
10.720966
70
0
0
VERTEX
8
Layer 1
10
69.157905
20
10.720966
70
0
0
VERTEX
8
Layer 1
10
69.284685
20
11.150914
70
0
0
VERTEX
8
Layer 1
10
69.604390
20
11.437546
70
0
0
VERTEX
8
Layer 1
10
70.072923
20
11.542277
70
0
0
VERTEX
8
Layer 1
10
70.552481
20
11.437546
70
0
0
VERTEX
8
Layer 1
10
70.844625
20
11.167451
70
0
0
VERTEX
8
Layer 1
10
70.943844
20
10.798136
70
0
0
VERTEX
8
Layer 1
10
70.817064
20
10.390237
70
0
0
VERTEX
8
Layer 1
10
70.453262
20
10.142190
70
0
0
VERTEX
8
Layer 1
10
70.888722
20
9.894143
70
0
0
VERTEX
8
Layer 1
10
71.059599
20
9.381512
70
0
0
VERTEX
8
Layer 1
10
70.949356
20
8.929515
70
0
0
VERTEX
8
Layer 1
10
70.618626
20
8.604298
70
0
0
VERTEX
8
Layer 1
10
70.072923
20
8.483031
70
0
0
VERTEX
8
Layer 1
10
70.072923
20
8.483031
70
0
0
SEQEND
8
Layer 1
0
POLYLINE
8
Layer 1
62
7
70
1
10
0.000000
20
0.000000
66
1
0
VERTEX
8
Layer 1
10
74.967783
20
8.532640
70
0
0
VERTEX
8
Layer 1
10
74.967783
20
8.780687
70
0
0
VERTEX
8
Layer 1
10
75.535536
20
9.260245
70
0
0
VERTEX
8
Layer 1
10
76.015093
20
9.739802
70
0
0
VERTEX
8
Layer 1
10
76.345823
20
10.202823
70
0
0
VERTEX
8
Layer 1
10
76.467090
20
10.643796
70
0
0
VERTEX
8
Layer 1
10
76.411968
20
10.935940
70
0
0
VERTEX
8
Layer 1
10
76.241092
20
11.156426
70
0
0
VERTEX
8
Layer 1
10
75.921387
20
11.239109
70
0
0
VERTEX
8
Layer 1
10
75.596169
20
11.150914
70
0
0
VERTEX
8
Layer 1
10
75.397732
20
10.919404
70
0
0
VERTEX
8
Layer 1
10
75.331586
20
10.610723
70
0
0
VERTEX
8
Layer 1
10
74.989832
20
10.610723
70
0
0
VERTEX
8
Layer 1
10
75.111100
20
11.112329
70
0
0
VERTEX
8
Layer 1
10
75.447341
20
11.432034
70
0
0
VERTEX
8
Layer 1
10
75.926899
20
11.542277
70
0
0
VERTEX
8
Layer 1
10
76.566309
20
11.321791
70
0
0
VERTEX
8
Layer 1
10
76.756134
20
11.045839
70
0
0
VERTEX
8
Layer 1
10
76.819868
20
10.660332
70
0
0
VERTEX
8
Layer 1
10
76.687576
20
10.136677
70
0
0
VERTEX
8
Layer 1
10
76.356847
20
9.646096
70
0
0
VERTEX
8
Layer 1
10
75.921387
20
9.199611
70
0
0
VERTEX
8
Layer 1
10
75.491438
20
8.830296
70
0
0
VERTEX
8
Layer 1
10
76.924599
20
8.830296
70
0
0
VERTEX
8
Layer 1
10
76.924599
20
8.532640
70
0
0
VERTEX
8
Layer 1
10
74.967783
20
8.532640
70
0
0
SEQEND
8
Layer 1
 0 
ENDSEC
 0 
EOF