999
"DXF R12 Output" (www.mydxf.blogspot.com)
 0 
SECTION
 2 
HEADER
 9 
$ACADVER
 1 
AC1009
 9 
$EXTMIN
 10 
 0 
 20 
 0 
 9 
$EXTMAX
 10 
 8.5 
 20 
 11 
 0 
ENDSEC
 0 
SECTION
 2 
ENTITIES
0
POLYLINE
8
Layer 1
62
7
70
1
10
0.000000
20
0.000000
66
1
0
VERTEX
8
Layer 1
10
0.000000
20
92.604200
70
0
0
VERTEX
8
Layer 1
10
92.427836
20
92.604200
70
0
0
VERTEX
8
Layer 1
10
92.427836
20
0.176364
70
0
0
VERTEX
8
Layer 1
10
0.000000
20
0.176364
70
0
0
VERTEX
8
Layer 1
10
0.000000
20
92.604200
70
0
0
SEQEND
8
Layer 1
0
POLYLINE
8
Layer 1
62
7
70
1
10
0.000000
20
0.000000
66
1
0
VERTEX
8
Layer 1
10
0.000000
20
92.604200
70
0
0
VERTEX
8
Layer 1
10
92.427836
20
92.604200
70
0
0
VERTEX
8
Layer 1
10
92.427836
20
0.176364
70
0
0
VERTEX
8
Layer 1
10
0.000000
20
0.176364
70
0
0
VERTEX
8
Layer 1
10
0.000000
20
92.604200
70
0
0
SEQEND
8
Layer 1
0
POLYLINE
8
Layer 1
62
7
70
1
10
0.000000
20
0.000000
66
1
0
VERTEX
8
Layer 1
10
16.822750
20
8.483031
70
0
0
VERTEX
8
Layer 1
10
16.073096
20
8.675956
70
0
0
VERTEX
8
Layer 1
10
15.582514
20
9.210635
70
0
0
VERTEX
8
Layer 1
10
15.411638
20
10.009898
70
0
0
VERTEX
8
Layer 1
10
15.582514
20
10.809161
70
0
0
VERTEX
8
Layer 1
10
16.073096
20
11.349352
70
0
0
VERTEX
8
Layer 1
10
16.822750
20
11.542277
70
0
0
VERTEX
8
Layer 1
10
17.649573
20
11.299742
70
0
0
VERTEX
8
Layer 1
10
18.057473
20
10.621747
70
0
0
VERTEX
8
Layer 1
10
17.666110
20
10.621747
70
0
0
VERTEX
8
Layer 1
10
17.390502
20
11.062720
70
0
0
VERTEX
8
Layer 1
10
16.822750
20
11.228084
70
0
0
VERTEX
8
Layer 1
10
16.271534
20
11.079256
70
0
0
VERTEX
8
Layer 1
10
15.902220
20
10.660332
70
0
0
VERTEX
8
Layer 1
10
15.775440
20
10.009898
70
0
0
VERTEX
8
Layer 1
10
15.902220
20
9.353951
70
0
0
VERTEX
8
Layer 1
10
16.271534
20
8.940540
70
0
0
VERTEX
8
Layer 1
10
16.822750
20
8.797224
70
0
0
VERTEX
8
Layer 1
10
17.390502
20
8.957076
70
0
0
VERTEX
8
Layer 1
10
17.666110
20
9.392536
70
0
0
VERTEX
8
Layer 1
10
18.057473
20
9.392536
70
0
0
VERTEX
8
Layer 1
10
17.649573
20
8.720053
70
0
0
VERTEX
8
Layer 1
10
16.822750
20
8.483031
70
0
0
VERTEX
8
Layer 1
10
16.822750
20
8.483031
70
0
0
SEQEND
8
Layer 1
0
POLYLINE
8
Layer 1
62
7
70
1
10
0.000000
20
0.000000
66
1
0
VERTEX
8
Layer 1
10
21.949793
20
8.532640
70
0
0
VERTEX
8
Layer 1
10
21.949793
20
11.492668
70
0
0
VERTEX
8
Layer 1
10
22.302571
20
11.492668
70
0
0
VERTEX
8
Layer 1
10
22.302571
20
10.186287
70
0
0
VERTEX
8
Layer 1
10
23.840463
20
10.186287
70
0
0
VERTEX
8
Layer 1
10
23.840463
20
11.492668
70
0
0
VERTEX
8
Layer 1
10
24.193241
20
11.492668
70
0
0
VERTEX
8
Layer 1
10
24.193241
20
8.532640
70
0
0
VERTEX
8
Layer 1
10
23.840463
20
8.532640
70
0
0
VERTEX
8
Layer 1
10
23.840463
20
9.894143
70
0
0
VERTEX
8
Layer 1
10
22.302571
20
9.894143
70
0
0
VERTEX
8
Layer 1
10
22.302571
20
8.532640
70
0
0
VERTEX
8
Layer 1
10
21.949793
20
8.532640
70
0
0
SEQEND
8
Layer 1
0
POLYLINE
8
Layer 1
62
7
70
1
10
0.000000
20
0.000000
66
1
0
VERTEX
8
Layer 1
10
28.011580
20
8.532640
70
0
0
VERTEX
8
Layer 1
10
29.102987
20
11.492668
70
0
0
VERTEX
8
Layer 1
10
29.477813
20
11.492668
70
0
0
VERTEX
8
Layer 1
10
30.563708
20
8.532640
70
0
0
VERTEX
8
Layer 1
10
30.188881
20
8.532640
70
0
0
VERTEX
8
Layer 1
10
29.918786
20
9.293318
70
0
0
VERTEX
8
Layer 1
10
28.656502
20
9.293318
70
0
0
VERTEX
8
Layer 1
10
28.386406
20
8.532640
70
0
0
VERTEX
8
Layer 1
10
28.011580
20
8.532640
70
0
0
SEQEND
8
Layer 1
0
POLYLINE
8
Layer 1
62
7
70
1
10
0.000000
20
0.000000
66
1
0
VERTEX
8
Layer 1
10
28.766745
20
9.579950
70
0
0
VERTEX
8
Layer 1
10
29.814055
20
9.579950
70
0
0
VERTEX
8
Layer 1
10
29.290400
20
11.046183
70
0
0
VERTEX
8
Layer 1
10
28.766745
20
9.579950
70
0
0
SEQEND
8
Layer 1
0
POLYLINE
8
Layer 1
62
7
70
1
10
0.000000
20
0.000000
66
1
0
VERTEX
8
Layer 1
10
35.729759
20
8.483031
70
0
0
VERTEX
8
Layer 1
10
34.963569
20
8.675956
70
0
0
VERTEX
8
Layer 1
10
34.450939
20
9.210635
70
0
0
VERTEX
8
Layer 1
10
34.269038
20
10.009898
70
0
0
VERTEX
8
Layer 1
10
34.450939
20
10.809161
70
0
0
VERTEX
8
Layer 1
10
34.963569
20
11.349352
70
0
0
VERTEX
8
Layer 1
10
35.729759
20
11.542277
70
0
0
VERTEX
8
Layer 1
10
36.490437
20
11.349352
70
0
0
VERTEX
8
Layer 1
10
37.003067
20
10.809161
70
0
0
VERTEX
8
Layer 1
10
37.184968
20
10.009898
70
0
0
VERTEX
8
Layer 1
10
37.003067
20
9.210635
70
0
0
VERTEX
8
Layer 1
10
36.490437
20
8.675956
70
0
0
VERTEX
8
Layer 1
10
35.729759
20
8.483031
70
0
0
VERTEX
8
Layer 1
10
35.729759
20
8.483031
70
0
0
SEQEND
8
Layer 1
0
POLYLINE
8
Layer 1
62
7
70
1
10
0.000000
20
0.000000
66
1
0
VERTEX
8
Layer 1
10
35.729759
20
8.797224
70
0
0
VERTEX
8
Layer 1
10
36.297511
20
8.940540
70
0
0
VERTEX
8
Layer 1
10
36.683362
20
9.353951
70
0
0
VERTEX
8
Layer 1
10
36.821166
20
10.009898
70
0
0
VERTEX
8
Layer 1
10
36.683362
20
10.660332
70
0
0
VERTEX
8
Layer 1
10
36.297511
20
11.079256
70
0
0
VERTEX
8
Layer 1
10
35.729759
20
11.228084
70
0
0
VERTEX
8
Layer 1
10
35.156495
20
11.079256
70
0
0
VERTEX
8
Layer 1
10
34.770644
20
10.660332
70
0
0
VERTEX
8
Layer 1
10
34.632840
20
10.009898
70
0
0
VERTEX
8
Layer 1
10
34.770644
20
9.353951
70
0
0
VERTEX
8
Layer 1
10
35.156495
20
8.940540
70
0
0
VERTEX
8
Layer 1
10
35.729759
20
8.797224
70
0
0
VERTEX
8
Layer 1
10
35.729759
20
8.797224
70
0
0
SEQEND
8
Layer 1
0
POLYLINE
8
Layer 1
62
7
70
1
10
0.000000
20
0.000000
66
1
0
VERTEX
8
Layer 1
10
42.020272
20
8.483031
70
0
0
VERTEX
8
Layer 1
10
41.452520
20
8.598786
70
0
0
VERTEX
8
Layer 1
10
41.077693
20
8.929515
70
0
0
VERTEX
8
Layer 1
10
40.950913
20
9.420097
70
0
0
VERTEX
8
Layer 1
10
41.320228
20
9.420097
70
0
0
VERTEX
8
Layer 1
10
41.397398
20
9.100392
70
0
0
VERTEX
8
Layer 1
10
41.634421
20
8.868882
70
0
0
VERTEX
8
Layer 1
10
42.020272
20
8.780687
70
0
0
VERTEX
8
Layer 1
10
42.483293
20
8.924003
70
0
0
VERTEX
8
Layer 1
10
42.648657
20
9.287805
70
0
0
VERTEX
8
Layer 1
10
42.571487
20
9.568925
70
0
0
VERTEX
8
Layer 1
10
42.367537
20
9.745314
70
0
0
VERTEX
8
Layer 1
10
42.069881
20
9.861070
70
0
0
VERTEX
8
Layer 1
10
41.722615
20
9.976825
70
0
0
VERTEX
8
Layer 1
10
41.215497
20
10.268969
70
0
0
VERTEX
8
Layer 1
10
41.050132
20
10.731990
70
0
0
VERTEX
8
Layer 1
10
41.160375
20
11.150914
70
0
0
VERTEX
8
Layer 1
10
41.485592
20
11.437546
70
0
0
VERTEX
8
Layer 1
10
41.981687
20
11.542277
70
0
0
VERTEX
8
Layer 1
10
42.472268
20
11.437546
70
0
0
VERTEX
8
Layer 1
10
42.797486
20
11.145402
70
0
0
VERTEX
8
Layer 1
10
42.918753
20
10.720966
70
0
0
VERTEX
8
Layer 1
10
42.549439
20
10.720966
70
0
0
VERTEX
8
Layer 1
10
42.483293
20
10.963501
70
0
0
VERTEX
8
Layer 1
10
42.290367
20
11.161939
70
0
0
VERTEX
8
Layer 1
10
41.970662
20
11.239109
70
0
0
VERTEX
8
Layer 1
10
41.573787
20
11.117841
70
0
0
VERTEX
8
Layer 1
10
41.419447
20
10.765063
70
0
0
VERTEX
8
Layer 1
10
41.524178
20
10.472919
70
0
0
VERTEX
8
Layer 1
10
41.827346
20
10.307554
70
0
0
VERTEX
8
Layer 1
10
42.279343
20
10.158726
70
0
0
VERTEX
8
Layer 1
10
42.654170
20
9.976825
70
0
0
VERTEX
8
Layer 1
10
42.918753
20
9.717754
70
0
0
VERTEX
8
Layer 1
10
43.017972
20
9.304342
70
0
0
VERTEX
8
Layer 1
10
42.907729
20
8.907467
70
0
0
VERTEX
8
Layer 1
10
42.571487
20
8.598786
70
0
0
VERTEX
8
Layer 1
10
42.020272
20
8.483031
70
0
0
VERTEX
8
Layer 1
10
42.020272
20
8.483031
70
0
0
SEQEND
8
Layer 1
0
POLYLINE
8
Layer 1
62
7
70
1
10
0.000000
20
0.000000
66
1
0
VERTEX
8
Layer 1
10
47.340865
20
9.431121
70
0
0
VERTEX
8
Layer 1
10
47.087306
20
9.497267
70
0
0
VERTEX
8
Layer 1
10
46.899893
20
9.684681
70
0
0
VERTEX
8
Layer 1
10
46.833747
20
9.938240
70
0
0
VERTEX
8
Layer 1
10
46.899893
20
10.197311
70
0
0
VERTEX
8
Layer 1
10
47.087306
20
10.384725
70
0
0
VERTEX
8
Layer 1
10
47.340865
20
10.450870
70
0
0
VERTEX
8
Layer 1
10
47.599937
20
10.384725
70
0
0
VERTEX
8
Layer 1
10
47.781838
20
10.197311
70
0
0
VERTEX
8
Layer 1
10
47.847984
20
9.938240
70
0
0
VERTEX
8
Layer 1
10
47.781838
20
9.684681
70
0
0
VERTEX
8
Layer 1
10
47.599937
20
9.497267
70
0
0
VERTEX
8
Layer 1
10
47.340865
20
9.431121
70
0
0
VERTEX
8
Layer 1
10
47.340865
20
9.431121
70
0
0
SEQEND
8
Layer 1
0
POLYLINE
8
Layer 1
62
7
70
1
10
0.000000
20
0.000000
66
1
0
VERTEX
8
Layer 1
10
52.944934
20
8.483031
70
0
0
VERTEX
8
Layer 1
10
52.266938
20
8.675956
70
0
0
VERTEX
8
Layer 1
10
51.825966
20
9.210635
70
0
0
VERTEX
8
Layer 1
10
51.677138
20
10.009898
70
0
0
VERTEX
8
Layer 1
10
51.825966
20
10.809161
70
0
0
VERTEX
8
Layer 1
10
52.266938
20
11.349352
70
0
0
VERTEX
8
Layer 1
10
52.944934
20
11.542277
70
0
0
VERTEX
8
Layer 1
10
53.617417
20
11.349352
70
0
0
VERTEX
8
Layer 1
10
54.052877
20
10.809161
70
0
0
VERTEX
8
Layer 1
10
54.207217
20
10.009898
70
0
0
VERTEX
8
Layer 1
10
54.052877
20
9.210635
70
0
0
VERTEX
8
Layer 1
10
53.617417
20
8.675956
70
0
0
VERTEX
8
Layer 1
10
52.944934
20
8.483031
70
0
0
VERTEX
8
Layer 1
10
52.944934
20
8.483031
70
0
0
SEQEND
8
Layer 1
0
POLYLINE
8
Layer 1
62
7
70
1
10
0.000000
20
0.000000
66
1
0
VERTEX
8
Layer 1
10
52.944934
20
8.797224
70
0
0
VERTEX
8
Layer 1
10
53.407955
20
8.940540
70
0
0
VERTEX
8
Layer 1
10
53.727660
20
9.353951
70
0
0
VERTEX
8
Layer 1
10
53.848927
20
10.009898
70
0
0
VERTEX
8
Layer 1
10
53.727660
20
10.660332
70
0
0
VERTEX
8
Layer 1
10
53.407955
20
11.079256
70
0
0
VERTEX
8
Layer 1
10
52.944934
20
11.228084
70
0
0
VERTEX
8
Layer 1
10
52.481912
20
11.079256
70
0
0
VERTEX
8
Layer 1
10
52.156695
20
10.660332
70
0
0
VERTEX
8
Layer 1
10
52.040940
20
10.009898
70
0
0
VERTEX
8
Layer 1
10
52.156695
20
9.353951
70
0
0
VERTEX
8
Layer 1
10
52.481912
20
8.940540
70
0
0
VERTEX
8
Layer 1
10
52.944934
20
8.797224
70
0
0
VERTEX
8
Layer 1
10
52.944934
20
8.797224
70
0
0
SEQEND
8
Layer 1
0
POLYLINE
8
Layer 1
62
7
70
1
10
0.000000
20
0.000000
66
1
0
VERTEX
8
Layer 1
10
59.253334
20
8.483031
70
0
0
VERTEX
8
Layer 1
10
58.575338
20
8.675956
70
0
0
VERTEX
8
Layer 1
10
58.134366
20
9.210635
70
0
0
VERTEX
8
Layer 1
10
57.985538
20
10.009898
70
0
0
VERTEX
8
Layer 1
10
58.134366
20
10.809161
70
0
0
VERTEX
8
Layer 1
10
58.575338
20
11.349352
70
0
0
VERTEX
8
Layer 1
10
59.253334
20
11.542277
70
0
0
VERTEX
8
Layer 1
10
59.925817
20
11.349352
70
0
0
VERTEX
8
Layer 1
10
60.361277
20
10.809161
70
0
0
VERTEX
8
Layer 1
10
60.515617
20
10.009898
70
0
0
VERTEX
8
Layer 1
10
60.361277
20
9.210635
70
0
0
VERTEX
8
Layer 1
10
59.925817
20
8.675956
70
0
0
VERTEX
8
Layer 1
10
59.253334
20
8.483031
70
0
0
VERTEX
8
Layer 1
10
59.253334
20
8.483031
70
0
0
SEQEND
8
Layer 1
0
POLYLINE
8
Layer 1
62
7
70
1
10
0.000000
20
0.000000
66
1
0
VERTEX
8
Layer 1
10
59.253334
20
8.797224
70
0
0
VERTEX
8
Layer 1
10
59.716355
20
8.940540
70
0
0
VERTEX
8
Layer 1
10
60.036060
20
9.353951
70
0
0
VERTEX
8
Layer 1
10
60.157327
20
10.009898
70
0
0
VERTEX
8
Layer 1
10
60.036060
20
10.660332
70
0
0
VERTEX
8
Layer 1
10
59.716355
20
11.079256
70
0
0
VERTEX
8
Layer 1
10
59.253334
20
11.228084
70
0
0
VERTEX
8
Layer 1
10
58.790312
20
11.079256
70
0
0
VERTEX
8
Layer 1
10
58.465095
20
10.660332
70
0
0
VERTEX
8
Layer 1
10
58.349340
20
10.009898
70
0
0
VERTEX
8
Layer 1
10
58.465095
20
9.353951
70
0
0
VERTEX
8
Layer 1
10
58.790312
20
8.940540
70
0
0
VERTEX
8
Layer 1
10
59.253334
20
8.797224
70
0
0
VERTEX
8
Layer 1
10
59.253334
20
8.797224
70
0
0
SEQEND
8
Layer 1
0
POLYLINE
8
Layer 1
62
7
70
1
10
0.000000
20
0.000000
66
1
0
VERTEX
8
Layer 1
10
64.701837
20
8.532640
70
0
0
VERTEX
8
Layer 1
10
64.701837
20
11.095793
70
0
0
VERTEX
8
Layer 1
10
64.222280
20
10.991062
70
0
0
VERTEX
8
Layer 1
10
64.222280
20
11.233597
70
0
0
VERTEX
8
Layer 1
10
64.817592
20
11.492668
70
0
0
VERTEX
8
Layer 1
10
65.060127
20
11.492668
70
0
0
VERTEX
8
Layer 1
10
65.060127
20
8.532640
70
0
0
VERTEX
8
Layer 1
10
64.701837
20
8.532640
70
0
0
SEQEND
8
Layer 1
0
POLYLINE
8
Layer 1
62
7
70
1
10
0.000000
20
0.000000
66
1
0
VERTEX
8
Layer 1
10
69.016384
20
8.532640
70
0
0
VERTEX
8
Layer 1
10
69.016384
20
8.780687
70
0
0
VERTEX
8
Layer 1
10
69.584136
20
9.260245
70
0
0
VERTEX
8
Layer 1
10
70.063693
20
9.739802
70
0
0
VERTEX
8
Layer 1
10
70.394423
20
10.202823
70
0
0
VERTEX
8
Layer 1
10
70.515690
20
10.643796
70
0
0
VERTEX
8
Layer 1
10
70.460568
20
10.935940
70
0
0
VERTEX
8
Layer 1
10
70.289692
20
11.156426
70
0
0
VERTEX
8
Layer 1
10
69.969987
20
11.239109
70
0
0
VERTEX
8
Layer 1
10
69.644769
20
11.150914
70
0
0
VERTEX
8
Layer 1
10
69.446332
20
10.919404
70
0
0
VERTEX
8
Layer 1
10
69.380186
20
10.610723
70
0
0
VERTEX
8
Layer 1
10
69.038432
20
10.610723
70
0
0
VERTEX
8
Layer 1
10
69.159700
20
11.112329
70
0
0
VERTEX
8
Layer 1
10
69.495941
20
11.432034
70
0
0
VERTEX
8
Layer 1
10
69.975499
20
11.542277
70
0
0
VERTEX
8
Layer 1
10
70.614909
20
11.321791
70
0
0
VERTEX
8
Layer 1
10
70.804734
20
11.045839
70
0
0
VERTEX
8
Layer 1
10
70.868468
20
10.660332
70
0
0
VERTEX
8
Layer 1
10
70.736176
20
10.136677
70
0
0
VERTEX
8
Layer 1
10
70.405447
20
9.646096
70
0
0
VERTEX
8
Layer 1
10
69.969987
20
9.199611
70
0
0
VERTEX
8
Layer 1
10
69.540038
20
8.830296
70
0
0
VERTEX
8
Layer 1
10
70.973199
20
8.830296
70
0
0
VERTEX
8
Layer 1
10
70.973199
20
8.532640
70
0
0
VERTEX
8
Layer 1
10
69.016384
20
8.532640
70
0
0
SEQEND
8
Layer 1
0
POLYLINE
8
Layer 1
62
7
70
1
10
0.000000
20
0.000000
66
1
0
VERTEX
8
Layer 1
10
75.838445
20
8.483031
70
0
0
VERTEX
8
Layer 1
10
75.358887
20
8.593274
70
0
0
VERTEX
8
Layer 1
10
75.044694
20
8.885418
70
0
0
VERTEX
8
Layer 1
10
74.901378
20
9.293318
70
0
0
VERTEX
8
Layer 1
10
75.232107
20
9.293318
70
0
0
VERTEX
8
Layer 1
10
75.436057
20
8.918491
70
0
0
VERTEX
8
Layer 1
10
75.843957
20
8.791711
70
0
0
VERTEX
8
Layer 1
10
76.150743
20
8.870260
70
0
0
VERTEX
8
Layer 1
10
76.400684
20
9.105904
70
0
0
VERTEX
8
Layer 1
10
76.643219
20
10.087068
70
0
0
VERTEX
8
Layer 1
10
76.318002
20
9.739802
70
0
0
VERTEX
8
Layer 1
10
75.788835
20
9.596486
70
0
0
VERTEX
8
Layer 1
10
75.309278
20
9.712241
70
0
0
VERTEX
8
Layer 1
10
74.950987
20
10.048483
70
0
0
VERTEX
8
Layer 1
10
74.813183
20
10.550089
70
0
0
VERTEX
8
Layer 1
10
74.934451
20
11.024135
70
0
0
VERTEX
8
Layer 1
10
75.287229
20
11.398961
70
0
0
VERTEX
8
Layer 1
10
75.832932
20
11.542277
70
0
0
VERTEX
8
Layer 1
10
76.373124
20
11.421010
70
0
0
VERTEX
8
Layer 1
10
76.725902
20
11.095793
70
0
0
VERTEX
8
Layer 1
10
76.924339
20
10.643796
70
0
0
VERTEX
8
Layer 1
10
76.984973
20
10.131165
70
0
0
VERTEX
8
Layer 1
10
76.847169
20
9.271269
70
0
0
VERTEX
8
Layer 1
10
76.455806
20
8.692493
70
0
0
VERTEX
8
Layer 1
10
75.838445
20
8.483031
70
0
0
VERTEX
8
Layer 1
10
75.838445
20
8.483031
70
0
0
SEQEND
8
Layer 1
0
POLYLINE
8
Layer 1
62
7
70
1
10
0.000000
20
0.000000
66
1
0
VERTEX
8
Layer 1
10
75.860493
20
9.905167
70
0
0
VERTEX
8
Layer 1
10
76.213271
20
9.993361
70
0
0
VERTEX
8
Layer 1
10
76.461318
20
10.235896
70
0
0
VERTEX
8
Layer 1
10
76.555025
20
10.572138
70
0
0
VERTEX
8
Layer 1
10
76.461318
20
10.908379
70
0
0
VERTEX
8
Layer 1
10
76.213271
20
11.145402
70
0
0
VERTEX
8
Layer 1
10
75.860493
20
11.228084
70
0
0
VERTEX
8
Layer 1
10
75.502203
20
11.145402
70
0
0
VERTEX
8
Layer 1
10
75.259668
20
10.908379
70
0
0
VERTEX
8
Layer 1
10
75.171474
20
10.566626
70
0
0
VERTEX
8
Layer 1
10
75.364399
20
10.081556
70
0
0
VERTEX
8
Layer 1
10
75.860493
20
9.905167
70
0
0
VERTEX
8
Layer 1
10
75.860493
20
9.905167
70
0
0
SEQEND
8
Layer 1
 0 
ENDSEC
 0 
EOF