999
"DXF R12 Output" (www.mydxf.blogspot.com)
 0 
SECTION
 2 
HEADER
 9 
$ACADVER
 1 
AC1009
 9 
$EXTMIN
 10 
 0 
 20 
 0 
 9 
$EXTMAX
 10 
 8.5 
 20 
 11 
 0 
ENDSEC
 0 
SECTION
 2 
ENTITIES
0
POLYLINE
8
Layer 1
62
7
70
1
10
0.000000
20
0.000000
66
1
0
VERTEX
8
Layer 1
10
0.000000
20
92.604200
70
0
0
VERTEX
8
Layer 1
10
92.427836
20
92.604200
70
0
0
VERTEX
8
Layer 1
10
92.427836
20
0.176364
70
0
0
VERTEX
8
Layer 1
10
0.000000
20
0.176364
70
0
0
VERTEX
8
Layer 1
10
0.000000
20
92.604200
70
0
0
SEQEND
8
Layer 1
0
POLYLINE
8
Layer 1
62
7
70
1
10
0.000000
20
0.000000
66
1
0
VERTEX
8
Layer 1
10
0.000000
20
92.604200
70
0
0
VERTEX
8
Layer 1
10
92.427836
20
92.604200
70
0
0
VERTEX
8
Layer 1
10
92.427836
20
0.176364
70
0
0
VERTEX
8
Layer 1
10
0.000000
20
0.176364
70
0
0
VERTEX
8
Layer 1
10
0.000000
20
92.604200
70
0
0
SEQEND
8
Layer 1
0
POLYLINE
8
Layer 1
62
7
70
1
10
0.000000
20
0.000000
66
1
0
VERTEX
8
Layer 1
10
17.598250
20
8.483031
70
0
0
VERTEX
8
Layer 1
10
16.848596
20
8.675956
70
0
0
VERTEX
8
Layer 1
10
16.358014
20
9.210635
70
0
0
VERTEX
8
Layer 1
10
16.187138
20
10.009898
70
0
0
VERTEX
8
Layer 1
10
16.358014
20
10.809161
70
0
0
VERTEX
8
Layer 1
10
16.848596
20
11.349352
70
0
0
VERTEX
8
Layer 1
10
17.598250
20
11.542277
70
0
0
VERTEX
8
Layer 1
10
18.425073
20
11.299742
70
0
0
VERTEX
8
Layer 1
10
18.832973
20
10.621747
70
0
0
VERTEX
8
Layer 1
10
18.441610
20
10.621747
70
0
0
VERTEX
8
Layer 1
10
18.166002
20
11.062720
70
0
0
VERTEX
8
Layer 1
10
17.598250
20
11.228084
70
0
0
VERTEX
8
Layer 1
10
17.047034
20
11.079256
70
0
0
VERTEX
8
Layer 1
10
16.677720
20
10.660332
70
0
0
VERTEX
8
Layer 1
10
16.550940
20
10.009898
70
0
0
VERTEX
8
Layer 1
10
16.677720
20
9.353951
70
0
0
VERTEX
8
Layer 1
10
17.047034
20
8.940540
70
0
0
VERTEX
8
Layer 1
10
17.598250
20
8.797224
70
0
0
VERTEX
8
Layer 1
10
18.166002
20
8.957076
70
0
0
VERTEX
8
Layer 1
10
18.441610
20
9.392536
70
0
0
VERTEX
8
Layer 1
10
18.832973
20
9.392536
70
0
0
VERTEX
8
Layer 1
10
18.425073
20
8.720053
70
0
0
VERTEX
8
Layer 1
10
17.598250
20
8.483031
70
0
0
VERTEX
8
Layer 1
10
17.598250
20
8.483031
70
0
0
SEQEND
8
Layer 1
0
POLYLINE
8
Layer 1
62
7
70
1
10
0.000000
20
0.000000
66
1
0
VERTEX
8
Layer 1
10
22.725393
20
8.532640
70
0
0
VERTEX
8
Layer 1
10
22.725393
20
11.492668
70
0
0
VERTEX
8
Layer 1
10
23.078171
20
11.492668
70
0
0
VERTEX
8
Layer 1
10
23.078171
20
10.186287
70
0
0
VERTEX
8
Layer 1
10
24.616063
20
10.186287
70
0
0
VERTEX
8
Layer 1
10
24.616063
20
11.492668
70
0
0
VERTEX
8
Layer 1
10
24.968840
20
11.492668
70
0
0
VERTEX
8
Layer 1
10
24.968840
20
8.532640
70
0
0
VERTEX
8
Layer 1
10
24.616063
20
8.532640
70
0
0
VERTEX
8
Layer 1
10
24.616063
20
9.894143
70
0
0
VERTEX
8
Layer 1
10
23.078171
20
9.894143
70
0
0
VERTEX
8
Layer 1
10
23.078171
20
8.532640
70
0
0
VERTEX
8
Layer 1
10
22.725393
20
8.532640
70
0
0
SEQEND
8
Layer 1
0
POLYLINE
8
Layer 1
62
7
70
1
10
0.000000
20
0.000000
66
1
0
VERTEX
8
Layer 1
10
28.787180
20
8.532640
70
0
0
VERTEX
8
Layer 1
10
29.878587
20
11.492668
70
0
0
VERTEX
8
Layer 1
10
30.253413
20
11.492668
70
0
0
VERTEX
8
Layer 1
10
31.339308
20
8.532640
70
0
0
VERTEX
8
Layer 1
10
30.964481
20
8.532640
70
0
0
VERTEX
8
Layer 1
10
30.694386
20
9.293318
70
0
0
VERTEX
8
Layer 1
10
29.432102
20
9.293318
70
0
0
VERTEX
8
Layer 1
10
29.162006
20
8.532640
70
0
0
VERTEX
8
Layer 1
10
28.787180
20
8.532640
70
0
0
SEQEND
8
Layer 1
0
POLYLINE
8
Layer 1
62
7
70
1
10
0.000000
20
0.000000
66
1
0
VERTEX
8
Layer 1
10
29.542345
20
9.579950
70
0
0
VERTEX
8
Layer 1
10
30.589655
20
9.579950
70
0
0
VERTEX
8
Layer 1
10
30.066000
20
11.046183
70
0
0
VERTEX
8
Layer 1
10
29.542345
20
9.579950
70
0
0
SEQEND
8
Layer 1
0
POLYLINE
8
Layer 1
62
7
70
1
10
0.000000
20
0.000000
66
1
0
VERTEX
8
Layer 1
10
36.505359
20
8.483031
70
0
0
VERTEX
8
Layer 1
10
35.739169
20
8.675956
70
0
0
VERTEX
8
Layer 1
10
35.226539
20
9.210635
70
0
0
VERTEX
8
Layer 1
10
35.044638
20
10.009898
70
0
0
VERTEX
8
Layer 1
10
35.226539
20
10.809161
70
0
0
VERTEX
8
Layer 1
10
35.739169
20
11.349352
70
0
0
VERTEX
8
Layer 1
10
36.505359
20
11.542277
70
0
0
VERTEX
8
Layer 1
10
37.266037
20
11.349352
70
0
0
VERTEX
8
Layer 1
10
37.778667
20
10.809161
70
0
0
VERTEX
8
Layer 1
10
37.960568
20
10.009898
70
0
0
VERTEX
8
Layer 1
10
37.778667
20
9.210635
70
0
0
VERTEX
8
Layer 1
10
37.266037
20
8.675956
70
0
0
VERTEX
8
Layer 1
10
36.505359
20
8.483031
70
0
0
VERTEX
8
Layer 1
10
36.505359
20
8.483031
70
0
0
SEQEND
8
Layer 1
0
POLYLINE
8
Layer 1
62
7
70
1
10
0.000000
20
0.000000
66
1
0
VERTEX
8
Layer 1
10
36.505359
20
8.797224
70
0
0
VERTEX
8
Layer 1
10
37.073111
20
8.940540
70
0
0
VERTEX
8
Layer 1
10
37.458962
20
9.353951
70
0
0
VERTEX
8
Layer 1
10
37.596766
20
10.009898
70
0
0
VERTEX
8
Layer 1
10
37.458962
20
10.660332
70
0
0
VERTEX
8
Layer 1
10
37.073111
20
11.079256
70
0
0
VERTEX
8
Layer 1
10
36.505359
20
11.228084
70
0
0
VERTEX
8
Layer 1
10
35.932095
20
11.079256
70
0
0
VERTEX
8
Layer 1
10
35.546244
20
10.660332
70
0
0
VERTEX
8
Layer 1
10
35.408440
20
10.009898
70
0
0
VERTEX
8
Layer 1
10
35.546244
20
9.353951
70
0
0
VERTEX
8
Layer 1
10
35.932095
20
8.940540
70
0
0
VERTEX
8
Layer 1
10
36.505359
20
8.797224
70
0
0
VERTEX
8
Layer 1
10
36.505359
20
8.797224
70
0
0
SEQEND
8
Layer 1
0
POLYLINE
8
Layer 1
62
7
70
1
10
0.000000
20
0.000000
66
1
0
VERTEX
8
Layer 1
10
42.795672
20
8.483031
70
0
0
VERTEX
8
Layer 1
10
42.227920
20
8.598786
70
0
0
VERTEX
8
Layer 1
10
41.853093
20
8.929515
70
0
0
VERTEX
8
Layer 1
10
41.726313
20
9.420097
70
0
0
VERTEX
8
Layer 1
10
42.095628
20
9.420097
70
0
0
VERTEX
8
Layer 1
10
42.172798
20
9.100392
70
0
0
VERTEX
8
Layer 1
10
42.409821
20
8.868882
70
0
0
VERTEX
8
Layer 1
10
42.795672
20
8.780687
70
0
0
VERTEX
8
Layer 1
10
43.258693
20
8.924003
70
0
0
VERTEX
8
Layer 1
10
43.424057
20
9.287805
70
0
0
VERTEX
8
Layer 1
10
43.346887
20
9.568925
70
0
0
VERTEX
8
Layer 1
10
43.142937
20
9.745314
70
0
0
VERTEX
8
Layer 1
10
42.845281
20
9.861070
70
0
0
VERTEX
8
Layer 1
10
42.498015
20
9.976825
70
0
0
VERTEX
8
Layer 1
10
41.990897
20
10.268969
70
0
0
VERTEX
8
Layer 1
10
41.825532
20
10.731990
70
0
0
VERTEX
8
Layer 1
10
41.935775
20
11.150914
70
0
0
VERTEX
8
Layer 1
10
42.260992
20
11.437546
70
0
0
VERTEX
8
Layer 1
10
42.757087
20
11.542277
70
0
0
VERTEX
8
Layer 1
10
43.247668
20
11.437546
70
0
0
VERTEX
8
Layer 1
10
43.572886
20
11.145402
70
0
0
VERTEX
8
Layer 1
10
43.694153
20
10.720966
70
0
0
VERTEX
8
Layer 1
10
43.324839
20
10.720966
70
0
0
VERTEX
8
Layer 1
10
43.258693
20
10.963501
70
0
0
VERTEX
8
Layer 1
10
43.065767
20
11.161939
70
0
0
VERTEX
8
Layer 1
10
42.746062
20
11.239109
70
0
0
VERTEX
8
Layer 1
10
42.349187
20
11.117841
70
0
0
VERTEX
8
Layer 1
10
42.194847
20
10.765063
70
0
0
VERTEX
8
Layer 1
10
42.299578
20
10.472919
70
0
0
VERTEX
8
Layer 1
10
42.602746
20
10.307554
70
0
0
VERTEX
8
Layer 1
10
43.054743
20
10.158726
70
0
0
VERTEX
8
Layer 1
10
43.429570
20
9.976825
70
0
0
VERTEX
8
Layer 1
10
43.694153
20
9.717754
70
0
0
VERTEX
8
Layer 1
10
43.793372
20
9.304342
70
0
0
VERTEX
8
Layer 1
10
43.683129
20
8.907467
70
0
0
VERTEX
8
Layer 1
10
43.346887
20
8.598786
70
0
0
VERTEX
8
Layer 1
10
42.795672
20
8.483031
70
0
0
VERTEX
8
Layer 1
10
42.795672
20
8.483031
70
0
0
SEQEND
8
Layer 1
0
POLYLINE
8
Layer 1
62
7
70
1
10
0.000000
20
0.000000
66
1
0
VERTEX
8
Layer 1
10
48.116665
20
9.431121
70
0
0
VERTEX
8
Layer 1
10
47.863106
20
9.497267
70
0
0
VERTEX
8
Layer 1
10
47.675693
20
9.684681
70
0
0
VERTEX
8
Layer 1
10
47.609547
20
9.938240
70
0
0
VERTEX
8
Layer 1
10
47.675693
20
10.197311
70
0
0
VERTEX
8
Layer 1
10
47.863106
20
10.384725
70
0
0
VERTEX
8
Layer 1
10
48.116665
20
10.450870
70
0
0
VERTEX
8
Layer 1
10
48.375737
20
10.384725
70
0
0
VERTEX
8
Layer 1
10
48.557638
20
10.197311
70
0
0
VERTEX
8
Layer 1
10
48.623784
20
9.938240
70
0
0
VERTEX
8
Layer 1
10
48.557638
20
9.684681
70
0
0
VERTEX
8
Layer 1
10
48.375737
20
9.497267
70
0
0
VERTEX
8
Layer 1
10
48.116665
20
9.431121
70
0
0
VERTEX
8
Layer 1
10
48.116665
20
9.431121
70
0
0
SEQEND
8
Layer 1
0
POLYLINE
8
Layer 1
62
7
70
1
10
0.000000
20
0.000000
66
1
0
VERTEX
8
Layer 1
10
53.720734
20
8.483031
70
0
0
VERTEX
8
Layer 1
10
53.042738
20
8.675956
70
0
0
VERTEX
8
Layer 1
10
52.601766
20
9.210635
70
0
0
VERTEX
8
Layer 1
10
52.452938
20
10.009898
70
0
0
VERTEX
8
Layer 1
10
52.601766
20
10.809161
70
0
0
VERTEX
8
Layer 1
10
53.042738
20
11.349352
70
0
0
VERTEX
8
Layer 1
10
53.720734
20
11.542277
70
0
0
VERTEX
8
Layer 1
10
54.393217
20
11.349352
70
0
0
VERTEX
8
Layer 1
10
54.828677
20
10.809161
70
0
0
VERTEX
8
Layer 1
10
54.983017
20
10.009898
70
0
0
VERTEX
8
Layer 1
10
54.828677
20
9.210635
70
0
0
VERTEX
8
Layer 1
10
54.393217
20
8.675956
70
0
0
VERTEX
8
Layer 1
10
53.720734
20
8.483031
70
0
0
VERTEX
8
Layer 1
10
53.720734
20
8.483031
70
0
0
SEQEND
8
Layer 1
0
POLYLINE
8
Layer 1
62
7
70
1
10
0.000000
20
0.000000
66
1
0
VERTEX
8
Layer 1
10
53.720734
20
8.797224
70
0
0
VERTEX
8
Layer 1
10
54.183755
20
8.940540
70
0
0
VERTEX
8
Layer 1
10
54.503460
20
9.353951
70
0
0
VERTEX
8
Layer 1
10
54.624727
20
10.009898
70
0
0
VERTEX
8
Layer 1
10
54.503460
20
10.660332
70
0
0
VERTEX
8
Layer 1
10
54.183755
20
11.079256
70
0
0
VERTEX
8
Layer 1
10
53.720734
20
11.228084
70
0
0
VERTEX
8
Layer 1
10
53.257712
20
11.079256
70
0
0
VERTEX
8
Layer 1
10
52.932495
20
10.660332
70
0
0
VERTEX
8
Layer 1
10
52.816740
20
10.009898
70
0
0
VERTEX
8
Layer 1
10
52.932495
20
9.353951
70
0
0
VERTEX
8
Layer 1
10
53.257712
20
8.940540
70
0
0
VERTEX
8
Layer 1
10
53.720734
20
8.797224
70
0
0
VERTEX
8
Layer 1
10
53.720734
20
8.797224
70
0
0
SEQEND
8
Layer 1
0
POLYLINE
8
Layer 1
62
7
70
1
10
0.000000
20
0.000000
66
1
0
VERTEX
8
Layer 1
10
60.029134
20
8.483031
70
0
0
VERTEX
8
Layer 1
10
59.351138
20
8.675956
70
0
0
VERTEX
8
Layer 1
10
58.910166
20
9.210635
70
0
0
VERTEX
8
Layer 1
10
58.761338
20
10.009898
70
0
0
VERTEX
8
Layer 1
10
58.910166
20
10.809161
70
0
0
VERTEX
8
Layer 1
10
59.351138
20
11.349352
70
0
0
VERTEX
8
Layer 1
10
60.029134
20
11.542277
70
0
0
VERTEX
8
Layer 1
10
60.701617
20
11.349352
70
0
0
VERTEX
8
Layer 1
10
61.137077
20
10.809161
70
0
0
VERTEX
8
Layer 1
10
61.291417
20
10.009898
70
0
0
VERTEX
8
Layer 1
10
61.137077
20
9.210635
70
0
0
VERTEX
8
Layer 1
10
60.701617
20
8.675956
70
0
0
VERTEX
8
Layer 1
10
60.029134
20
8.483031
70
0
0
VERTEX
8
Layer 1
10
60.029134
20
8.483031
70
0
0
SEQEND
8
Layer 1
0
POLYLINE
8
Layer 1
62
7
70
1
10
0.000000
20
0.000000
66
1
0
VERTEX
8
Layer 1
10
60.029134
20
8.797224
70
0
0
VERTEX
8
Layer 1
10
60.492155
20
8.940540
70
0
0
VERTEX
8
Layer 1
10
60.811860
20
9.353951
70
0
0
VERTEX
8
Layer 1
10
60.933127
20
10.009898
70
0
0
VERTEX
8
Layer 1
10
60.811860
20
10.660332
70
0
0
VERTEX
8
Layer 1
10
60.492155
20
11.079256
70
0
0
VERTEX
8
Layer 1
10
60.029134
20
11.228084
70
0
0
VERTEX
8
Layer 1
10
59.566112
20
11.079256
70
0
0
VERTEX
8
Layer 1
10
59.240895
20
10.660332
70
0
0
VERTEX
8
Layer 1
10
59.125140
20
10.009898
70
0
0
VERTEX
8
Layer 1
10
59.240895
20
9.353951
70
0
0
VERTEX
8
Layer 1
10
59.566112
20
8.940540
70
0
0
VERTEX
8
Layer 1
10
60.029134
20
8.797224
70
0
0
VERTEX
8
Layer 1
10
60.029134
20
8.797224
70
0
0
SEQEND
8
Layer 1
0
POLYLINE
8
Layer 1
62
7
70
1
10
0.000000
20
0.000000
66
1
0
VERTEX
8
Layer 1
10
65.477237
20
8.532640
70
0
0
VERTEX
8
Layer 1
10
65.477237
20
11.095793
70
0
0
VERTEX
8
Layer 1
10
64.997680
20
10.991062
70
0
0
VERTEX
8
Layer 1
10
64.997680
20
11.233597
70
0
0
VERTEX
8
Layer 1
10
65.592992
20
11.492668
70
0
0
VERTEX
8
Layer 1
10
65.835527
20
11.492668
70
0
0
VERTEX
8
Layer 1
10
65.835527
20
8.532640
70
0
0
VERTEX
8
Layer 1
10
65.477237
20
8.532640
70
0
0
SEQEND
8
Layer 1
0
POLYLINE
8
Layer 1
62
7
70
1
10
0.000000
20
0.000000
66
1
0
VERTEX
8
Layer 1
10
70.133537
20
8.532640
70
0
0
VERTEX
8
Layer 1
10
70.133537
20
11.095793
70
0
0
VERTEX
8
Layer 1
10
69.653980
20
10.991062
70
0
0
VERTEX
8
Layer 1
10
69.653980
20
11.233597
70
0
0
VERTEX
8
Layer 1
10
70.249292
20
11.492668
70
0
0
VERTEX
8
Layer 1
10
70.491827
20
11.492668
70
0
0
VERTEX
8
Layer 1
10
70.491827
20
8.532640
70
0
0
VERTEX
8
Layer 1
10
70.133537
20
8.532640
70
0
0
SEQEND
8
Layer 1
0
POLYLINE
8
Layer 1
62
7
70
1
10
0.000000
20
0.000000
66
1
0
VERTEX
8
Layer 1
10
74.740628
20
8.532640
70
0
0
VERTEX
8
Layer 1
10
75.914717
20
11.189499
70
0
0
VERTEX
8
Layer 1
10
74.294143
20
11.189499
70
0
0
VERTEX
8
Layer 1
10
74.294143
20
11.492668
70
0
0
VERTEX
8
Layer 1
10
76.278519
20
11.492668
70
0
0
VERTEX
8
Layer 1
10
76.278519
20
11.228084
70
0
0
VERTEX
8
Layer 1
10
75.120967
20
8.532640
70
0
0
VERTEX
8
Layer 1
10
74.740628
20
8.532640
70
0
0
SEQEND
8
Layer 1
 0 
ENDSEC
 0 
EOF