999
"DXF R12 Output" (www.mydxf.blogspot.com)
 0 
SECTION
 2 
HEADER
 9 
$ACADVER
 1 
AC1009
 9 
$EXTMIN
 10 
 0 
 20 
 0 
 9 
$EXTMAX
 10 
 8.5 
 20 
 11 
 0 
ENDSEC
 0 
SECTION
 2 
ENTITIES
0
POLYLINE
8
Layer 1
62
7
70
1
10
0.000000
20
0.000000
66
1
0
VERTEX
8
Layer 1
10
0.000000
20
92.604200
70
0
0
VERTEX
8
Layer 1
10
92.427836
20
92.604200
70
0
0
VERTEX
8
Layer 1
10
92.427836
20
0.176364
70
0
0
VERTEX
8
Layer 1
10
0.000000
20
0.176364
70
0
0
VERTEX
8
Layer 1
10
0.000000
20
92.604200
70
0
0
SEQEND
8
Layer 1
0
POLYLINE
8
Layer 1
62
7
70
1
10
0.000000
20
0.000000
66
1
0
VERTEX
8
Layer 1
10
0.000000
20
92.604200
70
0
0
VERTEX
8
Layer 1
10
92.427836
20
92.604200
70
0
0
VERTEX
8
Layer 1
10
92.427836
20
0.176364
70
0
0
VERTEX
8
Layer 1
10
0.000000
20
0.176364
70
0
0
VERTEX
8
Layer 1
10
0.000000
20
92.604200
70
0
0
SEQEND
8
Layer 1
0
POLYLINE
8
Layer 1
62
7
70
1
10
0.000000
20
0.000000
66
1
0
VERTEX
8
Layer 1
10
17.482850
20
8.483031
70
0
0
VERTEX
8
Layer 1
10
16.733196
20
8.675956
70
0
0
VERTEX
8
Layer 1
10
16.242614
20
9.210635
70
0
0
VERTEX
8
Layer 1
10
16.071738
20
10.009898
70
0
0
VERTEX
8
Layer 1
10
16.242614
20
10.809161
70
0
0
VERTEX
8
Layer 1
10
16.733196
20
11.349352
70
0
0
VERTEX
8
Layer 1
10
17.482850
20
11.542277
70
0
0
VERTEX
8
Layer 1
10
18.309673
20
11.299742
70
0
0
VERTEX
8
Layer 1
10
18.717573
20
10.621747
70
0
0
VERTEX
8
Layer 1
10
18.326210
20
10.621747
70
0
0
VERTEX
8
Layer 1
10
18.050602
20
11.062720
70
0
0
VERTEX
8
Layer 1
10
17.482850
20
11.228084
70
0
0
VERTEX
8
Layer 1
10
16.931634
20
11.079256
70
0
0
VERTEX
8
Layer 1
10
16.562320
20
10.660332
70
0
0
VERTEX
8
Layer 1
10
16.435540
20
10.009898
70
0
0
VERTEX
8
Layer 1
10
16.562320
20
9.353951
70
0
0
VERTEX
8
Layer 1
10
16.931634
20
8.940540
70
0
0
VERTEX
8
Layer 1
10
17.482850
20
8.797224
70
0
0
VERTEX
8
Layer 1
10
18.050602
20
8.957076
70
0
0
VERTEX
8
Layer 1
10
18.326210
20
9.392536
70
0
0
VERTEX
8
Layer 1
10
18.717573
20
9.392536
70
0
0
VERTEX
8
Layer 1
10
18.309673
20
8.720053
70
0
0
VERTEX
8
Layer 1
10
17.482850
20
8.483031
70
0
0
VERTEX
8
Layer 1
10
17.482850
20
8.483031
70
0
0
SEQEND
8
Layer 1
0
POLYLINE
8
Layer 1
62
7
70
1
10
0.000000
20
0.000000
66
1
0
VERTEX
8
Layer 1
10
22.609993
20
8.532640
70
0
0
VERTEX
8
Layer 1
10
22.609993
20
11.492668
70
0
0
VERTEX
8
Layer 1
10
22.962771
20
11.492668
70
0
0
VERTEX
8
Layer 1
10
22.962771
20
10.186287
70
0
0
VERTEX
8
Layer 1
10
24.500663
20
10.186287
70
0
0
VERTEX
8
Layer 1
10
24.500663
20
11.492668
70
0
0
VERTEX
8
Layer 1
10
24.853440
20
11.492668
70
0
0
VERTEX
8
Layer 1
10
24.853440
20
8.532640
70
0
0
VERTEX
8
Layer 1
10
24.500663
20
8.532640
70
0
0
VERTEX
8
Layer 1
10
24.500663
20
9.894143
70
0
0
VERTEX
8
Layer 1
10
22.962771
20
9.894143
70
0
0
VERTEX
8
Layer 1
10
22.962771
20
8.532640
70
0
0
VERTEX
8
Layer 1
10
22.609993
20
8.532640
70
0
0
SEQEND
8
Layer 1
0
POLYLINE
8
Layer 1
62
7
70
1
10
0.000000
20
0.000000
66
1
0
VERTEX
8
Layer 1
10
28.671780
20
8.532640
70
0
0
VERTEX
8
Layer 1
10
29.763187
20
11.492668
70
0
0
VERTEX
8
Layer 1
10
30.138013
20
11.492668
70
0
0
VERTEX
8
Layer 1
10
31.223908
20
8.532640
70
0
0
VERTEX
8
Layer 1
10
30.849081
20
8.532640
70
0
0
VERTEX
8
Layer 1
10
30.578986
20
9.293318
70
0
0
VERTEX
8
Layer 1
10
29.316702
20
9.293318
70
0
0
VERTEX
8
Layer 1
10
29.046606
20
8.532640
70
0
0
VERTEX
8
Layer 1
10
28.671780
20
8.532640
70
0
0
SEQEND
8
Layer 1
0
POLYLINE
8
Layer 1
62
7
70
1
10
0.000000
20
0.000000
66
1
0
VERTEX
8
Layer 1
10
29.426945
20
9.579950
70
0
0
VERTEX
8
Layer 1
10
30.474255
20
9.579950
70
0
0
VERTEX
8
Layer 1
10
29.950600
20
11.046183
70
0
0
VERTEX
8
Layer 1
10
29.426945
20
9.579950
70
0
0
SEQEND
8
Layer 1
0
POLYLINE
8
Layer 1
62
7
70
1
10
0.000000
20
0.000000
66
1
0
VERTEX
8
Layer 1
10
36.389959
20
8.483031
70
0
0
VERTEX
8
Layer 1
10
35.623769
20
8.675956
70
0
0
VERTEX
8
Layer 1
10
35.111139
20
9.210635
70
0
0
VERTEX
8
Layer 1
10
34.929238
20
10.009898
70
0
0
VERTEX
8
Layer 1
10
35.111139
20
10.809161
70
0
0
VERTEX
8
Layer 1
10
35.623769
20
11.349352
70
0
0
VERTEX
8
Layer 1
10
36.389959
20
11.542277
70
0
0
VERTEX
8
Layer 1
10
37.150637
20
11.349352
70
0
0
VERTEX
8
Layer 1
10
37.663267
20
10.809161
70
0
0
VERTEX
8
Layer 1
10
37.845168
20
10.009898
70
0
0
VERTEX
8
Layer 1
10
37.663267
20
9.210635
70
0
0
VERTEX
8
Layer 1
10
37.150637
20
8.675956
70
0
0
VERTEX
8
Layer 1
10
36.389959
20
8.483031
70
0
0
VERTEX
8
Layer 1
10
36.389959
20
8.483031
70
0
0
SEQEND
8
Layer 1
0
POLYLINE
8
Layer 1
62
7
70
1
10
0.000000
20
0.000000
66
1
0
VERTEX
8
Layer 1
10
36.389959
20
8.797224
70
0
0
VERTEX
8
Layer 1
10
36.957711
20
8.940540
70
0
0
VERTEX
8
Layer 1
10
37.343562
20
9.353951
70
0
0
VERTEX
8
Layer 1
10
37.481366
20
10.009898
70
0
0
VERTEX
8
Layer 1
10
37.343562
20
10.660332
70
0
0
VERTEX
8
Layer 1
10
36.957711
20
11.079256
70
0
0
VERTEX
8
Layer 1
10
36.389959
20
11.228084
70
0
0
VERTEX
8
Layer 1
10
35.816695
20
11.079256
70
0
0
VERTEX
8
Layer 1
10
35.430844
20
10.660332
70
0
0
VERTEX
8
Layer 1
10
35.293040
20
10.009898
70
0
0
VERTEX
8
Layer 1
10
35.430844
20
9.353951
70
0
0
VERTEX
8
Layer 1
10
35.816695
20
8.940540
70
0
0
VERTEX
8
Layer 1
10
36.389959
20
8.797224
70
0
0
VERTEX
8
Layer 1
10
36.389959
20
8.797224
70
0
0
SEQEND
8
Layer 1
0
POLYLINE
8
Layer 1
62
7
70
1
10
0.000000
20
0.000000
66
1
0
VERTEX
8
Layer 1
10
42.680272
20
8.483031
70
0
0
VERTEX
8
Layer 1
10
42.112520
20
8.598786
70
0
0
VERTEX
8
Layer 1
10
41.737693
20
8.929515
70
0
0
VERTEX
8
Layer 1
10
41.610913
20
9.420097
70
0
0
VERTEX
8
Layer 1
10
41.980228
20
9.420097
70
0
0
VERTEX
8
Layer 1
10
42.057398
20
9.100392
70
0
0
VERTEX
8
Layer 1
10
42.294421
20
8.868882
70
0
0
VERTEX
8
Layer 1
10
42.680272
20
8.780687
70
0
0
VERTEX
8
Layer 1
10
43.143293
20
8.924003
70
0
0
VERTEX
8
Layer 1
10
43.308657
20
9.287805
70
0
0
VERTEX
8
Layer 1
10
43.231487
20
9.568925
70
0
0
VERTEX
8
Layer 1
10
43.027537
20
9.745314
70
0
0
VERTEX
8
Layer 1
10
42.729881
20
9.861070
70
0
0
VERTEX
8
Layer 1
10
42.382615
20
9.976825
70
0
0
VERTEX
8
Layer 1
10
41.875497
20
10.268969
70
0
0
VERTEX
8
Layer 1
10
41.710132
20
10.731990
70
0
0
VERTEX
8
Layer 1
10
41.820375
20
11.150914
70
0
0
VERTEX
8
Layer 1
10
42.145592
20
11.437546
70
0
0
VERTEX
8
Layer 1
10
42.641687
20
11.542277
70
0
0
VERTEX
8
Layer 1
10
43.132268
20
11.437546
70
0
0
VERTEX
8
Layer 1
10
43.457486
20
11.145402
70
0
0
VERTEX
8
Layer 1
10
43.578753
20
10.720966
70
0
0
VERTEX
8
Layer 1
10
43.209439
20
10.720966
70
0
0
VERTEX
8
Layer 1
10
43.143293
20
10.963501
70
0
0
VERTEX
8
Layer 1
10
42.950367
20
11.161939
70
0
0
VERTEX
8
Layer 1
10
42.630662
20
11.239109
70
0
0
VERTEX
8
Layer 1
10
42.233787
20
11.117841
70
0
0
VERTEX
8
Layer 1
10
42.079447
20
10.765063
70
0
0
VERTEX
8
Layer 1
10
42.184178
20
10.472919
70
0
0
VERTEX
8
Layer 1
10
42.487346
20
10.307554
70
0
0
VERTEX
8
Layer 1
10
42.939343
20
10.158726
70
0
0
VERTEX
8
Layer 1
10
43.314170
20
9.976825
70
0
0
VERTEX
8
Layer 1
10
43.578753
20
9.717754
70
0
0
VERTEX
8
Layer 1
10
43.677972
20
9.304342
70
0
0
VERTEX
8
Layer 1
10
43.567729
20
8.907467
70
0
0
VERTEX
8
Layer 1
10
43.231487
20
8.598786
70
0
0
VERTEX
8
Layer 1
10
42.680272
20
8.483031
70
0
0
VERTEX
8
Layer 1
10
42.680272
20
8.483031
70
0
0
SEQEND
8
Layer 1
0
POLYLINE
8
Layer 1
62
7
70
1
10
0.000000
20
0.000000
66
1
0
VERTEX
8
Layer 1
10
48.001265
20
9.431121
70
0
0
VERTEX
8
Layer 1
10
47.747706
20
9.497267
70
0
0
VERTEX
8
Layer 1
10
47.560293
20
9.684681
70
0
0
VERTEX
8
Layer 1
10
47.494147
20
9.938240
70
0
0
VERTEX
8
Layer 1
10
47.560293
20
10.197311
70
0
0
VERTEX
8
Layer 1
10
47.747706
20
10.384725
70
0
0
VERTEX
8
Layer 1
10
48.001265
20
10.450870
70
0
0
VERTEX
8
Layer 1
10
48.260337
20
10.384725
70
0
0
VERTEX
8
Layer 1
10
48.442238
20
10.197311
70
0
0
VERTEX
8
Layer 1
10
48.508384
20
9.938240
70
0
0
VERTEX
8
Layer 1
10
48.442238
20
9.684681
70
0
0
VERTEX
8
Layer 1
10
48.260337
20
9.497267
70
0
0
VERTEX
8
Layer 1
10
48.001265
20
9.431121
70
0
0
VERTEX
8
Layer 1
10
48.001265
20
9.431121
70
0
0
SEQEND
8
Layer 1
0
POLYLINE
8
Layer 1
62
7
70
1
10
0.000000
20
0.000000
66
1
0
VERTEX
8
Layer 1
10
53.605034
20
8.483031
70
0
0
VERTEX
8
Layer 1
10
52.927038
20
8.675956
70
0
0
VERTEX
8
Layer 1
10
52.486066
20
9.210635
70
0
0
VERTEX
8
Layer 1
10
52.337238
20
10.009898
70
0
0
VERTEX
8
Layer 1
10
52.486066
20
10.809161
70
0
0
VERTEX
8
Layer 1
10
52.927038
20
11.349352
70
0
0
VERTEX
8
Layer 1
10
53.605034
20
11.542277
70
0
0
VERTEX
8
Layer 1
10
54.277517
20
11.349352
70
0
0
VERTEX
8
Layer 1
10
54.712977
20
10.809161
70
0
0
VERTEX
8
Layer 1
10
54.867317
20
10.009898
70
0
0
VERTEX
8
Layer 1
10
54.712977
20
9.210635
70
0
0
VERTEX
8
Layer 1
10
54.277517
20
8.675956
70
0
0
VERTEX
8
Layer 1
10
53.605034
20
8.483031
70
0
0
VERTEX
8
Layer 1
10
53.605034
20
8.483031
70
0
0
SEQEND
8
Layer 1
0
POLYLINE
8
Layer 1
62
7
70
1
10
0.000000
20
0.000000
66
1
0
VERTEX
8
Layer 1
10
53.605034
20
8.797224
70
0
0
VERTEX
8
Layer 1
10
54.068055
20
8.940540
70
0
0
VERTEX
8
Layer 1
10
54.387760
20
9.353951
70
0
0
VERTEX
8
Layer 1
10
54.509027
20
10.009898
70
0
0
VERTEX
8
Layer 1
10
54.387760
20
10.660332
70
0
0
VERTEX
8
Layer 1
10
54.068055
20
11.079256
70
0
0
VERTEX
8
Layer 1
10
53.605034
20
11.228084
70
0
0
VERTEX
8
Layer 1
10
53.142012
20
11.079256
70
0
0
VERTEX
8
Layer 1
10
52.816795
20
10.660332
70
0
0
VERTEX
8
Layer 1
10
52.701040
20
10.009898
70
0
0
VERTEX
8
Layer 1
10
52.816795
20
9.353951
70
0
0
VERTEX
8
Layer 1
10
53.142012
20
8.940540
70
0
0
VERTEX
8
Layer 1
10
53.605034
20
8.797224
70
0
0
VERTEX
8
Layer 1
10
53.605034
20
8.797224
70
0
0
SEQEND
8
Layer 1
0
POLYLINE
8
Layer 1
62
7
70
1
10
0.000000
20
0.000000
66
1
0
VERTEX
8
Layer 1
10
59.913434
20
8.483031
70
0
0
VERTEX
8
Layer 1
10
59.235438
20
8.675956
70
0
0
VERTEX
8
Layer 1
10
58.794466
20
9.210635
70
0
0
VERTEX
8
Layer 1
10
58.645638
20
10.009898
70
0
0
VERTEX
8
Layer 1
10
58.794466
20
10.809161
70
0
0
VERTEX
8
Layer 1
10
59.235438
20
11.349352
70
0
0
VERTEX
8
Layer 1
10
59.913434
20
11.542277
70
0
0
VERTEX
8
Layer 1
10
60.585917
20
11.349352
70
0
0
VERTEX
8
Layer 1
10
61.021377
20
10.809161
70
0
0
VERTEX
8
Layer 1
10
61.175717
20
10.009898
70
0
0
VERTEX
8
Layer 1
10
61.021377
20
9.210635
70
0
0
VERTEX
8
Layer 1
10
60.585917
20
8.675956
70
0
0
VERTEX
8
Layer 1
10
59.913434
20
8.483031
70
0
0
VERTEX
8
Layer 1
10
59.913434
20
8.483031
70
0
0
SEQEND
8
Layer 1
0
POLYLINE
8
Layer 1
62
7
70
1
10
0.000000
20
0.000000
66
1
0
VERTEX
8
Layer 1
10
59.913434
20
8.797224
70
0
0
VERTEX
8
Layer 1
10
60.376455
20
8.940540
70
0
0
VERTEX
8
Layer 1
10
60.696160
20
9.353951
70
0
0
VERTEX
8
Layer 1
10
60.817427
20
10.009898
70
0
0
VERTEX
8
Layer 1
10
60.696160
20
10.660332
70
0
0
VERTEX
8
Layer 1
10
60.376455
20
11.079256
70
0
0
VERTEX
8
Layer 1
10
59.913434
20
11.228084
70
0
0
VERTEX
8
Layer 1
10
59.450412
20
11.079256
70
0
0
VERTEX
8
Layer 1
10
59.125195
20
10.660332
70
0
0
VERTEX
8
Layer 1
10
59.009440
20
10.009898
70
0
0
VERTEX
8
Layer 1
10
59.125195
20
9.353951
70
0
0
VERTEX
8
Layer 1
10
59.450412
20
8.940540
70
0
0
VERTEX
8
Layer 1
10
59.913434
20
8.797224
70
0
0
VERTEX
8
Layer 1
10
59.913434
20
8.797224
70
0
0
SEQEND
8
Layer 1
0
POLYLINE
8
Layer 1
62
7
70
1
10
0.000000
20
0.000000
66
1
0
VERTEX
8
Layer 1
10
65.361837
20
8.532640
70
0
0
VERTEX
8
Layer 1
10
65.361837
20
11.095793
70
0
0
VERTEX
8
Layer 1
10
64.882280
20
10.991062
70
0
0
VERTEX
8
Layer 1
10
64.882280
20
11.233597
70
0
0
VERTEX
8
Layer 1
10
65.477592
20
11.492668
70
0
0
VERTEX
8
Layer 1
10
65.720127
20
11.492668
70
0
0
VERTEX
8
Layer 1
10
65.720127
20
8.532640
70
0
0
VERTEX
8
Layer 1
10
65.361837
20
8.532640
70
0
0
SEQEND
8
Layer 1
0
POLYLINE
8
Layer 1
62
7
70
1
10
0.000000
20
0.000000
66
1
0
VERTEX
8
Layer 1
10
70.646623
20
8.483031
70
0
0
VERTEX
8
Layer 1
10
70.133992
20
8.582249
70
0
0
VERTEX
8
Layer 1
10
69.770190
20
8.896442
70
0
0
VERTEX
8
Layer 1
10
69.621362
20
9.414585
70
0
0
VERTEX
8
Layer 1
10
69.985164
20
9.414585
70
0
0
VERTEX
8
Layer 1
10
70.156041
20
8.973613
70
0
0
VERTEX
8
Layer 1
10
70.646623
20
8.791711
70
0
0
VERTEX
8
Layer 1
10
71.115156
20
8.962588
70
0
0
VERTEX
8
Layer 1
10
71.275009
20
9.381512
70
0
0
VERTEX
8
Layer 1
10
71.175790
20
9.717754
70
0
0
VERTEX
8
Layer 1
10
70.911207
20
9.910679
70
0
0
VERTEX
8
Layer 1
10
70.547404
20
9.976825
70
0
0
VERTEX
8
Layer 1
10
70.326918
20
9.976825
70
0
0
VERTEX
8
Layer 1
10
70.326918
20
10.279994
70
0
0
VERTEX
8
Layer 1
10
70.547404
20
10.279994
70
0
0
VERTEX
8
Layer 1
10
70.993889
20
10.406773
70
0
0
VERTEX
8
Layer 1
10
71.159254
20
10.776088
70
0
0
VERTEX
8
Layer 1
10
71.026962
20
11.101305
70
0
0
VERTEX
8
Layer 1
10
70.646623
20
11.233597
70
0
0
VERTEX
8
Layer 1
10
70.249748
20
11.084768
70
0
0
VERTEX
8
Layer 1
10
70.089895
20
10.720966
70
0
0
VERTEX
8
Layer 1
10
69.731605
20
10.720966
70
0
0
VERTEX
8
Layer 1
10
69.858385
20
11.150914
70
0
0
VERTEX
8
Layer 1
10
70.178090
20
11.437546
70
0
0
VERTEX
8
Layer 1
10
70.646623
20
11.542277
70
0
0
VERTEX
8
Layer 1
10
71.126181
20
11.437546
70
0
0
VERTEX
8
Layer 1
10
71.418325
20
11.167451
70
0
0
VERTEX
8
Layer 1
10
71.517544
20
10.798136
70
0
0
VERTEX
8
Layer 1
10
71.390764
20
10.390237
70
0
0
VERTEX
8
Layer 1
10
71.026962
20
10.142190
70
0
0
VERTEX
8
Layer 1
10
71.462422
20
9.894143
70
0
0
VERTEX
8
Layer 1
10
71.633299
20
9.381512
70
0
0
VERTEX
8
Layer 1
10
71.523056
20
8.929515
70
0
0
VERTEX
8
Layer 1
10
71.192326
20
8.604298
70
0
0
VERTEX
8
Layer 1
10
70.646623
20
8.483031
70
0
0
VERTEX
8
Layer 1
10
70.646623
20
8.483031
70
0
0
SEQEND
8
Layer 1
0
POLYLINE
8
Layer 1
62
7
70
1
10
0.000000
20
0.000000
66
1
0
VERTEX
8
Layer 1
10
75.883137
20
8.532640
70
0
0
VERTEX
8
Layer 1
10
75.883137
20
11.095793
70
0
0
VERTEX
8
Layer 1
10
75.403580
20
10.991062
70
0
0
VERTEX
8
Layer 1
10
75.403580
20
11.233597
70
0
0
VERTEX
8
Layer 1
10
75.998892
20
11.492668
70
0
0
VERTEX
8
Layer 1
10
76.241427
20
11.492668
70
0
0
VERTEX
8
Layer 1
10
76.241427
20
8.532640
70
0
0
VERTEX
8
Layer 1
10
75.883137
20
8.532640
70
0
0
SEQEND
8
Layer 1
 0 
ENDSEC
 0 
EOF