999
"DXF R12 Output" (www.mydxf.blogspot.com)
 0 
SECTION
 2 
HEADER
 9 
$ACADVER
 1 
AC1009
 9 
$EXTMIN
 10 
 0 
 20 
 0 
 9 
$EXTMAX
 10 
 8.5 
 20 
 11 
 0 
ENDSEC
 0 
SECTION
 2 
ENTITIES
0
POLYLINE
8
Layer 1
62
7
70
1
10
0.000000
20
0.000000
66
1
0
VERTEX
8
Layer 1
10
0.000000
20
92.604200
70
0
0
VERTEX
8
Layer 1
10
92.427836
20
92.604200
70
0
0
VERTEX
8
Layer 1
10
92.427836
20
0.176364
70
0
0
VERTEX
8
Layer 1
10
0.000000
20
0.176364
70
0
0
VERTEX
8
Layer 1
10
0.000000
20
92.604200
70
0
0
SEQEND
8
Layer 1
0
POLYLINE
8
Layer 1
62
7
70
1
10
0.000000
20
0.000000
66
1
0
VERTEX
8
Layer 1
10
0.000000
20
92.604200
70
0
0
VERTEX
8
Layer 1
10
92.427836
20
92.604200
70
0
0
VERTEX
8
Layer 1
10
92.427836
20
0.176364
70
0
0
VERTEX
8
Layer 1
10
0.000000
20
0.176364
70
0
0
VERTEX
8
Layer 1
10
0.000000
20
92.604200
70
0
0
SEQEND
8
Layer 1
0
POLYLINE
8
Layer 1
62
7
70
1
10
0.000000
20
0.000000
66
1
0
VERTEX
8
Layer 1
10
18.085250
20
8.483031
70
0
0
VERTEX
8
Layer 1
10
17.335596
20
8.675956
70
0
0
VERTEX
8
Layer 1
10
16.845014
20
9.210635
70
0
0
VERTEX
8
Layer 1
10
16.674138
20
10.009898
70
0
0
VERTEX
8
Layer 1
10
16.845014
20
10.809161
70
0
0
VERTEX
8
Layer 1
10
17.335596
20
11.349352
70
0
0
VERTEX
8
Layer 1
10
18.085250
20
11.542277
70
0
0
VERTEX
8
Layer 1
10
18.912073
20
11.299742
70
0
0
VERTEX
8
Layer 1
10
19.319973
20
10.621747
70
0
0
VERTEX
8
Layer 1
10
18.928610
20
10.621747
70
0
0
VERTEX
8
Layer 1
10
18.653002
20
11.062720
70
0
0
VERTEX
8
Layer 1
10
18.085250
20
11.228084
70
0
0
VERTEX
8
Layer 1
10
17.534034
20
11.079256
70
0
0
VERTEX
8
Layer 1
10
17.164720
20
10.660332
70
0
0
VERTEX
8
Layer 1
10
17.037940
20
10.009898
70
0
0
VERTEX
8
Layer 1
10
17.164720
20
9.353951
70
0
0
VERTEX
8
Layer 1
10
17.534034
20
8.940540
70
0
0
VERTEX
8
Layer 1
10
18.085250
20
8.797224
70
0
0
VERTEX
8
Layer 1
10
18.653002
20
8.957076
70
0
0
VERTEX
8
Layer 1
10
18.928610
20
9.392536
70
0
0
VERTEX
8
Layer 1
10
19.319973
20
9.392536
70
0
0
VERTEX
8
Layer 1
10
18.912073
20
8.720053
70
0
0
VERTEX
8
Layer 1
10
18.085250
20
8.483031
70
0
0
VERTEX
8
Layer 1
10
18.085250
20
8.483031
70
0
0
SEQEND
8
Layer 1
0
POLYLINE
8
Layer 1
62
7
70
1
10
0.000000
20
0.000000
66
1
0
VERTEX
8
Layer 1
10
23.212293
20
8.532640
70
0
0
VERTEX
8
Layer 1
10
23.212293
20
11.492668
70
0
0
VERTEX
8
Layer 1
10
23.565071
20
11.492668
70
0
0
VERTEX
8
Layer 1
10
23.565071
20
10.186287
70
0
0
VERTEX
8
Layer 1
10
25.102963
20
10.186287
70
0
0
VERTEX
8
Layer 1
10
25.102963
20
11.492668
70
0
0
VERTEX
8
Layer 1
10
25.455740
20
11.492668
70
0
0
VERTEX
8
Layer 1
10
25.455740
20
8.532640
70
0
0
VERTEX
8
Layer 1
10
25.102963
20
8.532640
70
0
0
VERTEX
8
Layer 1
10
25.102963
20
9.894143
70
0
0
VERTEX
8
Layer 1
10
23.565071
20
9.894143
70
0
0
VERTEX
8
Layer 1
10
23.565071
20
8.532640
70
0
0
VERTEX
8
Layer 1
10
23.212293
20
8.532640
70
0
0
SEQEND
8
Layer 1
0
POLYLINE
8
Layer 1
62
7
70
1
10
0.000000
20
0.000000
66
1
0
VERTEX
8
Layer 1
10
29.274080
20
8.532640
70
0
0
VERTEX
8
Layer 1
10
30.365487
20
11.492668
70
0
0
VERTEX
8
Layer 1
10
30.740313
20
11.492668
70
0
0
VERTEX
8
Layer 1
10
31.826208
20
8.532640
70
0
0
VERTEX
8
Layer 1
10
31.451381
20
8.532640
70
0
0
VERTEX
8
Layer 1
10
31.181286
20
9.293318
70
0
0
VERTEX
8
Layer 1
10
29.919002
20
9.293318
70
0
0
VERTEX
8
Layer 1
10
29.648906
20
8.532640
70
0
0
VERTEX
8
Layer 1
10
29.274080
20
8.532640
70
0
0
SEQEND
8
Layer 1
0
POLYLINE
8
Layer 1
62
7
70
1
10
0.000000
20
0.000000
66
1
0
VERTEX
8
Layer 1
10
30.029245
20
9.579950
70
0
0
VERTEX
8
Layer 1
10
31.076555
20
9.579950
70
0
0
VERTEX
8
Layer 1
10
30.552900
20
11.046183
70
0
0
VERTEX
8
Layer 1
10
30.029245
20
9.579950
70
0
0
SEQEND
8
Layer 1
0
POLYLINE
8
Layer 1
62
7
70
1
10
0.000000
20
0.000000
66
1
0
VERTEX
8
Layer 1
10
36.992359
20
8.483031
70
0
0
VERTEX
8
Layer 1
10
36.226169
20
8.675956
70
0
0
VERTEX
8
Layer 1
10
35.713539
20
9.210635
70
0
0
VERTEX
8
Layer 1
10
35.531638
20
10.009898
70
0
0
VERTEX
8
Layer 1
10
35.713539
20
10.809161
70
0
0
VERTEX
8
Layer 1
10
36.226169
20
11.349352
70
0
0
VERTEX
8
Layer 1
10
36.992359
20
11.542277
70
0
0
VERTEX
8
Layer 1
10
37.753037
20
11.349352
70
0
0
VERTEX
8
Layer 1
10
38.265667
20
10.809161
70
0
0
VERTEX
8
Layer 1
10
38.447568
20
10.009898
70
0
0
VERTEX
8
Layer 1
10
38.265667
20
9.210635
70
0
0
VERTEX
8
Layer 1
10
37.753037
20
8.675956
70
0
0
VERTEX
8
Layer 1
10
36.992359
20
8.483031
70
0
0
VERTEX
8
Layer 1
10
36.992359
20
8.483031
70
0
0
SEQEND
8
Layer 1
0
POLYLINE
8
Layer 1
62
7
70
1
10
0.000000
20
0.000000
66
1
0
VERTEX
8
Layer 1
10
36.992359
20
8.797224
70
0
0
VERTEX
8
Layer 1
10
37.560111
20
8.940540
70
0
0
VERTEX
8
Layer 1
10
37.945962
20
9.353951
70
0
0
VERTEX
8
Layer 1
10
38.083766
20
10.009898
70
0
0
VERTEX
8
Layer 1
10
37.945962
20
10.660332
70
0
0
VERTEX
8
Layer 1
10
37.560111
20
11.079256
70
0
0
VERTEX
8
Layer 1
10
36.992359
20
11.228084
70
0
0
VERTEX
8
Layer 1
10
36.419095
20
11.079256
70
0
0
VERTEX
8
Layer 1
10
36.033244
20
10.660332
70
0
0
VERTEX
8
Layer 1
10
35.895440
20
10.009898
70
0
0
VERTEX
8
Layer 1
10
36.033244
20
9.353951
70
0
0
VERTEX
8
Layer 1
10
36.419095
20
8.940540
70
0
0
VERTEX
8
Layer 1
10
36.992359
20
8.797224
70
0
0
VERTEX
8
Layer 1
10
36.992359
20
8.797224
70
0
0
SEQEND
8
Layer 1
0
POLYLINE
8
Layer 1
62
7
70
1
10
0.000000
20
0.000000
66
1
0
VERTEX
8
Layer 1
10
43.282872
20
8.483031
70
0
0
VERTEX
8
Layer 1
10
42.715120
20
8.598786
70
0
0
VERTEX
8
Layer 1
10
42.340293
20
8.929515
70
0
0
VERTEX
8
Layer 1
10
42.213513
20
9.420097
70
0
0
VERTEX
8
Layer 1
10
42.582828
20
9.420097
70
0
0
VERTEX
8
Layer 1
10
42.659998
20
9.100392
70
0
0
VERTEX
8
Layer 1
10
42.897021
20
8.868882
70
0
0
VERTEX
8
Layer 1
10
43.282872
20
8.780687
70
0
0
VERTEX
8
Layer 1
10
43.745893
20
8.924003
70
0
0
VERTEX
8
Layer 1
10
43.911257
20
9.287805
70
0
0
VERTEX
8
Layer 1
10
43.834087
20
9.568925
70
0
0
VERTEX
8
Layer 1
10
43.630137
20
9.745314
70
0
0
VERTEX
8
Layer 1
10
43.332481
20
9.861070
70
0
0
VERTEX
8
Layer 1
10
42.985215
20
9.976825
70
0
0
VERTEX
8
Layer 1
10
42.478097
20
10.268969
70
0
0
VERTEX
8
Layer 1
10
42.312732
20
10.731990
70
0
0
VERTEX
8
Layer 1
10
42.422975
20
11.150914
70
0
0
VERTEX
8
Layer 1
10
42.748192
20
11.437546
70
0
0
VERTEX
8
Layer 1
10
43.244287
20
11.542277
70
0
0
VERTEX
8
Layer 1
10
43.734868
20
11.437546
70
0
0
VERTEX
8
Layer 1
10
44.060086
20
11.145402
70
0
0
VERTEX
8
Layer 1
10
44.181353
20
10.720966
70
0
0
VERTEX
8
Layer 1
10
43.812039
20
10.720966
70
0
0
VERTEX
8
Layer 1
10
43.745893
20
10.963501
70
0
0
VERTEX
8
Layer 1
10
43.552967
20
11.161939
70
0
0
VERTEX
8
Layer 1
10
43.233262
20
11.239109
70
0
0
VERTEX
8
Layer 1
10
42.836387
20
11.117841
70
0
0
VERTEX
8
Layer 1
10
42.682047
20
10.765063
70
0
0
VERTEX
8
Layer 1
10
42.786778
20
10.472919
70
0
0
VERTEX
8
Layer 1
10
43.089946
20
10.307554
70
0
0
VERTEX
8
Layer 1
10
43.541943
20
10.158726
70
0
0
VERTEX
8
Layer 1
10
43.916770
20
9.976825
70
0
0
VERTEX
8
Layer 1
10
44.181353
20
9.717754
70
0
0
VERTEX
8
Layer 1
10
44.280572
20
9.304342
70
0
0
VERTEX
8
Layer 1
10
44.170329
20
8.907467
70
0
0
VERTEX
8
Layer 1
10
43.834087
20
8.598786
70
0
0
VERTEX
8
Layer 1
10
43.282872
20
8.483031
70
0
0
VERTEX
8
Layer 1
10
43.282872
20
8.483031
70
0
0
SEQEND
8
Layer 1
0
POLYLINE
8
Layer 1
62
7
70
1
10
0.000000
20
0.000000
66
1
0
VERTEX
8
Layer 1
10
48.603465
20
9.431121
70
0
0
VERTEX
8
Layer 1
10
48.349906
20
9.497267
70
0
0
VERTEX
8
Layer 1
10
48.162493
20
9.684681
70
0
0
VERTEX
8
Layer 1
10
48.096347
20
9.938240
70
0
0
VERTEX
8
Layer 1
10
48.162493
20
10.197311
70
0
0
VERTEX
8
Layer 1
10
48.349906
20
10.384725
70
0
0
VERTEX
8
Layer 1
10
48.603465
20
10.450870
70
0
0
VERTEX
8
Layer 1
10
48.862537
20
10.384725
70
0
0
VERTEX
8
Layer 1
10
49.044438
20
10.197311
70
0
0
VERTEX
8
Layer 1
10
49.110584
20
9.938240
70
0
0
VERTEX
8
Layer 1
10
49.044438
20
9.684681
70
0
0
VERTEX
8
Layer 1
10
48.862537
20
9.497267
70
0
0
VERTEX
8
Layer 1
10
48.603465
20
9.431121
70
0
0
VERTEX
8
Layer 1
10
48.603465
20
9.431121
70
0
0
SEQEND
8
Layer 1
0
POLYLINE
8
Layer 1
62
7
70
1
10
0.000000
20
0.000000
66
1
0
VERTEX
8
Layer 1
10
54.207534
20
8.483031
70
0
0
VERTEX
8
Layer 1
10
53.529538
20
8.675956
70
0
0
VERTEX
8
Layer 1
10
53.088566
20
9.210635
70
0
0
VERTEX
8
Layer 1
10
52.939738
20
10.009898
70
0
0
VERTEX
8
Layer 1
10
53.088566
20
10.809161
70
0
0
VERTEX
8
Layer 1
10
53.529538
20
11.349352
70
0
0
VERTEX
8
Layer 1
10
54.207534
20
11.542277
70
0
0
VERTEX
8
Layer 1
10
54.880017
20
11.349352
70
0
0
VERTEX
8
Layer 1
10
55.315477
20
10.809161
70
0
0
VERTEX
8
Layer 1
10
55.469817
20
10.009898
70
0
0
VERTEX
8
Layer 1
10
55.315477
20
9.210635
70
0
0
VERTEX
8
Layer 1
10
54.880017
20
8.675956
70
0
0
VERTEX
8
Layer 1
10
54.207534
20
8.483031
70
0
0
VERTEX
8
Layer 1
10
54.207534
20
8.483031
70
0
0
SEQEND
8
Layer 1
0
POLYLINE
8
Layer 1
62
7
70
1
10
0.000000
20
0.000000
66
1
0
VERTEX
8
Layer 1
10
54.207534
20
8.797224
70
0
0
VERTEX
8
Layer 1
10
54.670555
20
8.940540
70
0
0
VERTEX
8
Layer 1
10
54.990260
20
9.353951
70
0
0
VERTEX
8
Layer 1
10
55.111527
20
10.009898
70
0
0
VERTEX
8
Layer 1
10
54.990260
20
10.660332
70
0
0
VERTEX
8
Layer 1
10
54.670555
20
11.079256
70
0
0
VERTEX
8
Layer 1
10
54.207534
20
11.228084
70
0
0
VERTEX
8
Layer 1
10
53.744512
20
11.079256
70
0
0
VERTEX
8
Layer 1
10
53.419295
20
10.660332
70
0
0
VERTEX
8
Layer 1
10
53.303540
20
10.009898
70
0
0
VERTEX
8
Layer 1
10
53.419295
20
9.353951
70
0
0
VERTEX
8
Layer 1
10
53.744512
20
8.940540
70
0
0
VERTEX
8
Layer 1
10
54.207534
20
8.797224
70
0
0
VERTEX
8
Layer 1
10
54.207534
20
8.797224
70
0
0
SEQEND
8
Layer 1
0
POLYLINE
8
Layer 1
62
7
70
1
10
0.000000
20
0.000000
66
1
0
VERTEX
8
Layer 1
10
60.515934
20
8.483031
70
0
0
VERTEX
8
Layer 1
10
59.837938
20
8.675956
70
0
0
VERTEX
8
Layer 1
10
59.396966
20
9.210635
70
0
0
VERTEX
8
Layer 1
10
59.248138
20
10.009898
70
0
0
VERTEX
8
Layer 1
10
59.396966
20
10.809161
70
0
0
VERTEX
8
Layer 1
10
59.837938
20
11.349352
70
0
0
VERTEX
8
Layer 1
10
60.515934
20
11.542277
70
0
0
VERTEX
8
Layer 1
10
61.188417
20
11.349352
70
0
0
VERTEX
8
Layer 1
10
61.623877
20
10.809161
70
0
0
VERTEX
8
Layer 1
10
61.778217
20
10.009898
70
0
0
VERTEX
8
Layer 1
10
61.623877
20
9.210635
70
0
0
VERTEX
8
Layer 1
10
61.188417
20
8.675956
70
0
0
VERTEX
8
Layer 1
10
60.515934
20
8.483031
70
0
0
VERTEX
8
Layer 1
10
60.515934
20
8.483031
70
0
0
SEQEND
8
Layer 1
0
POLYLINE
8
Layer 1
62
7
70
1
10
0.000000
20
0.000000
66
1
0
VERTEX
8
Layer 1
10
60.515934
20
8.797224
70
0
0
VERTEX
8
Layer 1
10
60.978955
20
8.940540
70
0
0
VERTEX
8
Layer 1
10
61.298660
20
9.353951
70
0
0
VERTEX
8
Layer 1
10
61.419927
20
10.009898
70
0
0
VERTEX
8
Layer 1
10
61.298660
20
10.660332
70
0
0
VERTEX
8
Layer 1
10
60.978955
20
11.079256
70
0
0
VERTEX
8
Layer 1
10
60.515934
20
11.228084
70
0
0
VERTEX
8
Layer 1
10
60.052912
20
11.079256
70
0
0
VERTEX
8
Layer 1
10
59.727695
20
10.660332
70
0
0
VERTEX
8
Layer 1
10
59.611940
20
10.009898
70
0
0
VERTEX
8
Layer 1
10
59.727695
20
9.353951
70
0
0
VERTEX
8
Layer 1
10
60.052912
20
8.940540
70
0
0
VERTEX
8
Layer 1
10
60.515934
20
8.797224
70
0
0
VERTEX
8
Layer 1
10
60.515934
20
8.797224
70
0
0
SEQEND
8
Layer 1
0
POLYLINE
8
Layer 1
62
7
70
1
10
0.000000
20
0.000000
66
1
0
VERTEX
8
Layer 1
10
65.964437
20
8.532640
70
0
0
VERTEX
8
Layer 1
10
65.964437
20
11.095793
70
0
0
VERTEX
8
Layer 1
10
65.484880
20
10.991062
70
0
0
VERTEX
8
Layer 1
10
65.484880
20
11.233597
70
0
0
VERTEX
8
Layer 1
10
66.080192
20
11.492668
70
0
0
VERTEX
8
Layer 1
10
66.322727
20
11.492668
70
0
0
VERTEX
8
Layer 1
10
66.322727
20
8.532640
70
0
0
VERTEX
8
Layer 1
10
65.964437
20
8.532640
70
0
0
SEQEND
8
Layer 1
0
POLYLINE
8
Layer 1
62
7
70
1
10
0.000000
20
0.000000
66
1
0
VERTEX
8
Layer 1
10
70.620737
20
8.532640
70
0
0
VERTEX
8
Layer 1
10
70.620737
20
11.095793
70
0
0
VERTEX
8
Layer 1
10
70.141180
20
10.991062
70
0
0
VERTEX
8
Layer 1
10
70.141180
20
11.233597
70
0
0
VERTEX
8
Layer 1
10
70.736492
20
11.492668
70
0
0
VERTEX
8
Layer 1
10
70.979027
20
11.492668
70
0
0
VERTEX
8
Layer 1
10
70.979027
20
8.532640
70
0
0
VERTEX
8
Layer 1
10
70.620737
20
8.532640
70
0
0
SEQEND
8
Layer 1
0
POLYLINE
8
Layer 1
62
7
70
1
10
0.000000
20
0.000000
66
1
0
VERTEX
8
Layer 1
10
75.277037
20
8.532640
70
0
0
VERTEX
8
Layer 1
10
75.277037
20
11.095793
70
0
0
VERTEX
8
Layer 1
10
74.797480
20
10.991062
70
0
0
VERTEX
8
Layer 1
10
74.797480
20
11.233597
70
0
0
VERTEX
8
Layer 1
10
75.392792
20
11.492668
70
0
0
VERTEX
8
Layer 1
10
75.635327
20
11.492668
70
0
0
VERTEX
8
Layer 1
10
75.635327
20
8.532640
70
0
0
VERTEX
8
Layer 1
10
75.277037
20
8.532640
70
0
0
SEQEND
8
Layer 1
 0 
ENDSEC
 0 
EOF