999
"DXF R12 Output" (www.mydxf.blogspot.com)
 0 
SECTION
 2 
HEADER
 9 
$ACADVER
 1 
AC1009
 9 
$EXTMIN
 10 
 0 
 20 
 0 
 9 
$EXTMAX
 10 
 8.5 
 20 
 11 
 0 
ENDSEC
 0 
SECTION
 2 
ENTITIES
0
POLYLINE
8
Layer 1
62
7
70
1
10
0.000000
20
0.000000
66
1
0
VERTEX
8
Layer 1
10
0.000000
20
92.604200
70
0
0
VERTEX
8
Layer 1
10
92.427836
20
92.604200
70
0
0
VERTEX
8
Layer 1
10
92.427836
20
0.176364
70
0
0
VERTEX
8
Layer 1
10
0.000000
20
0.176364
70
0
0
VERTEX
8
Layer 1
10
0.000000
20
92.604200
70
0
0
SEQEND
8
Layer 1
0
POLYLINE
8
Layer 1
62
7
70
1
10
0.000000
20
0.000000
66
1
0
VERTEX
8
Layer 1
10
0.000000
20
92.604200
70
0
0
VERTEX
8
Layer 1
10
92.427836
20
92.604200
70
0
0
VERTEX
8
Layer 1
10
92.427836
20
0.176364
70
0
0
VERTEX
8
Layer 1
10
0.000000
20
0.176364
70
0
0
VERTEX
8
Layer 1
10
0.000000
20
92.604200
70
0
0
SEQEND
8
Layer 1
0
POLYLINE
8
Layer 1
62
7
70
1
10
0.000000
20
0.000000
66
1
0
VERTEX
8
Layer 1
10
17.515950
20
8.483031
70
0
0
VERTEX
8
Layer 1
10
16.766296
20
8.675956
70
0
0
VERTEX
8
Layer 1
10
16.275714
20
9.210635
70
0
0
VERTEX
8
Layer 1
10
16.104838
20
10.009898
70
0
0
VERTEX
8
Layer 1
10
16.275714
20
10.809161
70
0
0
VERTEX
8
Layer 1
10
16.766296
20
11.349352
70
0
0
VERTEX
8
Layer 1
10
17.515950
20
11.542277
70
0
0
VERTEX
8
Layer 1
10
18.342773
20
11.299742
70
0
0
VERTEX
8
Layer 1
10
18.750673
20
10.621747
70
0
0
VERTEX
8
Layer 1
10
18.359310
20
10.621747
70
0
0
VERTEX
8
Layer 1
10
18.083702
20
11.062720
70
0
0
VERTEX
8
Layer 1
10
17.515950
20
11.228084
70
0
0
VERTEX
8
Layer 1
10
16.964734
20
11.079256
70
0
0
VERTEX
8
Layer 1
10
16.595420
20
10.660332
70
0
0
VERTEX
8
Layer 1
10
16.468640
20
10.009898
70
0
0
VERTEX
8
Layer 1
10
16.595420
20
9.353951
70
0
0
VERTEX
8
Layer 1
10
16.964734
20
8.940540
70
0
0
VERTEX
8
Layer 1
10
17.515950
20
8.797224
70
0
0
VERTEX
8
Layer 1
10
18.083702
20
8.957076
70
0
0
VERTEX
8
Layer 1
10
18.359310
20
9.392536
70
0
0
VERTEX
8
Layer 1
10
18.750673
20
9.392536
70
0
0
VERTEX
8
Layer 1
10
18.342773
20
8.720053
70
0
0
VERTEX
8
Layer 1
10
17.515950
20
8.483031
70
0
0
VERTEX
8
Layer 1
10
17.515950
20
8.483031
70
0
0
SEQEND
8
Layer 1
0
POLYLINE
8
Layer 1
62
7
70
1
10
0.000000
20
0.000000
66
1
0
VERTEX
8
Layer 1
10
22.642993
20
8.532640
70
0
0
VERTEX
8
Layer 1
10
22.642993
20
11.492668
70
0
0
VERTEX
8
Layer 1
10
22.995771
20
11.492668
70
0
0
VERTEX
8
Layer 1
10
22.995771
20
10.186287
70
0
0
VERTEX
8
Layer 1
10
24.533663
20
10.186287
70
0
0
VERTEX
8
Layer 1
10
24.533663
20
11.492668
70
0
0
VERTEX
8
Layer 1
10
24.886440
20
11.492668
70
0
0
VERTEX
8
Layer 1
10
24.886440
20
8.532640
70
0
0
VERTEX
8
Layer 1
10
24.533663
20
8.532640
70
0
0
VERTEX
8
Layer 1
10
24.533663
20
9.894143
70
0
0
VERTEX
8
Layer 1
10
22.995771
20
9.894143
70
0
0
VERTEX
8
Layer 1
10
22.995771
20
8.532640
70
0
0
VERTEX
8
Layer 1
10
22.642993
20
8.532640
70
0
0
SEQEND
8
Layer 1
0
POLYLINE
8
Layer 1
62
7
70
1
10
0.000000
20
0.000000
66
1
0
VERTEX
8
Layer 1
10
28.704780
20
8.532640
70
0
0
VERTEX
8
Layer 1
10
29.796187
20
11.492668
70
0
0
VERTEX
8
Layer 1
10
30.171013
20
11.492668
70
0
0
VERTEX
8
Layer 1
10
31.256908
20
8.532640
70
0
0
VERTEX
8
Layer 1
10
30.882081
20
8.532640
70
0
0
VERTEX
8
Layer 1
10
30.611986
20
9.293318
70
0
0
VERTEX
8
Layer 1
10
29.349702
20
9.293318
70
0
0
VERTEX
8
Layer 1
10
29.079606
20
8.532640
70
0
0
VERTEX
8
Layer 1
10
28.704780
20
8.532640
70
0
0
SEQEND
8
Layer 1
0
POLYLINE
8
Layer 1
62
7
70
1
10
0.000000
20
0.000000
66
1
0
VERTEX
8
Layer 1
10
29.459945
20
9.579950
70
0
0
VERTEX
8
Layer 1
10
30.507255
20
9.579950
70
0
0
VERTEX
8
Layer 1
10
29.983600
20
11.046183
70
0
0
VERTEX
8
Layer 1
10
29.459945
20
9.579950
70
0
0
SEQEND
8
Layer 1
0
POLYLINE
8
Layer 1
62
7
70
1
10
0.000000
20
0.000000
66
1
0
VERTEX
8
Layer 1
10
36.422959
20
8.483031
70
0
0
VERTEX
8
Layer 1
10
35.656769
20
8.675956
70
0
0
VERTEX
8
Layer 1
10
35.144139
20
9.210635
70
0
0
VERTEX
8
Layer 1
10
34.962238
20
10.009898
70
0
0
VERTEX
8
Layer 1
10
35.144139
20
10.809161
70
0
0
VERTEX
8
Layer 1
10
35.656769
20
11.349352
70
0
0
VERTEX
8
Layer 1
10
36.422959
20
11.542277
70
0
0
VERTEX
8
Layer 1
10
37.183637
20
11.349352
70
0
0
VERTEX
8
Layer 1
10
37.696267
20
10.809161
70
0
0
VERTEX
8
Layer 1
10
37.878168
20
10.009898
70
0
0
VERTEX
8
Layer 1
10
37.696267
20
9.210635
70
0
0
VERTEX
8
Layer 1
10
37.183637
20
8.675956
70
0
0
VERTEX
8
Layer 1
10
36.422959
20
8.483031
70
0
0
VERTEX
8
Layer 1
10
36.422959
20
8.483031
70
0
0
SEQEND
8
Layer 1
0
POLYLINE
8
Layer 1
62
7
70
1
10
0.000000
20
0.000000
66
1
0
VERTEX
8
Layer 1
10
36.422959
20
8.797224
70
0
0
VERTEX
8
Layer 1
10
36.990711
20
8.940540
70
0
0
VERTEX
8
Layer 1
10
37.376562
20
9.353951
70
0
0
VERTEX
8
Layer 1
10
37.514366
20
10.009898
70
0
0
VERTEX
8
Layer 1
10
37.376562
20
10.660332
70
0
0
VERTEX
8
Layer 1
10
36.990711
20
11.079256
70
0
0
VERTEX
8
Layer 1
10
36.422959
20
11.228084
70
0
0
VERTEX
8
Layer 1
10
35.849695
20
11.079256
70
0
0
VERTEX
8
Layer 1
10
35.463844
20
10.660332
70
0
0
VERTEX
8
Layer 1
10
35.326040
20
10.009898
70
0
0
VERTEX
8
Layer 1
10
35.463844
20
9.353951
70
0
0
VERTEX
8
Layer 1
10
35.849695
20
8.940540
70
0
0
VERTEX
8
Layer 1
10
36.422959
20
8.797224
70
0
0
VERTEX
8
Layer 1
10
36.422959
20
8.797224
70
0
0
SEQEND
8
Layer 1
0
POLYLINE
8
Layer 1
62
7
70
1
10
0.000000
20
0.000000
66
1
0
VERTEX
8
Layer 1
10
42.713472
20
8.483031
70
0
0
VERTEX
8
Layer 1
10
42.145720
20
8.598786
70
0
0
VERTEX
8
Layer 1
10
41.770893
20
8.929515
70
0
0
VERTEX
8
Layer 1
10
41.644113
20
9.420097
70
0
0
VERTEX
8
Layer 1
10
42.013428
20
9.420097
70
0
0
VERTEX
8
Layer 1
10
42.090598
20
9.100392
70
0
0
VERTEX
8
Layer 1
10
42.327621
20
8.868882
70
0
0
VERTEX
8
Layer 1
10
42.713472
20
8.780687
70
0
0
VERTEX
8
Layer 1
10
43.176493
20
8.924003
70
0
0
VERTEX
8
Layer 1
10
43.341857
20
9.287805
70
0
0
VERTEX
8
Layer 1
10
43.264687
20
9.568925
70
0
0
VERTEX
8
Layer 1
10
43.060737
20
9.745314
70
0
0
VERTEX
8
Layer 1
10
42.763081
20
9.861070
70
0
0
VERTEX
8
Layer 1
10
42.415815
20
9.976825
70
0
0
VERTEX
8
Layer 1
10
41.908697
20
10.268969
70
0
0
VERTEX
8
Layer 1
10
41.743332
20
10.731990
70
0
0
VERTEX
8
Layer 1
10
41.853575
20
11.150914
70
0
0
VERTEX
8
Layer 1
10
42.178792
20
11.437546
70
0
0
VERTEX
8
Layer 1
10
42.674887
20
11.542277
70
0
0
VERTEX
8
Layer 1
10
43.165468
20
11.437546
70
0
0
VERTEX
8
Layer 1
10
43.490686
20
11.145402
70
0
0
VERTEX
8
Layer 1
10
43.611953
20
10.720966
70
0
0
VERTEX
8
Layer 1
10
43.242639
20
10.720966
70
0
0
VERTEX
8
Layer 1
10
43.176493
20
10.963501
70
0
0
VERTEX
8
Layer 1
10
42.983567
20
11.161939
70
0
0
VERTEX
8
Layer 1
10
42.663862
20
11.239109
70
0
0
VERTEX
8
Layer 1
10
42.266987
20
11.117841
70
0
0
VERTEX
8
Layer 1
10
42.112647
20
10.765063
70
0
0
VERTEX
8
Layer 1
10
42.217378
20
10.472919
70
0
0
VERTEX
8
Layer 1
10
42.520546
20
10.307554
70
0
0
VERTEX
8
Layer 1
10
42.972543
20
10.158726
70
0
0
VERTEX
8
Layer 1
10
43.347370
20
9.976825
70
0
0
VERTEX
8
Layer 1
10
43.611953
20
9.717754
70
0
0
VERTEX
8
Layer 1
10
43.711172
20
9.304342
70
0
0
VERTEX
8
Layer 1
10
43.600929
20
8.907467
70
0
0
VERTEX
8
Layer 1
10
43.264687
20
8.598786
70
0
0
VERTEX
8
Layer 1
10
42.713472
20
8.483031
70
0
0
VERTEX
8
Layer 1
10
42.713472
20
8.483031
70
0
0
SEQEND
8
Layer 1
0
POLYLINE
8
Layer 1
62
7
70
1
10
0.000000
20
0.000000
66
1
0
VERTEX
8
Layer 1
10
48.034065
20
9.431121
70
0
0
VERTEX
8
Layer 1
10
47.780506
20
9.497267
70
0
0
VERTEX
8
Layer 1
10
47.593093
20
9.684681
70
0
0
VERTEX
8
Layer 1
10
47.526947
20
9.938240
70
0
0
VERTEX
8
Layer 1
10
47.593093
20
10.197311
70
0
0
VERTEX
8
Layer 1
10
47.780506
20
10.384725
70
0
0
VERTEX
8
Layer 1
10
48.034065
20
10.450870
70
0
0
VERTEX
8
Layer 1
10
48.293137
20
10.384725
70
0
0
VERTEX
8
Layer 1
10
48.475038
20
10.197311
70
0
0
VERTEX
8
Layer 1
10
48.541184
20
9.938240
70
0
0
VERTEX
8
Layer 1
10
48.475038
20
9.684681
70
0
0
VERTEX
8
Layer 1
10
48.293137
20
9.497267
70
0
0
VERTEX
8
Layer 1
10
48.034065
20
9.431121
70
0
0
VERTEX
8
Layer 1
10
48.034065
20
9.431121
70
0
0
SEQEND
8
Layer 1
0
POLYLINE
8
Layer 1
62
7
70
1
10
0.000000
20
0.000000
66
1
0
VERTEX
8
Layer 1
10
53.638234
20
8.483031
70
0
0
VERTEX
8
Layer 1
10
52.960238
20
8.675956
70
0
0
VERTEX
8
Layer 1
10
52.519266
20
9.210635
70
0
0
VERTEX
8
Layer 1
10
52.370438
20
10.009898
70
0
0
VERTEX
8
Layer 1
10
52.519266
20
10.809161
70
0
0
VERTEX
8
Layer 1
10
52.960238
20
11.349352
70
0
0
VERTEX
8
Layer 1
10
53.638234
20
11.542277
70
0
0
VERTEX
8
Layer 1
10
54.310717
20
11.349352
70
0
0
VERTEX
8
Layer 1
10
54.746177
20
10.809161
70
0
0
VERTEX
8
Layer 1
10
54.900517
20
10.009898
70
0
0
VERTEX
8
Layer 1
10
54.746177
20
9.210635
70
0
0
VERTEX
8
Layer 1
10
54.310717
20
8.675956
70
0
0
VERTEX
8
Layer 1
10
53.638234
20
8.483031
70
0
0
VERTEX
8
Layer 1
10
53.638234
20
8.483031
70
0
0
SEQEND
8
Layer 1
0
POLYLINE
8
Layer 1
62
7
70
1
10
0.000000
20
0.000000
66
1
0
VERTEX
8
Layer 1
10
53.638234
20
8.797224
70
0
0
VERTEX
8
Layer 1
10
54.101255
20
8.940540
70
0
0
VERTEX
8
Layer 1
10
54.420960
20
9.353951
70
0
0
VERTEX
8
Layer 1
10
54.542227
20
10.009898
70
0
0
VERTEX
8
Layer 1
10
54.420960
20
10.660332
70
0
0
VERTEX
8
Layer 1
10
54.101255
20
11.079256
70
0
0
VERTEX
8
Layer 1
10
53.638234
20
11.228084
70
0
0
VERTEX
8
Layer 1
10
53.175212
20
11.079256
70
0
0
VERTEX
8
Layer 1
10
52.849995
20
10.660332
70
0
0
VERTEX
8
Layer 1
10
52.734240
20
10.009898
70
0
0
VERTEX
8
Layer 1
10
52.849995
20
9.353951
70
0
0
VERTEX
8
Layer 1
10
53.175212
20
8.940540
70
0
0
VERTEX
8
Layer 1
10
53.638234
20
8.797224
70
0
0
VERTEX
8
Layer 1
10
53.638234
20
8.797224
70
0
0
SEQEND
8
Layer 1
0
POLYLINE
8
Layer 1
62
7
70
1
10
0.000000
20
0.000000
66
1
0
VERTEX
8
Layer 1
10
59.946534
20
8.483031
70
0
0
VERTEX
8
Layer 1
10
59.268538
20
8.675956
70
0
0
VERTEX
8
Layer 1
10
58.827566
20
9.210635
70
0
0
VERTEX
8
Layer 1
10
58.678738
20
10.009898
70
0
0
VERTEX
8
Layer 1
10
58.827566
20
10.809161
70
0
0
VERTEX
8
Layer 1
10
59.268538
20
11.349352
70
0
0
VERTEX
8
Layer 1
10
59.946534
20
11.542277
70
0
0
VERTEX
8
Layer 1
10
60.619017
20
11.349352
70
0
0
VERTEX
8
Layer 1
10
61.054477
20
10.809161
70
0
0
VERTEX
8
Layer 1
10
61.208817
20
10.009898
70
0
0
VERTEX
8
Layer 1
10
61.054477
20
9.210635
70
0
0
VERTEX
8
Layer 1
10
60.619017
20
8.675956
70
0
0
VERTEX
8
Layer 1
10
59.946534
20
8.483031
70
0
0
VERTEX
8
Layer 1
10
59.946534
20
8.483031
70
0
0
SEQEND
8
Layer 1
0
POLYLINE
8
Layer 1
62
7
70
1
10
0.000000
20
0.000000
66
1
0
VERTEX
8
Layer 1
10
59.946534
20
8.797224
70
0
0
VERTEX
8
Layer 1
10
60.409555
20
8.940540
70
0
0
VERTEX
8
Layer 1
10
60.729260
20
9.353951
70
0
0
VERTEX
8
Layer 1
10
60.850527
20
10.009898
70
0
0
VERTEX
8
Layer 1
10
60.729260
20
10.660332
70
0
0
VERTEX
8
Layer 1
10
60.409555
20
11.079256
70
0
0
VERTEX
8
Layer 1
10
59.946534
20
11.228084
70
0
0
VERTEX
8
Layer 1
10
59.483512
20
11.079256
70
0
0
VERTEX
8
Layer 1
10
59.158295
20
10.660332
70
0
0
VERTEX
8
Layer 1
10
59.042540
20
10.009898
70
0
0
VERTEX
8
Layer 1
10
59.158295
20
9.353951
70
0
0
VERTEX
8
Layer 1
10
59.483512
20
8.940540
70
0
0
VERTEX
8
Layer 1
10
59.946534
20
8.797224
70
0
0
VERTEX
8
Layer 1
10
59.946534
20
8.797224
70
0
0
SEQEND
8
Layer 1
0
POLYLINE
8
Layer 1
62
7
70
1
10
0.000000
20
0.000000
66
1
0
VERTEX
8
Layer 1
10
65.395037
20
8.532640
70
0
0
VERTEX
8
Layer 1
10
65.395037
20
11.095793
70
0
0
VERTEX
8
Layer 1
10
64.915480
20
10.991062
70
0
0
VERTEX
8
Layer 1
10
64.915480
20
11.233597
70
0
0
VERTEX
8
Layer 1
10
65.510792
20
11.492668
70
0
0
VERTEX
8
Layer 1
10
65.753327
20
11.492668
70
0
0
VERTEX
8
Layer 1
10
65.753327
20
8.532640
70
0
0
VERTEX
8
Layer 1
10
65.395037
20
8.532640
70
0
0
SEQEND
8
Layer 1
0
POLYLINE
8
Layer 1
62
7
70
1
10
0.000000
20
0.000000
66
1
0
VERTEX
8
Layer 1
10
69.709583
20
8.532640
70
0
0
VERTEX
8
Layer 1
10
69.709583
20
8.780687
70
0
0
VERTEX
8
Layer 1
10
70.277336
20
9.260245
70
0
0
VERTEX
8
Layer 1
10
70.756893
20
9.739802
70
0
0
VERTEX
8
Layer 1
10
71.087623
20
10.202823
70
0
0
VERTEX
8
Layer 1
10
71.208890
20
10.643796
70
0
0
VERTEX
8
Layer 1
10
71.153768
20
10.935940
70
0
0
VERTEX
8
Layer 1
10
70.982892
20
11.156426
70
0
0
VERTEX
8
Layer 1
10
70.663187
20
11.239109
70
0
0
VERTEX
8
Layer 1
10
70.337969
20
11.150914
70
0
0
VERTEX
8
Layer 1
10
70.139532
20
10.919404
70
0
0
VERTEX
8
Layer 1
10
70.073386
20
10.610723
70
0
0
VERTEX
8
Layer 1
10
69.731632
20
10.610723
70
0
0
VERTEX
8
Layer 1
10
69.852900
20
11.112329
70
0
0
VERTEX
8
Layer 1
10
70.189141
20
11.432034
70
0
0
VERTEX
8
Layer 1
10
70.668699
20
11.542277
70
0
0
VERTEX
8
Layer 1
10
71.308109
20
11.321791
70
0
0
VERTEX
8
Layer 1
10
71.497934
20
11.045839
70
0
0
VERTEX
8
Layer 1
10
71.561668
20
10.660332
70
0
0
VERTEX
8
Layer 1
10
71.429376
20
10.136677
70
0
0
VERTEX
8
Layer 1
10
71.098647
20
9.646096
70
0
0
VERTEX
8
Layer 1
10
70.663187
20
9.199611
70
0
0
VERTEX
8
Layer 1
10
70.233238
20
8.830296
70
0
0
VERTEX
8
Layer 1
10
71.666399
20
8.830296
70
0
0
VERTEX
8
Layer 1
10
71.666399
20
8.532640
70
0
0
VERTEX
8
Layer 1
10
69.709583
20
8.532640
70
0
0
SEQEND
8
Layer 1
0
POLYLINE
8
Layer 1
62
7
70
1
10
0.000000
20
0.000000
66
1
0
VERTEX
8
Layer 1
10
75.848237
20
8.532640
70
0
0
VERTEX
8
Layer 1
10
75.848237
20
11.095793
70
0
0
VERTEX
8
Layer 1
10
75.368680
20
10.991062
70
0
0
VERTEX
8
Layer 1
10
75.368680
20
11.233597
70
0
0
VERTEX
8
Layer 1
10
75.963992
20
11.492668
70
0
0
VERTEX
8
Layer 1
10
76.206527
20
11.492668
70
0
0
VERTEX
8
Layer 1
10
76.206527
20
8.532640
70
0
0
VERTEX
8
Layer 1
10
75.848237
20
8.532640
70
0
0
SEQEND
8
Layer 1
 0 
ENDSEC
 0 
EOF